M48
;Layer_Color=9474304
;FILE_FORMAT=2:5
INCH,TZ
;TYPE=PLATED
T1F00S00C0.01181
T2F00S00C0.02362
T3F00S00C0.02559
T4F00S00C0.02756
T5F00S00C0.03000
T6F00S00C0.03543
T7F00S00C0.03937
T8F00S00C0.04016
T9F00S00C0.04134
T10F00S00C0.04331
;TYPE=NON_PLATED
T11F00S00C0.12598
%
T01
X3076Y11417
X9227
X15379
X21531
X27682
X33834
X39985
X46137
X52288
Y38189
X46137
X39985
X33834
X27682
X21531
X15379
X9227
X3076
X58440
X64592
X70743
X76895
X83046
X89198
X95359Y37339
X101501
X107653Y38189
X113804
X119956
X126107
X132259
X138319Y39075
X144460Y39847
X153839Y40749
X162820Y40650
X169168Y39155
X175320Y38189
X181472
X187623Y38028
X193775Y37363
X201806Y37894
X206078Y38028
X212229Y39394
X199350Y33630
X201806Y11123
X206078Y11256
X212229Y12622
X199350Y6859
X193775Y10591
X187623Y11256
X181472Y11417
X175320
X169168Y12383
X162820Y13878
X153839Y13977
X144460Y13075
X138319Y12304
X132259Y11417
X126107
X119956
X113804
X107653
X101501Y10567
X95359
X89198Y11417
X83046
X76895
X70743
X64592
X58440
X218381Y12622
X224731Y12871
X230684Y13871
X238344Y12926
X242987Y11417
X249139
X255290
X261442
X267594
X273745
X279897
X286048
X284707Y6656
X290969Y6594
X292200Y10498
X298351
X298647Y6594
X304503Y11417
X310655
X316806
X322958
X329109
X335261
X341412
X347564
X353716
X359867
X366019
Y38189
X359867
X353716
X347564
X341412
X335261
X329109
X322958
X316806
X310655
X304503
X298351Y37270
X298647Y33366
X290969
X292200Y37270
X286048Y38189
X284707Y33428
X279897Y38189
X273745
X267594
X261442
X255290
X249139
X242987
X238344Y39698
X230684Y40643
X224731Y39643
X218381Y39394
X372170Y38189
X378322
X384473
X390625
Y11417
X384473
X378322
X372170
Y65748
X378322
X384473
X390625
Y93307
X384473
X378322
X372170
X366019
X359867
X353716
X347564
X341412
X335261
X329109
X322958
X316806
X310655
X304503
X298351Y92388
X298647Y88484
X290969
X292200Y92388
X286048Y93307
X284707Y88546
X279897Y93307
X273745
X267594
X261442
X255290
X249139
X242987
X238344Y94816
X230684Y95761
X224731Y94761
X218381Y94512
X220472Y116142
X220079Y146575
X212992Y155512
X216535Y170866
X230315Y170866
X230709Y165354
X263730Y149065
X269488Y142126
X267594Y65748
X261442
X255290
X249139
X242987
X238344Y67257
X230684Y68202
X224731Y67202
X218381Y66953
X273745Y65748
X279897
X286048
X284707Y60987
X290969Y60925
X292200Y64829
X298351
X298647Y60925
X304503Y65748
X310655
X316806
X322958
X329109
X335261
X341412
X347564
X353716
X359867
X366019
X212229Y66953
X206078Y65587
X201806Y65453
X199350Y61190
X193775Y64922
X187623Y65587
X181472Y65748
X175320
X169168Y66714
X162820Y68209
X153839Y68308
X144460Y67406
X138319Y66634
X132259Y65748
X126107
X119956
X113804
X107653
X101501Y64898
X95359
X89198Y65748
X83046
X76895
X70743
X64592
X58440
Y93307
X64592
X70743
X76895
X83046
X89198
X95359Y92457
X101501
X107653Y93307
X113804
X119956
X126107
X132259
X138319Y94194
X144460Y94965
X153839Y95867
X162820Y95768
X169168Y94273
X175320Y93307
X181472
X187623Y93146
X193775Y92481
X201806Y93012
X206078Y93146
X212229Y94512
X199350Y88749
X210795Y118504
X177067Y116535
X175603Y151497
X171260Y155118
Y158268
X170089Y162793
X162992Y160630
X159055Y159436
X157087Y164428
X159449Y167323
X152756Y165354
X146040Y167739
X143307Y167717
X138583Y172047
X147997Y160851
X148031Y157899
X147637Y153937
X147638Y150787
X152905Y152118
X154745Y149585
X151725Y148189
X155905Y138583
X145694Y137008
X146148Y133477
X139902Y132887
X137379Y134669
X132677Y133477
X129134Y134565
X134646Y146161
X127559Y151181
X119882Y160679
X108658Y161104
X109842Y164173
X100394Y170866
X93701Y170866
X87795
X79527
X70866
X62205
X72047Y188583
X81496
X146640Y188373
X148425Y183858
X145288Y155875
X145669Y126246
X141732Y124265
X178937Y158661
X184646Y162992
X199606Y161024
X201575Y170473
X197638Y194882
X185827Y191339
X173044Y170473
X192913Y146457
X63189Y131483
X48031Y127165
X37795Y131496
X33071Y126772
X33834Y93307
X27682
X21531
X15379
X9227
X3076
Y65748
X9227
X15379
X21531
X27682
X33834
X39985
X46137
X52288
Y93307
X46137
X39985
X44882Y170866
X53543
X48031Y223622
X37795Y227953
X33071Y223228
X44882Y267323
X53543
X48031Y320079
X37795Y324410
X33071Y319685
X44882Y363780
X53543
X62205
X70866
X79527
X87795
X93701
X100394Y363780
X109842Y357086
X108658Y354017
X119882Y353592
X127559Y344094
X134646Y339075
X137379Y327582
X139902Y325800
X146148Y326391
X145694Y329921
X145669Y319159
X141732Y317178
X132677Y326391
X129134Y327478
X155905Y331496
X154745Y342498
X152905Y345031
X151725Y341102
X147638Y343701
X147637Y346850
X145288Y348788
X148031Y350813
X147997Y353764
X146040Y360653
X143307Y360630
X138583Y364961
X152756Y358268
X157087Y357341
X159449Y360236
X159055Y352350
X162992Y353543
X170089Y355706
X171260Y351181
Y348031
X175603Y344411
X178937Y351575
X184646Y355906
X199606Y353937
X201575Y363386
X173044
X192913Y339370
X177067Y309449
X185827Y287795
X197638Y291339
X201575Y266929
X199606Y257480
X184646Y259449
X178937Y255118
X171260Y254724
Y251575
X175603Y247954
X170089Y259250
X162992Y257087
X159055Y255893
X157087Y260884
X159449Y263780
X152756Y261811
X146040Y264196
X143307Y264173
X138583Y268504
X147997Y257307
X148031Y254356
X147637Y250394
X147638Y247244
X152905Y248575
X154745Y246042
X151725Y244645
X155905Y235039
X145694Y233465
X146148Y229934
X139902Y229343
X137379Y231125
X132677Y229934
X129134Y231021
X134646Y242618
X127559Y247638
X119882Y257136
X108658Y257560
X109842Y260630
X100394Y267323
X93701Y267323
X87795
X79527
X70866
X62205
X72047Y285039
X81496
X63189Y324397
Y227940
X141732Y220722
X145669Y222703
X145288Y252331
X148425Y280315
X146640Y284829
X173044Y266929
X192913Y242913
X177067Y212992
X210795Y214961
Y311417
X220472Y309055
X220079Y339488
X212992Y348425
X216535Y363780
X230315Y363780
X230709Y358268
X263730Y341978
X269488Y335039
X263730Y245522
X269488Y238583
X220079Y243032
X212992Y251969
X216535Y267323
X230315Y267323
X230709Y261811
X220472Y212598
X197638Y387795
X185827Y384252
X146640Y381286
X148425Y376772
X81496Y381496
X72047
T02
X188583Y118898
X206932Y153350
X154331Y170866
X188583Y215354
X206932Y249807
X154331Y267323
X188583Y311811
X206932Y346263
X154331Y363780
T03
X225275Y117126
X251102
X252087Y166339
X226260
X225275Y213583
X251102
X252087Y262795
X226260
X225275Y310039
X251102
X252087Y359252
X226260
T04
X370000Y112126
Y117126
Y122126
Y127126
X375000
X380000
X385000
X390000
Y132126
X385000
X380000
X375000
X370000
Y137126
Y142126
X375000
X380000
X385000
X390000
Y147126
X385000
X380000
X375000
X370000
Y152126
X375000
X380000
X385000
X390000
Y157126
Y162126
Y167126
Y172126
X385000
X380000
X375000
X370000
Y177126
X375000
X380000
X385000
X390000
Y182126
X385000
X380000
X375000
X370000
Y187126
Y192126
Y197126
X375000
X380000
X385000
X390000
Y192126
X385000
X380000
X375000
Y187126
X380000
X385000
X390000
X385000Y167126
X380000
X375000
X370000
Y162126
X375000
X380000
X385000
Y157126
X380000
X375000
X370000
X375000Y137126
X380000
X385000
X390000
Y122126
X385000
X380000
X375000
Y117126
X380000
X385000
X390000
Y112126
X385000
X380000
X375000
X365000
Y117126
Y122126
Y127126
X360000
X355000
X350000
X345000
X340000
X335000
X330000
X325000
Y132126
X330000
X335000
X340000
X345000
X350000
X355000
X360000
X365000
Y137126
Y142126
X360000
X355000
X350000
X345000
X340000
X335000
X330000
X325000
Y147126
X330000
X335000
X340000
X345000
X350000
X355000
X360000
X365000
Y152126
X360000
X355000
X350000
X345000
X340000
X335000
X330000
X325000
Y157126
Y162126
Y167126
Y172126
X330000
X335000
X340000
X345000
X350000
X355000
X360000
X365000
Y177126
X360000
X355000
X350000
X345000
X340000
X335000
X330000
X325000
Y182126
X330000
X335000
X340000
X345000
X350000
X355000
X360000
X365000
Y187126
Y192126
Y197126
X360000
X355000
X350000
X345000
X340000
X335000
X330000
X325000
Y192126
X330000
X335000
X340000
X345000
X350000
X355000
X360000
Y187126
X355000
X350000
X345000
X340000
X335000
X330000
X325000
X330000Y167126
X335000
X340000
X345000
X350000
X355000
X360000
X365000
Y162126
X360000
X355000
X350000
X345000
X340000
X335000
X330000
Y157126
X335000
X340000
X345000
X350000
X355000
X360000
X365000
X360000Y137126
X355000
X350000
X345000
X340000
X335000
X330000
X325000
Y122126
X330000
X335000
X340000
X345000
X350000
X355000
X360000
Y117126
X355000
X350000
X345000
X340000
X335000
X330000
X325000
Y112126
X330000
X335000
X340000
X345000
X350000
X355000
X360000
T05
X156850Y3740
X161850
X166850
X171850
X176850
X181850
X186850
X191850
X196850
X201850
X206850
X211850
Y30512
X206850
X201850
X196850
X191850
X186850
X181850
X176850
X171850
X166850
X161850
X156850
X216850
X221850
X226850
X231850
Y3740
X226850
X221850
X216850
Y58071
X221850
X226850
X231850
Y85630
X226850
X221850
X216850
X211850
X206850
X201850
X196850
X191850
X186850
X181850
X176850
X171850
X166850
X161850
X156850
Y58071
X161850
X166850
X171850
X176850
X181850
X186850
X191850
X196850
X201850
X206850
X211850
X107047Y157087
X102047
X97047
X92047
X87047
X82047
X77047
X72047
X67047
X62047
X57047
X57165Y177165
X62165
X67165
X72165
X77165
X82165
X87165
X92165
X97165
X102165
X107165
X52165
X47165
X42165
X37165
X32165
X32047Y157087
X37047
X42047
X47047
X52047
Y253543
X47047
X42047
X37047
X32047
X32165Y273622
X37165
X42165
X47165
X52165
X52047Y350000
X47047
X42047
X37047
X32047
X57047
X62047
X67047
X72047
X77047
X82047
X87047
X92047
X97047
X102047
X107047
X107165Y273622
X102165
X97165
X92165
X87165
X82165
X77165
X72165
X67165
X62165
X57165
X57047Y253543
X62047
X67047
X72047
X77047
X82047
X87047
X92047
X97047
X102047
X107047
X107165Y370079
X102165
X97165
X92165
X87165
X82165
X77165
X72165
X67165
X62165
X57165
X52165
X47165
X42165
X37165
X32165
T06
X168307Y129528
X182087
Y225984
X168307
Y322441
X182087
T07
X198425Y150787
Y247244
Y343701
T08
X379921Y209567
X337677Y232283
X327677
Y281496
X337677
X337677Y330709
X327677
X379921Y329803
Y319803
X379921Y302244
Y292244
Y274685
Y264685
Y247126
Y237126
X379921Y219567
Y347362
Y357362
X379921Y376890
Y386890
X337677Y379921
X327677
T09
X362205Y209488
Y219488
X362205Y237047
Y247047
Y264606
Y274606
Y292165
Y302165
X362205Y319724
Y329724
Y347284
Y357283
X337756Y362205
X327756
X327756Y312992
X337756
X337756Y263779
X327756
Y214567
X337756
X362205Y376811
Y386811
T10
X219606Y183465
X229606
X279527Y157638
Y147638
Y137638
Y127638
X209606Y183465
X199606
X177323Y192520
X167323
X157323
Y288976
X167323
X177323
X199606Y279921
X209606
X219606
X229606
X279527Y254095
Y244094
Y234095
Y224095
Y320551
Y330551
Y340551
Y350551
X229606Y376378
X219606
X209606
X199606
X177323Y385433
X167323
X157323
T11
X303150Y124016
Y187008
X11811
Y124016
Y220473
Y283465
Y316929
X303150
Y283465
Y220473
Y379921
X11811
M30
