G04*
G04 #@! TF.GenerationSoftware,Altium Limited,Altium Designer,20.1.14 (287)*
G04*
G04 Layer_Color=65535*
%FSLAX25Y25*%
%MOIN*%
G70*
G04*
G04 #@! TF.SameCoordinates,DA88C76E-B398-4153-8C2D-C889442453F1*
G04*
G04*
G04 #@! TF.FilePolarity,Positive*
G04*
G01*
G75*
%ADD12C,0.01000*%
%ADD58C,0.00669*%
%ADD59C,0.00787*%
%ADD60C,0.01378*%
%ADD61C,0.00984*%
%ADD62C,0.00630*%
%ADD63C,0.00591*%
D12*
X198697Y322442D02*
X194698D01*
X196697Y320443D02*
Y324441D01*
X198697Y225985D02*
X194698D01*
X196697Y223986D02*
Y227985D01*
X198697Y129528D02*
X194698D01*
X196697Y127529D02*
Y131528D01*
D58*
X5321Y26180D02*
X4140D01*
X4730D01*
Y23229D01*
X4140Y22638D01*
X3550D01*
X2959Y23229D01*
X6502Y26180D02*
Y22638D01*
X8863D01*
X12405Y25590D02*
X11815Y26180D01*
X10634D01*
X10044Y25590D01*
Y23229D01*
X10634Y22638D01*
X11815D01*
X12405Y23229D01*
X15947Y26180D02*
X14767D01*
X15357D01*
Y23229D01*
X14767Y22638D01*
X14176D01*
X13586Y23229D01*
X17128Y26180D02*
Y22638D01*
X19489D01*
X23032Y25590D02*
X22441Y26180D01*
X21261D01*
X20670Y25590D01*
Y23229D01*
X21261Y22638D01*
X22441D01*
X23032Y23229D01*
X26574Y26180D02*
X25393D01*
X25984D01*
Y23229D01*
X25393Y22638D01*
X24803D01*
X24212Y23229D01*
X27755Y26180D02*
Y22638D01*
X30116D01*
X33658Y25590D02*
X33068Y26180D01*
X31887D01*
X31297Y25590D01*
Y23229D01*
X31887Y22638D01*
X33068D01*
X33658Y23229D01*
X37200Y26180D02*
X36020D01*
X36610D01*
Y23229D01*
X36020Y22638D01*
X35429D01*
X34839Y23229D01*
X38381Y26180D02*
Y22638D01*
X40742D01*
X44285Y25590D02*
X43694Y26180D01*
X42514D01*
X41923Y25590D01*
Y23229D01*
X42514Y22638D01*
X43694D01*
X44285Y23229D01*
X343175Y227362D02*
X339896D01*
X324803Y228018D02*
Y224738D01*
X326443Y226378D02*
X323163D01*
X322835Y206364D02*
Y203084D01*
X324475Y204724D02*
X321195D01*
X343175Y276575D02*
X339896D01*
X324803Y277230D02*
Y273951D01*
X326443Y275590D02*
X323163D01*
X322835Y255577D02*
Y252297D01*
X324475Y253937D02*
X321195D01*
X343175Y325787D02*
X339896D01*
X324803Y326443D02*
Y323163D01*
X326443Y324803D02*
X323163D01*
X322835Y304789D02*
Y301510D01*
X324475Y303150D02*
X321195D01*
X343175Y375000D02*
X339896D01*
X324803Y375656D02*
Y372376D01*
X326443Y374016D02*
X323163D01*
X322835Y354002D02*
Y350722D01*
X324475Y352362D02*
X321195D01*
X375000Y371392D02*
Y374671D01*
X375656Y389764D02*
X372376D01*
X374016Y388124D02*
Y391404D01*
X354002Y391732D02*
X350722D01*
X352362Y390092D02*
Y393372D01*
X375000Y341864D02*
Y345144D01*
X375656Y360236D02*
X372376D01*
X374016Y358596D02*
Y361876D01*
X354002Y362205D02*
X350722D01*
X352362Y360565D02*
Y363845D01*
X375000Y314305D02*
Y317585D01*
X375656Y332677D02*
X372376D01*
X374016Y331037D02*
Y334317D01*
X354002Y334646D02*
X350722D01*
X352362Y333006D02*
Y336286D01*
X375000Y286746D02*
Y290026D01*
X375656Y305118D02*
X372376D01*
X374016Y303478D02*
Y306758D01*
X354002Y307087D02*
X350722D01*
X352362Y305447D02*
Y308727D01*
X375000Y259187D02*
Y262467D01*
X375656Y277559D02*
X372376D01*
X374016Y275919D02*
Y279199D01*
X354002Y279527D02*
X350722D01*
X352362Y277888D02*
Y281167D01*
X375000Y231628D02*
Y234908D01*
X375656Y250000D02*
X372376D01*
X374016Y248360D02*
Y251640D01*
X354002Y251969D02*
X350722D01*
X352362Y250329D02*
Y253608D01*
X375000Y204069D02*
Y207349D01*
X375656Y222441D02*
X372376D01*
X374016Y220801D02*
Y224081D01*
X354002Y224410D02*
X350722D01*
X352362Y222770D02*
Y226049D01*
X243636Y372705D02*
X242816Y371885D01*
Y370245D01*
X243636Y369425D01*
X246915D01*
X247735Y370245D01*
Y371885D01*
X246915Y372705D01*
X245275D01*
Y371065D01*
X247735Y374344D02*
X242816D01*
X247735Y377624D01*
X242816D01*
Y379264D02*
X247735D01*
Y381724D01*
X246915Y382544D01*
X243636D01*
X242816Y381724D01*
Y379264D01*
X252120Y369425D02*
Y372705D01*
X250480Y371065D02*
X253760D01*
X249660Y377624D02*
Y374344D01*
X252120D01*
X251300Y375984D01*
Y376804D01*
X252120Y377624D01*
X253760D01*
X254580Y376804D01*
Y375164D01*
X253760Y374344D01*
X249660Y379264D02*
X252940D01*
X254580Y380904D01*
X252940Y382544D01*
X249660D01*
X256681Y369425D02*
Y371065D01*
Y370245D01*
X261601D01*
Y369425D01*
Y371065D01*
Y373524D02*
X256681D01*
X261601Y376804D01*
X256681D01*
X261601Y378444D02*
Y380084D01*
Y379264D01*
X256681D01*
X257501Y378444D01*
X263702Y369425D02*
Y371065D01*
Y370245D01*
X268622D01*
Y369425D01*
Y371065D01*
Y373524D02*
X263702D01*
X268622Y376804D01*
X263702D01*
X268622Y381724D02*
Y378444D01*
X265342Y381724D01*
X264522D01*
X263702Y380904D01*
Y379264D01*
X264522Y378444D01*
X297901Y336286D02*
X297081Y337105D01*
X295441D01*
X294621Y336286D01*
Y333006D01*
X295441Y332186D01*
X297081D01*
X297901Y333006D01*
Y334646D01*
X296261D01*
X299541Y332186D02*
Y337105D01*
X302821Y332186D01*
Y337105D01*
X304461D02*
Y332186D01*
X306921D01*
X307741Y333006D01*
Y336286D01*
X306921Y337105D01*
X304461D01*
X294621Y352854D02*
X297901D01*
X296261D01*
Y347934D01*
X299541Y352854D02*
X302821Y347934D01*
Y352854D02*
X299541Y347934D01*
X294621Y340060D02*
Y344980D01*
X297081D01*
X297901Y344160D01*
Y342520D01*
X297081Y341700D01*
X294621D01*
X296261D02*
X297901Y340060D01*
X299541Y344980D02*
X302821Y340060D01*
Y344980D02*
X299541Y340060D01*
X294621Y360728D02*
Y357448D01*
X296261Y355808D01*
X297901Y357448D01*
Y360728D01*
X302821Y359908D02*
X302001Y360728D01*
X300361D01*
X299541Y359908D01*
Y356628D01*
X300361Y355808D01*
X302001D01*
X302821Y356628D01*
X307741Y359908D02*
X306921Y360728D01*
X305281D01*
X304461Y359908D01*
Y356628D01*
X305281Y355808D01*
X306921D01*
X307741Y356628D01*
X53355Y312575D02*
Y316117D01*
X55127D01*
X55717Y315527D01*
Y314346D01*
X55127Y313755D01*
X53355D01*
X56898Y312575D02*
Y314936D01*
X58078Y316117D01*
X59259Y314936D01*
Y312575D01*
Y314346D01*
X56898D01*
X60440Y316117D02*
Y313755D01*
X61620Y312575D01*
X62801Y313755D01*
Y316117D01*
X66343D02*
X63982D01*
Y312575D01*
X66343D01*
X63982Y314346D02*
X65163D01*
X67524Y316117D02*
Y312575D01*
X69885D01*
X76970Y315527D02*
X76379Y316117D01*
X75199D01*
X74608Y315527D01*
Y314936D01*
X75199Y314346D01*
X76379D01*
X76970Y313755D01*
Y313165D01*
X76379Y312575D01*
X75199D01*
X74608Y313165D01*
X78150Y312575D02*
Y314936D01*
X79331Y316117D01*
X80512Y314936D01*
Y312575D01*
Y314346D01*
X78150D01*
X84054Y316117D02*
X81693D01*
Y314346D01*
X82873D01*
X81693D01*
Y312575D01*
X85235D02*
Y314936D01*
X86416Y316117D01*
X87596Y314936D01*
Y312575D01*
Y314346D01*
X85235D01*
X88777Y312575D02*
Y316117D01*
X90548D01*
X91138Y315527D01*
Y314346D01*
X90548Y313755D01*
X88777D01*
X89958D02*
X91138Y312575D01*
X98223D02*
X95861D01*
X98223Y314936D01*
Y315527D01*
X97632Y316117D01*
X96452D01*
X95861Y315527D01*
X99404D02*
X99994Y316117D01*
X101175D01*
X101765Y315527D01*
Y313165D01*
X101175Y312575D01*
X99994D01*
X99404Y313165D01*
Y315527D01*
X105307Y312575D02*
X102946D01*
X105307Y314936D01*
Y315527D01*
X104717Y316117D01*
X103536D01*
X102946Y315527D01*
X106488D02*
X107078Y316117D01*
X108259D01*
X108849Y315527D01*
Y313165D01*
X108259Y312575D01*
X107078D01*
X106488Y313165D01*
Y315527D01*
X47157Y310260D02*
Y307899D01*
X48337Y306718D01*
X49518Y307899D01*
Y310260D01*
X50699D02*
Y307308D01*
X51289Y306718D01*
X52470D01*
X53060Y307308D01*
Y310260D01*
X54241Y308489D02*
X56602D01*
X57783Y306718D02*
Y310260D01*
X58964Y309079D01*
X60145Y310260D01*
Y306718D01*
X63687Y310260D02*
X61325D01*
Y306718D01*
X63687D01*
X61325Y308489D02*
X62506D01*
X64867Y310260D02*
X67229D01*
X66048D01*
Y306718D01*
X70771Y310260D02*
X68410D01*
Y306718D01*
X70771D01*
X68410Y308489D02*
X69590D01*
X71952Y306718D02*
Y310260D01*
X73723D01*
X74313Y309670D01*
Y308489D01*
X73723Y307899D01*
X71952D01*
X73132D02*
X74313Y306718D01*
X79036Y310260D02*
Y306718D01*
X80807D01*
X81397Y307308D01*
Y309670D01*
X80807Y310260D01*
X79036D01*
X82578Y306718D02*
Y310260D01*
X84349D01*
X84940Y309670D01*
Y308489D01*
X84349Y307899D01*
X82578D01*
X83759D02*
X84940Y306718D01*
X86120Y310260D02*
X87301D01*
X86711D01*
Y306718D01*
X86120D01*
X87301D01*
X89072Y310260D02*
Y307899D01*
X90253Y306718D01*
X91434Y307899D01*
Y310260D01*
X94976D02*
X92614D01*
Y306718D01*
X94976D01*
X92614Y308489D02*
X93795D01*
X96157Y306718D02*
Y310260D01*
X97928D01*
X98518Y309670D01*
Y308489D01*
X97928Y307899D01*
X96157D01*
X97337D02*
X98518Y306718D01*
X103241Y310260D02*
Y307899D01*
X104421Y306718D01*
X105602Y307899D01*
Y310260D01*
X106783Y306718D02*
X107964D01*
X107373D01*
Y310260D01*
X106783Y309670D01*
X109735Y306718D02*
Y307308D01*
X110325D01*
Y306718D01*
X109735D01*
X112687Y309670D02*
X113277Y310260D01*
X114458D01*
X115048Y309670D01*
Y307308D01*
X114458Y306718D01*
X113277D01*
X112687Y307308D01*
Y309670D01*
X243636Y276248D02*
X242816Y275428D01*
Y273788D01*
X243636Y272968D01*
X246915D01*
X247735Y273788D01*
Y275428D01*
X246915Y276248D01*
X245275D01*
Y274608D01*
X247735Y277888D02*
X242816D01*
X247735Y281168D01*
X242816D01*
Y282807D02*
X247735D01*
Y285267D01*
X246915Y286087D01*
X243636D01*
X242816Y285267D01*
Y282807D01*
X252120Y272968D02*
Y276248D01*
X250480Y274608D02*
X253760D01*
X249660Y281168D02*
Y277888D01*
X252120D01*
X251300Y279528D01*
Y280347D01*
X252120Y281168D01*
X253760D01*
X254580Y280347D01*
Y278708D01*
X253760Y277888D01*
X249660Y282807D02*
X252940D01*
X254580Y284447D01*
X252940Y286087D01*
X249660D01*
X256681Y272968D02*
Y274608D01*
Y273788D01*
X261601D01*
Y272968D01*
Y274608D01*
Y277068D02*
X256681D01*
X261601Y280347D01*
X256681D01*
X261601Y281987D02*
Y283627D01*
Y282807D01*
X256681D01*
X257501Y281987D01*
X263702Y272968D02*
Y274608D01*
Y273788D01*
X268622D01*
Y272968D01*
Y274608D01*
Y277068D02*
X263702D01*
X268622Y280347D01*
X263702D01*
X268622Y285267D02*
Y281987D01*
X265342Y285267D01*
X264522D01*
X263702Y284447D01*
Y282807D01*
X264522Y281987D01*
X297901Y239829D02*
X297081Y240649D01*
X295441D01*
X294621Y239829D01*
Y236549D01*
X295441Y235729D01*
X297081D01*
X297901Y236549D01*
Y238189D01*
X296261D01*
X299541Y235729D02*
Y240649D01*
X302821Y235729D01*
Y240649D01*
X304461D02*
Y235729D01*
X306921D01*
X307741Y236549D01*
Y239829D01*
X306921Y240649D01*
X304461D01*
X294621Y256397D02*
X297901D01*
X296261D01*
Y251477D01*
X299541Y256397D02*
X302821Y251477D01*
Y256397D02*
X299541Y251477D01*
X294621Y243603D02*
Y248523D01*
X297081D01*
X297901Y247703D01*
Y246063D01*
X297081Y245243D01*
X294621D01*
X296261D02*
X297901Y243603D01*
X299541Y248523D02*
X302821Y243603D01*
Y248523D02*
X299541Y243603D01*
X294621Y264271D02*
Y260991D01*
X296261Y259351D01*
X297901Y260991D01*
Y264271D01*
X302821Y263451D02*
X302001Y264271D01*
X300361D01*
X299541Y263451D01*
Y260171D01*
X300361Y259351D01*
X302001D01*
X302821Y260171D01*
X307741Y263451D02*
X306921Y264271D01*
X305281D01*
X304461Y263451D01*
Y260171D01*
X305281Y259351D01*
X306921D01*
X307741Y260171D01*
X53355Y216118D02*
Y219660D01*
X55127D01*
X55717Y219070D01*
Y217889D01*
X55127Y217299D01*
X53355D01*
X56898Y216118D02*
Y218479D01*
X58078Y219660D01*
X59259Y218479D01*
Y216118D01*
Y217889D01*
X56898D01*
X60440Y219660D02*
Y217299D01*
X61620Y216118D01*
X62801Y217299D01*
Y219660D01*
X66343D02*
X63982D01*
Y216118D01*
X66343D01*
X63982Y217889D02*
X65163D01*
X67524Y219660D02*
Y216118D01*
X69885D01*
X76970Y219070D02*
X76379Y219660D01*
X75199D01*
X74608Y219070D01*
Y218479D01*
X75199Y217889D01*
X76379D01*
X76970Y217299D01*
Y216708D01*
X76379Y216118D01*
X75199D01*
X74608Y216708D01*
X78150Y216118D02*
Y218479D01*
X79331Y219660D01*
X80512Y218479D01*
Y216118D01*
Y217889D01*
X78150D01*
X84054Y219660D02*
X81693D01*
Y217889D01*
X82873D01*
X81693D01*
Y216118D01*
X85235D02*
Y218479D01*
X86416Y219660D01*
X87596Y218479D01*
Y216118D01*
Y217889D01*
X85235D01*
X88777Y216118D02*
Y219660D01*
X90548D01*
X91138Y219070D01*
Y217889D01*
X90548Y217299D01*
X88777D01*
X89958D02*
X91138Y216118D01*
X98223D02*
X95861D01*
X98223Y218479D01*
Y219070D01*
X97632Y219660D01*
X96452D01*
X95861Y219070D01*
X99404D02*
X99994Y219660D01*
X101175D01*
X101765Y219070D01*
Y216708D01*
X101175Y216118D01*
X99994D01*
X99404Y216708D01*
Y219070D01*
X105307Y216118D02*
X102946D01*
X105307Y218479D01*
Y219070D01*
X104717Y219660D01*
X103536D01*
X102946Y219070D01*
X106488D02*
X107078Y219660D01*
X108259D01*
X108849Y219070D01*
Y216708D01*
X108259Y216118D01*
X107078D01*
X106488Y216708D01*
Y219070D01*
X47157Y213803D02*
Y211442D01*
X48337Y210261D01*
X49518Y211442D01*
Y213803D01*
X50699D02*
Y210852D01*
X51289Y210261D01*
X52470D01*
X53060Y210852D01*
Y213803D01*
X54241Y212032D02*
X56602D01*
X57783Y210261D02*
Y213803D01*
X58964Y212623D01*
X60145Y213803D01*
Y210261D01*
X63687Y213803D02*
X61325D01*
Y210261D01*
X63687D01*
X61325Y212032D02*
X62506D01*
X64867Y213803D02*
X67229D01*
X66048D01*
Y210261D01*
X70771Y213803D02*
X68410D01*
Y210261D01*
X70771D01*
X68410Y212032D02*
X69590D01*
X71952Y210261D02*
Y213803D01*
X73723D01*
X74313Y213213D01*
Y212032D01*
X73723Y211442D01*
X71952D01*
X73132D02*
X74313Y210261D01*
X79036Y213803D02*
Y210261D01*
X80807D01*
X81397Y210852D01*
Y213213D01*
X80807Y213803D01*
X79036D01*
X82578Y210261D02*
Y213803D01*
X84349D01*
X84940Y213213D01*
Y212032D01*
X84349Y211442D01*
X82578D01*
X83759D02*
X84940Y210261D01*
X86120Y213803D02*
X87301D01*
X86711D01*
Y210261D01*
X86120D01*
X87301D01*
X89072Y213803D02*
Y211442D01*
X90253Y210261D01*
X91434Y211442D01*
Y213803D01*
X94976D02*
X92614D01*
Y210261D01*
X94976D01*
X92614Y212032D02*
X93795D01*
X96157Y210261D02*
Y213803D01*
X97928D01*
X98518Y213213D01*
Y212032D01*
X97928Y211442D01*
X96157D01*
X97337D02*
X98518Y210261D01*
X103241Y213803D02*
Y211442D01*
X104421Y210261D01*
X105602Y211442D01*
Y213803D01*
X106783Y210261D02*
X107964D01*
X107373D01*
Y213803D01*
X106783Y213213D01*
X109735Y210261D02*
Y210852D01*
X110325D01*
Y210261D01*
X109735D01*
X112687Y213213D02*
X113277Y213803D01*
X114458D01*
X115048Y213213D01*
Y210852D01*
X114458Y210261D01*
X113277D01*
X112687Y210852D01*
Y213213D01*
X243636Y179791D02*
X242816Y178971D01*
Y177331D01*
X243636Y176511D01*
X246915D01*
X247735Y177331D01*
Y178971D01*
X246915Y179791D01*
X245275D01*
Y178151D01*
X247735Y181431D02*
X242816D01*
X247735Y184711D01*
X242816D01*
Y186351D02*
X247735D01*
Y188811D01*
X246915Y189630D01*
X243636D01*
X242816Y188811D01*
Y186351D01*
X252120Y176511D02*
Y179791D01*
X250480Y178151D02*
X253760D01*
X249660Y184711D02*
Y181431D01*
X252120D01*
X251300Y183071D01*
Y183891D01*
X252120Y184711D01*
X253760D01*
X254580Y183891D01*
Y182251D01*
X253760Y181431D01*
X249660Y186351D02*
X252940D01*
X254580Y187991D01*
X252940Y189630D01*
X249660D01*
X256681Y176511D02*
Y178151D01*
Y177331D01*
X261601D01*
Y176511D01*
Y178151D01*
Y180611D02*
X256681D01*
X261601Y183891D01*
X256681D01*
X261601Y185531D02*
Y187171D01*
Y186351D01*
X256681D01*
X257501Y185531D01*
X263702Y176511D02*
Y178151D01*
Y177331D01*
X268622D01*
Y176511D01*
Y178151D01*
Y180611D02*
X263702D01*
X268622Y183891D01*
X263702D01*
X268622Y188811D02*
Y185531D01*
X265342Y188811D01*
X264522D01*
X263702Y187991D01*
Y186351D01*
X264522Y185531D01*
X297901Y143372D02*
X297081Y144192D01*
X295441D01*
X294621Y143372D01*
Y140092D01*
X295441Y139272D01*
X297081D01*
X297901Y140092D01*
Y141732D01*
X296261D01*
X299541Y139272D02*
Y144192D01*
X302821Y139272D01*
Y144192D01*
X304461D02*
Y139272D01*
X306921D01*
X307741Y140092D01*
Y143372D01*
X306921Y144192D01*
X304461D01*
X294621Y159940D02*
X297901D01*
X296261D01*
Y155020D01*
X299541Y159940D02*
X302821Y155020D01*
Y159940D02*
X299541Y155020D01*
X294621Y147146D02*
Y152066D01*
X297081D01*
X297901Y151246D01*
Y149606D01*
X297081Y148786D01*
X294621D01*
X296261D02*
X297901Y147146D01*
X299541Y152066D02*
X302821Y147146D01*
Y152066D02*
X299541Y147146D01*
X294621Y167814D02*
Y164534D01*
X296261Y162894D01*
X297901Y164534D01*
Y167814D01*
X302821Y166994D02*
X302001Y167814D01*
X300361D01*
X299541Y166994D01*
Y163715D01*
X300361Y162894D01*
X302001D01*
X302821Y163715D01*
X307741Y166994D02*
X306921Y167814D01*
X305281D01*
X304461Y166994D01*
Y163715D01*
X305281Y162894D01*
X306921D01*
X307741Y163715D01*
X53355Y119661D02*
Y123204D01*
X55127D01*
X55717Y122613D01*
Y121432D01*
X55127Y120842D01*
X53355D01*
X56898Y119661D02*
Y122023D01*
X58078Y123204D01*
X59259Y122023D01*
Y119661D01*
Y121432D01*
X56898D01*
X60440Y123204D02*
Y120842D01*
X61620Y119661D01*
X62801Y120842D01*
Y123204D01*
X66343D02*
X63982D01*
Y119661D01*
X66343D01*
X63982Y121432D02*
X65163D01*
X67524Y123204D02*
Y119661D01*
X69885D01*
X76970Y122613D02*
X76379Y123204D01*
X75199D01*
X74608Y122613D01*
Y122023D01*
X75199Y121432D01*
X76379D01*
X76970Y120842D01*
Y120252D01*
X76379Y119661D01*
X75199D01*
X74608Y120252D01*
X78150Y119661D02*
Y122023D01*
X79331Y123204D01*
X80512Y122023D01*
Y119661D01*
Y121432D01*
X78150D01*
X84054Y123204D02*
X81693D01*
Y121432D01*
X82873D01*
X81693D01*
Y119661D01*
X85235D02*
Y122023D01*
X86416Y123204D01*
X87596Y122023D01*
Y119661D01*
Y121432D01*
X85235D01*
X88777Y119661D02*
Y123204D01*
X90548D01*
X91138Y122613D01*
Y121432D01*
X90548Y120842D01*
X88777D01*
X89958D02*
X91138Y119661D01*
X98223D02*
X95861D01*
X98223Y122023D01*
Y122613D01*
X97632Y123204D01*
X96452D01*
X95861Y122613D01*
X99404D02*
X99994Y123204D01*
X101175D01*
X101765Y122613D01*
Y120252D01*
X101175Y119661D01*
X99994D01*
X99404Y120252D01*
Y122613D01*
X105307Y119661D02*
X102946D01*
X105307Y122023D01*
Y122613D01*
X104717Y123204D01*
X103536D01*
X102946Y122613D01*
X106488D02*
X107078Y123204D01*
X108259D01*
X108849Y122613D01*
Y120252D01*
X108259Y119661D01*
X107078D01*
X106488Y120252D01*
Y122613D01*
X47157Y117347D02*
Y114985D01*
X48337Y113804D01*
X49518Y114985D01*
Y117347D01*
X50699D02*
Y114395D01*
X51289Y113804D01*
X52470D01*
X53060Y114395D01*
Y117347D01*
X54241Y115576D02*
X56602D01*
X57783Y113804D02*
Y117347D01*
X58964Y116166D01*
X60145Y117347D01*
Y113804D01*
X63687Y117347D02*
X61325D01*
Y113804D01*
X63687D01*
X61325Y115576D02*
X62506D01*
X64867Y117347D02*
X67229D01*
X66048D01*
Y113804D01*
X70771Y117347D02*
X68410D01*
Y113804D01*
X70771D01*
X68410Y115576D02*
X69590D01*
X71952Y113804D02*
Y117347D01*
X73723D01*
X74313Y116756D01*
Y115576D01*
X73723Y114985D01*
X71952D01*
X73132D02*
X74313Y113804D01*
X79036Y117347D02*
Y113804D01*
X80807D01*
X81397Y114395D01*
Y116756D01*
X80807Y117347D01*
X79036D01*
X82578Y113804D02*
Y117347D01*
X84349D01*
X84940Y116756D01*
Y115576D01*
X84349Y114985D01*
X82578D01*
X83759D02*
X84940Y113804D01*
X86120Y117347D02*
X87301D01*
X86711D01*
Y113804D01*
X86120D01*
X87301D01*
X89072Y117347D02*
Y114985D01*
X90253Y113804D01*
X91434Y114985D01*
Y117347D01*
X94976D02*
X92614D01*
Y113804D01*
X94976D01*
X92614Y115576D02*
X93795D01*
X96157Y113804D02*
Y117347D01*
X97928D01*
X98518Y116756D01*
Y115576D01*
X97928Y114985D01*
X96157D01*
X97337D02*
X98518Y113804D01*
X103241Y117347D02*
Y114985D01*
X104421Y113804D01*
X105602Y114985D01*
Y117347D01*
X106783Y113804D02*
X107964D01*
X107373D01*
Y117347D01*
X106783Y116756D01*
X109735Y113804D02*
Y114395D01*
X110325D01*
Y113804D01*
X109735D01*
X112687Y116756D02*
X113277Y117347D01*
X114458D01*
X115048Y116756D01*
Y114395D01*
X114458Y113804D01*
X113277D01*
X112687Y114395D01*
Y116756D01*
D59*
X321250Y214567D02*
X321294Y213564D01*
X321425Y212569D01*
X321642Y211589D01*
X321944Y210632D01*
X322328Y209704D01*
X322792Y208814D01*
X323331Y207967D01*
X323942Y207171D01*
X324620Y206431D01*
X325360Y205753D01*
X326156Y205142D01*
X327003Y204603D01*
X327893Y204139D01*
X328821Y203755D01*
X329778Y203453D01*
X330758Y203236D01*
X331753Y203105D01*
X332756Y203061D01*
X333759Y203105D01*
X334754Y203236D01*
X335734Y203453D01*
X336691Y203755D01*
X337618Y204139D01*
X338509Y204603D01*
X339355Y205142D01*
X340152Y205753D01*
X340892Y206431D01*
X341570Y207171D01*
X342181Y207967D01*
X342720Y208814D01*
X343184Y209704D01*
X343568Y210632D01*
X343870Y211589D01*
X344087Y212569D01*
X344218Y213564D01*
X344262Y214567D01*
X344218Y215570D01*
X344087Y216565D01*
X343870Y217545D01*
X343568Y218502D01*
X343184Y219429D01*
X342720Y220320D01*
X342181Y221166D01*
X341570Y221963D01*
X340892Y222703D01*
X340152Y223381D01*
X339355Y223992D01*
X338509Y224531D01*
X337618Y224995D01*
X336691Y225379D01*
X335734Y225681D01*
X334754Y225898D01*
X333759Y226029D01*
X332756Y226073D01*
X331753Y226029D01*
X330758Y225898D01*
X329778Y225681D01*
X328821Y225379D01*
X327893Y224995D01*
X327003Y224531D01*
X326156Y223992D01*
X325360Y223381D01*
X324620Y222703D01*
X323942Y221963D01*
X323331Y221166D01*
X322792Y220320D01*
X322328Y219429D01*
X321944Y218502D01*
X321642Y217545D01*
X321425Y216565D01*
X321294Y215570D01*
X321250Y214567D01*
X315756Y217067D02*
Y212067D01*
X318256Y214567D02*
X313256D01*
X334547Y244390D02*
X331004D01*
X334547Y237894D02*
X331004D01*
X321250Y263779D02*
X321294Y262777D01*
X321425Y261782D01*
X321642Y260802D01*
X321944Y259844D01*
X322328Y258917D01*
X322792Y258027D01*
X323331Y257180D01*
X323942Y256384D01*
X324620Y255644D01*
X325360Y254965D01*
X326156Y254354D01*
X327003Y253815D01*
X327893Y253352D01*
X328821Y252968D01*
X329778Y252666D01*
X330758Y252448D01*
X331753Y252317D01*
X332756Y252274D01*
X333759Y252317D01*
X334754Y252448D01*
X335734Y252666D01*
X336691Y252968D01*
X337618Y253352D01*
X338509Y253815D01*
X339355Y254354D01*
X340152Y254965D01*
X340892Y255644D01*
X341570Y256384D01*
X342181Y257180D01*
X342720Y258027D01*
X343184Y258917D01*
X343568Y259844D01*
X343870Y260802D01*
X344087Y261782D01*
X344218Y262777D01*
X344262Y263779D01*
X344218Y264782D01*
X344087Y265777D01*
X343870Y266757D01*
X343568Y267715D01*
X343184Y268642D01*
X342720Y269532D01*
X342181Y270379D01*
X341570Y271175D01*
X340892Y271915D01*
X340152Y272594D01*
X339355Y273205D01*
X338509Y273744D01*
X337618Y274207D01*
X336691Y274592D01*
X335734Y274893D01*
X334754Y275111D01*
X333759Y275242D01*
X332756Y275285D01*
X331753Y275242D01*
X330758Y275111D01*
X329778Y274893D01*
X328821Y274592D01*
X327893Y274207D01*
X327003Y273744D01*
X326156Y273205D01*
X325360Y272594D01*
X324620Y271915D01*
X323942Y271175D01*
X323331Y270379D01*
X322792Y269532D01*
X322328Y268642D01*
X321944Y267715D01*
X321642Y266757D01*
X321425Y265777D01*
X321294Y264782D01*
X321250Y263779D01*
X315756Y266280D02*
Y261280D01*
X318256Y263779D02*
X313256D01*
X334547Y293602D02*
X331004D01*
X334547Y287106D02*
X331004D01*
X321250Y312992D02*
X321294Y311989D01*
X321425Y310994D01*
X321642Y310014D01*
X321944Y309057D01*
X322328Y308130D01*
X322792Y307239D01*
X323331Y306393D01*
X323942Y305596D01*
X324620Y304856D01*
X325360Y304178D01*
X326156Y303567D01*
X327003Y303028D01*
X327893Y302564D01*
X328821Y302180D01*
X329778Y301878D01*
X330758Y301661D01*
X331753Y301530D01*
X332756Y301486D01*
X333759Y301530D01*
X334754Y301661D01*
X335734Y301878D01*
X336691Y302180D01*
X337618Y302564D01*
X338509Y303028D01*
X339355Y303567D01*
X340152Y304178D01*
X340892Y304856D01*
X341570Y305596D01*
X342181Y306393D01*
X342720Y307239D01*
X343184Y308130D01*
X343568Y309057D01*
X343870Y310014D01*
X344087Y310994D01*
X344218Y311989D01*
X344262Y312992D01*
X344218Y313995D01*
X344087Y314990D01*
X343870Y315970D01*
X343568Y316927D01*
X343184Y317855D01*
X342720Y318745D01*
X342181Y319592D01*
X341570Y320388D01*
X340892Y321128D01*
X340152Y321806D01*
X339355Y322417D01*
X338509Y322956D01*
X337618Y323420D01*
X336691Y323804D01*
X335734Y324106D01*
X334754Y324323D01*
X333759Y324454D01*
X332756Y324498D01*
X331753Y324454D01*
X330758Y324323D01*
X329778Y324106D01*
X328821Y323804D01*
X327893Y323420D01*
X327003Y322956D01*
X326156Y322417D01*
X325360Y321806D01*
X324620Y321128D01*
X323942Y320388D01*
X323331Y319592D01*
X322792Y318745D01*
X322328Y317855D01*
X321944Y316927D01*
X321642Y315970D01*
X321425Y314990D01*
X321294Y313995D01*
X321250Y312992D01*
X315756Y315492D02*
Y310492D01*
X318256Y312992D02*
X313256D01*
X334547Y342815D02*
X331004D01*
X334547Y336319D02*
X331004D01*
X321250Y362205D02*
X321294Y361202D01*
X321425Y360207D01*
X321642Y359227D01*
X321944Y358270D01*
X322328Y357342D01*
X322792Y356452D01*
X323331Y355605D01*
X323942Y354809D01*
X324620Y354069D01*
X325360Y353391D01*
X326156Y352780D01*
X327003Y352240D01*
X327893Y351777D01*
X328821Y351393D01*
X329778Y351091D01*
X330758Y350874D01*
X331753Y350743D01*
X332756Y350699D01*
X333759Y350743D01*
X334754Y350874D01*
X335734Y351091D01*
X336691Y351393D01*
X337618Y351777D01*
X338509Y352240D01*
X339355Y352780D01*
X340152Y353391D01*
X340892Y354069D01*
X341570Y354809D01*
X342181Y355605D01*
X342720Y356452D01*
X343184Y357342D01*
X343568Y358270D01*
X343870Y359227D01*
X344087Y360207D01*
X344218Y361202D01*
X344262Y362205D01*
X344218Y363208D01*
X344087Y364203D01*
X343870Y365183D01*
X343568Y366140D01*
X343184Y367067D01*
X342720Y367958D01*
X342181Y368804D01*
X341570Y369601D01*
X340892Y370341D01*
X340152Y371019D01*
X339355Y371630D01*
X338509Y372169D01*
X337618Y372633D01*
X336691Y373017D01*
X335734Y373319D01*
X334754Y373536D01*
X333759Y373667D01*
X332756Y373711D01*
X331753Y373667D01*
X330758Y373536D01*
X329778Y373319D01*
X328821Y373017D01*
X327893Y372633D01*
X327003Y372169D01*
X326156Y371630D01*
X325360Y371019D01*
X324620Y370341D01*
X323942Y369601D01*
X323331Y368804D01*
X322792Y367958D01*
X322328Y367067D01*
X321944Y366140D01*
X321642Y365183D01*
X321425Y364203D01*
X321294Y363208D01*
X321250Y362205D01*
X315756Y364705D02*
Y359705D01*
X318256Y362205D02*
X313256D01*
X334547Y392028D02*
X331004D01*
X334547Y385531D02*
X331004D01*
X362205Y393317D02*
X361202Y393273D01*
X360207Y393142D01*
X359227Y392925D01*
X358270Y392623D01*
X357342Y392239D01*
X356452Y391775D01*
X355605Y391236D01*
X354809Y390625D01*
X354069Y389947D01*
X353391Y389207D01*
X352780Y388410D01*
X352240Y387564D01*
X351777Y386674D01*
X351393Y385746D01*
X351091Y384789D01*
X350874Y383809D01*
X350743Y382814D01*
X350699Y381811D01*
X350743Y380808D01*
X350874Y379813D01*
X351091Y378833D01*
X351393Y377876D01*
X351777Y376948D01*
X352240Y376058D01*
X352780Y375212D01*
X353391Y374415D01*
X354069Y373675D01*
X354809Y372997D01*
X355605Y372386D01*
X356452Y371847D01*
X357342Y371383D01*
X358270Y370999D01*
X359227Y370697D01*
X360207Y370480D01*
X361202Y370349D01*
X362205Y370305D01*
X363208Y370349D01*
X364203Y370480D01*
X365183Y370697D01*
X366140Y370999D01*
X367067Y371383D01*
X367958Y371847D01*
X368804Y372386D01*
X369601Y372997D01*
X370341Y373675D01*
X371019Y374415D01*
X371630Y375212D01*
X372169Y376058D01*
X372633Y376948D01*
X373017Y377876D01*
X373319Y378833D01*
X373536Y379813D01*
X373667Y380808D01*
X373711Y381811D01*
X373667Y382814D01*
X373536Y383809D01*
X373319Y384789D01*
X373017Y385746D01*
X372633Y386674D01*
X372169Y387564D01*
X371630Y388410D01*
X371019Y389207D01*
X370341Y389947D01*
X369601Y390625D01*
X368804Y391236D01*
X367958Y391775D01*
X367067Y392239D01*
X366140Y392623D01*
X365183Y392925D01*
X364203Y393142D01*
X363208Y393273D01*
X362205Y393317D01*
X364705Y398811D02*
X359705D01*
X362205Y396311D02*
Y401311D01*
X392028Y380020D02*
Y383563D01*
X385531Y380020D02*
Y383563D01*
X362205Y363789D02*
X361202Y363746D01*
X360207Y363615D01*
X359227Y363397D01*
X358270Y363095D01*
X357342Y362711D01*
X356452Y362248D01*
X355605Y361708D01*
X354809Y361098D01*
X354069Y360419D01*
X353391Y359679D01*
X352780Y358883D01*
X352240Y358036D01*
X351777Y357146D01*
X351393Y356219D01*
X351091Y355261D01*
X350874Y354281D01*
X350743Y353286D01*
X350699Y352283D01*
X350743Y351281D01*
X350874Y350286D01*
X351091Y349306D01*
X351393Y348348D01*
X351777Y347421D01*
X352240Y346531D01*
X352780Y345684D01*
X353391Y344888D01*
X354069Y344147D01*
X354809Y343469D01*
X355605Y342858D01*
X356452Y342319D01*
X357342Y341856D01*
X358270Y341471D01*
X359227Y341170D01*
X360207Y340952D01*
X361202Y340821D01*
X362205Y340777D01*
X363208Y340821D01*
X364203Y340952D01*
X365183Y341170D01*
X366140Y341471D01*
X367067Y341856D01*
X367958Y342319D01*
X368804Y342858D01*
X369601Y343469D01*
X370341Y344147D01*
X371019Y344888D01*
X371630Y345684D01*
X372169Y346531D01*
X372633Y347421D01*
X373017Y348348D01*
X373319Y349306D01*
X373536Y350286D01*
X373667Y351281D01*
X373711Y352283D01*
X373667Y353286D01*
X373536Y354281D01*
X373319Y355261D01*
X373017Y356219D01*
X372633Y357146D01*
X372169Y358036D01*
X371630Y358883D01*
X371019Y359679D01*
X370341Y360419D01*
X369601Y361098D01*
X368804Y361708D01*
X367958Y362248D01*
X367067Y362711D01*
X366140Y363095D01*
X365183Y363397D01*
X364203Y363615D01*
X363208Y363746D01*
X362205Y363789D01*
X364705Y369284D02*
X359705D01*
X362205Y366783D02*
Y371783D01*
X392028Y350492D02*
Y354035D01*
X385531Y350492D02*
Y354035D01*
X362205Y336230D02*
X361202Y336187D01*
X360207Y336055D01*
X359227Y335838D01*
X358270Y335536D01*
X357342Y335152D01*
X356452Y334689D01*
X355605Y334150D01*
X354809Y333538D01*
X354069Y332860D01*
X353391Y332120D01*
X352780Y331324D01*
X352240Y330477D01*
X351777Y329587D01*
X351393Y328660D01*
X351091Y327702D01*
X350874Y326722D01*
X350743Y325727D01*
X350699Y324724D01*
X350743Y323722D01*
X350874Y322726D01*
X351091Y321746D01*
X351393Y320789D01*
X351777Y319862D01*
X352240Y318971D01*
X352780Y318125D01*
X353391Y317329D01*
X354069Y316588D01*
X354809Y315910D01*
X355605Y315299D01*
X356452Y314760D01*
X357342Y314297D01*
X358270Y313912D01*
X359227Y313611D01*
X360207Y313393D01*
X361202Y313262D01*
X362205Y313218D01*
X363208Y313262D01*
X364203Y313393D01*
X365183Y313611D01*
X366140Y313912D01*
X367067Y314297D01*
X367958Y314760D01*
X368804Y315299D01*
X369601Y315910D01*
X370341Y316588D01*
X371019Y317329D01*
X371630Y318125D01*
X372169Y318971D01*
X372633Y319862D01*
X373017Y320789D01*
X373319Y321746D01*
X373536Y322726D01*
X373667Y323722D01*
X373711Y324724D01*
X373667Y325727D01*
X373536Y326722D01*
X373319Y327702D01*
X373017Y328660D01*
X372633Y329587D01*
X372169Y330477D01*
X371630Y331324D01*
X371019Y332120D01*
X370341Y332860D01*
X369601Y333538D01*
X368804Y334150D01*
X367958Y334689D01*
X367067Y335152D01*
X366140Y335536D01*
X365183Y335838D01*
X364203Y336055D01*
X363208Y336187D01*
X362205Y336230D01*
X364705Y341724D02*
X359705D01*
X362205Y339224D02*
Y344224D01*
X392028Y322933D02*
Y326476D01*
X385531Y322933D02*
Y326476D01*
X362205Y308671D02*
X361202Y308628D01*
X360207Y308496D01*
X359227Y308279D01*
X358270Y307977D01*
X357342Y307593D01*
X356452Y307130D01*
X355605Y306590D01*
X354809Y305979D01*
X354069Y305301D01*
X353391Y304561D01*
X352780Y303765D01*
X352240Y302918D01*
X351777Y302028D01*
X351393Y301101D01*
X351091Y300143D01*
X350874Y299163D01*
X350743Y298168D01*
X350699Y297165D01*
X350743Y296163D01*
X350874Y295167D01*
X351091Y294187D01*
X351393Y293230D01*
X351777Y292303D01*
X352240Y291412D01*
X352780Y290566D01*
X353391Y289770D01*
X354069Y289029D01*
X354809Y288351D01*
X355605Y287740D01*
X356452Y287201D01*
X357342Y286737D01*
X358270Y286353D01*
X359227Y286052D01*
X360207Y285834D01*
X361202Y285703D01*
X362205Y285659D01*
X363208Y285703D01*
X364203Y285834D01*
X365183Y286052D01*
X366140Y286353D01*
X367067Y286737D01*
X367958Y287201D01*
X368804Y287740D01*
X369601Y288351D01*
X370341Y289029D01*
X371019Y289770D01*
X371630Y290566D01*
X372169Y291412D01*
X372633Y292303D01*
X373017Y293230D01*
X373319Y294187D01*
X373536Y295167D01*
X373667Y296163D01*
X373711Y297165D01*
X373667Y298168D01*
X373536Y299163D01*
X373319Y300143D01*
X373017Y301101D01*
X372633Y302028D01*
X372169Y302918D01*
X371630Y303765D01*
X371019Y304561D01*
X370341Y305301D01*
X369601Y305979D01*
X368804Y306590D01*
X367958Y307130D01*
X367067Y307593D01*
X366140Y307977D01*
X365183Y308279D01*
X364203Y308496D01*
X363208Y308628D01*
X362205Y308671D01*
X364705Y314165D02*
X359705D01*
X362205Y311665D02*
Y316665D01*
X392028Y295374D02*
Y298917D01*
X385531Y295374D02*
Y298917D01*
X362205Y281112D02*
X361202Y281068D01*
X360207Y280937D01*
X359227Y280720D01*
X358270Y280418D01*
X357342Y280034D01*
X356452Y279571D01*
X355605Y279031D01*
X354809Y278420D01*
X354069Y277742D01*
X353391Y277002D01*
X352780Y276206D01*
X352240Y275359D01*
X351777Y274469D01*
X351393Y273541D01*
X351091Y272584D01*
X350874Y271604D01*
X350743Y270609D01*
X350699Y269606D01*
X350743Y268603D01*
X350874Y267608D01*
X351091Y266628D01*
X351393Y265671D01*
X351777Y264744D01*
X352240Y263853D01*
X352780Y263007D01*
X353391Y262210D01*
X354069Y261470D01*
X354809Y260792D01*
X355605Y260181D01*
X356452Y259642D01*
X357342Y259178D01*
X358270Y258794D01*
X359227Y258492D01*
X360207Y258275D01*
X361202Y258144D01*
X362205Y258100D01*
X363208Y258144D01*
X364203Y258275D01*
X365183Y258492D01*
X366140Y258794D01*
X367067Y259178D01*
X367958Y259642D01*
X368804Y260181D01*
X369601Y260792D01*
X370341Y261470D01*
X371019Y262210D01*
X371630Y263007D01*
X372169Y263853D01*
X372633Y264744D01*
X373017Y265671D01*
X373319Y266628D01*
X373536Y267608D01*
X373667Y268603D01*
X373711Y269606D01*
X373667Y270609D01*
X373536Y271604D01*
X373319Y272584D01*
X373017Y273541D01*
X372633Y274469D01*
X372169Y275359D01*
X371630Y276206D01*
X371019Y277002D01*
X370341Y277742D01*
X369601Y278420D01*
X368804Y279031D01*
X367958Y279571D01*
X367067Y280034D01*
X366140Y280418D01*
X365183Y280720D01*
X364203Y280937D01*
X363208Y281068D01*
X362205Y281112D01*
X364705Y286606D02*
X359705D01*
X362205Y284106D02*
Y289106D01*
X392028Y267815D02*
Y271358D01*
X385531Y267815D02*
Y271358D01*
X362205Y253553D02*
X361202Y253509D01*
X360207Y253378D01*
X359227Y253161D01*
X358270Y252859D01*
X357342Y252475D01*
X356452Y252012D01*
X355605Y251472D01*
X354809Y250861D01*
X354069Y250183D01*
X353391Y249443D01*
X352780Y248647D01*
X352240Y247800D01*
X351777Y246910D01*
X351393Y245983D01*
X351091Y245025D01*
X350874Y244045D01*
X350743Y243050D01*
X350699Y242047D01*
X350743Y241044D01*
X350874Y240049D01*
X351091Y239069D01*
X351393Y238112D01*
X351777Y237185D01*
X352240Y236294D01*
X352780Y235448D01*
X353391Y234651D01*
X354069Y233911D01*
X354809Y233233D01*
X355605Y232622D01*
X356452Y232083D01*
X357342Y231619D01*
X358270Y231235D01*
X359227Y230933D01*
X360207Y230716D01*
X361202Y230585D01*
X362205Y230541D01*
X363208Y230585D01*
X364203Y230716D01*
X365183Y230933D01*
X366140Y231235D01*
X367067Y231619D01*
X367958Y232083D01*
X368804Y232622D01*
X369601Y233233D01*
X370341Y233911D01*
X371019Y234651D01*
X371630Y235448D01*
X372169Y236294D01*
X372633Y237185D01*
X373017Y238112D01*
X373319Y239069D01*
X373536Y240049D01*
X373667Y241044D01*
X373711Y242047D01*
X373667Y243050D01*
X373536Y244045D01*
X373319Y245025D01*
X373017Y245983D01*
X372633Y246910D01*
X372169Y247800D01*
X371630Y248647D01*
X371019Y249443D01*
X370341Y250183D01*
X369601Y250861D01*
X368804Y251472D01*
X367958Y252012D01*
X367067Y252475D01*
X366140Y252859D01*
X365183Y253161D01*
X364203Y253378D01*
X363208Y253509D01*
X362205Y253553D01*
X364705Y259047D02*
X359705D01*
X362205Y256547D02*
Y261547D01*
X392028Y240256D02*
Y243799D01*
X385531Y240256D02*
Y243799D01*
X362205Y225994D02*
X361202Y225950D01*
X360207Y225819D01*
X359227Y225602D01*
X358270Y225300D01*
X357342Y224916D01*
X356452Y224453D01*
X355605Y223913D01*
X354809Y223302D01*
X354069Y222624D01*
X353391Y221884D01*
X352780Y221088D01*
X352240Y220241D01*
X351777Y219351D01*
X351393Y218423D01*
X351091Y217466D01*
X350874Y216486D01*
X350743Y215491D01*
X350699Y214488D01*
X350743Y213485D01*
X350874Y212490D01*
X351091Y211510D01*
X351393Y210553D01*
X351777Y209626D01*
X352240Y208735D01*
X352780Y207889D01*
X353391Y207092D01*
X354069Y206352D01*
X354809Y205674D01*
X355605Y205063D01*
X356452Y204524D01*
X357342Y204060D01*
X358270Y203676D01*
X359227Y203374D01*
X360207Y203157D01*
X361202Y203026D01*
X362205Y202982D01*
X363208Y203026D01*
X364203Y203157D01*
X365183Y203374D01*
X366140Y203676D01*
X367067Y204060D01*
X367958Y204524D01*
X368804Y205063D01*
X369601Y205674D01*
X370341Y206352D01*
X371019Y207092D01*
X371630Y207889D01*
X372169Y208735D01*
X372633Y209626D01*
X373017Y210553D01*
X373319Y211510D01*
X373536Y212490D01*
X373667Y213485D01*
X373711Y214488D01*
X373667Y215491D01*
X373536Y216486D01*
X373319Y217466D01*
X373017Y218423D01*
X372633Y219351D01*
X372169Y220241D01*
X371630Y221088D01*
X371019Y221884D01*
X370341Y222624D01*
X369601Y223302D01*
X368804Y223913D01*
X367958Y224453D01*
X367067Y224916D01*
X366140Y225300D01*
X365183Y225602D01*
X364203Y225819D01*
X363208Y225950D01*
X362205Y225994D01*
X364705Y231488D02*
X359705D01*
X362205Y228988D02*
Y233988D01*
X392028Y212697D02*
Y216240D01*
X385531Y212697D02*
Y216240D01*
X191929Y322441D02*
X191899Y323442D01*
X191809Y324439D01*
X191660Y325429D01*
X191452Y326408D01*
X191186Y327373D01*
X190862Y328320D01*
X190482Y329247D01*
X190048Y330149D01*
X189561Y331023D01*
X189022Y331867D01*
X188433Y332677D01*
X187797Y333450D01*
X187117Y334184D01*
X186393Y334875D01*
X185629Y335523D01*
X184828Y336123D01*
X183993Y336675D01*
X183126Y337175D01*
X182230Y337623D01*
X181310Y338017D01*
X180367Y338354D01*
X179406Y338635D01*
X178430Y338858D01*
X177443Y339022D01*
X176447Y339126D01*
X175447Y339171D01*
X174446Y339156D01*
X173448Y339082D01*
X172456Y338947D01*
X171474Y338754D01*
X170505Y338502D01*
X169553Y338193D01*
X168621Y337827D01*
X167712Y337406D01*
X166831Y336932D01*
X165979Y336405D01*
X165160Y335829D01*
X164378Y335205D01*
X163634Y334535D01*
X162931Y333822D01*
X162273Y333068D01*
X161660Y332276D01*
X161096Y331449D01*
X160583Y330589D01*
X160122Y329701D01*
X159714Y328786D01*
X159363Y327849D01*
X159067Y326892D01*
X158830Y325920D01*
X158651Y324935D01*
X158532Y323941D01*
X158472Y322941D01*
Y321940D01*
X158532Y320941D01*
X158651Y319947D01*
X158830Y318962D01*
X159067Y317990D01*
X159363Y317033D01*
X159714Y316096D01*
X160122Y315181D01*
X160583Y314293D01*
X161096Y313433D01*
X161660Y312606D01*
X162273Y311814D01*
X162931Y311060D01*
X163634Y310347D01*
X164378Y309677D01*
X165160Y309053D01*
X165979Y308477D01*
X166831Y307950D01*
X167712Y307476D01*
X168621Y307055D01*
X169553Y306689D01*
X170505Y306380D01*
X171474Y306128D01*
X172456Y305935D01*
X173448Y305800D01*
X174446Y305726D01*
X175447Y305711D01*
X176447Y305755D01*
X177443Y305860D01*
X178430Y306024D01*
X179406Y306247D01*
X180367Y306528D01*
X181310Y306865D01*
X182230Y307259D01*
X183126Y307707D01*
X183993Y308207D01*
X184828Y308759D01*
X185629Y309359D01*
X186393Y310006D01*
X187117Y310698D01*
X187797Y311432D01*
X188433Y312205D01*
X189022Y313015D01*
X189561Y313859D01*
X190048Y314733D01*
X190482Y315635D01*
X190862Y316562D01*
X191186Y317509D01*
X191452Y318474D01*
X191660Y319453D01*
X191809Y320443D01*
X191899Y321440D01*
X191929Y322441D01*
X225394Y315433D02*
Y335433D01*
X250984Y315433D02*
Y335433D01*
X225394Y315433D02*
X250984D01*
X225394Y335433D02*
Y353543D01*
X250984Y335433D02*
Y353543D01*
X225394D02*
X250984D01*
X264528Y320551D02*
Y350551D01*
Y320551D02*
X269528D01*
X264528Y350551D02*
X269528D01*
Y310551D02*
X289528D01*
X269528D02*
Y355551D01*
X289528Y310551D02*
Y355551D01*
X269528D02*
Y360551D01*
X289528D01*
Y355551D02*
Y360551D01*
X230098Y359252D02*
X232087D01*
X246260D02*
X248248D01*
X246260Y355315D02*
Y363189D01*
X232087D02*
X246260D01*
X232087Y355315D02*
Y363189D01*
Y355315D02*
X246260D01*
X8858Y336024D02*
Y339173D01*
X11417Y339173D01*
X21063Y336024D02*
Y339173D01*
X18504Y339173D02*
X21063Y339173D01*
X24044Y336024D02*
Y339173D01*
X26603D01*
X36249Y336024D02*
Y339173D01*
X33689D02*
X36249D01*
X39229Y336024D02*
Y339173D01*
X41789D01*
X51434Y336024D02*
Y339173D01*
X48875D02*
X51434D01*
X54415Y336024D02*
Y339173D01*
X56974D01*
X66620Y336024D02*
Y339173D01*
X64061D02*
X66620D01*
X69601Y336024D02*
Y339173D01*
X72160D01*
X81805Y336024D02*
Y339173D01*
X79246D02*
X81805D01*
X84786Y336024D02*
Y339173D01*
X87345D01*
X96991Y336024D02*
Y339173D01*
X94432D02*
X96991D01*
X99972Y336024D02*
Y339173D01*
X102531D01*
X112177Y336024D02*
Y339173D01*
X109617D02*
X112177D01*
X115157Y336024D02*
Y339173D01*
X117717D01*
X127362Y336024D02*
Y339173D01*
X124803D02*
X127362D01*
X199744Y363228D02*
X202953D01*
Y360630D02*
Y363228D01*
X199744Y351732D02*
X202953D01*
Y354331D01*
X151732Y380138D02*
Y390728D01*
Y380138D02*
X182913D01*
Y390728D01*
X151732D02*
X182913D01*
X229114Y310039D02*
X231102D01*
X245276D02*
X247264D01*
X245276Y306102D02*
Y313976D01*
X231102D02*
X245276D01*
X231102Y306102D02*
Y313976D01*
Y306102D02*
X245276D01*
X199606Y391378D02*
X229606D01*
X199606Y386378D02*
Y391378D01*
X229606Y386378D02*
Y391378D01*
X189606Y366378D02*
Y386378D01*
X234606D01*
X189606Y366378D02*
X234606D01*
Y386378D02*
X239606D01*
Y366378D02*
Y386378D01*
X234606Y366378D02*
X239606D01*
X212992Y306299D02*
Y309449D01*
X209055Y306299D02*
X212992D01*
Y314961D02*
Y318110D01*
X209055D02*
X212992D01*
X136417Y340748D02*
Y365551D01*
Y340748D02*
X161220D01*
Y365551D01*
X136417D02*
X161220D01*
X191929Y225984D02*
X191899Y226985D01*
X191809Y227982D01*
X191660Y228972D01*
X191452Y229951D01*
X191186Y230916D01*
X190862Y231864D01*
X190482Y232790D01*
X190048Y233692D01*
X189561Y234566D01*
X189022Y235410D01*
X188433Y236220D01*
X187797Y236993D01*
X187117Y237727D01*
X186393Y238419D01*
X185629Y239066D01*
X184828Y239667D01*
X183993Y240218D01*
X183126Y240719D01*
X182230Y241166D01*
X181310Y241560D01*
X180367Y241898D01*
X179406Y242178D01*
X178430Y242401D01*
X177443Y242565D01*
X176447Y242670D01*
X175447Y242715D01*
X174446Y242700D01*
X173448Y242625D01*
X172456Y242491D01*
X171474Y242297D01*
X170505Y242045D01*
X169553Y241736D01*
X168621Y241370D01*
X167712Y240949D01*
X166831Y240475D01*
X165979Y239949D01*
X165160Y239372D01*
X164378Y238748D01*
X163634Y238078D01*
X162931Y237365D01*
X162273Y236611D01*
X161660Y235819D01*
X161096Y234992D01*
X160583Y234133D01*
X160122Y233244D01*
X159714Y232330D01*
X159363Y231392D01*
X159067Y230436D01*
X158830Y229463D01*
X158651Y228478D01*
X158532Y227484D01*
X158472Y226485D01*
Y225484D01*
X158532Y224484D01*
X158651Y223491D01*
X158830Y222505D01*
X159067Y221533D01*
X159363Y220576D01*
X159714Y219639D01*
X160122Y218724D01*
X160583Y217836D01*
X161096Y216976D01*
X161660Y216149D01*
X162273Y215357D01*
X162931Y214603D01*
X163634Y213890D01*
X164378Y213220D01*
X165160Y212596D01*
X165979Y212020D01*
X166831Y211494D01*
X167712Y211019D01*
X168621Y210598D01*
X169553Y210233D01*
X170505Y209923D01*
X171474Y209671D01*
X172456Y209478D01*
X173448Y209344D01*
X174446Y209269D01*
X175447Y209254D01*
X176447Y209299D01*
X177443Y209403D01*
X178430Y209567D01*
X179406Y209790D01*
X180367Y210071D01*
X181310Y210409D01*
X182230Y210802D01*
X183126Y211250D01*
X183993Y211751D01*
X184828Y212302D01*
X185629Y212902D01*
X186393Y213550D01*
X187117Y214242D01*
X187797Y214975D01*
X188433Y215749D01*
X189022Y216559D01*
X189561Y217402D01*
X190048Y218277D01*
X190482Y219179D01*
X190862Y220105D01*
X191186Y221052D01*
X191452Y222017D01*
X191660Y222996D01*
X191809Y223987D01*
X191899Y224984D01*
X191929Y225984D01*
X225394Y218976D02*
Y238976D01*
X250984Y218976D02*
Y238976D01*
X225394Y218976D02*
X250984D01*
X225394Y238976D02*
Y257087D01*
X250984Y238976D02*
Y257087D01*
X225394D02*
X250984D01*
X264528Y224095D02*
Y254095D01*
Y224095D02*
X269528D01*
X264528Y254095D02*
X269528D01*
Y214094D02*
X289528D01*
X269528D02*
Y259095D01*
X289528Y214094D02*
Y259095D01*
X269528D02*
Y264094D01*
X289528D01*
Y259095D02*
Y264094D01*
X230098Y262795D02*
X232087D01*
X246260D02*
X248248D01*
X246260Y258858D02*
Y266732D01*
X232087D02*
X246260D01*
X232087Y258858D02*
Y266732D01*
Y258858D02*
X246260D01*
X8858Y239567D02*
Y242717D01*
X11417Y242717D01*
X21063Y239567D02*
Y242717D01*
X18504Y242717D02*
X21063Y242717D01*
X24044Y239567D02*
Y242717D01*
X26603D01*
X36249Y239567D02*
Y242717D01*
X33689D02*
X36249D01*
X39229Y239567D02*
Y242717D01*
X41789D01*
X51434Y239567D02*
Y242717D01*
X48875D02*
X51434D01*
X54415Y239567D02*
Y242717D01*
X56974D01*
X66620Y239567D02*
Y242717D01*
X64061D02*
X66620D01*
X69601Y239567D02*
Y242717D01*
X72160D01*
X81805Y239567D02*
Y242717D01*
X79246D02*
X81805D01*
X84786Y239567D02*
Y242717D01*
X87345D01*
X96991Y239567D02*
Y242717D01*
X94432D02*
X96991D01*
X99972Y239567D02*
Y242717D01*
X102531D01*
X112177Y239567D02*
Y242717D01*
X109617D02*
X112177D01*
X115157Y239567D02*
Y242717D01*
X117717D01*
X127362Y239567D02*
Y242717D01*
X124803D02*
X127362D01*
X199744Y266772D02*
X202953D01*
Y264173D02*
Y266772D01*
X199744Y255276D02*
X202953D01*
Y257874D01*
X151732Y283681D02*
Y294272D01*
Y283681D02*
X182913D01*
Y294272D01*
X151732D02*
X182913D01*
X229114Y213583D02*
X231102D01*
X245276D02*
X247264D01*
X245276Y209646D02*
Y217520D01*
X231102D02*
X245276D01*
X231102Y209646D02*
Y217520D01*
Y209646D02*
X245276D01*
X199606Y294921D02*
X229606D01*
X199606Y289921D02*
Y294921D01*
X229606Y289921D02*
Y294921D01*
X189606Y269921D02*
Y289921D01*
X234606D01*
X189606Y269921D02*
X234606D01*
Y289921D02*
X239606D01*
Y269921D02*
Y289921D01*
X234606Y269921D02*
X239606D01*
X212992Y209842D02*
Y212992D01*
X209055Y209842D02*
X212992D01*
Y218504D02*
Y221654D01*
X209055D02*
X212992D01*
X136417Y244291D02*
Y269094D01*
Y244291D02*
X161220D01*
Y269094D01*
X136417D02*
X161220D01*
X143381Y102362D02*
X145743D01*
X192594D02*
X194956D01*
X186442D02*
X188804D01*
X180290D02*
X182653D01*
X94168D02*
X96530D01*
X51107D02*
X53470D01*
X57259D02*
X59621D01*
X44956D02*
X47318D01*
X38804D02*
X41166D01*
X32653D02*
X35015D01*
X26501D02*
X28863D01*
X20349D02*
X22712D01*
X14198D02*
X16560D01*
X8046D02*
X10408D01*
X1895D02*
X4257D01*
X63411D02*
X65773D01*
X69562D02*
X71924D01*
X75714D02*
X78076D01*
X81865D02*
X84227D01*
X88017D02*
X90379D01*
X137229D02*
X139592D01*
X131078D02*
X133440D01*
X124926D02*
X127288D01*
X118775D02*
X121137D01*
X112623D02*
X114985D01*
X106472D02*
X108834D01*
X100320D02*
X102682D01*
X149532D02*
X151895D01*
X155684D02*
X158046D01*
X161836D02*
X164198D01*
X167987D02*
X170349D01*
X174139D02*
X176501D01*
X241806D02*
X244168D01*
X235654D02*
X238017D01*
X229503D02*
X231865D01*
X223351Y102288D02*
X225714D01*
X217200D02*
X219562D01*
X211048Y102362D02*
X213410D01*
X204897D02*
X207259D01*
X198745D02*
X201107D01*
X247958D02*
X250320D01*
X254109D02*
X256471D01*
X260261D02*
X262623D01*
X266412D02*
X268775D01*
X272564D02*
X274926D01*
X278716D02*
X281078D01*
X284867D02*
X287229D01*
X291019D02*
X293381D01*
X340231D02*
X342594D01*
X334080D02*
X336442D01*
X327928D02*
X330290D01*
X321777D02*
X324139D01*
X315625D02*
X317987D01*
X309473D02*
X311836D01*
X303322D02*
X305684D01*
X297170D02*
X299533D01*
X346383D02*
X348745D01*
X352535D02*
X354897D01*
X358686D02*
X361048D01*
X364838D02*
X367200D01*
X370989D02*
X373351D01*
X377141D02*
X379503D01*
X383292D02*
X385655D01*
X389444D02*
X391806D01*
X143381Y74803D02*
X145743D01*
X192594D02*
X194956D01*
X186442D02*
X188804D01*
X180290D02*
X182653D01*
X94168D02*
X96530D01*
X51107D02*
X53470D01*
X57259D02*
X59621D01*
X44956D02*
X47318D01*
X38804D02*
X41166D01*
X32653D02*
X35015D01*
X26501D02*
X28863D01*
X20349D02*
X22712D01*
X14198D02*
X16560D01*
X8046D02*
X10408D01*
X1895D02*
X4257D01*
X63411D02*
X65773D01*
X69562D02*
X71924D01*
X75714D02*
X78076D01*
X81865D02*
X84227D01*
X88017D02*
X90379D01*
X137229D02*
X139592D01*
X131078D02*
X133440D01*
X124926D02*
X127288D01*
X118775D02*
X121137D01*
X112623D02*
X114985D01*
X106472D02*
X108834D01*
X100320D02*
X102682D01*
X149532D02*
X151895D01*
X155684D02*
X158046D01*
X161836D02*
X164198D01*
X167987D02*
X170349D01*
X174139D02*
X176501D01*
X241806D02*
X244168D01*
X235654D02*
X238017D01*
X229503D02*
X231865D01*
X223351Y74729D02*
X225714D01*
X217200D02*
X219562D01*
X211048Y74803D02*
X213410D01*
X204897D02*
X207259D01*
X198745D02*
X201107D01*
X247958D02*
X250320D01*
X254109D02*
X256471D01*
X260261D02*
X262623D01*
X266412D02*
X268775D01*
X272564D02*
X274926D01*
X278716D02*
X281078D01*
X284867D02*
X287229D01*
X291019D02*
X293381D01*
X340231D02*
X342594D01*
X334080D02*
X336442D01*
X327928D02*
X330290D01*
X321777D02*
X324139D01*
X315625D02*
X317987D01*
X309473D02*
X311836D01*
X303322D02*
X305684D01*
X297170D02*
X299533D01*
X346383D02*
X348745D01*
X352535D02*
X354897D01*
X358686D02*
X361048D01*
X364838D02*
X367200D01*
X370989D02*
X373351D01*
X377141D02*
X379503D01*
X383292D02*
X385655D01*
X389444D02*
X391806D01*
X143381Y47244D02*
X145743D01*
X192594D02*
X194956D01*
X186442D02*
X188804D01*
X180290D02*
X182653D01*
X94168D02*
X96530D01*
X51107D02*
X53470D01*
X57259D02*
X59621D01*
X44956D02*
X47318D01*
X38804D02*
X41166D01*
X32653D02*
X35015D01*
X26501D02*
X28863D01*
X20349D02*
X22712D01*
X14198D02*
X16560D01*
X8046D02*
X10408D01*
X1895D02*
X4257D01*
X63411D02*
X65773D01*
X69562D02*
X71924D01*
X75714D02*
X78076D01*
X81865D02*
X84227D01*
X88017D02*
X90379D01*
X137229D02*
X139592D01*
X131078D02*
X133440D01*
X124926D02*
X127288D01*
X118775D02*
X121137D01*
X112623D02*
X114985D01*
X106472D02*
X108834D01*
X100320D02*
X102682D01*
X149532D02*
X151895D01*
X155684D02*
X158046D01*
X161836D02*
X164198D01*
X167987D02*
X170349D01*
X174139D02*
X176501D01*
X241806D02*
X244168D01*
X235654D02*
X238017D01*
X229503D02*
X231865D01*
X223351Y47170D02*
X225714D01*
X217200D02*
X219562D01*
X211048Y47244D02*
X213410D01*
X204897D02*
X207259D01*
X198745D02*
X201107D01*
X247958D02*
X250320D01*
X254109D02*
X256471D01*
X260261D02*
X262623D01*
X266412D02*
X268775D01*
X272564D02*
X274926D01*
X278716D02*
X281078D01*
X284867D02*
X287229D01*
X291019D02*
X293381D01*
X340231D02*
X342594D01*
X334080D02*
X336442D01*
X327928D02*
X330290D01*
X321777D02*
X324139D01*
X315625D02*
X317987D01*
X309473D02*
X311836D01*
X303322D02*
X305684D01*
X297170D02*
X299533D01*
X346383D02*
X348745D01*
X352535D02*
X354897D01*
X358686D02*
X361048D01*
X364838D02*
X367200D01*
X370989D02*
X373351D01*
X377141D02*
X379503D01*
X383292D02*
X385655D01*
X389444D02*
X391806D01*
X143381Y20472D02*
X145743D01*
X192594D02*
X194956D01*
X186442D02*
X188804D01*
X180290D02*
X182653D01*
X94168D02*
X96530D01*
X51107D02*
X53470D01*
X57259D02*
X59621D01*
X44956D02*
X47318D01*
X38804D02*
X41166D01*
X32653D02*
X35015D01*
X26501D02*
X28863D01*
X20349D02*
X22712D01*
X14198D02*
X16560D01*
X8046D02*
X10408D01*
X1895D02*
X4257D01*
X63411D02*
X65773D01*
X69562D02*
X71924D01*
X75714D02*
X78076D01*
X81865D02*
X84227D01*
X88017D02*
X90379D01*
X137229D02*
X139592D01*
X131078D02*
X133440D01*
X124926D02*
X127288D01*
X118775D02*
X121137D01*
X112623D02*
X114985D01*
X106472D02*
X108834D01*
X100320D02*
X102682D01*
X149532D02*
X151895D01*
X155684D02*
X158046D01*
X161836D02*
X164198D01*
X167987D02*
X170349D01*
X174139D02*
X176501D01*
X241806D02*
X244168D01*
X235654D02*
X238017D01*
X229503D02*
X231865D01*
X223351Y20399D02*
X225714D01*
X217200D02*
X219562D01*
X211048Y20472D02*
X213410D01*
X204897D02*
X207259D01*
X198745D02*
X201107D01*
X247958D02*
X250320D01*
X254109D02*
X256471D01*
X260261D02*
X262623D01*
X266412D02*
X268775D01*
X272564D02*
X274926D01*
X278716D02*
X281078D01*
X284867D02*
X287229D01*
X291019D02*
X293381D01*
X340231D02*
X342594D01*
X334080D02*
X336442D01*
X327928D02*
X330290D01*
X321777D02*
X324139D01*
X315625D02*
X317987D01*
X309473D02*
X311836D01*
X303322D02*
X305684D01*
X297170D02*
X299533D01*
X346383D02*
X348745D01*
X352535D02*
X354897D01*
X358686D02*
X361048D01*
X364838D02*
X367200D01*
X370989D02*
X373351D01*
X377141D02*
X379503D01*
X383292D02*
X385655D01*
X389444D02*
X391806D01*
X191929Y129528D02*
X191899Y130528D01*
X191809Y131525D01*
X191660Y132515D01*
X191452Y133494D01*
X191186Y134459D01*
X190862Y135407D01*
X190482Y136333D01*
X190048Y137235D01*
X189561Y138110D01*
X189022Y138953D01*
X188433Y139763D01*
X187797Y140536D01*
X187117Y141270D01*
X186393Y141962D01*
X185629Y142609D01*
X184828Y143210D01*
X183993Y143761D01*
X183126Y144262D01*
X182230Y144710D01*
X181310Y145103D01*
X180367Y145441D01*
X179406Y145722D01*
X178430Y145944D01*
X177443Y146108D01*
X176447Y146213D01*
X175447Y146258D01*
X174446Y146243D01*
X173448Y146168D01*
X172456Y146034D01*
X171474Y145840D01*
X170505Y145589D01*
X169553Y145279D01*
X168621Y144913D01*
X167712Y144493D01*
X166831Y144018D01*
X165979Y143492D01*
X165160Y142916D01*
X164378Y142291D01*
X163634Y141622D01*
X162931Y140908D01*
X162273Y140155D01*
X161660Y139363D01*
X161096Y138535D01*
X160583Y137676D01*
X160122Y136787D01*
X159714Y135873D01*
X159363Y134936D01*
X159067Y133979D01*
X158830Y133006D01*
X158651Y132021D01*
X158532Y131027D01*
X158472Y130028D01*
Y129027D01*
X158532Y128028D01*
X158651Y127034D01*
X158830Y126049D01*
X159067Y125076D01*
X159363Y124119D01*
X159714Y123182D01*
X160122Y122268D01*
X160583Y121379D01*
X161096Y120520D01*
X161660Y119693D01*
X162273Y118901D01*
X162931Y118147D01*
X163634Y117434D01*
X164378Y116764D01*
X165160Y116139D01*
X165979Y115563D01*
X166831Y115037D01*
X167712Y114563D01*
X168621Y114142D01*
X169553Y113776D01*
X170505Y113467D01*
X171474Y113215D01*
X172456Y113021D01*
X173448Y112887D01*
X174446Y112812D01*
X175447Y112797D01*
X176447Y112842D01*
X177443Y112947D01*
X178430Y113111D01*
X179406Y113333D01*
X180367Y113614D01*
X181310Y113952D01*
X182230Y114345D01*
X183126Y114793D01*
X183993Y115294D01*
X184828Y115845D01*
X185629Y116446D01*
X186393Y117093D01*
X187117Y117785D01*
X187797Y118519D01*
X188433Y119292D01*
X189022Y120102D01*
X189561Y120946D01*
X190048Y121820D01*
X190482Y122722D01*
X190862Y123648D01*
X191186Y124596D01*
X191452Y125561D01*
X191660Y126540D01*
X191809Y127530D01*
X191899Y128527D01*
X191929Y129527D01*
X225394Y122520D02*
Y142520D01*
X250984Y122520D02*
Y142520D01*
X225394Y122520D02*
X250984D01*
X225394Y142520D02*
Y160630D01*
X250984Y142520D02*
Y160630D01*
X225394D02*
X250984D01*
X264528Y127638D02*
Y157638D01*
Y127638D02*
X269528D01*
X264528Y157638D02*
X269528D01*
Y117638D02*
X289528D01*
X269528D02*
Y162638D01*
X289528Y117638D02*
Y162638D01*
X269528D02*
Y167638D01*
X289528D01*
Y162638D02*
Y167638D01*
X230098Y166339D02*
X232087D01*
X246260D02*
X248248D01*
X246260Y162402D02*
Y170276D01*
X232087D02*
X246260D01*
X232087Y162402D02*
Y170276D01*
Y162402D02*
X246260D01*
X8858Y143110D02*
Y146260D01*
X11417Y146260D01*
X21063Y143110D02*
Y146260D01*
X18504Y146260D02*
X21063Y146260D01*
X24044Y143110D02*
Y146260D01*
X26603D01*
X36249Y143110D02*
Y146260D01*
X33689D02*
X36249D01*
X39229Y143110D02*
Y146260D01*
X41789D01*
X51434Y143110D02*
Y146260D01*
X48875D02*
X51434D01*
X54415Y143110D02*
Y146260D01*
X56974D01*
X66620Y143110D02*
Y146260D01*
X64061D02*
X66620D01*
X69601Y143110D02*
Y146260D01*
X72160D01*
X81805Y143110D02*
Y146260D01*
X79246D02*
X81805D01*
X84786Y143110D02*
Y146260D01*
X87345D01*
X96991Y143110D02*
Y146260D01*
X94432D02*
X96991D01*
X99972Y143110D02*
Y146260D01*
X102531D01*
X112177Y143110D02*
Y146260D01*
X109617D02*
X112177D01*
X115157Y143110D02*
Y146260D01*
X117717D01*
X127362Y143110D02*
Y146260D01*
X124803D02*
X127362D01*
X199744Y170315D02*
X202953D01*
Y167717D02*
Y170315D01*
X199744Y158819D02*
X202953D01*
Y161417D01*
X151732Y187224D02*
Y197815D01*
Y187224D02*
X182913D01*
Y197815D01*
X151732D02*
X182913D01*
X229114Y117126D02*
X231102D01*
X245276D02*
X247264D01*
X245276Y113189D02*
Y121063D01*
X231102D02*
X245276D01*
X231102Y113189D02*
Y121063D01*
Y113189D02*
X245276D01*
X199606Y198465D02*
X229606D01*
X199606Y193465D02*
Y198465D01*
X229606Y193465D02*
Y198465D01*
X189606Y173465D02*
Y193465D01*
X234606D01*
X189606Y173465D02*
X234606D01*
Y193465D02*
X239606D01*
Y173465D02*
Y193465D01*
X234606Y173465D02*
X239606D01*
X212992Y113386D02*
Y116535D01*
X209055Y113386D02*
X212992D01*
Y122047D02*
Y125197D01*
X209055D02*
X212992D01*
X136417Y147835D02*
Y172638D01*
Y147835D02*
X161220D01*
Y172638D01*
X136417D02*
X161220D01*
D60*
X220276Y356299D02*
X219731Y357048D01*
X218851Y356762D01*
Y355836D01*
X219731Y355550D01*
X220276Y356299D01*
Y259842D02*
X219731Y260591D01*
X218851Y260305D01*
Y259380D01*
X219731Y259094D01*
X220276Y259842D01*
Y163386D02*
X219731Y164135D01*
X218851Y163849D01*
Y162923D01*
X219731Y162637D01*
X220276Y163386D01*
D61*
X7579Y331890D02*
X6841Y332316D01*
Y331464D01*
X7579Y331890D01*
X22764D02*
X22026Y332316D01*
Y331464D01*
X22764Y331890D01*
X37950D02*
X37212Y332316D01*
Y331464D01*
X37950Y331890D01*
X53136D02*
X52397Y332316D01*
Y331464D01*
X53136Y331890D01*
X68321D02*
X67583Y332316D01*
Y331464D01*
X68321Y331890D01*
X83507D02*
X82768Y332316D01*
Y331464D01*
X83507Y331890D01*
X98692D02*
X97954Y332316D01*
Y331464D01*
X98692Y331890D01*
X113878D02*
X113140Y332316D01*
Y331464D01*
X113878Y331890D01*
X196949Y364961D02*
X196211Y365387D01*
Y364534D01*
X196949Y364961D01*
X206398Y319291D02*
X205659Y319718D01*
Y318865D01*
X206398Y319291D01*
X130709Y366929D02*
X129970Y367355D01*
Y366503D01*
X130709Y366929D01*
X7579Y235433D02*
X6841Y235859D01*
Y235007D01*
X7579Y235433D01*
X22764D02*
X22026Y235859D01*
Y235007D01*
X22764Y235433D01*
X37950D02*
X37212Y235859D01*
Y235007D01*
X37950Y235433D01*
X53136D02*
X52397Y235859D01*
Y235007D01*
X53136Y235433D01*
X68321D02*
X67583Y235859D01*
Y235007D01*
X68321Y235433D01*
X83507D02*
X82768Y235859D01*
Y235007D01*
X83507Y235433D01*
X98692D02*
X97954Y235859D01*
Y235007D01*
X98692Y235433D01*
X113878D02*
X113140Y235859D01*
Y235007D01*
X113878Y235433D01*
X196949Y268504D02*
X196211Y268930D01*
Y268078D01*
X196949Y268504D01*
X206398Y222835D02*
X205659Y223261D01*
Y222409D01*
X206398Y222835D01*
X130709Y270473D02*
X129970Y270899D01*
Y270046D01*
X130709Y270473D01*
X7579Y138976D02*
X6841Y139403D01*
Y138550D01*
X7579Y138976D01*
X22764D02*
X22026Y139403D01*
Y138550D01*
X22764Y138976D01*
X37950D02*
X37212Y139403D01*
Y138550D01*
X37950Y138976D01*
X53136D02*
X52397Y139403D01*
Y138550D01*
X53136Y138976D01*
X68321D02*
X67583Y139403D01*
Y138550D01*
X68321Y138976D01*
X83507D02*
X82768Y139403D01*
Y138550D01*
X83507Y138976D01*
X98692D02*
X97954Y139403D01*
Y138550D01*
X98692Y138976D01*
X113878D02*
X113140Y139403D01*
Y138550D01*
X113878Y138976D01*
X196949Y172047D02*
X196211Y172474D01*
Y171621D01*
X196949Y172047D01*
X206398Y126378D02*
X205659Y126804D01*
Y125952D01*
X206398Y126378D01*
X130709Y174016D02*
X129970Y174442D01*
Y173590D01*
X130709Y174016D01*
D62*
X124803Y343307D02*
Y345276D01*
Y343307D02*
X128346Y340158D01*
X124803Y246850D02*
Y248819D01*
Y246850D02*
X128346Y243701D01*
X124803Y150394D02*
Y152362D01*
Y150394D02*
X128346Y147244D01*
D63*
X143176Y390026D02*
X142652Y390551D01*
X141602D01*
X141077Y390026D01*
Y389501D01*
X141602Y388976D01*
X142652D01*
X143176Y388452D01*
Y387927D01*
X142652Y387402D01*
X141602D01*
X141077Y387927D01*
X144226Y390551D02*
Y387402D01*
X145800D01*
X146325Y387927D01*
Y388452D01*
X145800Y388976D01*
X144226D01*
X145800D01*
X146325Y389501D01*
Y390026D01*
X145800Y390551D01*
X144226D01*
X149474D02*
X147375D01*
Y388976D01*
X148424Y389501D01*
X148949D01*
X149474Y388976D01*
Y387927D01*
X148949Y387402D01*
X147899D01*
X147375Y387927D01*
X216668Y361417D02*
Y358793D01*
X217192Y358268D01*
X218242D01*
X218766Y358793D01*
Y361417D01*
X221915Y358268D02*
X219816D01*
X221915Y360367D01*
Y360892D01*
X221390Y361417D01*
X220341D01*
X219816Y360892D01*
X123754Y367980D02*
X123229Y367455D01*
Y366405D01*
X123754Y365881D01*
X124278D01*
X124803Y366405D01*
Y367455D01*
X125328Y367980D01*
X125853D01*
X126377Y367455D01*
Y366405D01*
X125853Y365881D01*
X123229Y369029D02*
X126377D01*
Y370603D01*
X125853Y371128D01*
X125328D01*
X124803Y370603D01*
Y369029D01*
Y370603D01*
X124278Y371128D01*
X123754D01*
X123229Y370603D01*
Y369029D01*
X126377Y373752D02*
X123229D01*
X124803Y372178D01*
Y374277D01*
X118635Y367980D02*
X118111Y367455D01*
Y366405D01*
X118635Y365881D01*
X119160D01*
X119685Y366405D01*
Y367455D01*
X120210Y367980D01*
X120735D01*
X121259Y367455D01*
Y366405D01*
X120735Y365881D01*
X118111Y369029D02*
X121259D01*
Y370603D01*
X120735Y371128D01*
X120210D01*
X119685Y370603D01*
Y369029D01*
Y370603D01*
X119160Y371128D01*
X118635D01*
X118111Y370603D01*
Y369029D01*
X118635Y372178D02*
X118111Y372703D01*
Y373752D01*
X118635Y374277D01*
X119160D01*
X119685Y373752D01*
Y373227D01*
Y373752D01*
X120210Y374277D01*
X120735D01*
X121259Y373752D01*
Y372703D01*
X120735Y372178D01*
X112730Y368767D02*
X112205Y368242D01*
Y367193D01*
X112730Y366668D01*
X113255D01*
X113779Y367193D01*
Y368242D01*
X114304Y368767D01*
X114829D01*
X115354Y368242D01*
Y367193D01*
X114829Y366668D01*
X112205Y369817D02*
X115354D01*
Y371391D01*
X114829Y371916D01*
X114304D01*
X113779Y371391D01*
Y369817D01*
Y371391D01*
X113255Y371916D01*
X112730D01*
X112205Y371391D01*
Y369817D01*
X115354Y375064D02*
Y372965D01*
X113255Y375064D01*
X112730D01*
X112205Y374539D01*
Y373490D01*
X112730Y372965D01*
X168243Y365749D02*
Y368897D01*
X169817D01*
X170342Y368372D01*
Y367323D01*
X169817Y366798D01*
X168243D01*
X169292D02*
X170342Y365749D01*
X171391Y368372D02*
X171916Y368897D01*
X172966D01*
X173490Y368372D01*
Y367848D01*
X172966Y367323D01*
X172441D01*
X172966D01*
X173490Y366798D01*
Y366273D01*
X172966Y365749D01*
X171916D01*
X171391Y366273D01*
X174540D02*
X175065Y365749D01*
X176114D01*
X176639Y366273D01*
Y368372D01*
X176114Y368897D01*
X175065D01*
X174540Y368372D01*
Y367848D01*
X175065Y367323D01*
X176639D01*
X207219Y340945D02*
Y344094D01*
X208793D01*
X209318Y343569D01*
Y342520D01*
X208793Y341995D01*
X207219D01*
X208269D02*
X209318Y340945D01*
X210368Y343569D02*
X210893Y344094D01*
X211942D01*
X212467Y343569D01*
Y343044D01*
X211942Y342520D01*
X211417D01*
X211942D01*
X212467Y341995D01*
Y341470D01*
X211942Y340945D01*
X210893D01*
X210368Y341470D01*
X213516Y343569D02*
X214041Y344094D01*
X215091D01*
X215615Y343569D01*
Y343044D01*
X215091Y342520D01*
X215615Y341995D01*
Y341470D01*
X215091Y340945D01*
X214041D01*
X213516Y341470D01*
Y341995D01*
X214041Y342520D01*
X213516Y343044D01*
Y343569D01*
X214041Y342520D02*
X215091D01*
X176771Y354070D02*
X173623D01*
Y355644D01*
X174147Y356169D01*
X175197D01*
X175722Y355644D01*
Y354070D01*
Y355119D02*
X176771Y356169D01*
X174147Y357218D02*
X173623Y357743D01*
Y358792D01*
X174147Y359317D01*
X174672D01*
X175197Y358792D01*
Y358268D01*
Y358792D01*
X175722Y359317D01*
X176246D01*
X176771Y358792D01*
Y357743D01*
X176246Y357218D01*
X173623Y362466D02*
X174147Y361416D01*
X175197Y360367D01*
X176246D01*
X176771Y360892D01*
Y361941D01*
X176246Y362466D01*
X175722D01*
X175197Y361941D01*
Y360367D01*
X178085Y376378D02*
Y379527D01*
X179660D01*
X180184Y379002D01*
Y377953D01*
X179660Y377428D01*
X178085D01*
X179135D02*
X180184Y376378D01*
X181234Y379002D02*
X181759Y379527D01*
X182808D01*
X183333Y379002D01*
Y378478D01*
X182808Y377953D01*
X182283D01*
X182808D01*
X183333Y377428D01*
Y376903D01*
X182808Y376378D01*
X181759D01*
X181234Y376903D01*
X184382Y379002D02*
X184907Y379527D01*
X185957D01*
X186481Y379002D01*
Y378478D01*
X185957Y377953D01*
X185432D01*
X185957D01*
X186481Y377428D01*
Y376903D01*
X185957Y376378D01*
X184907D01*
X184382Y376903D01*
X36811Y356432D02*
X33662D01*
Y358006D01*
X34187Y358531D01*
X35237D01*
X35761Y358006D01*
Y356432D01*
Y357481D02*
X36811Y358531D01*
X34187Y359580D02*
X33662Y360105D01*
Y361155D01*
X34187Y361680D01*
X34712D01*
X35237Y361155D01*
Y360630D01*
Y361155D01*
X35761Y361680D01*
X36286D01*
X36811Y361155D01*
Y360105D01*
X36286Y359580D01*
X36811Y364828D02*
Y362729D01*
X34712Y364828D01*
X34187D01*
X33662Y364303D01*
Y363254D01*
X34187Y362729D01*
X32311Y356432D02*
X29163D01*
Y358006D01*
X29688Y358531D01*
X30737D01*
X31262Y358006D01*
Y356432D01*
Y357481D02*
X32311Y358531D01*
X29688Y359580D02*
X29163Y360105D01*
Y361155D01*
X29688Y361680D01*
X30212D01*
X30737Y361155D01*
Y360630D01*
Y361155D01*
X31262Y361680D01*
X31787D01*
X32311Y361155D01*
Y360105D01*
X31787Y359580D01*
X32311Y362729D02*
Y363778D01*
Y363254D01*
X29163D01*
X29688Y362729D01*
X116668Y317717D02*
Y320866D01*
X118242D01*
X118767Y320341D01*
Y319291D01*
X118242Y318767D01*
X116668D01*
X117718D02*
X118767Y317717D01*
X119817Y320341D02*
X120341Y320866D01*
X121391D01*
X121916Y320341D01*
Y319816D01*
X121391Y319291D01*
X120866D01*
X121391D01*
X121916Y318767D01*
Y318242D01*
X121391Y317717D01*
X120341D01*
X119817Y318242D01*
X122965Y320341D02*
X123490Y320866D01*
X124539D01*
X125064Y320341D01*
Y318242D01*
X124539Y317717D01*
X123490D01*
X122965Y318242D01*
Y320341D01*
X101314Y317717D02*
Y320866D01*
X102888D01*
X103413Y320341D01*
Y319291D01*
X102888Y318767D01*
X101314D01*
X102363D02*
X103413Y317717D01*
X106561D02*
X104462D01*
X106561Y319816D01*
Y320341D01*
X106036Y320866D01*
X104987D01*
X104462Y320341D01*
X107611Y318242D02*
X108136Y317717D01*
X109185D01*
X109710Y318242D01*
Y320341D01*
X109185Y320866D01*
X108136D01*
X107611Y320341D01*
Y319816D01*
X108136Y319291D01*
X109710D01*
X27812Y356432D02*
X24664D01*
Y358006D01*
X25188Y358531D01*
X26238D01*
X26763Y358006D01*
Y356432D01*
Y357481D02*
X27812Y358531D01*
Y361680D02*
Y359580D01*
X25713Y361680D01*
X25188D01*
X24664Y361155D01*
Y360105D01*
X25188Y359580D01*
Y362729D02*
X24664Y363254D01*
Y364303D01*
X25188Y364828D01*
X25713D01*
X26238Y364303D01*
X26763Y364828D01*
X27287D01*
X27812Y364303D01*
Y363254D01*
X27287Y362729D01*
X26763D01*
X26238Y363254D01*
X25713Y362729D01*
X25188D01*
X26238Y363254D02*
Y364303D01*
X23313Y356432D02*
X20164D01*
Y358006D01*
X20689Y358531D01*
X21738D01*
X22263Y358006D01*
Y356432D01*
Y357481D02*
X23313Y358531D01*
Y361680D02*
Y359580D01*
X21214Y361680D01*
X20689D01*
X20164Y361155D01*
Y360105D01*
X20689Y359580D01*
X20164Y362729D02*
Y364828D01*
X20689D01*
X22788Y362729D01*
X23313D01*
X18813Y356432D02*
X15665D01*
Y358006D01*
X16189Y358531D01*
X17239D01*
X17764Y358006D01*
Y356432D01*
Y357481D02*
X18813Y358531D01*
Y361680D02*
Y359580D01*
X16714Y361680D01*
X16189D01*
X15665Y361155D01*
Y360105D01*
X16189Y359580D01*
X15665Y364828D02*
X16189Y363778D01*
X17239Y362729D01*
X18288D01*
X18813Y363254D01*
Y364303D01*
X18288Y364828D01*
X17764D01*
X17239Y364303D01*
Y362729D01*
X14314Y356432D02*
X11165D01*
Y358006D01*
X11690Y358531D01*
X12740D01*
X13264Y358006D01*
Y356432D01*
Y357481D02*
X14314Y358531D01*
Y361680D02*
Y359580D01*
X12215Y361680D01*
X11690D01*
X11165Y361155D01*
Y360105D01*
X11690Y359580D01*
X14314Y364303D02*
X11165D01*
X12740Y362729D01*
Y364828D01*
X86353Y317717D02*
Y320866D01*
X87927D01*
X88452Y320341D01*
Y319291D01*
X87927Y318767D01*
X86353D01*
X87402D02*
X88452Y317717D01*
X91601D02*
X89502D01*
X91601Y319816D01*
Y320341D01*
X91076Y320866D01*
X90026D01*
X89502Y320341D01*
X92650D02*
X93175Y320866D01*
X94225D01*
X94749Y320341D01*
Y319816D01*
X94225Y319291D01*
X93700D01*
X94225D01*
X94749Y318767D01*
Y318242D01*
X94225Y317717D01*
X93175D01*
X92650Y318242D01*
X70999Y317717D02*
Y320866D01*
X72573D01*
X73098Y320341D01*
Y319291D01*
X72573Y318767D01*
X70999D01*
X72048D02*
X73098Y317717D01*
X76246D02*
X74147D01*
X76246Y319816D01*
Y320341D01*
X75722Y320866D01*
X74672D01*
X74147Y320341D01*
X79395Y317717D02*
X77296D01*
X79395Y319816D01*
Y320341D01*
X78870Y320866D01*
X77821D01*
X77296Y320341D01*
X9814Y356432D02*
X6666D01*
Y358006D01*
X7191Y358531D01*
X8240D01*
X8765Y358006D01*
Y356432D01*
Y357481D02*
X9814Y358531D01*
Y361680D02*
Y359580D01*
X7715Y361680D01*
X7191D01*
X6666Y361155D01*
Y360105D01*
X7191Y359580D01*
X9814Y362729D02*
Y363778D01*
Y363254D01*
X6666D01*
X7191Y362729D01*
X5511Y356432D02*
X2363D01*
Y358006D01*
X2887Y358531D01*
X3937D01*
X4462Y358006D01*
Y356432D01*
Y357481D02*
X5511Y358531D01*
Y361680D02*
Y359580D01*
X3412Y361680D01*
X2887D01*
X2363Y361155D01*
Y360105D01*
X2887Y359580D01*
Y362729D02*
X2363Y363254D01*
Y364303D01*
X2887Y364828D01*
X4986D01*
X5511Y364303D01*
Y363254D01*
X4986Y362729D01*
X2887D01*
X82678Y385040D02*
Y388189D01*
X84253D01*
X84777Y387664D01*
Y386614D01*
X84253Y386089D01*
X82678D01*
X83728D02*
X84777Y385040D01*
X85827D02*
X86876D01*
X86352D01*
Y388189D01*
X85827Y387664D01*
X88451Y385565D02*
X88976Y385040D01*
X90025D01*
X90550Y385565D01*
Y387664D01*
X90025Y388189D01*
X88976D01*
X88451Y387664D01*
Y387139D01*
X88976Y386614D01*
X90550D01*
X165749Y376378D02*
Y379527D01*
X167324D01*
X167848Y379002D01*
Y377953D01*
X167324Y377428D01*
X165749D01*
X166799D02*
X167848Y376378D01*
X168898D02*
X169947D01*
X169423D01*
Y379527D01*
X168898Y379002D01*
X171522D02*
X172046Y379527D01*
X173096D01*
X173621Y379002D01*
Y378478D01*
X173096Y377953D01*
X173621Y377428D01*
Y376903D01*
X173096Y376378D01*
X172046D01*
X171522Y376903D01*
Y377428D01*
X172046Y377953D01*
X171522Y378478D01*
Y379002D01*
X172046Y377953D02*
X173096D01*
X55907Y317717D02*
Y320866D01*
X57481D01*
X58006Y320341D01*
Y319291D01*
X57481Y318767D01*
X55907D01*
X56956D02*
X58006Y317717D01*
X59055D02*
X60105D01*
X59580D01*
Y320866D01*
X59055Y320341D01*
X63778Y320866D02*
X62729Y320341D01*
X61679Y319291D01*
Y318242D01*
X62204Y317717D01*
X63253D01*
X63778Y318242D01*
Y318767D01*
X63253Y319291D01*
X61679D01*
X38584Y318111D02*
Y321259D01*
X40158D01*
X40683Y320735D01*
Y319685D01*
X40158Y319160D01*
X38584D01*
X39633D02*
X40683Y318111D01*
X41732D02*
X42782D01*
X42257D01*
Y321259D01*
X41732Y320735D01*
X46455Y321259D02*
X44356D01*
Y319685D01*
X45406Y320210D01*
X45931D01*
X46455Y319685D01*
Y318636D01*
X45931Y318111D01*
X44881D01*
X44356Y318636D01*
X72880Y385040D02*
Y388189D01*
X74454D01*
X74979Y387664D01*
Y386614D01*
X74454Y386089D01*
X72880D01*
X73930D02*
X74979Y385040D01*
X76029D02*
X77078D01*
X76553D01*
Y388189D01*
X76029Y387664D01*
X80227Y385040D02*
Y388189D01*
X78653Y386614D01*
X80752D01*
X62600Y385040D02*
Y388189D01*
X64174D01*
X64699Y387664D01*
Y386614D01*
X64174Y386089D01*
X62600D01*
X63649D02*
X64699Y385040D01*
X65748D02*
X66798D01*
X66273D01*
Y388189D01*
X65748Y387664D01*
X70471Y385040D02*
X68372D01*
X70471Y387139D01*
Y387664D01*
X69946Y388189D01*
X68897D01*
X68372Y387664D01*
X26379Y310630D02*
Y313779D01*
X27953D01*
X28478Y313254D01*
Y312205D01*
X27953Y311680D01*
X26379D01*
X27429D02*
X28478Y310630D01*
X29528D02*
X30577D01*
X30053D01*
Y313779D01*
X29528Y313254D01*
X32152D02*
X32676Y313779D01*
X33726D01*
X34251Y313254D01*
Y311155D01*
X33726Y310630D01*
X32676D01*
X32152Y311155D01*
Y313254D01*
X54069Y385040D02*
Y388189D01*
X55643D01*
X56168Y387664D01*
Y386614D01*
X55643Y386089D01*
X54069D01*
X55119D02*
X56168Y385040D01*
X57218Y385565D02*
X57742Y385040D01*
X58792D01*
X59317Y385565D01*
Y387664D01*
X58792Y388189D01*
X57742D01*
X57218Y387664D01*
Y387139D01*
X57742Y386614D01*
X59317D01*
X26510Y306300D02*
Y309448D01*
X28084D01*
X28609Y308924D01*
Y307874D01*
X28084Y307349D01*
X26510D01*
X27560D02*
X28609Y306300D01*
X29659Y308924D02*
X30183Y309448D01*
X31233D01*
X31758Y308924D01*
Y308399D01*
X31233Y307874D01*
X31758Y307349D01*
Y306824D01*
X31233Y306300D01*
X30183D01*
X29659Y306824D01*
Y307349D01*
X30183Y307874D01*
X29659Y308399D01*
Y308924D01*
X30183Y307874D02*
X31233D01*
X247770Y362599D02*
Y365748D01*
X249344D01*
X249869Y365223D01*
Y364173D01*
X249344Y363649D01*
X247770D01*
X248819D02*
X249869Y362599D01*
X253017Y365748D02*
X251968Y365223D01*
X250918Y364173D01*
Y363124D01*
X251443Y362599D01*
X252493D01*
X253017Y363124D01*
Y363649D01*
X252493Y364173D01*
X250918D01*
X114830Y341864D02*
Y343963D01*
X114305Y344488D01*
X113255D01*
X112731Y343963D01*
Y341864D01*
X113255Y341339D01*
X114305D01*
X113780Y342389D02*
X114830Y341339D01*
X114305D02*
X114830Y341864D01*
X115879Y343963D02*
X116404Y344488D01*
X117453D01*
X117978Y343963D01*
Y343438D01*
X117453Y342913D01*
X117978Y342389D01*
Y341864D01*
X117453Y341339D01*
X116404D01*
X115879Y341864D01*
Y342389D01*
X116404Y342913D01*
X115879Y343438D01*
Y343963D01*
X116404Y342913D02*
X117453D01*
X99869Y341864D02*
Y343963D01*
X99344Y344488D01*
X98295D01*
X97770Y343963D01*
Y341864D01*
X98295Y341339D01*
X99344D01*
X98819Y342389D02*
X99869Y341339D01*
X99344D02*
X99869Y341864D01*
X100918Y344488D02*
X103017D01*
Y343963D01*
X100918Y341864D01*
Y341339D01*
X83727Y341864D02*
Y343963D01*
X83202Y344488D01*
X82153D01*
X81628Y343963D01*
Y341864D01*
X82153Y341339D01*
X83202D01*
X82678Y342389D02*
X83727Y341339D01*
X83202D02*
X83727Y341864D01*
X86876Y344488D02*
X85826Y343963D01*
X84777Y342913D01*
Y341864D01*
X85302Y341339D01*
X86351D01*
X86876Y341864D01*
Y342389D01*
X86351Y342913D01*
X84777D01*
X68766Y342258D02*
Y344357D01*
X68242Y344881D01*
X67192D01*
X66667Y344357D01*
Y342258D01*
X67192Y341733D01*
X68242D01*
X67717Y342782D02*
X68766Y341733D01*
X68242D02*
X68766Y342258D01*
X71915Y344881D02*
X69816D01*
Y343307D01*
X70866Y343832D01*
X71390D01*
X71915Y343307D01*
Y342258D01*
X71390Y341733D01*
X70341D01*
X69816Y342258D01*
X54200Y341864D02*
Y343963D01*
X53675Y344488D01*
X52625D01*
X52100Y343963D01*
Y341864D01*
X52625Y341339D01*
X53675D01*
X53150Y342389D02*
X54200Y341339D01*
X53675D02*
X54200Y341864D01*
X56823Y341339D02*
Y344488D01*
X55249Y342913D01*
X57348D01*
X38452Y342258D02*
Y344357D01*
X37927Y344881D01*
X36877D01*
X36353Y344357D01*
Y342258D01*
X36877Y341733D01*
X37927D01*
X37402Y342782D02*
X38452Y341733D01*
X37927D02*
X38452Y342258D01*
X39501Y344357D02*
X40026Y344881D01*
X41075D01*
X41600Y344357D01*
Y343832D01*
X41075Y343307D01*
X40551D01*
X41075D01*
X41600Y342782D01*
Y342258D01*
X41075Y341733D01*
X40026D01*
X39501Y342258D01*
X23491D02*
Y344357D01*
X22966Y344881D01*
X21917D01*
X21392Y344357D01*
Y342258D01*
X21917Y341733D01*
X22966D01*
X22441Y342782D02*
X23491Y341733D01*
X22966D02*
X23491Y342258D01*
X26640Y341733D02*
X24541D01*
X26640Y343832D01*
Y344357D01*
X26115Y344881D01*
X25065D01*
X24541Y344357D01*
X8661Y341864D02*
Y343963D01*
X8137Y344488D01*
X7087D01*
X6562Y343963D01*
Y341864D01*
X7087Y341339D01*
X8137D01*
X7612Y342389D02*
X8661Y341339D01*
X8137D02*
X8661Y341864D01*
X9711Y341339D02*
X10760D01*
X10236D01*
Y344488D01*
X9711Y343963D01*
X25460Y351181D02*
X24410D01*
X24935D01*
Y348557D01*
X24410Y348032D01*
X23885D01*
X23360Y348557D01*
X28083Y348032D02*
Y351181D01*
X26509Y349606D01*
X28608D01*
X276641Y365748D02*
X275591D01*
X276116D01*
Y363124D01*
X275591Y362599D01*
X275066D01*
X274541Y363124D01*
X279789Y362599D02*
X277690D01*
X279789Y364698D01*
Y365223D01*
X279264Y365748D01*
X278215D01*
X277690Y365223D01*
X197376Y350393D02*
Y347245D01*
X198950D01*
X199475Y347769D01*
Y349868D01*
X198950Y350393D01*
X197376D01*
X202624D02*
X201574Y349868D01*
X200525Y348819D01*
Y347769D01*
X201049Y347245D01*
X202099D01*
X202624Y347769D01*
Y348294D01*
X202099Y348819D01*
X200525D01*
X194357Y328609D02*
X193832Y329133D01*
X192783D01*
X192258Y328609D01*
Y326510D01*
X192783Y325985D01*
X193832D01*
X194357Y326510D01*
X197506Y329133D02*
X195407D01*
Y327559D01*
X196456Y328084D01*
X196981D01*
X197506Y327559D01*
Y326510D01*
X196981Y325985D01*
X195931D01*
X195407Y326510D01*
X25066Y371653D02*
X24016D01*
X24541D01*
Y369029D01*
X24016Y368505D01*
X23492D01*
X22967Y369029D01*
X26115Y371128D02*
X26640Y371653D01*
X27690D01*
X28214Y371128D01*
Y370603D01*
X27690Y370079D01*
X27165D01*
X27690D01*
X28214Y369554D01*
Y369029D01*
X27690Y368505D01*
X26640D01*
X26115Y369029D01*
X179266Y344489D02*
Y347637D01*
X180840D01*
X181365Y347113D01*
Y346063D01*
X180840Y345538D01*
X179266D01*
X180315D02*
X181365Y344489D01*
X182414Y347113D02*
X182939Y347637D01*
X183989D01*
X184514Y347113D01*
Y346588D01*
X183989Y346063D01*
X183464D01*
X183989D01*
X184514Y345538D01*
Y345013D01*
X183989Y344489D01*
X182939D01*
X182414Y345013D01*
X254200Y306694D02*
Y309842D01*
X255774D01*
X256299Y309317D01*
Y308268D01*
X255774Y307743D01*
X254200D01*
X255250D02*
X256299Y306694D01*
X257349D02*
X258398D01*
X257874D01*
Y309842D01*
X257349Y309317D01*
X154988Y375591D02*
Y378740D01*
X156562D01*
X157087Y378215D01*
Y377165D01*
X156562Y376641D01*
X154988D01*
X158136Y375591D02*
X159186D01*
X158661D01*
Y378740D01*
X158136Y378215D01*
X242520Y390157D02*
X241470D01*
X241995D01*
Y387533D01*
X241470Y387008D01*
X240945D01*
X240421Y387533D01*
X243569Y387008D02*
X244619D01*
X244094D01*
Y390157D01*
X243569Y389632D01*
X128873Y371653D02*
X129922D01*
X129397D01*
Y368505D01*
X128873D01*
X129922D01*
X133595Y371128D02*
X133071Y371653D01*
X132021D01*
X131496Y371128D01*
Y369029D01*
X132021Y368505D01*
X133071D01*
X133595Y369029D01*
X134645Y368505D02*
X135694D01*
X135170D01*
Y371653D01*
X134645Y371128D01*
X206361Y327828D02*
Y324679D01*
X207935D01*
X208460Y325204D01*
Y327303D01*
X207935Y327828D01*
X206361D01*
X211609Y324679D02*
X209510D01*
X211609Y326779D01*
Y327303D01*
X211084Y327828D01*
X210034D01*
X209510Y327303D01*
X131365Y337533D02*
X131889Y338057D01*
Y339107D01*
X131365Y339632D01*
X129265D01*
X128741Y339107D01*
Y338057D01*
X129265Y337533D01*
X131365Y336483D02*
X131889Y335958D01*
Y334909D01*
X131365Y334384D01*
X130840D01*
X130315Y334909D01*
X129790Y334384D01*
X129265D01*
X128741Y334909D01*
Y335958D01*
X129265Y336483D01*
X129790D01*
X130315Y335958D01*
X130840Y336483D01*
X131365D01*
X130315Y335958D02*
Y334909D01*
X105774Y356955D02*
X105250Y357480D01*
X104200D01*
X103675Y356955D01*
Y354856D01*
X104200Y354331D01*
X105250D01*
X105774Y354856D01*
X106824Y357480D02*
X108923D01*
Y356955D01*
X106824Y354856D01*
Y354331D01*
X143176Y293569D02*
X142652Y294094D01*
X141602D01*
X141077Y293569D01*
Y293044D01*
X141602Y292520D01*
X142652D01*
X143176Y291995D01*
Y291470D01*
X142652Y290945D01*
X141602D01*
X141077Y291470D01*
X144226Y294094D02*
Y290945D01*
X145800D01*
X146325Y291470D01*
Y291995D01*
X145800Y292520D01*
X144226D01*
X145800D01*
X146325Y293044D01*
Y293569D01*
X145800Y294094D01*
X144226D01*
X149474D02*
X147375D01*
Y292520D01*
X148424Y293044D01*
X148949D01*
X149474Y292520D01*
Y291470D01*
X148949Y290945D01*
X147899D01*
X147375Y291470D01*
X216668Y264960D02*
Y262336D01*
X217192Y261812D01*
X218242D01*
X218766Y262336D01*
Y264960D01*
X221915Y261812D02*
X219816D01*
X221915Y263911D01*
Y264435D01*
X221390Y264960D01*
X220341D01*
X219816Y264435D01*
X123754Y271523D02*
X123229Y270998D01*
Y269949D01*
X123754Y269424D01*
X124278D01*
X124803Y269949D01*
Y270998D01*
X125328Y271523D01*
X125853D01*
X126377Y270998D01*
Y269949D01*
X125853Y269424D01*
X123229Y272573D02*
X126377D01*
Y274147D01*
X125853Y274672D01*
X125328D01*
X124803Y274147D01*
Y272573D01*
Y274147D01*
X124278Y274672D01*
X123754D01*
X123229Y274147D01*
Y272573D01*
X126377Y277295D02*
X123229D01*
X124803Y275721D01*
Y277820D01*
X118635Y271523D02*
X118111Y270998D01*
Y269949D01*
X118635Y269424D01*
X119160D01*
X119685Y269949D01*
Y270998D01*
X120210Y271523D01*
X120735D01*
X121259Y270998D01*
Y269949D01*
X120735Y269424D01*
X118111Y272573D02*
X121259D01*
Y274147D01*
X120735Y274672D01*
X120210D01*
X119685Y274147D01*
Y272573D01*
Y274147D01*
X119160Y274672D01*
X118635D01*
X118111Y274147D01*
Y272573D01*
X118635Y275721D02*
X118111Y276246D01*
Y277295D01*
X118635Y277820D01*
X119160D01*
X119685Y277295D01*
Y276771D01*
Y277295D01*
X120210Y277820D01*
X120735D01*
X121259Y277295D01*
Y276246D01*
X120735Y275721D01*
X112730Y272310D02*
X112205Y271786D01*
Y270736D01*
X112730Y270211D01*
X113255D01*
X113779Y270736D01*
Y271786D01*
X114304Y272310D01*
X114829D01*
X115354Y271786D01*
Y270736D01*
X114829Y270211D01*
X112205Y273360D02*
X115354D01*
Y274934D01*
X114829Y275459D01*
X114304D01*
X113779Y274934D01*
Y273360D01*
Y274934D01*
X113255Y275459D01*
X112730D01*
X112205Y274934D01*
Y273360D01*
X115354Y278608D02*
Y276508D01*
X113255Y278608D01*
X112730D01*
X112205Y278083D01*
Y277033D01*
X112730Y276508D01*
X168243Y269292D02*
Y272441D01*
X169817D01*
X170342Y271916D01*
Y270866D01*
X169817Y270341D01*
X168243D01*
X169292D02*
X170342Y269292D01*
X171391Y271916D02*
X171916Y272441D01*
X172966D01*
X173490Y271916D01*
Y271391D01*
X172966Y270866D01*
X172441D01*
X172966D01*
X173490Y270341D01*
Y269817D01*
X172966Y269292D01*
X171916D01*
X171391Y269817D01*
X174540D02*
X175065Y269292D01*
X176114D01*
X176639Y269817D01*
Y271916D01*
X176114Y272441D01*
X175065D01*
X174540Y271916D01*
Y271391D01*
X175065Y270866D01*
X176639D01*
X207219Y244489D02*
Y247637D01*
X208793D01*
X209318Y247113D01*
Y246063D01*
X208793Y245538D01*
X207219D01*
X208269D02*
X209318Y244489D01*
X210368Y247113D02*
X210893Y247637D01*
X211942D01*
X212467Y247113D01*
Y246588D01*
X211942Y246063D01*
X211417D01*
X211942D01*
X212467Y245538D01*
Y245013D01*
X211942Y244489D01*
X210893D01*
X210368Y245013D01*
X213516Y247113D02*
X214041Y247637D01*
X215091D01*
X215615Y247113D01*
Y246588D01*
X215091Y246063D01*
X215615Y245538D01*
Y245013D01*
X215091Y244489D01*
X214041D01*
X213516Y245013D01*
Y245538D01*
X214041Y246063D01*
X213516Y246588D01*
Y247113D01*
X214041Y246063D02*
X215091D01*
X176771Y257613D02*
X173623D01*
Y259187D01*
X174147Y259712D01*
X175197D01*
X175722Y259187D01*
Y257613D01*
Y258663D02*
X176771Y259712D01*
X174147Y260761D02*
X173623Y261286D01*
Y262336D01*
X174147Y262861D01*
X174672D01*
X175197Y262336D01*
Y261811D01*
Y262336D01*
X175722Y262861D01*
X176246D01*
X176771Y262336D01*
Y261286D01*
X176246Y260761D01*
X173623Y266009D02*
X174147Y264960D01*
X175197Y263910D01*
X176246D01*
X176771Y264435D01*
Y265484D01*
X176246Y266009D01*
X175722D01*
X175197Y265484D01*
Y263910D01*
X178085Y279922D02*
Y283070D01*
X179660D01*
X180184Y282546D01*
Y281496D01*
X179660Y280971D01*
X178085D01*
X179135D02*
X180184Y279922D01*
X181234Y282546D02*
X181759Y283070D01*
X182808D01*
X183333Y282546D01*
Y282021D01*
X182808Y281496D01*
X182283D01*
X182808D01*
X183333Y280971D01*
Y280447D01*
X182808Y279922D01*
X181759D01*
X181234Y280447D01*
X184382Y282546D02*
X184907Y283070D01*
X185957D01*
X186481Y282546D01*
Y282021D01*
X185957Y281496D01*
X185432D01*
X185957D01*
X186481Y280971D01*
Y280447D01*
X185957Y279922D01*
X184907D01*
X184382Y280447D01*
X36811Y259975D02*
X33662D01*
Y261549D01*
X34187Y262074D01*
X35237D01*
X35761Y261549D01*
Y259975D01*
Y261025D02*
X36811Y262074D01*
X34187Y263124D02*
X33662Y263649D01*
Y264698D01*
X34187Y265223D01*
X34712D01*
X35237Y264698D01*
Y264173D01*
Y264698D01*
X35761Y265223D01*
X36286D01*
X36811Y264698D01*
Y263649D01*
X36286Y263124D01*
X36811Y268371D02*
Y266272D01*
X34712Y268371D01*
X34187D01*
X33662Y267847D01*
Y266797D01*
X34187Y266272D01*
X32311Y259975D02*
X29163D01*
Y261549D01*
X29688Y262074D01*
X30737D01*
X31262Y261549D01*
Y259975D01*
Y261025D02*
X32311Y262074D01*
X29688Y263124D02*
X29163Y263649D01*
Y264698D01*
X29688Y265223D01*
X30212D01*
X30737Y264698D01*
Y264173D01*
Y264698D01*
X31262Y265223D01*
X31787D01*
X32311Y264698D01*
Y263649D01*
X31787Y263124D01*
X32311Y266272D02*
Y267322D01*
Y266797D01*
X29163D01*
X29688Y266272D01*
X116668Y221260D02*
Y224409D01*
X118242D01*
X118767Y223884D01*
Y222835D01*
X118242Y222310D01*
X116668D01*
X117718D02*
X118767Y221260D01*
X119817Y223884D02*
X120341Y224409D01*
X121391D01*
X121916Y223884D01*
Y223359D01*
X121391Y222835D01*
X120866D01*
X121391D01*
X121916Y222310D01*
Y221785D01*
X121391Y221260D01*
X120341D01*
X119817Y221785D01*
X122965Y223884D02*
X123490Y224409D01*
X124539D01*
X125064Y223884D01*
Y221785D01*
X124539Y221260D01*
X123490D01*
X122965Y221785D01*
Y223884D01*
X101314Y221260D02*
Y224409D01*
X102888D01*
X103413Y223884D01*
Y222835D01*
X102888Y222310D01*
X101314D01*
X102363D02*
X103413Y221260D01*
X106561D02*
X104462D01*
X106561Y223359D01*
Y223884D01*
X106036Y224409D01*
X104987D01*
X104462Y223884D01*
X107611Y221785D02*
X108136Y221260D01*
X109185D01*
X109710Y221785D01*
Y223884D01*
X109185Y224409D01*
X108136D01*
X107611Y223884D01*
Y223359D01*
X108136Y222835D01*
X109710D01*
X27812Y259975D02*
X24664D01*
Y261549D01*
X25188Y262074D01*
X26238D01*
X26763Y261549D01*
Y259975D01*
Y261025D02*
X27812Y262074D01*
Y265223D02*
Y263124D01*
X25713Y265223D01*
X25188D01*
X24664Y264698D01*
Y263649D01*
X25188Y263124D01*
Y266272D02*
X24664Y266797D01*
Y267847D01*
X25188Y268371D01*
X25713D01*
X26238Y267847D01*
X26763Y268371D01*
X27287D01*
X27812Y267847D01*
Y266797D01*
X27287Y266272D01*
X26763D01*
X26238Y266797D01*
X25713Y266272D01*
X25188D01*
X26238Y266797D02*
Y267847D01*
X23313Y259975D02*
X20164D01*
Y261549D01*
X20689Y262074D01*
X21738D01*
X22263Y261549D01*
Y259975D01*
Y261025D02*
X23313Y262074D01*
Y265223D02*
Y263124D01*
X21214Y265223D01*
X20689D01*
X20164Y264698D01*
Y263649D01*
X20689Y263124D01*
X20164Y266272D02*
Y268371D01*
X20689D01*
X22788Y266272D01*
X23313D01*
X18813Y259975D02*
X15665D01*
Y261549D01*
X16189Y262074D01*
X17239D01*
X17764Y261549D01*
Y259975D01*
Y261025D02*
X18813Y262074D01*
Y265223D02*
Y263124D01*
X16714Y265223D01*
X16189D01*
X15665Y264698D01*
Y263649D01*
X16189Y263124D01*
X15665Y268371D02*
X16189Y267322D01*
X17239Y266272D01*
X18288D01*
X18813Y266797D01*
Y267847D01*
X18288Y268371D01*
X17764D01*
X17239Y267847D01*
Y266272D01*
X14314Y259975D02*
X11165D01*
Y261549D01*
X11690Y262074D01*
X12740D01*
X13264Y261549D01*
Y259975D01*
Y261025D02*
X14314Y262074D01*
Y265223D02*
Y263124D01*
X12215Y265223D01*
X11690D01*
X11165Y264698D01*
Y263649D01*
X11690Y263124D01*
X14314Y267847D02*
X11165D01*
X12740Y266272D01*
Y268371D01*
X86353Y221260D02*
Y224409D01*
X87927D01*
X88452Y223884D01*
Y222835D01*
X87927Y222310D01*
X86353D01*
X87402D02*
X88452Y221260D01*
X91601D02*
X89502D01*
X91601Y223359D01*
Y223884D01*
X91076Y224409D01*
X90026D01*
X89502Y223884D01*
X92650D02*
X93175Y224409D01*
X94225D01*
X94749Y223884D01*
Y223359D01*
X94225Y222835D01*
X93700D01*
X94225D01*
X94749Y222310D01*
Y221785D01*
X94225Y221260D01*
X93175D01*
X92650Y221785D01*
X70999Y221260D02*
Y224409D01*
X72573D01*
X73098Y223884D01*
Y222835D01*
X72573Y222310D01*
X70999D01*
X72048D02*
X73098Y221260D01*
X76246D02*
X74147D01*
X76246Y223359D01*
Y223884D01*
X75722Y224409D01*
X74672D01*
X74147Y223884D01*
X79395Y221260D02*
X77296D01*
X79395Y223359D01*
Y223884D01*
X78870Y224409D01*
X77821D01*
X77296Y223884D01*
X9814Y259975D02*
X6666D01*
Y261549D01*
X7191Y262074D01*
X8240D01*
X8765Y261549D01*
Y259975D01*
Y261025D02*
X9814Y262074D01*
Y265223D02*
Y263124D01*
X7715Y265223D01*
X7191D01*
X6666Y264698D01*
Y263649D01*
X7191Y263124D01*
X9814Y266272D02*
Y267322D01*
Y266797D01*
X6666D01*
X7191Y266272D01*
X5511Y259975D02*
X2363D01*
Y261549D01*
X2887Y262074D01*
X3937D01*
X4462Y261549D01*
Y259975D01*
Y261025D02*
X5511Y262074D01*
Y265223D02*
Y263124D01*
X3412Y265223D01*
X2887D01*
X2363Y264698D01*
Y263649D01*
X2887Y263124D01*
Y266272D02*
X2363Y266797D01*
Y267847D01*
X2887Y268371D01*
X4986D01*
X5511Y267847D01*
Y266797D01*
X4986Y266272D01*
X2887D01*
X82678Y288583D02*
Y291732D01*
X84253D01*
X84777Y291207D01*
Y290158D01*
X84253Y289633D01*
X82678D01*
X83728D02*
X84777Y288583D01*
X85827D02*
X86876D01*
X86352D01*
Y291732D01*
X85827Y291207D01*
X88451Y289108D02*
X88976Y288583D01*
X90025D01*
X90550Y289108D01*
Y291207D01*
X90025Y291732D01*
X88976D01*
X88451Y291207D01*
Y290682D01*
X88976Y290158D01*
X90550D01*
X165749Y279922D02*
Y283070D01*
X167324D01*
X167848Y282546D01*
Y281496D01*
X167324Y280971D01*
X165749D01*
X166799D02*
X167848Y279922D01*
X168898D02*
X169947D01*
X169423D01*
Y283070D01*
X168898Y282546D01*
X171522D02*
X172046Y283070D01*
X173096D01*
X173621Y282546D01*
Y282021D01*
X173096Y281496D01*
X173621Y280971D01*
Y280447D01*
X173096Y279922D01*
X172046D01*
X171522Y280447D01*
Y280971D01*
X172046Y281496D01*
X171522Y282021D01*
Y282546D01*
X172046Y281496D02*
X173096D01*
X55907Y221260D02*
Y224409D01*
X57481D01*
X58006Y223884D01*
Y222835D01*
X57481Y222310D01*
X55907D01*
X56956D02*
X58006Y221260D01*
X59055D02*
X60105D01*
X59580D01*
Y224409D01*
X59055Y223884D01*
X63778Y224409D02*
X62729Y223884D01*
X61679Y222835D01*
Y221785D01*
X62204Y221260D01*
X63253D01*
X63778Y221785D01*
Y222310D01*
X63253Y222835D01*
X61679D01*
X38584Y221654D02*
Y224803D01*
X40158D01*
X40683Y224278D01*
Y223228D01*
X40158Y222704D01*
X38584D01*
X39633D02*
X40683Y221654D01*
X41732D02*
X42782D01*
X42257D01*
Y224803D01*
X41732Y224278D01*
X46455Y224803D02*
X44356D01*
Y223228D01*
X45406Y223753D01*
X45931D01*
X46455Y223228D01*
Y222179D01*
X45931Y221654D01*
X44881D01*
X44356Y222179D01*
X72880Y288583D02*
Y291732D01*
X74454D01*
X74979Y291207D01*
Y290158D01*
X74454Y289633D01*
X72880D01*
X73930D02*
X74979Y288583D01*
X76029D02*
X77078D01*
X76553D01*
Y291732D01*
X76029Y291207D01*
X80227Y288583D02*
Y291732D01*
X78653Y290158D01*
X80752D01*
X62600Y288583D02*
Y291732D01*
X64174D01*
X64699Y291207D01*
Y290158D01*
X64174Y289633D01*
X62600D01*
X63649D02*
X64699Y288583D01*
X65748D02*
X66798D01*
X66273D01*
Y291732D01*
X65748Y291207D01*
X70471Y288583D02*
X68372D01*
X70471Y290682D01*
Y291207D01*
X69946Y291732D01*
X68897D01*
X68372Y291207D01*
X26379Y214174D02*
Y217322D01*
X27953D01*
X28478Y216798D01*
Y215748D01*
X27953Y215223D01*
X26379D01*
X27429D02*
X28478Y214174D01*
X29528D02*
X30577D01*
X30053D01*
Y217322D01*
X29528Y216798D01*
X32152D02*
X32676Y217322D01*
X33726D01*
X34251Y216798D01*
Y214699D01*
X33726Y214174D01*
X32676D01*
X32152Y214699D01*
Y216798D01*
X54069Y288583D02*
Y291732D01*
X55643D01*
X56168Y291207D01*
Y290158D01*
X55643Y289633D01*
X54069D01*
X55119D02*
X56168Y288583D01*
X57218Y289108D02*
X57742Y288583D01*
X58792D01*
X59317Y289108D01*
Y291207D01*
X58792Y291732D01*
X57742D01*
X57218Y291207D01*
Y290682D01*
X57742Y290158D01*
X59317D01*
X26510Y209843D02*
Y212992D01*
X28084D01*
X28609Y212467D01*
Y211417D01*
X28084Y210893D01*
X26510D01*
X27560D02*
X28609Y209843D01*
X29659Y212467D02*
X30183Y212992D01*
X31233D01*
X31758Y212467D01*
Y211942D01*
X31233Y211417D01*
X31758Y210893D01*
Y210368D01*
X31233Y209843D01*
X30183D01*
X29659Y210368D01*
Y210893D01*
X30183Y211417D01*
X29659Y211942D01*
Y212467D01*
X30183Y211417D02*
X31233D01*
X247770Y266142D02*
Y269291D01*
X249344D01*
X249869Y268766D01*
Y267717D01*
X249344Y267192D01*
X247770D01*
X248819D02*
X249869Y266142D01*
X253017Y269291D02*
X251968Y268766D01*
X250918Y267717D01*
Y266667D01*
X251443Y266142D01*
X252493D01*
X253017Y266667D01*
Y267192D01*
X252493Y267717D01*
X250918D01*
X114830Y245407D02*
Y247506D01*
X114305Y248031D01*
X113255D01*
X112731Y247506D01*
Y245407D01*
X113255Y244882D01*
X114305D01*
X113780Y245932D02*
X114830Y244882D01*
X114305D02*
X114830Y245407D01*
X115879Y247506D02*
X116404Y248031D01*
X117453D01*
X117978Y247506D01*
Y246982D01*
X117453Y246457D01*
X117978Y245932D01*
Y245407D01*
X117453Y244882D01*
X116404D01*
X115879Y245407D01*
Y245932D01*
X116404Y246457D01*
X115879Y246982D01*
Y247506D01*
X116404Y246457D02*
X117453D01*
X99869Y245407D02*
Y247506D01*
X99344Y248031D01*
X98295D01*
X97770Y247506D01*
Y245407D01*
X98295Y244882D01*
X99344D01*
X98819Y245932D02*
X99869Y244882D01*
X99344D02*
X99869Y245407D01*
X100918Y248031D02*
X103017D01*
Y247506D01*
X100918Y245407D01*
Y244882D01*
X83727Y245407D02*
Y247506D01*
X83202Y248031D01*
X82153D01*
X81628Y247506D01*
Y245407D01*
X82153Y244882D01*
X83202D01*
X82678Y245932D02*
X83727Y244882D01*
X83202D02*
X83727Y245407D01*
X86876Y248031D02*
X85826Y247506D01*
X84777Y246457D01*
Y245407D01*
X85302Y244882D01*
X86351D01*
X86876Y245407D01*
Y245932D01*
X86351Y246457D01*
X84777D01*
X68766Y245801D02*
Y247900D01*
X68242Y248425D01*
X67192D01*
X66667Y247900D01*
Y245801D01*
X67192Y245276D01*
X68242D01*
X67717Y246326D02*
X68766Y245276D01*
X68242D02*
X68766Y245801D01*
X71915Y248425D02*
X69816D01*
Y246850D01*
X70866Y247375D01*
X71390D01*
X71915Y246850D01*
Y245801D01*
X71390Y245276D01*
X70341D01*
X69816Y245801D01*
X54200Y245407D02*
Y247506D01*
X53675Y248031D01*
X52625D01*
X52100Y247506D01*
Y245407D01*
X52625Y244882D01*
X53675D01*
X53150Y245932D02*
X54200Y244882D01*
X53675D02*
X54200Y245407D01*
X56823Y244882D02*
Y248031D01*
X55249Y246457D01*
X57348D01*
X38452Y245801D02*
Y247900D01*
X37927Y248425D01*
X36877D01*
X36353Y247900D01*
Y245801D01*
X36877Y245276D01*
X37927D01*
X37402Y246326D02*
X38452Y245276D01*
X37927D02*
X38452Y245801D01*
X39501Y247900D02*
X40026Y248425D01*
X41075D01*
X41600Y247900D01*
Y247375D01*
X41075Y246850D01*
X40551D01*
X41075D01*
X41600Y246326D01*
Y245801D01*
X41075Y245276D01*
X40026D01*
X39501Y245801D01*
X23491D02*
Y247900D01*
X22966Y248425D01*
X21917D01*
X21392Y247900D01*
Y245801D01*
X21917Y245276D01*
X22966D01*
X22441Y246326D02*
X23491Y245276D01*
X22966D02*
X23491Y245801D01*
X26640Y245276D02*
X24541D01*
X26640Y247375D01*
Y247900D01*
X26115Y248425D01*
X25065D01*
X24541Y247900D01*
X8661Y245407D02*
Y247506D01*
X8137Y248031D01*
X7087D01*
X6562Y247506D01*
Y245407D01*
X7087Y244882D01*
X8137D01*
X7612Y245932D02*
X8661Y244882D01*
X8137D02*
X8661Y245407D01*
X9711Y244882D02*
X10760D01*
X10236D01*
Y248031D01*
X9711Y247506D01*
X25460Y254724D02*
X24410D01*
X24935D01*
Y252100D01*
X24410Y251575D01*
X23885D01*
X23360Y252100D01*
X28083Y251575D02*
Y254724D01*
X26509Y253150D01*
X28608D01*
X276641Y269291D02*
X275591D01*
X276116D01*
Y266667D01*
X275591Y266142D01*
X275066D01*
X274541Y266667D01*
X279789Y266142D02*
X277690D01*
X279789Y268241D01*
Y268766D01*
X279264Y269291D01*
X278215D01*
X277690Y268766D01*
X197376Y253937D02*
Y250788D01*
X198950D01*
X199475Y251313D01*
Y253412D01*
X198950Y253937D01*
X197376D01*
X202624D02*
X201574Y253412D01*
X200525Y252362D01*
Y251313D01*
X201049Y250788D01*
X202099D01*
X202624Y251313D01*
Y251837D01*
X202099Y252362D01*
X200525D01*
X194357Y232152D02*
X193832Y232677D01*
X192783D01*
X192258Y232152D01*
Y230053D01*
X192783Y229528D01*
X193832D01*
X194357Y230053D01*
X197506Y232677D02*
X195407D01*
Y231102D01*
X196456Y231627D01*
X196981D01*
X197506Y231102D01*
Y230053D01*
X196981Y229528D01*
X195931D01*
X195407Y230053D01*
X25066Y275196D02*
X24016D01*
X24541D01*
Y272573D01*
X24016Y272048D01*
X23492D01*
X22967Y272573D01*
X26115Y274672D02*
X26640Y275196D01*
X27690D01*
X28214Y274672D01*
Y274147D01*
X27690Y273622D01*
X27165D01*
X27690D01*
X28214Y273097D01*
Y272573D01*
X27690Y272048D01*
X26640D01*
X26115Y272573D01*
X179266Y248032D02*
Y251181D01*
X180840D01*
X181365Y250656D01*
Y249606D01*
X180840Y249082D01*
X179266D01*
X180315D02*
X181365Y248032D01*
X182414Y250656D02*
X182939Y251181D01*
X183989D01*
X184514Y250656D01*
Y250131D01*
X183989Y249606D01*
X183464D01*
X183989D01*
X184514Y249082D01*
Y248557D01*
X183989Y248032D01*
X182939D01*
X182414Y248557D01*
X254200Y210237D02*
Y213385D01*
X255774D01*
X256299Y212861D01*
Y211811D01*
X255774Y211286D01*
X254200D01*
X255250D02*
X256299Y210237D01*
X257349D02*
X258398D01*
X257874D01*
Y213385D01*
X257349Y212861D01*
X154988Y279134D02*
Y282283D01*
X156562D01*
X157087Y281758D01*
Y280709D01*
X156562Y280184D01*
X154988D01*
X158136Y279134D02*
X159186D01*
X158661D01*
Y282283D01*
X158136Y281758D01*
X242520Y293700D02*
X241470D01*
X241995D01*
Y291076D01*
X241470Y290552D01*
X240945D01*
X240421Y291076D01*
X243569Y290552D02*
X244619D01*
X244094D01*
Y293700D01*
X243569Y293176D01*
X128873Y275196D02*
X129922D01*
X129397D01*
Y272048D01*
X128873D01*
X129922D01*
X133595Y274672D02*
X133071Y275196D01*
X132021D01*
X131496Y274672D01*
Y272573D01*
X132021Y272048D01*
X133071D01*
X133595Y272573D01*
X134645Y272048D02*
X135694D01*
X135170D01*
Y275196D01*
X134645Y274672D01*
X206361Y231371D02*
Y228223D01*
X207935D01*
X208460Y228748D01*
Y230847D01*
X207935Y231371D01*
X206361D01*
X211609Y228223D02*
X209510D01*
X211609Y230322D01*
Y230847D01*
X211084Y231371D01*
X210034D01*
X209510Y230847D01*
X131365Y241076D02*
X131889Y241601D01*
Y242650D01*
X131365Y243175D01*
X129265D01*
X128741Y242650D01*
Y241601D01*
X129265Y241076D01*
X131365Y240026D02*
X131889Y239502D01*
Y238452D01*
X131365Y237927D01*
X130840D01*
X130315Y238452D01*
X129790Y237927D01*
X129265D01*
X128741Y238452D01*
Y239502D01*
X129265Y240026D01*
X129790D01*
X130315Y239502D01*
X130840Y240026D01*
X131365D01*
X130315Y239502D02*
Y238452D01*
X105774Y260498D02*
X105250Y261023D01*
X104200D01*
X103675Y260498D01*
Y258399D01*
X104200Y257875D01*
X105250D01*
X105774Y258399D01*
X106824Y261023D02*
X108923D01*
Y260498D01*
X106824Y258399D01*
Y257875D01*
X143176Y197113D02*
X142652Y197637D01*
X141602D01*
X141077Y197113D01*
Y196588D01*
X141602Y196063D01*
X142652D01*
X143176Y195538D01*
Y195013D01*
X142652Y194489D01*
X141602D01*
X141077Y195013D01*
X144226Y197637D02*
Y194489D01*
X145800D01*
X146325Y195013D01*
Y195538D01*
X145800Y196063D01*
X144226D01*
X145800D01*
X146325Y196588D01*
Y197113D01*
X145800Y197637D01*
X144226D01*
X149474D02*
X147375D01*
Y196063D01*
X148424Y196588D01*
X148949D01*
X149474Y196063D01*
Y195013D01*
X148949Y194489D01*
X147899D01*
X147375Y195013D01*
X216668Y168503D02*
Y165880D01*
X217192Y165355D01*
X218242D01*
X218766Y165880D01*
Y168503D01*
X221915Y165355D02*
X219816D01*
X221915Y167454D01*
Y167979D01*
X221390Y168503D01*
X220341D01*
X219816Y167979D01*
X123754Y175066D02*
X123229Y174542D01*
Y173492D01*
X123754Y172967D01*
X124278D01*
X124803Y173492D01*
Y174542D01*
X125328Y175066D01*
X125853D01*
X126377Y174542D01*
Y173492D01*
X125853Y172967D01*
X123229Y176116D02*
X126377D01*
Y177690D01*
X125853Y178215D01*
X125328D01*
X124803Y177690D01*
Y176116D01*
Y177690D01*
X124278Y178215D01*
X123754D01*
X123229Y177690D01*
Y176116D01*
X126377Y180839D02*
X123229D01*
X124803Y179264D01*
Y181363D01*
X118635Y175066D02*
X118111Y174542D01*
Y173492D01*
X118635Y172967D01*
X119160D01*
X119685Y173492D01*
Y174542D01*
X120210Y175066D01*
X120735D01*
X121259Y174542D01*
Y173492D01*
X120735Y172967D01*
X118111Y176116D02*
X121259D01*
Y177690D01*
X120735Y178215D01*
X120210D01*
X119685Y177690D01*
Y176116D01*
Y177690D01*
X119160Y178215D01*
X118635D01*
X118111Y177690D01*
Y176116D01*
X118635Y179264D02*
X118111Y179789D01*
Y180839D01*
X118635Y181363D01*
X119160D01*
X119685Y180839D01*
Y180314D01*
Y180839D01*
X120210Y181363D01*
X120735D01*
X121259Y180839D01*
Y179789D01*
X120735Y179264D01*
X112730Y175854D02*
X112205Y175329D01*
Y174279D01*
X112730Y173755D01*
X113255D01*
X113779Y174279D01*
Y175329D01*
X114304Y175854D01*
X114829D01*
X115354Y175329D01*
Y174279D01*
X114829Y173755D01*
X112205Y176903D02*
X115354D01*
Y178478D01*
X114829Y179002D01*
X114304D01*
X113779Y178478D01*
Y176903D01*
Y178478D01*
X113255Y179002D01*
X112730D01*
X112205Y178478D01*
Y176903D01*
X115354Y182151D02*
Y180052D01*
X113255Y182151D01*
X112730D01*
X112205Y181626D01*
Y180577D01*
X112730Y180052D01*
X168243Y172835D02*
Y175984D01*
X169817D01*
X170342Y175459D01*
Y174409D01*
X169817Y173885D01*
X168243D01*
X169292D02*
X170342Y172835D01*
X171391Y175459D02*
X171916Y175984D01*
X172966D01*
X173490Y175459D01*
Y174934D01*
X172966Y174409D01*
X172441D01*
X172966D01*
X173490Y173885D01*
Y173360D01*
X172966Y172835D01*
X171916D01*
X171391Y173360D01*
X174540D02*
X175065Y172835D01*
X176114D01*
X176639Y173360D01*
Y175459D01*
X176114Y175984D01*
X175065D01*
X174540Y175459D01*
Y174934D01*
X175065Y174409D01*
X176639D01*
X207219Y148032D02*
Y151181D01*
X208793D01*
X209318Y150656D01*
Y149606D01*
X208793Y149082D01*
X207219D01*
X208269D02*
X209318Y148032D01*
X210368Y150656D02*
X210893Y151181D01*
X211942D01*
X212467Y150656D01*
Y150131D01*
X211942Y149606D01*
X211417D01*
X211942D01*
X212467Y149082D01*
Y148557D01*
X211942Y148032D01*
X210893D01*
X210368Y148557D01*
X213516Y150656D02*
X214041Y151181D01*
X215091D01*
X215615Y150656D01*
Y150131D01*
X215091Y149606D01*
X215615Y149082D01*
Y148557D01*
X215091Y148032D01*
X214041D01*
X213516Y148557D01*
Y149082D01*
X214041Y149606D01*
X213516Y150131D01*
Y150656D01*
X214041Y149606D02*
X215091D01*
X176771Y161156D02*
X173623D01*
Y162731D01*
X174147Y163255D01*
X175197D01*
X175722Y162731D01*
Y161156D01*
Y162206D02*
X176771Y163255D01*
X174147Y164305D02*
X173623Y164830D01*
Y165879D01*
X174147Y166404D01*
X174672D01*
X175197Y165879D01*
Y165354D01*
Y165879D01*
X175722Y166404D01*
X176246D01*
X176771Y165879D01*
Y164830D01*
X176246Y164305D01*
X173623Y169553D02*
X174147Y168503D01*
X175197Y167453D01*
X176246D01*
X176771Y167978D01*
Y169028D01*
X176246Y169553D01*
X175722D01*
X175197Y169028D01*
Y167453D01*
X178085Y183465D02*
Y186614D01*
X179660D01*
X180184Y186089D01*
Y185039D01*
X179660Y184515D01*
X178085D01*
X179135D02*
X180184Y183465D01*
X181234Y186089D02*
X181759Y186614D01*
X182808D01*
X183333Y186089D01*
Y185564D01*
X182808Y185039D01*
X182283D01*
X182808D01*
X183333Y184515D01*
Y183990D01*
X182808Y183465D01*
X181759D01*
X181234Y183990D01*
X184382Y186089D02*
X184907Y186614D01*
X185957D01*
X186481Y186089D01*
Y185564D01*
X185957Y185039D01*
X185432D01*
X185957D01*
X186481Y184515D01*
Y183990D01*
X185957Y183465D01*
X184907D01*
X184382Y183990D01*
X36811Y163518D02*
X33662D01*
Y165093D01*
X34187Y165618D01*
X35237D01*
X35761Y165093D01*
Y163518D01*
Y164568D02*
X36811Y165618D01*
X34187Y166667D02*
X33662Y167192D01*
Y168241D01*
X34187Y168766D01*
X34712D01*
X35237Y168241D01*
Y167717D01*
Y168241D01*
X35761Y168766D01*
X36286D01*
X36811Y168241D01*
Y167192D01*
X36286Y166667D01*
X36811Y171915D02*
Y169816D01*
X34712Y171915D01*
X34187D01*
X33662Y171390D01*
Y170340D01*
X34187Y169816D01*
X32311Y163518D02*
X29163D01*
Y165093D01*
X29688Y165618D01*
X30737D01*
X31262Y165093D01*
Y163518D01*
Y164568D02*
X32311Y165618D01*
X29688Y166667D02*
X29163Y167192D01*
Y168241D01*
X29688Y168766D01*
X30212D01*
X30737Y168241D01*
Y167717D01*
Y168241D01*
X31262Y168766D01*
X31787D01*
X32311Y168241D01*
Y167192D01*
X31787Y166667D01*
X32311Y169816D02*
Y170865D01*
Y170340D01*
X29163D01*
X29688Y169816D01*
X116668Y124804D02*
Y127952D01*
X118242D01*
X118767Y127427D01*
Y126378D01*
X118242Y125853D01*
X116668D01*
X117718D02*
X118767Y124804D01*
X119817Y127427D02*
X120341Y127952D01*
X121391D01*
X121916Y127427D01*
Y126903D01*
X121391Y126378D01*
X120866D01*
X121391D01*
X121916Y125853D01*
Y125329D01*
X121391Y124804D01*
X120341D01*
X119817Y125329D01*
X122965Y127427D02*
X123490Y127952D01*
X124539D01*
X125064Y127427D01*
Y125329D01*
X124539Y124804D01*
X123490D01*
X122965Y125329D01*
Y127427D01*
X101314Y124804D02*
Y127952D01*
X102888D01*
X103413Y127427D01*
Y126378D01*
X102888Y125853D01*
X101314D01*
X102363D02*
X103413Y124804D01*
X106561D02*
X104462D01*
X106561Y126903D01*
Y127427D01*
X106036Y127952D01*
X104987D01*
X104462Y127427D01*
X107611Y125329D02*
X108136Y124804D01*
X109185D01*
X109710Y125329D01*
Y127427D01*
X109185Y127952D01*
X108136D01*
X107611Y127427D01*
Y126903D01*
X108136Y126378D01*
X109710D01*
X27812Y163519D02*
X24664D01*
Y165093D01*
X25188Y165618D01*
X26238D01*
X26763Y165093D01*
Y163519D01*
Y164568D02*
X27812Y165618D01*
Y168766D02*
Y166667D01*
X25713Y168766D01*
X25188D01*
X24664Y168241D01*
Y167192D01*
X25188Y166667D01*
Y169816D02*
X24664Y170340D01*
Y171390D01*
X25188Y171915D01*
X25713D01*
X26238Y171390D01*
X26763Y171915D01*
X27287D01*
X27812Y171390D01*
Y170340D01*
X27287Y169816D01*
X26763D01*
X26238Y170340D01*
X25713Y169816D01*
X25188D01*
X26238Y170340D02*
Y171390D01*
X23313Y163519D02*
X20164D01*
Y165093D01*
X20689Y165618D01*
X21738D01*
X22263Y165093D01*
Y163519D01*
Y164568D02*
X23313Y165618D01*
Y168766D02*
Y166667D01*
X21214Y168766D01*
X20689D01*
X20164Y168241D01*
Y167192D01*
X20689Y166667D01*
X20164Y169816D02*
Y171915D01*
X20689D01*
X22788Y169816D01*
X23313D01*
X18813Y163519D02*
X15665D01*
Y165093D01*
X16189Y165618D01*
X17239D01*
X17764Y165093D01*
Y163519D01*
Y164568D02*
X18813Y165618D01*
Y168766D02*
Y166667D01*
X16714Y168766D01*
X16189D01*
X15665Y168241D01*
Y167192D01*
X16189Y166667D01*
X15665Y171915D02*
X16189Y170865D01*
X17239Y169816D01*
X18288D01*
X18813Y170340D01*
Y171390D01*
X18288Y171915D01*
X17764D01*
X17239Y171390D01*
Y169816D01*
X14314Y163518D02*
X11165D01*
Y165093D01*
X11690Y165618D01*
X12740D01*
X13264Y165093D01*
Y163518D01*
Y164568D02*
X14314Y165618D01*
Y168766D02*
Y166667D01*
X12215Y168766D01*
X11690D01*
X11165Y168241D01*
Y167192D01*
X11690Y166667D01*
X14314Y171390D02*
X11165D01*
X12740Y169816D01*
Y171915D01*
X86353Y124804D02*
Y127952D01*
X87927D01*
X88452Y127427D01*
Y126378D01*
X87927Y125853D01*
X86353D01*
X87402D02*
X88452Y124804D01*
X91601D02*
X89502D01*
X91601Y126903D01*
Y127427D01*
X91076Y127952D01*
X90026D01*
X89502Y127427D01*
X92650D02*
X93175Y127952D01*
X94225D01*
X94749Y127427D01*
Y126903D01*
X94225Y126378D01*
X93700D01*
X94225D01*
X94749Y125853D01*
Y125329D01*
X94225Y124804D01*
X93175D01*
X92650Y125329D01*
X70999Y124804D02*
Y127952D01*
X72573D01*
X73098Y127427D01*
Y126378D01*
X72573Y125853D01*
X70999D01*
X72048D02*
X73098Y124804D01*
X76246D02*
X74147D01*
X76246Y126903D01*
Y127427D01*
X75722Y127952D01*
X74672D01*
X74147Y127427D01*
X79395Y124804D02*
X77296D01*
X79395Y126903D01*
Y127427D01*
X78870Y127952D01*
X77821D01*
X77296Y127427D01*
X9814Y163518D02*
X6666D01*
Y165093D01*
X7191Y165618D01*
X8240D01*
X8765Y165093D01*
Y163518D01*
Y164568D02*
X9814Y165618D01*
Y168766D02*
Y166667D01*
X7715Y168766D01*
X7191D01*
X6666Y168241D01*
Y167192D01*
X7191Y166667D01*
X9814Y169816D02*
Y170865D01*
Y170340D01*
X6666D01*
X7191Y169816D01*
X5511Y163518D02*
X2363D01*
Y165093D01*
X2887Y165618D01*
X3937D01*
X4462Y165093D01*
Y163518D01*
Y164568D02*
X5511Y165618D01*
Y168766D02*
Y166667D01*
X3412Y168766D01*
X2887D01*
X2363Y168241D01*
Y167192D01*
X2887Y166667D01*
Y169816D02*
X2363Y170340D01*
Y171390D01*
X2887Y171915D01*
X4986D01*
X5511Y171390D01*
Y170340D01*
X4986Y169816D01*
X2887D01*
X82678Y192127D02*
Y195275D01*
X84253D01*
X84777Y194750D01*
Y193701D01*
X84253Y193176D01*
X82678D01*
X83728D02*
X84777Y192127D01*
X85827D02*
X86876D01*
X86352D01*
Y195275D01*
X85827Y194750D01*
X88451Y192651D02*
X88976Y192127D01*
X90025D01*
X90550Y192651D01*
Y194750D01*
X90025Y195275D01*
X88976D01*
X88451Y194750D01*
Y194226D01*
X88976Y193701D01*
X90550D01*
X165749Y183465D02*
Y186614D01*
X167324D01*
X167848Y186089D01*
Y185039D01*
X167324Y184515D01*
X165749D01*
X166799D02*
X167848Y183465D01*
X168898D02*
X169947D01*
X169423D01*
Y186614D01*
X168898Y186089D01*
X171522D02*
X172046Y186614D01*
X173096D01*
X173621Y186089D01*
Y185564D01*
X173096Y185039D01*
X173621Y184515D01*
Y183990D01*
X173096Y183465D01*
X172046D01*
X171522Y183990D01*
Y184515D01*
X172046Y185039D01*
X171522Y185564D01*
Y186089D01*
X172046Y185039D02*
X173096D01*
X55907Y124804D02*
Y127952D01*
X57481D01*
X58006Y127427D01*
Y126378D01*
X57481Y125853D01*
X55907D01*
X56956D02*
X58006Y124804D01*
X59055D02*
X60105D01*
X59580D01*
Y127952D01*
X59055Y127427D01*
X63778Y127952D02*
X62729Y127427D01*
X61679Y126378D01*
Y125329D01*
X62204Y124804D01*
X63253D01*
X63778Y125329D01*
Y125853D01*
X63253Y126378D01*
X61679D01*
X38584Y125197D02*
Y128346D01*
X40158D01*
X40683Y127821D01*
Y126772D01*
X40158Y126247D01*
X38584D01*
X39633D02*
X40683Y125197D01*
X41732D02*
X42782D01*
X42257D01*
Y128346D01*
X41732Y127821D01*
X46455Y128346D02*
X44356D01*
Y126772D01*
X45406Y127296D01*
X45931D01*
X46455Y126772D01*
Y125722D01*
X45931Y125197D01*
X44881D01*
X44356Y125722D01*
X72880Y192127D02*
Y195275D01*
X74454D01*
X74979Y194750D01*
Y193701D01*
X74454Y193176D01*
X72880D01*
X73930D02*
X74979Y192127D01*
X76029D02*
X77078D01*
X76553D01*
Y195275D01*
X76029Y194750D01*
X80227Y192127D02*
Y195275D01*
X78653Y193701D01*
X80752D01*
X62600Y192127D02*
Y195275D01*
X64174D01*
X64699Y194750D01*
Y193701D01*
X64174Y193176D01*
X62600D01*
X63649D02*
X64699Y192127D01*
X65748D02*
X66798D01*
X66273D01*
Y195275D01*
X65748Y194750D01*
X70471Y192127D02*
X68372D01*
X70471Y194226D01*
Y194750D01*
X69946Y195275D01*
X68897D01*
X68372Y194750D01*
X26379Y117717D02*
Y120866D01*
X27953D01*
X28478Y120341D01*
Y119291D01*
X27953Y118767D01*
X26379D01*
X27429D02*
X28478Y117717D01*
X29528D02*
X30577D01*
X30053D01*
Y120866D01*
X29528Y120341D01*
X32152D02*
X32676Y120866D01*
X33726D01*
X34251Y120341D01*
Y118242D01*
X33726Y117717D01*
X32676D01*
X32152Y118242D01*
Y120341D01*
X54069Y192127D02*
Y195275D01*
X55643D01*
X56168Y194750D01*
Y193701D01*
X55643Y193176D01*
X54069D01*
X55119D02*
X56168Y192127D01*
X57218Y192651D02*
X57742Y192127D01*
X58792D01*
X59317Y192651D01*
Y194750D01*
X58792Y195275D01*
X57742D01*
X57218Y194750D01*
Y194226D01*
X57742Y193701D01*
X59317D01*
X26510Y113386D02*
Y116535D01*
X28084D01*
X28609Y116010D01*
Y114961D01*
X28084Y114436D01*
X26510D01*
X27560D02*
X28609Y113386D01*
X29659Y116010D02*
X30183Y116535D01*
X31233D01*
X31758Y116010D01*
Y115485D01*
X31233Y114961D01*
X31758Y114436D01*
Y113911D01*
X31233Y113386D01*
X30183D01*
X29659Y113911D01*
Y114436D01*
X30183Y114961D01*
X29659Y115485D01*
Y116010D01*
X30183Y114961D02*
X31233D01*
X247770Y169686D02*
Y172834D01*
X249344D01*
X249869Y172309D01*
Y171260D01*
X249344Y170735D01*
X247770D01*
X248819D02*
X249869Y169686D01*
X253017Y172834D02*
X251968Y172309D01*
X250918Y171260D01*
Y170210D01*
X251443Y169686D01*
X252493D01*
X253017Y170210D01*
Y170735D01*
X252493Y171260D01*
X250918D01*
X114830Y148951D02*
Y151050D01*
X114305Y151574D01*
X113255D01*
X112731Y151050D01*
Y148951D01*
X113255Y148426D01*
X114305D01*
X113780Y149475D02*
X114830Y148426D01*
X114305D02*
X114830Y148951D01*
X115879Y151050D02*
X116404Y151574D01*
X117453D01*
X117978Y151050D01*
Y150525D01*
X117453Y150000D01*
X117978Y149475D01*
Y148951D01*
X117453Y148426D01*
X116404D01*
X115879Y148951D01*
Y149475D01*
X116404Y150000D01*
X115879Y150525D01*
Y151050D01*
X116404Y150000D02*
X117453D01*
X99869Y148951D02*
Y151050D01*
X99344Y151574D01*
X98295D01*
X97770Y151050D01*
Y148951D01*
X98295Y148426D01*
X99344D01*
X98819Y149475D02*
X99869Y148426D01*
X99344D02*
X99869Y148951D01*
X100918Y151574D02*
X103017D01*
Y151050D01*
X100918Y148951D01*
Y148426D01*
X83727Y148951D02*
Y151050D01*
X83202Y151574D01*
X82153D01*
X81628Y151050D01*
Y148951D01*
X82153Y148426D01*
X83202D01*
X82678Y149475D02*
X83727Y148426D01*
X83202D02*
X83727Y148951D01*
X86876Y151574D02*
X85826Y151050D01*
X84777Y150000D01*
Y148951D01*
X85302Y148426D01*
X86351D01*
X86876Y148951D01*
Y149475D01*
X86351Y150000D01*
X84777D01*
X68766Y149344D02*
Y151443D01*
X68242Y151968D01*
X67192D01*
X66667Y151443D01*
Y149344D01*
X67192Y148819D01*
X68242D01*
X67717Y149869D02*
X68766Y148819D01*
X68242D02*
X68766Y149344D01*
X71915Y151968D02*
X69816D01*
Y150394D01*
X70866Y150918D01*
X71390D01*
X71915Y150394D01*
Y149344D01*
X71390Y148819D01*
X70341D01*
X69816Y149344D01*
X54200Y148951D02*
Y151050D01*
X53675Y151574D01*
X52625D01*
X52100Y151050D01*
Y148951D01*
X52625Y148426D01*
X53675D01*
X53150Y149475D02*
X54200Y148426D01*
X53675D02*
X54200Y148951D01*
X56823Y148426D02*
Y151574D01*
X55249Y150000D01*
X57348D01*
X38452Y149344D02*
Y151443D01*
X37927Y151968D01*
X36877D01*
X36353Y151443D01*
Y149344D01*
X36877Y148819D01*
X37927D01*
X37402Y149869D02*
X38452Y148819D01*
X37927D02*
X38452Y149344D01*
X39501Y151443D02*
X40026Y151968D01*
X41075D01*
X41600Y151443D01*
Y150918D01*
X41075Y150394D01*
X40551D01*
X41075D01*
X41600Y149869D01*
Y149344D01*
X41075Y148819D01*
X40026D01*
X39501Y149344D01*
X23491D02*
Y151443D01*
X22966Y151968D01*
X21917D01*
X21392Y151443D01*
Y149344D01*
X21917Y148819D01*
X22966D01*
X22441Y149869D02*
X23491Y148819D01*
X22966D02*
X23491Y149344D01*
X26640Y148819D02*
X24541D01*
X26640Y150918D01*
Y151443D01*
X26115Y151968D01*
X25065D01*
X24541Y151443D01*
X8661Y148951D02*
Y151050D01*
X8137Y151574D01*
X7087D01*
X6562Y151050D01*
Y148951D01*
X7087Y148426D01*
X8137D01*
X7612Y149475D02*
X8661Y148426D01*
X8137D02*
X8661Y148951D01*
X9711Y148426D02*
X10760D01*
X10236D01*
Y151574D01*
X9711Y151050D01*
X25460Y158267D02*
X24410D01*
X24935D01*
Y155643D01*
X24410Y155119D01*
X23885D01*
X23360Y155643D01*
X28083Y155119D02*
Y158267D01*
X26509Y156693D01*
X28608D01*
X276641Y172834D02*
X275591D01*
X276116D01*
Y170210D01*
X275591Y169686D01*
X275066D01*
X274541Y170210D01*
X279789Y169686D02*
X277690D01*
X279789Y171785D01*
Y172309D01*
X279264Y172834D01*
X278215D01*
X277690Y172309D01*
X197376Y157480D02*
Y154331D01*
X198950D01*
X199475Y154856D01*
Y156955D01*
X198950Y157480D01*
X197376D01*
X202624D02*
X201574Y156955D01*
X200525Y155905D01*
Y154856D01*
X201049Y154331D01*
X202099D01*
X202624Y154856D01*
Y155381D01*
X202099Y155905D01*
X200525D01*
X194357Y135695D02*
X193832Y136220D01*
X192783D01*
X192258Y135695D01*
Y133596D01*
X192783Y133071D01*
X193832D01*
X194357Y133596D01*
X197506Y136220D02*
X195407D01*
Y134646D01*
X196456Y135170D01*
X196981D01*
X197506Y134646D01*
Y133596D01*
X196981Y133071D01*
X195931D01*
X195407Y133596D01*
X25066Y178740D02*
X24016D01*
X24541D01*
Y176116D01*
X24016Y175591D01*
X23492D01*
X22967Y176116D01*
X26115Y178215D02*
X26640Y178740D01*
X27690D01*
X28214Y178215D01*
Y177690D01*
X27690Y177165D01*
X27165D01*
X27690D01*
X28214Y176641D01*
Y176116D01*
X27690Y175591D01*
X26640D01*
X26115Y176116D01*
X179266Y151575D02*
Y154724D01*
X180840D01*
X181365Y154199D01*
Y153150D01*
X180840Y152625D01*
X179266D01*
X180315D02*
X181365Y151575D01*
X182414Y154199D02*
X182939Y154724D01*
X183989D01*
X184514Y154199D01*
Y153674D01*
X183989Y153150D01*
X183464D01*
X183989D01*
X184514Y152625D01*
Y152100D01*
X183989Y151575D01*
X182939D01*
X182414Y152100D01*
X254200Y113780D02*
Y116929D01*
X255774D01*
X256299Y116404D01*
Y115354D01*
X255774Y114830D01*
X254200D01*
X255250D02*
X256299Y113780D01*
X257349D02*
X258398D01*
X257874D01*
Y116929D01*
X257349Y116404D01*
X154988Y182678D02*
Y185826D01*
X156562D01*
X157087Y185301D01*
Y184252D01*
X156562Y183727D01*
X154988D01*
X158136Y182678D02*
X159186D01*
X158661D01*
Y185826D01*
X158136Y185301D01*
X242520Y197244D02*
X241470D01*
X241995D01*
Y194620D01*
X241470Y194095D01*
X240945D01*
X240421Y194620D01*
X243569Y194095D02*
X244619D01*
X244094D01*
Y197244D01*
X243569Y196719D01*
X128873Y178740D02*
X129922D01*
X129397D01*
Y175591D01*
X128873D01*
X129922D01*
X133595Y178215D02*
X133071Y178740D01*
X132021D01*
X131496Y178215D01*
Y176116D01*
X132021Y175591D01*
X133071D01*
X133595Y176116D01*
X134645Y175591D02*
X135694D01*
X135170D01*
Y178740D01*
X134645Y178215D01*
X206361Y134915D02*
Y131766D01*
X207935D01*
X208460Y132291D01*
Y134390D01*
X207935Y134915D01*
X206361D01*
X211609Y131766D02*
X209510D01*
X211609Y133865D01*
Y134390D01*
X211084Y134915D01*
X210034D01*
X209510Y134390D01*
X131365Y144619D02*
X131889Y145144D01*
Y146194D01*
X131365Y146718D01*
X129265D01*
X128741Y146194D01*
Y145144D01*
X129265Y144619D01*
X131365Y143570D02*
X131889Y143045D01*
Y141995D01*
X131365Y141471D01*
X130840D01*
X130315Y141995D01*
X129790Y141471D01*
X129265D01*
X128741Y141995D01*
Y143045D01*
X129265Y143570D01*
X129790D01*
X130315Y143045D01*
X130840Y143570D01*
X131365D01*
X130315Y143045D02*
Y141995D01*
X105774Y164042D02*
X105250Y164567D01*
X104200D01*
X103675Y164042D01*
Y161943D01*
X104200Y161418D01*
X105250D01*
X105774Y161943D01*
X106824Y164567D02*
X108923D01*
Y164042D01*
X106824Y161943D01*
Y161418D01*
M02*
