G04*
G04 #@! TF.GenerationSoftware,Altium Limited,Altium Designer,20.1.14 (287)*
G04*
G04 Layer_Color=8421504*
%FSLAX25Y25*%
%MOIN*%
G70*
G04*
G04 #@! TF.SameCoordinates,DA88C76E-B398-4153-8C2D-C889442453F1*
G04*
G04*
G04 #@! TF.FilePolarity,Positive*
G04*
G01*
G75*
%ADD10R,0.05315X0.07284*%
%ADD14R,0.07284X0.05315*%
%ADD15R,0.03150X0.03740*%
%ADD16R,0.03937X0.04331*%
%ADD17R,0.05118X0.05906*%
%ADD18R,0.03937X0.05512*%
%ADD19R,0.04331X0.03937*%
%ADD20R,0.03740X0.03150*%
%ADD21R,0.03543X0.03150*%
%ADD22R,0.03543X0.04134*%
%ADD23R,0.02953X0.02362*%
%ADD24R,0.04134X0.03740*%
%ADD25R,0.05315X0.04331*%
%ADD26R,0.01181X0.05807*%
%ADD27R,0.05807X0.01181*%
G04:AMPARAMS|DCode=33|XSize=31.5mil|YSize=31.5mil|CornerRadius=7.87mil|HoleSize=0mil|Usage=FLASHONLY|Rotation=0.000|XOffset=0mil|YOffset=0mil|HoleType=Round|Shape=RoundedRectangle|*
%AMROUNDEDRECTD33*
21,1,0.03150,0.01575,0,0,0.0*
21,1,0.01575,0.03150,0,0,0.0*
1,1,0.01575,0.00787,-0.00787*
1,1,0.01575,-0.00787,-0.00787*
1,1,0.01575,-0.00787,0.00787*
1,1,0.01575,0.00787,0.00787*
%
%ADD33ROUNDEDRECTD33*%
%ADD34R,0.03150X0.03150*%
G04:AMPARAMS|DCode=35|XSize=31.5mil|YSize=31.5mil|CornerRadius=4.72mil|HoleSize=0mil|Usage=FLASHONLY|Rotation=0.000|XOffset=0mil|YOffset=0mil|HoleType=Round|Shape=RoundedRectangle|*
%AMROUNDEDRECTD35*
21,1,0.03150,0.02205,0,0,0.0*
21,1,0.02205,0.03150,0,0,0.0*
1,1,0.00945,0.01102,-0.01102*
1,1,0.00945,-0.01102,-0.01102*
1,1,0.00945,-0.01102,0.01102*
1,1,0.00945,0.01102,0.01102*
%
%ADD35ROUNDEDRECTD35*%
G04:AMPARAMS|DCode=36|XSize=31.5mil|YSize=31.5mil|CornerRadius=3.15mil|HoleSize=0mil|Usage=FLASHONLY|Rotation=0.000|XOffset=0mil|YOffset=0mil|HoleType=Round|Shape=RoundedRectangle|*
%AMROUNDEDRECTD36*
21,1,0.03150,0.02520,0,0,0.0*
21,1,0.02520,0.03150,0,0,0.0*
1,1,0.00630,0.01260,-0.01260*
1,1,0.00630,-0.01260,-0.01260*
1,1,0.00630,-0.01260,0.01260*
1,1,0.00630,0.01260,0.01260*
%
%ADD36ROUNDEDRECTD36*%
D10*
X326772Y241142D02*
D03*
X338779D02*
D03*
X326772Y290354D02*
D03*
X338779D02*
D03*
X326772Y339567D02*
D03*
X338779D02*
D03*
X326772Y388779D02*
D03*
X338779D02*
D03*
D14*
X388779Y387795D02*
D03*
Y375787D02*
D03*
X388779Y358268D02*
D03*
Y346260D02*
D03*
Y330709D02*
D03*
Y318701D02*
D03*
X388779Y303150D02*
D03*
Y291142D02*
D03*
Y275590D02*
D03*
Y263583D02*
D03*
Y248031D02*
D03*
Y236024D02*
D03*
X388779Y220473D02*
D03*
Y208465D02*
D03*
D15*
X148228Y384646D02*
D03*
X143110D02*
D03*
X148228Y288189D02*
D03*
X143110D02*
D03*
X148228Y191732D02*
D03*
X143110D02*
D03*
D16*
X179527Y366142D02*
D03*
X185039D02*
D03*
X33071Y316929D02*
D03*
X27559D02*
D03*
X33071Y324410D02*
D03*
X27559D02*
D03*
X48031D02*
D03*
X42520D02*
D03*
X63189D02*
D03*
X57677D02*
D03*
X167323Y373228D02*
D03*
X172835D02*
D03*
X78346Y324410D02*
D03*
X72835D02*
D03*
X93701D02*
D03*
X88189D02*
D03*
X108661D02*
D03*
X103150D02*
D03*
X124016D02*
D03*
X118504D02*
D03*
X179527Y373228D02*
D03*
X185039D02*
D03*
Y359055D02*
D03*
X179527D02*
D03*
Y269685D02*
D03*
X185039D02*
D03*
X33071Y220473D02*
D03*
X27559D02*
D03*
X33071Y227953D02*
D03*
X27559D02*
D03*
X48031D02*
D03*
X42520D02*
D03*
X63189D02*
D03*
X57677D02*
D03*
X167323Y276772D02*
D03*
X172835D02*
D03*
X78346Y227953D02*
D03*
X72835D02*
D03*
X93701D02*
D03*
X88189D02*
D03*
X108661D02*
D03*
X103150D02*
D03*
X124016D02*
D03*
X118504D02*
D03*
X179527Y276772D02*
D03*
X185039D02*
D03*
Y262598D02*
D03*
X179527D02*
D03*
Y173228D02*
D03*
X185039D02*
D03*
X33071Y124016D02*
D03*
X27559D02*
D03*
X33071Y131496D02*
D03*
X27559D02*
D03*
X48031D02*
D03*
X42520D02*
D03*
X63189D02*
D03*
X57677D02*
D03*
X167323Y180315D02*
D03*
X172835D02*
D03*
X78346Y131496D02*
D03*
X72835D02*
D03*
X93701D02*
D03*
X88189D02*
D03*
X108661D02*
D03*
X103150D02*
D03*
X124016D02*
D03*
X118504D02*
D03*
X179527Y180315D02*
D03*
X185039D02*
D03*
Y166142D02*
D03*
X179527D02*
D03*
D17*
X220079Y329488D02*
D03*
Y319488D02*
D03*
X256299Y329488D02*
D03*
X256299Y319488D02*
D03*
X220079Y349488D02*
D03*
Y339488D02*
D03*
X256299Y349488D02*
D03*
Y339488D02*
D03*
X220079Y233032D02*
D03*
Y223031D02*
D03*
X256299Y233032D02*
D03*
X256299Y223031D02*
D03*
X220079Y253031D02*
D03*
Y243032D02*
D03*
X256299Y253031D02*
D03*
Y243032D02*
D03*
X220079Y136575D02*
D03*
Y126575D02*
D03*
X256299Y136575D02*
D03*
X256299Y126575D02*
D03*
X220079Y156575D02*
D03*
Y146575D02*
D03*
X256299Y156575D02*
D03*
Y146575D02*
D03*
D18*
X11220Y331890D02*
D03*
X18701Y331890D02*
D03*
X14961Y340551D02*
D03*
X26406Y331890D02*
D03*
X33886D02*
D03*
X30146Y340551D02*
D03*
X41592Y331890D02*
D03*
X49072D02*
D03*
X45332Y340551D02*
D03*
X56777Y331890D02*
D03*
X64258D02*
D03*
X60517Y340551D02*
D03*
X71963Y331890D02*
D03*
X79443D02*
D03*
X75703Y340551D02*
D03*
X87148Y331890D02*
D03*
X94629D02*
D03*
X90889Y340551D02*
D03*
X102334Y331890D02*
D03*
X109814D02*
D03*
X106074Y340551D02*
D03*
X117520Y331890D02*
D03*
X125000D02*
D03*
X121260Y340551D02*
D03*
X11220Y235433D02*
D03*
X18701Y235433D02*
D03*
X14961Y244094D02*
D03*
X26406Y235433D02*
D03*
X33886D02*
D03*
X30146Y244094D02*
D03*
X41592Y235433D02*
D03*
X49072D02*
D03*
X45332Y244094D02*
D03*
X56777Y235433D02*
D03*
X64258D02*
D03*
X60517Y244094D02*
D03*
X71963Y235433D02*
D03*
X79443D02*
D03*
X75703Y244094D02*
D03*
X87148Y235433D02*
D03*
X94629D02*
D03*
X90889Y244094D02*
D03*
X102334Y235433D02*
D03*
X109814D02*
D03*
X106074Y244094D02*
D03*
X117520Y235433D02*
D03*
X125000D02*
D03*
X121260Y244094D02*
D03*
X11220Y138976D02*
D03*
X18701Y138976D02*
D03*
X14961Y147638D02*
D03*
X26406Y138976D02*
D03*
X33886D02*
D03*
X30146Y147638D02*
D03*
X41592Y138976D02*
D03*
X49072D02*
D03*
X45332Y147638D02*
D03*
X56777Y138976D02*
D03*
X64258D02*
D03*
X60517Y147638D02*
D03*
X71963Y138976D02*
D03*
X79443D02*
D03*
X75703Y147638D02*
D03*
X87148Y138976D02*
D03*
X94629D02*
D03*
X90889Y147638D02*
D03*
X102334Y138976D02*
D03*
X109814D02*
D03*
X106074Y147638D02*
D03*
X117520Y138976D02*
D03*
X125000D02*
D03*
X121260Y147638D02*
D03*
D19*
X56809Y375909D02*
D03*
Y381421D02*
D03*
X66652Y375515D02*
D03*
Y381027D02*
D03*
X76888Y375909D02*
D03*
Y381421D02*
D03*
X86730Y375909D02*
D03*
Y381421D02*
D03*
X40945Y358268D02*
D03*
Y363780D02*
D03*
X49606Y358268D02*
D03*
Y363780D02*
D03*
X58268Y358268D02*
D03*
Y363780D02*
D03*
X66929Y358268D02*
D03*
Y363780D02*
D03*
X75590Y358268D02*
D03*
Y363780D02*
D03*
X84252Y358268D02*
D03*
Y363780D02*
D03*
X92913Y358268D02*
D03*
Y363780D02*
D03*
X100394Y357480D02*
D03*
Y362992D02*
D03*
X212992Y353937D02*
D03*
Y348425D02*
D03*
X56809Y279452D02*
D03*
Y284964D02*
D03*
X66652Y279059D02*
D03*
Y284571D02*
D03*
X76888Y279452D02*
D03*
Y284964D02*
D03*
X86730Y279452D02*
D03*
Y284964D02*
D03*
X40945Y261811D02*
D03*
Y267323D02*
D03*
X49606Y261811D02*
D03*
Y267323D02*
D03*
X58268Y261811D02*
D03*
Y267323D02*
D03*
X66929Y261811D02*
D03*
Y267323D02*
D03*
X75590Y261811D02*
D03*
Y267323D02*
D03*
X84252Y261811D02*
D03*
Y267323D02*
D03*
X92913Y261811D02*
D03*
Y267323D02*
D03*
X100394Y261024D02*
D03*
Y266535D02*
D03*
X212992Y257480D02*
D03*
Y251969D02*
D03*
X56809Y182996D02*
D03*
Y188507D02*
D03*
X66652Y182602D02*
D03*
Y188114D02*
D03*
X76888Y182996D02*
D03*
Y188508D02*
D03*
X86730Y182996D02*
D03*
Y188507D02*
D03*
X40945Y165354D02*
D03*
Y170866D02*
D03*
X49606Y165354D02*
D03*
Y170866D02*
D03*
X58268Y165354D02*
D03*
Y170866D02*
D03*
X66929Y165354D02*
D03*
Y170866D02*
D03*
X75590Y165354D02*
D03*
Y170866D02*
D03*
X84252Y165354D02*
D03*
Y170866D02*
D03*
X92913Y165354D02*
D03*
Y170866D02*
D03*
X100394Y164567D02*
D03*
Y170079D02*
D03*
X212992Y161024D02*
D03*
Y155512D02*
D03*
D20*
X114005Y363764D02*
D03*
Y358646D02*
D03*
X119123Y363764D02*
D03*
Y358646D02*
D03*
X124241Y363764D02*
D03*
Y358646D02*
D03*
X114005Y267307D02*
D03*
Y262189D02*
D03*
X119123Y267307D02*
D03*
Y262189D02*
D03*
X124241Y267307D02*
D03*
Y262189D02*
D03*
X114005Y170850D02*
D03*
Y165732D02*
D03*
X119123Y170850D02*
D03*
Y165732D02*
D03*
X124241Y170850D02*
D03*
Y165732D02*
D03*
D21*
X196457Y361221D02*
D03*
Y353740D02*
D03*
X204331Y357480D02*
D03*
X196457Y264764D02*
D03*
Y257283D02*
D03*
X204331Y261024D02*
D03*
X196457Y168307D02*
D03*
Y160827D02*
D03*
X204331Y164567D02*
D03*
D22*
X179527Y350787D02*
D03*
X184843D02*
D03*
X179527Y254331D02*
D03*
X184843D02*
D03*
X179527Y157874D02*
D03*
X184843D02*
D03*
D23*
X214567Y312205D02*
D03*
X205906Y308465D02*
D03*
Y315945D02*
D03*
X214567Y215748D02*
D03*
X205906Y212008D02*
D03*
Y219488D02*
D03*
X214567Y119291D02*
D03*
X205906Y115551D02*
D03*
Y123031D02*
D03*
D24*
X123622Y353642D02*
D03*
Y347933D02*
D03*
Y257185D02*
D03*
Y251476D02*
D03*
Y160728D02*
D03*
Y155020D02*
D03*
D25*
X116142Y353543D02*
D03*
Y348031D02*
D03*
Y257087D02*
D03*
Y251575D02*
D03*
Y160630D02*
D03*
Y155118D02*
D03*
D26*
X137992Y369835D02*
D03*
X139961D02*
D03*
X141929D02*
D03*
X143898D02*
D03*
X145866D02*
D03*
X147835D02*
D03*
X149803D02*
D03*
X151772D02*
D03*
X153740D02*
D03*
X155709D02*
D03*
X157677D02*
D03*
X159646D02*
D03*
Y336465D02*
D03*
X157677D02*
D03*
X155709D02*
D03*
X153740D02*
D03*
X151772D02*
D03*
X149803D02*
D03*
X147835D02*
D03*
X145866D02*
D03*
X143898D02*
D03*
X141929D02*
D03*
X139961D02*
D03*
X137992D02*
D03*
Y273378D02*
D03*
X139961D02*
D03*
X141929D02*
D03*
X143898D02*
D03*
X145866D02*
D03*
X147835D02*
D03*
X149803D02*
D03*
X151772D02*
D03*
X153740D02*
D03*
X155709D02*
D03*
X157677D02*
D03*
X159646D02*
D03*
Y240008D02*
D03*
X157677D02*
D03*
X155709D02*
D03*
X153740D02*
D03*
X151772D02*
D03*
X149803D02*
D03*
X147835D02*
D03*
X145866D02*
D03*
X143898D02*
D03*
X141929D02*
D03*
X139961D02*
D03*
X137992D02*
D03*
Y176921D02*
D03*
X139961D02*
D03*
X141929D02*
D03*
X143898D02*
D03*
X145866D02*
D03*
X147835D02*
D03*
X149803D02*
D03*
X151772D02*
D03*
X153740D02*
D03*
X155709D02*
D03*
X157677D02*
D03*
X159646D02*
D03*
Y143551D02*
D03*
X157677D02*
D03*
X155709D02*
D03*
X153740D02*
D03*
X151772D02*
D03*
X149803D02*
D03*
X147835D02*
D03*
X145866D02*
D03*
X143898D02*
D03*
X141929D02*
D03*
X139961D02*
D03*
X137992D02*
D03*
D27*
X165504Y363976D02*
D03*
Y362008D02*
D03*
Y360039D02*
D03*
Y358071D02*
D03*
Y356102D02*
D03*
Y354134D02*
D03*
Y352165D02*
D03*
Y350197D02*
D03*
Y348228D02*
D03*
Y346260D02*
D03*
Y344291D02*
D03*
Y342323D02*
D03*
X132134D02*
D03*
Y344291D02*
D03*
Y346260D02*
D03*
Y348228D02*
D03*
Y350197D02*
D03*
Y352165D02*
D03*
Y354134D02*
D03*
Y356102D02*
D03*
Y358071D02*
D03*
Y360039D02*
D03*
Y362008D02*
D03*
Y363976D02*
D03*
X165504Y267520D02*
D03*
Y265551D02*
D03*
Y263583D02*
D03*
Y261614D02*
D03*
Y259646D02*
D03*
Y257677D02*
D03*
Y255709D02*
D03*
Y253740D02*
D03*
Y251772D02*
D03*
Y249803D02*
D03*
Y247835D02*
D03*
Y245866D02*
D03*
X132134D02*
D03*
Y247835D02*
D03*
Y249803D02*
D03*
Y251772D02*
D03*
Y253740D02*
D03*
Y255709D02*
D03*
Y257677D02*
D03*
Y259646D02*
D03*
Y261614D02*
D03*
Y263583D02*
D03*
Y265551D02*
D03*
Y267520D02*
D03*
X165504Y171063D02*
D03*
Y169095D02*
D03*
Y167126D02*
D03*
Y165157D02*
D03*
Y163189D02*
D03*
Y161221D02*
D03*
Y159252D02*
D03*
Y157283D02*
D03*
Y155315D02*
D03*
Y153347D02*
D03*
Y151378D02*
D03*
Y149409D02*
D03*
X132134D02*
D03*
Y151378D02*
D03*
Y153347D02*
D03*
Y155315D02*
D03*
Y157283D02*
D03*
Y159252D02*
D03*
Y161221D02*
D03*
Y163189D02*
D03*
Y165157D02*
D03*
Y167126D02*
D03*
Y169095D02*
D03*
Y171063D02*
D03*
D33*
X144562Y99606D02*
D03*
Y72047D02*
D03*
Y44488D02*
D03*
Y17717D02*
D03*
D34*
Y93307D02*
D03*
X193775Y99606D02*
D03*
Y93307D02*
D03*
X187623Y99606D02*
D03*
Y93307D02*
D03*
X181472Y99606D02*
D03*
Y93307D02*
D03*
X95349Y99606D02*
D03*
Y93307D02*
D03*
X52288Y99606D02*
D03*
Y93307D02*
D03*
X58440Y99606D02*
D03*
Y93307D02*
D03*
X46137Y99606D02*
D03*
Y93307D02*
D03*
X39985Y99606D02*
D03*
Y93307D02*
D03*
X33834Y99606D02*
D03*
Y93307D02*
D03*
X27682Y99606D02*
D03*
Y93307D02*
D03*
X21531Y99606D02*
D03*
Y93307D02*
D03*
X15379Y99606D02*
D03*
Y93307D02*
D03*
X9227Y99606D02*
D03*
Y93307D02*
D03*
X3076Y99606D02*
D03*
Y93307D02*
D03*
X64592Y99606D02*
D03*
Y93307D02*
D03*
X70743Y99606D02*
D03*
Y93307D02*
D03*
X76895Y99606D02*
D03*
Y93307D02*
D03*
X83046Y99606D02*
D03*
Y93307D02*
D03*
X89198Y99606D02*
D03*
Y93307D02*
D03*
X138410Y99606D02*
D03*
Y93307D02*
D03*
X132259Y99606D02*
D03*
Y93307D02*
D03*
X126107Y99606D02*
D03*
Y93307D02*
D03*
X119956Y99606D02*
D03*
Y93307D02*
D03*
X113804Y99606D02*
D03*
Y93307D02*
D03*
X107653Y99606D02*
D03*
Y93307D02*
D03*
X101501Y99606D02*
D03*
Y93307D02*
D03*
X156865D02*
D03*
X163017Y99606D02*
D03*
Y93307D02*
D03*
X169168Y99606D02*
D03*
Y93307D02*
D03*
X175320Y99606D02*
D03*
Y93307D02*
D03*
X242987Y99606D02*
D03*
Y93307D02*
D03*
X236836Y99606D02*
D03*
Y93307D02*
D03*
X230684Y99606D02*
D03*
Y93307D02*
D03*
X224533Y99533D02*
D03*
Y93233D02*
D03*
X218381Y99533D02*
D03*
Y93233D02*
D03*
X212229Y99606D02*
D03*
Y93307D02*
D03*
X206078Y99606D02*
D03*
Y93307D02*
D03*
X199926Y99606D02*
D03*
Y93307D02*
D03*
X249139Y99606D02*
D03*
Y93307D02*
D03*
X255290Y99606D02*
D03*
Y93307D02*
D03*
X261442Y99606D02*
D03*
Y93307D02*
D03*
X267594Y99606D02*
D03*
Y93307D02*
D03*
X273745Y99606D02*
D03*
Y93307D02*
D03*
X279897Y99606D02*
D03*
Y93307D02*
D03*
X286048Y99606D02*
D03*
Y93307D02*
D03*
X292200Y99606D02*
D03*
Y93307D02*
D03*
X341412Y99606D02*
D03*
Y93307D02*
D03*
X335261Y99606D02*
D03*
Y93307D02*
D03*
X329109Y99606D02*
D03*
Y93307D02*
D03*
X322958Y99606D02*
D03*
Y93307D02*
D03*
X316806Y99606D02*
D03*
Y93307D02*
D03*
X310655Y99606D02*
D03*
Y93307D02*
D03*
X304503Y99606D02*
D03*
Y93307D02*
D03*
X298351Y99606D02*
D03*
Y93307D02*
D03*
X347564Y99606D02*
D03*
Y93307D02*
D03*
X353716Y99606D02*
D03*
Y93307D02*
D03*
X359867Y99606D02*
D03*
Y93307D02*
D03*
X366019Y99606D02*
D03*
Y93307D02*
D03*
X372170Y99606D02*
D03*
Y93307D02*
D03*
X378322Y99606D02*
D03*
Y93307D02*
D03*
X384473Y99606D02*
D03*
Y93307D02*
D03*
X390625Y99606D02*
D03*
Y93307D02*
D03*
X144562Y65748D02*
D03*
X193775Y72047D02*
D03*
Y65748D02*
D03*
X187623Y72047D02*
D03*
Y65748D02*
D03*
X181472Y72047D02*
D03*
Y65748D02*
D03*
X95349Y72047D02*
D03*
Y65748D02*
D03*
X52288Y72047D02*
D03*
Y65748D02*
D03*
X58440Y72047D02*
D03*
Y65748D02*
D03*
X46137Y72047D02*
D03*
Y65748D02*
D03*
X39985Y72047D02*
D03*
Y65748D02*
D03*
X33834Y72047D02*
D03*
Y65748D02*
D03*
X27682Y72047D02*
D03*
Y65748D02*
D03*
X21531Y72047D02*
D03*
Y65748D02*
D03*
X15379Y72047D02*
D03*
Y65748D02*
D03*
X9227Y72047D02*
D03*
Y65748D02*
D03*
X3076Y72047D02*
D03*
Y65748D02*
D03*
X64592Y72047D02*
D03*
Y65748D02*
D03*
X70743Y72047D02*
D03*
Y65748D02*
D03*
X76895Y72047D02*
D03*
Y65748D02*
D03*
X83046Y72047D02*
D03*
Y65748D02*
D03*
X89198Y72047D02*
D03*
Y65748D02*
D03*
X138410Y72047D02*
D03*
Y65748D02*
D03*
X132259Y72047D02*
D03*
Y65748D02*
D03*
X126107Y72047D02*
D03*
Y65748D02*
D03*
X119956Y72047D02*
D03*
Y65748D02*
D03*
X113804Y72047D02*
D03*
Y65748D02*
D03*
X107653Y72047D02*
D03*
Y65748D02*
D03*
X101501Y72047D02*
D03*
Y65748D02*
D03*
X156865D02*
D03*
X163017Y72047D02*
D03*
Y65748D02*
D03*
X169168Y72047D02*
D03*
Y65748D02*
D03*
X175320Y72047D02*
D03*
Y65748D02*
D03*
X242987Y72047D02*
D03*
Y65748D02*
D03*
X236836Y72047D02*
D03*
Y65748D02*
D03*
X230684Y72047D02*
D03*
Y65748D02*
D03*
X224533Y71973D02*
D03*
Y65674D02*
D03*
X218381Y71973D02*
D03*
Y65674D02*
D03*
X212229Y72047D02*
D03*
Y65748D02*
D03*
X206078Y72047D02*
D03*
Y65748D02*
D03*
X199926Y72047D02*
D03*
Y65748D02*
D03*
X249139Y72047D02*
D03*
Y65748D02*
D03*
X255290Y72047D02*
D03*
Y65748D02*
D03*
X261442Y72047D02*
D03*
Y65748D02*
D03*
X267594Y72047D02*
D03*
Y65748D02*
D03*
X273745Y72047D02*
D03*
Y65748D02*
D03*
X279897Y72047D02*
D03*
Y65748D02*
D03*
X286048Y72047D02*
D03*
Y65748D02*
D03*
X292200Y72047D02*
D03*
Y65748D02*
D03*
X341412Y72047D02*
D03*
Y65748D02*
D03*
X335261Y72047D02*
D03*
Y65748D02*
D03*
X329109Y72047D02*
D03*
Y65748D02*
D03*
X322958Y72047D02*
D03*
Y65748D02*
D03*
X316806Y72047D02*
D03*
Y65748D02*
D03*
X310655Y72047D02*
D03*
Y65748D02*
D03*
X304503Y72047D02*
D03*
Y65748D02*
D03*
X298351Y72047D02*
D03*
Y65748D02*
D03*
X347564Y72047D02*
D03*
Y65748D02*
D03*
X353716Y72047D02*
D03*
Y65748D02*
D03*
X359867Y72047D02*
D03*
Y65748D02*
D03*
X366019Y72047D02*
D03*
Y65748D02*
D03*
X372170Y72047D02*
D03*
Y65748D02*
D03*
X378322Y72047D02*
D03*
Y65748D02*
D03*
X384473Y72047D02*
D03*
Y65748D02*
D03*
X390625Y72047D02*
D03*
Y65748D02*
D03*
X144562Y38189D02*
D03*
X193775Y44488D02*
D03*
Y38189D02*
D03*
X187623Y44488D02*
D03*
Y38189D02*
D03*
X181472Y44488D02*
D03*
Y38189D02*
D03*
X95349Y44488D02*
D03*
Y38189D02*
D03*
X52288Y44488D02*
D03*
Y38189D02*
D03*
X58440Y44488D02*
D03*
Y38189D02*
D03*
X46137Y44488D02*
D03*
Y38189D02*
D03*
X39985Y44488D02*
D03*
Y38189D02*
D03*
X33834Y44488D02*
D03*
Y38189D02*
D03*
X27682Y44488D02*
D03*
Y38189D02*
D03*
X21531Y44488D02*
D03*
Y38189D02*
D03*
X15379Y44488D02*
D03*
Y38189D02*
D03*
X9227Y44488D02*
D03*
Y38189D02*
D03*
X3076Y44488D02*
D03*
Y38189D02*
D03*
X64592Y44488D02*
D03*
Y38189D02*
D03*
X70743Y44488D02*
D03*
Y38189D02*
D03*
X76895Y44488D02*
D03*
Y38189D02*
D03*
X83046Y44488D02*
D03*
Y38189D02*
D03*
X89198Y44488D02*
D03*
Y38189D02*
D03*
X138410Y44488D02*
D03*
Y38189D02*
D03*
X132259Y44488D02*
D03*
Y38189D02*
D03*
X126107Y44488D02*
D03*
Y38189D02*
D03*
X119956Y44488D02*
D03*
Y38189D02*
D03*
X113804Y44488D02*
D03*
Y38189D02*
D03*
X107653Y44488D02*
D03*
Y38189D02*
D03*
X101501Y44488D02*
D03*
Y38189D02*
D03*
X156865D02*
D03*
X163017Y44488D02*
D03*
Y38189D02*
D03*
X169168Y44488D02*
D03*
Y38189D02*
D03*
X175320Y44488D02*
D03*
Y38189D02*
D03*
X242987Y44488D02*
D03*
Y38189D02*
D03*
X236836Y44488D02*
D03*
Y38189D02*
D03*
X230684Y44488D02*
D03*
Y38189D02*
D03*
X224533Y44414D02*
D03*
Y38115D02*
D03*
X218381Y44414D02*
D03*
Y38115D02*
D03*
X212229Y44488D02*
D03*
Y38189D02*
D03*
X206078Y44488D02*
D03*
Y38189D02*
D03*
X199926Y44488D02*
D03*
Y38189D02*
D03*
X249139Y44488D02*
D03*
Y38189D02*
D03*
X255290Y44488D02*
D03*
Y38189D02*
D03*
X261442Y44488D02*
D03*
Y38189D02*
D03*
X267594Y44488D02*
D03*
Y38189D02*
D03*
X273745Y44488D02*
D03*
Y38189D02*
D03*
X279897Y44488D02*
D03*
Y38189D02*
D03*
X286048Y44488D02*
D03*
Y38189D02*
D03*
X292200Y44488D02*
D03*
Y38189D02*
D03*
X341412Y44488D02*
D03*
Y38189D02*
D03*
X335261Y44488D02*
D03*
Y38189D02*
D03*
X329109Y44488D02*
D03*
Y38189D02*
D03*
X322958Y44488D02*
D03*
Y38189D02*
D03*
X316806Y44488D02*
D03*
Y38189D02*
D03*
X310655Y44488D02*
D03*
Y38189D02*
D03*
X304503Y44488D02*
D03*
Y38189D02*
D03*
X298351Y44488D02*
D03*
Y38189D02*
D03*
X347564Y44488D02*
D03*
Y38189D02*
D03*
X353716Y44488D02*
D03*
Y38189D02*
D03*
X359867Y44488D02*
D03*
Y38189D02*
D03*
X366019Y44488D02*
D03*
Y38189D02*
D03*
X372170Y44488D02*
D03*
Y38189D02*
D03*
X378322Y44488D02*
D03*
Y38189D02*
D03*
X384473Y44488D02*
D03*
Y38189D02*
D03*
X390625Y44488D02*
D03*
Y38189D02*
D03*
X144562Y11417D02*
D03*
X193775Y17717D02*
D03*
Y11417D02*
D03*
X187623Y17717D02*
D03*
Y11417D02*
D03*
X181472Y17717D02*
D03*
Y11417D02*
D03*
X95349Y17717D02*
D03*
Y11417D02*
D03*
X52288Y17717D02*
D03*
Y11417D02*
D03*
X58440Y17717D02*
D03*
Y11417D02*
D03*
X46137Y17717D02*
D03*
Y11417D02*
D03*
X39985Y17717D02*
D03*
Y11417D02*
D03*
X33834Y17717D02*
D03*
Y11417D02*
D03*
X27682Y17717D02*
D03*
Y11417D02*
D03*
X21531Y17717D02*
D03*
Y11417D02*
D03*
X15379Y17717D02*
D03*
Y11417D02*
D03*
X9227Y17717D02*
D03*
Y11417D02*
D03*
X3076Y17717D02*
D03*
Y11417D02*
D03*
X64592Y17717D02*
D03*
Y11417D02*
D03*
X70743Y17717D02*
D03*
Y11417D02*
D03*
X76895Y17717D02*
D03*
Y11417D02*
D03*
X83046Y17717D02*
D03*
Y11417D02*
D03*
X89198Y17717D02*
D03*
Y11417D02*
D03*
X138410Y17717D02*
D03*
Y11417D02*
D03*
X132259Y17717D02*
D03*
Y11417D02*
D03*
X126107Y17717D02*
D03*
Y11417D02*
D03*
X119956Y17717D02*
D03*
Y11417D02*
D03*
X113804Y17717D02*
D03*
Y11417D02*
D03*
X107653Y17717D02*
D03*
Y11417D02*
D03*
X101501Y17717D02*
D03*
Y11417D02*
D03*
X156865D02*
D03*
X163017Y17717D02*
D03*
Y11417D02*
D03*
X169168Y17717D02*
D03*
Y11417D02*
D03*
X175320Y17717D02*
D03*
Y11417D02*
D03*
X242987Y17717D02*
D03*
Y11417D02*
D03*
X236836Y17717D02*
D03*
Y11417D02*
D03*
X230684Y17717D02*
D03*
Y11417D02*
D03*
X224533Y17643D02*
D03*
Y11344D02*
D03*
X218381Y17643D02*
D03*
Y11344D02*
D03*
X212229Y17717D02*
D03*
Y11417D02*
D03*
X206078Y17717D02*
D03*
Y11417D02*
D03*
X199926Y17717D02*
D03*
Y11417D02*
D03*
X249139Y17717D02*
D03*
Y11417D02*
D03*
X255290Y17717D02*
D03*
Y11417D02*
D03*
X261442Y17717D02*
D03*
Y11417D02*
D03*
X267594Y17717D02*
D03*
Y11417D02*
D03*
X273745Y17717D02*
D03*
Y11417D02*
D03*
X279897Y17717D02*
D03*
Y11417D02*
D03*
X286048Y17717D02*
D03*
Y11417D02*
D03*
X292200Y17717D02*
D03*
Y11417D02*
D03*
X341412Y17717D02*
D03*
Y11417D02*
D03*
X335261Y17717D02*
D03*
Y11417D02*
D03*
X329109Y17717D02*
D03*
Y11417D02*
D03*
X322958Y17717D02*
D03*
Y11417D02*
D03*
X316806Y17717D02*
D03*
Y11417D02*
D03*
X310655Y17717D02*
D03*
Y11417D02*
D03*
X304503Y17717D02*
D03*
Y11417D02*
D03*
X298351Y17717D02*
D03*
Y11417D02*
D03*
X347564Y17717D02*
D03*
Y11417D02*
D03*
X353716Y17717D02*
D03*
Y11417D02*
D03*
X359867Y17717D02*
D03*
Y11417D02*
D03*
X366019Y17717D02*
D03*
Y11417D02*
D03*
X372170Y17717D02*
D03*
Y11417D02*
D03*
X378322Y17717D02*
D03*
Y11417D02*
D03*
X384473Y17717D02*
D03*
Y11417D02*
D03*
X390625Y17717D02*
D03*
Y11417D02*
D03*
D35*
X150714Y99606D02*
D03*
X156865D02*
D03*
X150714Y72047D02*
D03*
X156865D02*
D03*
X150714Y44488D02*
D03*
X156865D02*
D03*
X150714Y17717D02*
D03*
X156865D02*
D03*
D36*
X150714Y93307D02*
D03*
Y65748D02*
D03*
Y38189D02*
D03*
Y11417D02*
D03*
M02*
