G04*
G04 #@! TF.GenerationSoftware,Altium Limited,Altium Designer,20.1.14 (287)*
G04*
G04 Layer_Color=128*
%FSLAX25Y25*%
%MOIN*%
G70*
G04*
G04 #@! TF.SameCoordinates,DA88C76E-B398-4153-8C2D-C889442453F1*
G04*
G04*
G04 #@! TF.FilePolarity,Positive*
G04*
G01*
G75*
%ADD15R,0.03150X0.03740*%
%ADD16R,0.03937X0.04331*%
%ADD17R,0.05118X0.05906*%
%ADD19R,0.04331X0.03937*%
%ADD21R,0.03543X0.03150*%
%ADD22R,0.03543X0.04134*%
%ADD23R,0.02953X0.02362*%
%ADD24R,0.04134X0.03740*%
%ADD25R,0.05315X0.04331*%
%ADD52R,0.02362X0.02953*%
%ADD53R,0.03740X0.04134*%
%ADD54R,0.04134X0.03543*%
%ADD55R,0.01772X0.03347*%
%ADD56R,0.03937X0.10630*%
%ADD57R,0.12992X0.10630*%
D15*
X212598Y311417D02*
D03*
X217717D02*
D03*
X212598Y214961D02*
D03*
X217717D02*
D03*
X212598Y118504D02*
D03*
X217717D02*
D03*
D16*
X242126Y371260D02*
D03*
X236614D02*
D03*
X209449Y385039D02*
D03*
X214961D02*
D03*
X228740D02*
D03*
X223228D02*
D03*
X156299Y377165D02*
D03*
X161811D02*
D03*
X242126Y274803D02*
D03*
X236614D02*
D03*
X209449Y288583D02*
D03*
X214961D02*
D03*
X228740D02*
D03*
X223228D02*
D03*
X156299Y280709D02*
D03*
X161811D02*
D03*
X242126Y178347D02*
D03*
X236614D02*
D03*
X209449Y192126D02*
D03*
X214961D02*
D03*
X228740D02*
D03*
X223228D02*
D03*
X156299Y184252D02*
D03*
X161811D02*
D03*
D17*
X256299Y329488D02*
D03*
Y319488D02*
D03*
X220079Y329488D02*
D03*
Y319488D02*
D03*
X256299Y349488D02*
D03*
Y339488D02*
D03*
X220079Y349488D02*
D03*
Y339488D02*
D03*
X256299Y233032D02*
D03*
Y223031D02*
D03*
X220079Y233032D02*
D03*
Y223031D02*
D03*
X256299Y253031D02*
D03*
Y243032D02*
D03*
X220079Y253031D02*
D03*
Y243032D02*
D03*
X256299Y136575D02*
D03*
Y126575D02*
D03*
X220079Y136575D02*
D03*
Y126575D02*
D03*
X256299Y156575D02*
D03*
Y146575D02*
D03*
X220079Y156575D02*
D03*
Y146575D02*
D03*
D19*
X230315Y369291D02*
D03*
Y363780D02*
D03*
X203150Y388189D02*
D03*
Y382677D02*
D03*
X220472Y369291D02*
D03*
Y363780D02*
D03*
X51691Y375909D02*
D03*
Y381421D02*
D03*
X61927Y375909D02*
D03*
Y381421D02*
D03*
X72163Y375909D02*
D03*
Y381421D02*
D03*
X81612Y375909D02*
D03*
Y381421D02*
D03*
X230315Y272835D02*
D03*
Y267323D02*
D03*
X203150Y291732D02*
D03*
Y286221D02*
D03*
X220472Y272835D02*
D03*
Y267323D02*
D03*
X51691Y279452D02*
D03*
Y284964D02*
D03*
X61927Y279452D02*
D03*
Y284964D02*
D03*
X72163Y279452D02*
D03*
Y284964D02*
D03*
X81612Y279452D02*
D03*
Y284964D02*
D03*
X230315Y176378D02*
D03*
Y170866D02*
D03*
X203150Y195276D02*
D03*
Y189764D02*
D03*
X220472Y176378D02*
D03*
Y170866D02*
D03*
X51691Y182996D02*
D03*
Y188507D02*
D03*
X61927Y182996D02*
D03*
Y188507D02*
D03*
X72163Y182996D02*
D03*
Y188507D02*
D03*
X81612Y182996D02*
D03*
Y188507D02*
D03*
D21*
X190157Y357677D02*
D03*
Y350197D02*
D03*
X182283Y353937D02*
D03*
X190157Y261221D02*
D03*
Y253740D02*
D03*
X182283Y257480D02*
D03*
X190157Y164764D02*
D03*
Y157283D02*
D03*
X182283Y161024D02*
D03*
D22*
X269193Y342126D02*
D03*
X263878D02*
D03*
X264665Y327559D02*
D03*
X269980D02*
D03*
X269193Y245669D02*
D03*
X263878D02*
D03*
X264665Y231102D02*
D03*
X269980D02*
D03*
X269193Y149213D02*
D03*
X263878D02*
D03*
X264665Y134646D02*
D03*
X269980D02*
D03*
D23*
X185827Y384252D02*
D03*
X194488Y380512D02*
D03*
Y387992D02*
D03*
X185827Y287795D02*
D03*
X194488Y284055D02*
D03*
Y291535D02*
D03*
X185827Y191339D02*
D03*
X194488Y187599D02*
D03*
Y195079D02*
D03*
D24*
X214173Y329232D02*
D03*
Y323524D02*
D03*
X126378Y339075D02*
D03*
Y333366D02*
D03*
X134646Y339075D02*
D03*
Y333366D02*
D03*
X123622Y353642D02*
D03*
Y347933D02*
D03*
X214173Y232776D02*
D03*
Y227067D02*
D03*
X126378Y242618D02*
D03*
Y236910D02*
D03*
X134646Y242618D02*
D03*
Y236910D02*
D03*
X123622Y257185D02*
D03*
Y251476D02*
D03*
X214173Y136319D02*
D03*
Y130610D02*
D03*
X126378Y146161D02*
D03*
Y140453D02*
D03*
X134646Y146161D02*
D03*
Y140453D02*
D03*
X123622Y160728D02*
D03*
Y155020D02*
D03*
D25*
X116142Y353543D02*
D03*
Y348031D02*
D03*
Y257087D02*
D03*
Y251575D02*
D03*
Y160630D02*
D03*
Y155118D02*
D03*
D52*
X240157Y386614D02*
D03*
X236417Y377953D02*
D03*
X243898D02*
D03*
X207480Y361024D02*
D03*
X211220Y369685D02*
D03*
X203740D02*
D03*
X240157Y290158D02*
D03*
X236417Y281496D02*
D03*
X243898D02*
D03*
X207480Y264567D02*
D03*
X211220Y273228D02*
D03*
X203740D02*
D03*
X240157Y193701D02*
D03*
X236417Y185039D02*
D03*
X243898D02*
D03*
X207480Y168110D02*
D03*
X211220Y176772D02*
D03*
X203740D02*
D03*
D53*
X182776Y309449D02*
D03*
X177067D02*
D03*
X182776Y212992D02*
D03*
X177067D02*
D03*
X182776Y116535D02*
D03*
X177067D02*
D03*
D54*
X212992Y348327D02*
D03*
Y343012D02*
D03*
Y251870D02*
D03*
Y246555D02*
D03*
Y155413D02*
D03*
Y150099D02*
D03*
D55*
X263583Y335039D02*
D03*
X269488D02*
D03*
X263583Y238583D02*
D03*
X269488D02*
D03*
X263583Y142126D02*
D03*
X269488D02*
D03*
D56*
X206890Y312205D02*
D03*
X197835D02*
D03*
X188779D02*
D03*
X206890Y215748D02*
D03*
X197835D02*
D03*
X188779D02*
D03*
X206890Y119291D02*
D03*
X197835D02*
D03*
X188779D02*
D03*
D57*
X197835Y335433D02*
D03*
Y238976D02*
D03*
Y142520D02*
D03*
M02*
