G04*
G04 #@! TF.GenerationSoftware,Altium Limited,Altium Designer,20.1.14 (287)*
G04*
G04 Layer_Physical_Order=2*
G04 Layer_Color=16729426*
%FSLAX25Y25*%
%MOIN*%
G70*
G04*
G04 #@! TF.SameCoordinates,DA88C76E-B398-4153-8C2D-C889442453F1*
G04*
G04*
G04 #@! TF.FilePolarity,Positive*
G04*
G01*
G75*
%ADD12C,0.01000*%
%ADD13C,0.02500*%
%ADD15R,0.03150X0.03740*%
%ADD16R,0.03937X0.04331*%
%ADD17R,0.05118X0.05906*%
%ADD19R,0.04331X0.03937*%
%ADD21R,0.03543X0.03150*%
%ADD22R,0.03543X0.04134*%
%ADD23R,0.02953X0.02362*%
%ADD24R,0.04134X0.03740*%
%ADD25R,0.05315X0.04331*%
%ADD28C,0.00600*%
%ADD29C,0.01968*%
%ADD30C,0.01500*%
%ADD32C,0.02000*%
%ADD37C,0.00500*%
G04:AMPARAMS|DCode=38|XSize=44mil|YSize=44mil|CornerRadius=5.5mil|HoleSize=0mil|Usage=FLASHONLY|Rotation=180.000|XOffset=0mil|YOffset=0mil|HoleType=Round|Shape=RoundedRectangle|*
%AMROUNDEDRECTD38*
21,1,0.04400,0.03300,0,0,180.0*
21,1,0.03300,0.04400,0,0,180.0*
1,1,0.01100,-0.01650,0.01650*
1,1,0.01100,0.01650,0.01650*
1,1,0.01100,0.01650,-0.01650*
1,1,0.01100,-0.01650,-0.01650*
%
%ADD38ROUNDEDRECTD38*%
%ADD39C,0.06102*%
%ADD40R,0.06102X0.06102*%
%ADD41R,0.06102X0.06102*%
%ADD42C,0.07874*%
%ADD43C,0.06299*%
%ADD44C,0.04528*%
%ADD45R,0.04528X0.04528*%
%ADD46C,0.05512*%
G04:AMPARAMS|DCode=47|XSize=44mil|YSize=47mil|CornerRadius=11mil|HoleSize=0mil|Usage=FLASHONLY|Rotation=0.000|XOffset=0mil|YOffset=0mil|HoleType=Round|Shape=RoundedRectangle|*
%AMROUNDEDRECTD47*
21,1,0.04400,0.02500,0,0,0.0*
21,1,0.02200,0.04700,0,0,0.0*
1,1,0.02200,0.01100,-0.01250*
1,1,0.02200,-0.01100,-0.01250*
1,1,0.02200,-0.01100,0.01250*
1,1,0.02200,0.01100,0.01250*
%
%ADD47ROUNDEDRECTD47*%
%ADD48O,0.04400X0.04700*%
%ADD49R,0.06299X0.06299*%
%ADD50C,0.02362*%
%ADD51C,0.03937*%
%ADD52R,0.02362X0.02953*%
%ADD53R,0.03740X0.04134*%
%ADD54R,0.04134X0.03543*%
%ADD55R,0.01772X0.03347*%
%ADD56R,0.03937X0.10630*%
%ADD57R,0.12992X0.10630*%
G36*
X223425Y387705D02*
X220760D01*
Y385855D01*
X217429D01*
Y387705D01*
X212492D01*
Y382374D01*
X217429D01*
Y384224D01*
X220760D01*
Y382374D01*
X222413D01*
Y380709D01*
X222413Y380709D01*
X222475Y380397D01*
X222652Y380132D01*
X223425Y379358D01*
Y378002D01*
X222925Y377902D01*
X222794Y378219D01*
X222209Y378981D01*
X221447Y379566D01*
X220559Y379934D01*
X219606Y380059D01*
X218653Y379934D01*
X217766Y379566D01*
X217003Y378981D01*
X216418Y378219D01*
X216051Y377331D01*
X215925Y376378D01*
X216051Y375425D01*
X216418Y374537D01*
X217003Y373775D01*
X217766Y373190D01*
X218653Y372822D01*
X218791Y372804D01*
Y371760D01*
X217807D01*
Y366823D01*
X222728D01*
X222895Y366535D01*
X222728Y366248D01*
X217807D01*
Y365564D01*
X216535D01*
X216535Y365564D01*
X215853Y365428D01*
X215274Y365041D01*
X214887Y364462D01*
X214751Y363780D01*
X214887Y363097D01*
X215274Y362518D01*
X215853Y362131D01*
X216535Y361995D01*
X217807D01*
Y361311D01*
X222925D01*
X223138Y361311D01*
X223425Y360930D01*
Y360068D01*
X223199D01*
X222887Y360006D01*
X222622Y359829D01*
X222622Y359829D01*
X214513Y351720D01*
X214337Y351455D01*
X214275Y351143D01*
X214275Y351143D01*
Y350861D01*
X214012Y350599D01*
X210425D01*
Y347012D01*
X209959Y346545D01*
X209925Y346494D01*
X209915Y346484D01*
X209372Y346649D01*
X209257Y347227D01*
X208712Y348043D01*
X208616Y348107D01*
Y359047D01*
X209161D01*
Y363000D01*
X205799D01*
Y361403D01*
X205674Y361215D01*
X205557Y360630D01*
Y348787D01*
X205479Y348740D01*
X204979Y349023D01*
Y352589D01*
X204979Y352589D01*
X204917Y352901D01*
X204740Y353165D01*
X204740Y353166D01*
X201342Y356564D01*
X201077Y356741D01*
X200765Y356803D01*
X200765Y356803D01*
X194752D01*
X194752Y356803D01*
X194440Y356741D01*
X194175Y356564D01*
X194175Y356564D01*
X193729Y356118D01*
X188392D01*
X187530Y356981D01*
X187528Y356988D01*
X187351Y357253D01*
X187351Y357253D01*
X186072Y358532D01*
X185807Y358709D01*
X185495Y358771D01*
X185495Y358771D01*
X182759D01*
X182759Y358771D01*
X182447Y358709D01*
X182182Y358532D01*
X182182Y358532D01*
X180777Y357127D01*
X170988D01*
X170745Y357290D01*
X170089Y357420D01*
X169433Y357290D01*
X168877Y356918D01*
X168505Y356362D01*
X168375Y355706D01*
X168505Y355050D01*
X168877Y354494D01*
X169433Y354123D01*
X170089Y353992D01*
X170745Y354123D01*
X171301Y354494D01*
X171672Y355050D01*
X171761Y355496D01*
X180012D01*
Y353420D01*
X179512Y353174D01*
X178937Y353289D01*
X178281Y353158D01*
X177725Y352787D01*
X177353Y352231D01*
X177346Y352194D01*
X172605D01*
X172472Y352393D01*
X171916Y352765D01*
X171260Y352895D01*
X170604Y352765D01*
X170048Y352393D01*
X169676Y351837D01*
X169546Y351181D01*
X169676Y350525D01*
X170048Y349969D01*
X170217Y349856D01*
Y349356D01*
X170048Y349243D01*
X169676Y348688D01*
X169546Y348031D01*
X169676Y347376D01*
X170048Y346819D01*
X170604Y346448D01*
X171260Y346318D01*
X171727Y346410D01*
X173929Y344209D01*
X174020Y343755D01*
X174149Y343561D01*
X173882Y343061D01*
X166142D01*
X166142Y343061D01*
X165759Y342902D01*
X165759Y342902D01*
X157491Y334635D01*
X157333Y334252D01*
X157333Y334252D01*
Y333166D01*
X156833Y332898D01*
X156561Y333080D01*
X155905Y333210D01*
X155431Y333116D01*
X146929Y341618D01*
X147176Y342079D01*
X147638Y341987D01*
X148294Y342117D01*
X148850Y342489D01*
X148987Y342695D01*
X149485Y342744D01*
X150274Y341955D01*
X150142Y341758D01*
X150011Y341102D01*
X150142Y340446D01*
X150514Y339890D01*
X151069Y339519D01*
X151725Y339388D01*
X152381Y339519D01*
X152937Y339890D01*
X153309Y340446D01*
X153377Y340789D01*
X153926Y341023D01*
X154089Y340915D01*
X154745Y340785D01*
X155400Y340915D01*
X155956Y341286D01*
X156328Y341843D01*
X156458Y342498D01*
X156328Y343154D01*
X155956Y343710D01*
X155400Y344082D01*
X154920Y344178D01*
X154721Y344269D01*
X154550Y344684D01*
X154619Y345031D01*
X154489Y345688D01*
X154117Y346244D01*
X153561Y346615D01*
X153059Y346715D01*
Y355499D01*
X152997Y355811D01*
X152820Y356076D01*
X152820Y356076D01*
X153001Y356602D01*
X153411Y356684D01*
X153968Y357056D01*
X154339Y357612D01*
X154470Y358268D01*
X154339Y358924D01*
X153968Y359480D01*
X153411Y359851D01*
X152756Y359982D01*
X152378Y360292D01*
Y361514D01*
X152878Y361782D01*
X153367Y361454D01*
X154331Y361263D01*
X155294Y361454D01*
X156104Y361995D01*
X160742D01*
X161128Y361737D01*
X161811Y361602D01*
X161811Y361602D01*
X201575D01*
X202258Y361737D01*
X202836Y362124D01*
X203223Y362703D01*
X203359Y363386D01*
X203223Y364069D01*
X202836Y364648D01*
X202390Y364946D01*
Y367709D01*
X205421D01*
Y368156D01*
X209539D01*
Y367709D01*
X212901D01*
Y371661D01*
X211702D01*
X211702Y371662D01*
Y373386D01*
X212209Y373775D01*
X212794Y374537D01*
X213162Y375425D01*
X213287Y376378D01*
X213162Y377331D01*
X212794Y378219D01*
X212209Y378981D01*
X211447Y379566D01*
X210559Y379934D01*
X209606Y380059D01*
X208653Y379934D01*
X207766Y379566D01*
X207003Y378981D01*
X206418Y378219D01*
X206051Y377331D01*
X205925Y376378D01*
X206051Y375425D01*
X206418Y374537D01*
X207003Y373775D01*
X207766Y373190D01*
X208643Y372827D01*
Y371215D01*
X205421D01*
Y371661D01*
X203734D01*
X203543Y372123D01*
X204133Y372713D01*
X204133Y372713D01*
X204309Y372977D01*
X204372Y373290D01*
Y378014D01*
X204309Y378326D01*
X204133Y378591D01*
X204133Y378591D01*
X203965Y378758D01*
Y380209D01*
X205815D01*
Y385146D01*
X200484D01*
Y380209D01*
X202334D01*
Y378420D01*
X202334Y378420D01*
X202396Y378108D01*
X202573Y377843D01*
X202740Y377676D01*
Y373627D01*
X200998Y371885D01*
X200821Y371621D01*
X200759Y371309D01*
X200759Y371308D01*
Y365170D01*
X163595D01*
Y374500D01*
X164279D01*
Y379831D01*
X159343D01*
Y374500D01*
X160027D01*
Y365564D01*
X156104D01*
X155294Y366105D01*
X154716Y366220D01*
X154552Y366762D01*
X154801Y367012D01*
X154801Y367012D01*
X154978Y367276D01*
X155040Y367588D01*
X155040Y367589D01*
Y374500D01*
X158768D01*
Y379831D01*
X155040D01*
Y381498D01*
X155698Y382156D01*
X156370Y381877D01*
X157323Y381752D01*
X158275Y381877D01*
X159163Y382245D01*
X159926Y382830D01*
X160511Y383593D01*
X160878Y384480D01*
X161004Y385433D01*
X160878Y386386D01*
X160511Y387274D01*
X159926Y388036D01*
X159163Y388621D01*
X158275Y388989D01*
X157323Y389114D01*
X156370Y388989D01*
X155482Y388621D01*
X154720Y388036D01*
X154135Y387274D01*
X153767Y386386D01*
X153642Y385433D01*
X153767Y384480D01*
X154135Y383593D01*
X154436Y383201D01*
X153648Y382413D01*
X153471Y382148D01*
X153409Y381836D01*
X153409Y381836D01*
Y367926D01*
X152807Y367324D01*
X152345Y367516D01*
Y380754D01*
X152345Y380754D01*
X152283Y381066D01*
X152106Y381331D01*
X148296Y385141D01*
X148031Y385318D01*
X147719Y385380D01*
X147719Y385380D01*
X105537D01*
X104907Y386010D01*
X104643Y386187D01*
X104331Y386249D01*
X104331Y386249D01*
X55900D01*
X55900Y386249D01*
X55588Y386187D01*
X55323Y386010D01*
X55323Y386010D01*
X53203Y383889D01*
X49026D01*
Y378952D01*
X54356D01*
Y382736D01*
X56238Y384617D01*
X63257D01*
X63497Y384117D01*
X63318Y383889D01*
X59262D01*
Y378952D01*
X64593D01*
Y382736D01*
X65231Y383374D01*
X69498D01*
Y378952D01*
X74829D01*
Y383374D01*
X78947D01*
Y378952D01*
X84278D01*
Y383374D01*
X103681D01*
X104167Y382888D01*
X104167Y382888D01*
X104431Y382711D01*
X104744Y382649D01*
X146925D01*
X149613Y379961D01*
Y378530D01*
X149172Y378294D01*
X149081Y378355D01*
X148425Y378486D01*
X147769Y378355D01*
X147213Y377984D01*
X146842Y377428D01*
X146711Y376772D01*
X146842Y376116D01*
X147213Y375560D01*
X147447Y375404D01*
Y356300D01*
X147447Y356300D01*
X147509Y355988D01*
X147566Y355902D01*
X147399Y355359D01*
X147341Y355347D01*
X146785Y354976D01*
X146636Y354753D01*
X141676D01*
X131285Y365144D01*
X131020Y365321D01*
X130708Y365383D01*
X130708Y365383D01*
X105563D01*
X105562Y365383D01*
X105250Y365321D01*
X104986Y365144D01*
X104986Y365144D01*
X104437Y364595D01*
X101871D01*
X101606Y364992D01*
X101050Y365363D01*
X100394Y365494D01*
X99738Y365363D01*
X99182Y364992D01*
X98810Y364436D01*
X98750Y364134D01*
X98208Y363969D01*
X97821Y364356D01*
X97556Y364533D01*
X97244Y364595D01*
X97244Y364595D01*
X95178D01*
X94913Y364992D01*
X94357Y365363D01*
X93701Y365494D01*
X93045Y365363D01*
X92489Y364992D01*
X92117Y364436D01*
X91987Y363780D01*
X92117Y363124D01*
X92489Y362568D01*
X93045Y362196D01*
X93701Y362066D01*
X94357Y362196D01*
X94913Y362568D01*
X95178Y362964D01*
X96906D01*
X97894Y361976D01*
X97703Y361514D01*
X91214D01*
X89416Y363312D01*
X89509Y363780D01*
X89379Y364436D01*
X89007Y364992D01*
X88451Y365363D01*
X87795Y365494D01*
X87139Y365363D01*
X86583Y364992D01*
X86212Y364436D01*
X86081Y363780D01*
X86212Y363124D01*
X86583Y362568D01*
X87139Y362196D01*
X87795Y362066D01*
X88263Y362158D01*
X89545Y360876D01*
X89354Y360414D01*
X84047D01*
X81149Y363312D01*
X81242Y363780D01*
X81111Y364436D01*
X80739Y364992D01*
X80184Y365363D01*
X79527Y365494D01*
X78872Y365363D01*
X78316Y364992D01*
X77944Y364436D01*
X77814Y363780D01*
X77944Y363124D01*
X78316Y362568D01*
X78872Y362196D01*
X79527Y362066D01*
X79995Y362158D01*
X82377Y359776D01*
X82186Y359314D01*
X76485D01*
X72487Y363312D01*
X72580Y363780D01*
X72450Y364436D01*
X72078Y364992D01*
X71522Y365363D01*
X70866Y365494D01*
X70210Y365363D01*
X69654Y364992D01*
X69283Y364436D01*
X69152Y363780D01*
X69283Y363124D01*
X69654Y362568D01*
X70210Y362196D01*
X70866Y362066D01*
X71334Y362158D01*
X74816Y358676D01*
X74625Y358214D01*
X68924D01*
X63826Y363312D01*
X63919Y363780D01*
X63788Y364436D01*
X63417Y364992D01*
X62861Y365363D01*
X62205Y365494D01*
X61549Y365363D01*
X60993Y364992D01*
X60621Y364436D01*
X60491Y363780D01*
X60621Y363124D01*
X60993Y362568D01*
X61549Y362196D01*
X62205Y362066D01*
X62672Y362158D01*
X67255Y357576D01*
X67063Y357114D01*
X61362D01*
X55164Y363312D01*
X55257Y363780D01*
X55127Y364436D01*
X54755Y364992D01*
X54199Y365363D01*
X53543Y365494D01*
X52887Y365363D01*
X52331Y364992D01*
X51960Y364436D01*
X51829Y363780D01*
X51960Y363124D01*
X52331Y362568D01*
X52887Y362196D01*
X53543Y362066D01*
X54011Y362158D01*
X60448Y355722D01*
X60448Y355722D01*
X60712Y355545D01*
X61024Y355483D01*
X61024Y355483D01*
X106586D01*
X106869Y354983D01*
X106787Y354847D01*
X55567D01*
X46586Y363828D01*
X46465Y364436D01*
X46094Y364992D01*
X45538Y365363D01*
X45462Y365378D01*
X45316Y365857D01*
X46723Y367264D01*
X47165Y367206D01*
X47870Y367298D01*
X48527Y367570D01*
X49091Y368003D01*
X49363Y368358D01*
X49408Y368379D01*
X49923D01*
X49968Y368358D01*
X50240Y368003D01*
X50804Y367570D01*
X51460Y367298D01*
X52165Y367206D01*
X52870Y367298D01*
X53527Y367570D01*
X54091Y368003D01*
X54363Y368358D01*
X54408Y368379D01*
X54923D01*
X54968Y368358D01*
X55240Y368003D01*
X55804Y367570D01*
X56460Y367298D01*
X57165Y367206D01*
X57870Y367298D01*
X58527Y367570D01*
X59091Y368003D01*
X59363Y368358D01*
X59408Y368379D01*
X59923D01*
X59968Y368358D01*
X60240Y368003D01*
X60804Y367570D01*
X61461Y367298D01*
X62165Y367206D01*
X62870Y367298D01*
X63527Y367570D01*
X64091Y368003D01*
X64363Y368358D01*
X64407Y368379D01*
X64923D01*
X64968Y368358D01*
X65240Y368003D01*
X65804Y367570D01*
X66461Y367298D01*
X67165Y367206D01*
X67870Y367298D01*
X68527Y367570D01*
X69091Y368003D01*
X69363Y368358D01*
X69407Y368379D01*
X69923D01*
X69968Y368358D01*
X70240Y368003D01*
X70804Y367570D01*
X71460Y367298D01*
X72165Y367206D01*
X72870Y367298D01*
X73527Y367570D01*
X74091Y368003D01*
X74363Y368358D01*
X74408Y368379D01*
X74923D01*
X74968Y368358D01*
X75240Y368003D01*
X75804Y367570D01*
X76460Y367298D01*
X77165Y367206D01*
X77870Y367298D01*
X78527Y367570D01*
X79091Y368003D01*
X79363Y368358D01*
X79408Y368379D01*
X79923D01*
X79968Y368358D01*
X80240Y368003D01*
X80804Y367570D01*
X81460Y367298D01*
X82165Y367206D01*
X82870Y367298D01*
X83527Y367570D01*
X84091Y368003D01*
X84363Y368358D01*
X84408Y368379D01*
X84923D01*
X84968Y368358D01*
X85240Y368003D01*
X85804Y367570D01*
X86461Y367298D01*
X87165Y367206D01*
X87870Y367298D01*
X88527Y367570D01*
X89091Y368003D01*
X89363Y368358D01*
X89407Y368379D01*
X89923D01*
X89968Y368358D01*
X90240Y368003D01*
X90804Y367570D01*
X91461Y367298D01*
X92165Y367206D01*
X92870Y367298D01*
X93527Y367570D01*
X94091Y368003D01*
X94363Y368358D01*
X94407Y368379D01*
X94923D01*
X94968Y368358D01*
X95240Y368003D01*
X95804Y367570D01*
X96460Y367298D01*
X97165Y367206D01*
X97870Y367298D01*
X98527Y367570D01*
X99091Y368003D01*
X99363Y368358D01*
X99408Y368379D01*
X99923D01*
X99968Y368358D01*
X100240Y368003D01*
X100804Y367570D01*
X101461Y367298D01*
X102165Y367206D01*
X102870Y367298D01*
X103527Y367570D01*
X104091Y368003D01*
X104120Y368041D01*
X104706Y367983D01*
X104912Y367675D01*
X105441Y367322D01*
X106065Y367197D01*
X108265D01*
X108890Y367322D01*
X109419Y367675D01*
X109773Y368204D01*
X109897Y368829D01*
Y371329D01*
X109773Y371953D01*
X109419Y372482D01*
X108890Y372836D01*
X108265Y372960D01*
X106065D01*
X105441Y372836D01*
X104912Y372482D01*
X104706Y372174D01*
X104120Y372117D01*
X104091Y372154D01*
X103527Y372587D01*
X102870Y372859D01*
X102165Y372952D01*
X101461Y372859D01*
X100804Y372587D01*
X100240Y372154D01*
X99968Y371800D01*
X99923Y371779D01*
X99408D01*
X99363Y371800D01*
X99091Y372154D01*
X98527Y372587D01*
X97870Y372859D01*
X97165Y372952D01*
X96460Y372859D01*
X95804Y372587D01*
X95240Y372154D01*
X94968Y371800D01*
X94923Y371779D01*
X94407D01*
X94363Y371800D01*
X94091Y372154D01*
X93527Y372587D01*
X92870Y372859D01*
X92165Y372952D01*
X91461Y372859D01*
X90804Y372587D01*
X90240Y372154D01*
X89968Y371800D01*
X89923Y371779D01*
X89407D01*
X89363Y371800D01*
X89091Y372154D01*
X88527Y372587D01*
X87870Y372859D01*
X87165Y372952D01*
X86461Y372859D01*
X85804Y372587D01*
X85240Y372154D01*
X84968Y371800D01*
X84923Y371779D01*
X84408D01*
X84363Y371800D01*
X84091Y372154D01*
X83527Y372587D01*
X83402Y372639D01*
Y373441D01*
X84278D01*
Y378378D01*
X78947D01*
Y373441D01*
X80375D01*
Y372259D01*
X80240Y372154D01*
X79968Y371800D01*
X79923Y371779D01*
X79408D01*
X79363Y371800D01*
X79091Y372154D01*
X78527Y372587D01*
X77870Y372859D01*
X77165Y372952D01*
X76460Y372859D01*
X75804Y372587D01*
X75240Y372154D01*
X74968Y371800D01*
X74923Y371779D01*
X74408D01*
X74363Y371800D01*
X74091Y372154D01*
X73678Y372471D01*
Y373441D01*
X74829D01*
Y378378D01*
X69498D01*
Y373441D01*
X70651D01*
Y372470D01*
X70240Y372154D01*
X69968Y371800D01*
X69923Y371779D01*
X69407D01*
X69363Y371800D01*
X69091Y372154D01*
X68527Y372587D01*
X67870Y372859D01*
X67165Y372952D01*
X66461Y372859D01*
X65804Y372587D01*
X65240Y372154D01*
X64968Y371800D01*
X64923Y371779D01*
X64407D01*
X64363Y371800D01*
X64091Y372154D01*
X63560Y372562D01*
Y373441D01*
X64593D01*
Y378378D01*
X59262D01*
Y373441D01*
X60533D01*
Y372379D01*
X60240Y372154D01*
X59968Y371800D01*
X59923Y371779D01*
X59408D01*
X59363Y371800D01*
X59091Y372154D01*
X58527Y372587D01*
X57870Y372859D01*
X57165Y372952D01*
X56460Y372859D01*
X55804Y372587D01*
X55240Y372154D01*
X54968Y371800D01*
X54923Y371779D01*
X54408D01*
X54363Y371800D01*
X54091Y372154D01*
X53527Y372587D01*
X53442Y372623D01*
Y373441D01*
X54356D01*
Y378378D01*
X49026D01*
Y373441D01*
X50415D01*
Y372289D01*
X50240Y372154D01*
X49968Y371800D01*
X49923Y371779D01*
X49408D01*
X49363Y371800D01*
X49091Y372154D01*
X48527Y372587D01*
X47870Y372859D01*
X47165Y372952D01*
X46461Y372859D01*
X45804Y372587D01*
X45240Y372154D01*
X44968Y371800D01*
X44923Y371779D01*
X44407D01*
X44363Y371800D01*
X44091Y372154D01*
X43527Y372587D01*
X42870Y372859D01*
X42165Y372952D01*
X41460Y372859D01*
X40804Y372587D01*
X40240Y372154D01*
X39968Y371800D01*
X39923Y371779D01*
X39408D01*
X39363Y371800D01*
X39091Y372154D01*
X38527Y372587D01*
X37870Y372859D01*
X37165Y372952D01*
X36461Y372859D01*
X35804Y372587D01*
X35240Y372154D01*
X34968Y371800D01*
X34923Y371779D01*
X34407D01*
X34363Y371800D01*
X34091Y372154D01*
X33527Y372587D01*
X32870Y372859D01*
X32165Y372952D01*
X31460Y372859D01*
X30804Y372587D01*
X30240Y372154D01*
X29807Y371590D01*
X29535Y370934D01*
X29442Y370229D01*
Y369929D01*
X29535Y369224D01*
X29807Y368567D01*
X30240Y368003D01*
X30593Y367732D01*
Y352437D01*
X30122Y352076D01*
X29689Y351512D01*
X29417Y350855D01*
X29324Y350150D01*
Y349850D01*
X29417Y349145D01*
X29689Y348488D01*
X30122Y347924D01*
X30686Y347492D01*
X31342Y347219D01*
X32047Y347127D01*
X32752Y347219D01*
X33409Y347492D01*
X33973Y347924D01*
X34245Y348279D01*
X34289Y348300D01*
X34805D01*
X34850Y348279D01*
X35122Y347924D01*
X35686Y347492D01*
X36342Y347219D01*
X37047Y347127D01*
X37752Y347219D01*
X38409Y347492D01*
X38973Y347924D01*
X39245Y348279D01*
X39289Y348300D01*
X39805D01*
X39849Y348279D01*
X40122Y347924D01*
X40686Y347492D01*
X41342Y347219D01*
X42047Y347127D01*
X42752Y347219D01*
X43409Y347492D01*
X43973Y347924D01*
X44245Y348279D01*
X44289Y348300D01*
X44805D01*
X44850Y348279D01*
X45122Y347924D01*
X45686Y347492D01*
X46342Y347219D01*
X47047Y347127D01*
X47752Y347219D01*
X48409Y347492D01*
X48973Y347924D01*
X49245Y348279D01*
X49289Y348300D01*
X49805D01*
X49850Y348279D01*
X50122Y347924D01*
X50686Y347492D01*
X51342Y347219D01*
X52047Y347127D01*
X52752Y347219D01*
X53409Y347492D01*
X53973Y347924D01*
X54245Y348279D01*
X54289Y348300D01*
X54805D01*
X54849Y348279D01*
X55122Y347924D01*
X55686Y347492D01*
X56342Y347219D01*
X57047Y347127D01*
X57752Y347219D01*
X58409Y347492D01*
X58973Y347924D01*
X59245Y348279D01*
X59289Y348300D01*
X59805D01*
X59850Y348279D01*
X60122Y347924D01*
X60686Y347492D01*
X61342Y347219D01*
X62047Y347127D01*
X62752Y347219D01*
X63409Y347492D01*
X63973Y347924D01*
X64245Y348279D01*
X64289Y348300D01*
X64805D01*
X64850Y348279D01*
X65122Y347924D01*
X65686Y347492D01*
X66342Y347219D01*
X67047Y347127D01*
X67752Y347219D01*
X68409Y347492D01*
X68973Y347924D01*
X69245Y348279D01*
X69289Y348300D01*
X69805D01*
X69849Y348279D01*
X70122Y347924D01*
X70686Y347492D01*
X71342Y347219D01*
X72047Y347127D01*
X72752Y347219D01*
X73409Y347492D01*
X73973Y347924D01*
X74245Y348279D01*
X74289Y348300D01*
X74805D01*
X74849Y348279D01*
X75122Y347924D01*
X75686Y347492D01*
X76342Y347219D01*
X77047Y347127D01*
X77752Y347219D01*
X78409Y347492D01*
X78973Y347924D01*
X79245Y348279D01*
X79289Y348300D01*
X79805D01*
X79849Y348279D01*
X80122Y347924D01*
X80686Y347492D01*
X81342Y347219D01*
X82047Y347127D01*
X82752Y347219D01*
X83409Y347492D01*
X83973Y347924D01*
X84245Y348279D01*
X84289Y348300D01*
X84805D01*
X84850Y348279D01*
X85122Y347924D01*
X85686Y347492D01*
X86342Y347219D01*
X87047Y347127D01*
X87752Y347219D01*
X88409Y347492D01*
X88973Y347924D01*
X89245Y348279D01*
X89289Y348300D01*
X89805D01*
X89850Y348279D01*
X90122Y347924D01*
X90686Y347492D01*
X91342Y347219D01*
X92047Y347127D01*
X92752Y347219D01*
X93409Y347492D01*
X93973Y347924D01*
X94245Y348279D01*
X94289Y348300D01*
X94805D01*
X94849Y348279D01*
X95122Y347924D01*
X95686Y347492D01*
X96342Y347219D01*
X97047Y347127D01*
X97752Y347219D01*
X98409Y347492D01*
X98973Y347924D01*
X99245Y348279D01*
X99289Y348300D01*
X99805D01*
X99849Y348279D01*
X100122Y347924D01*
X100686Y347492D01*
X101342Y347219D01*
X102047Y347127D01*
X102752Y347219D01*
X103409Y347492D01*
X103973Y347924D01*
X104002Y347962D01*
X104588Y347904D01*
X104794Y347597D01*
X105323Y347243D01*
X105947Y347119D01*
X108147D01*
X108772Y347243D01*
X109301Y347597D01*
X109654Y348126D01*
X109779Y348750D01*
Y351250D01*
X109654Y351874D01*
X109548Y352034D01*
X109323Y352419D01*
X109675Y352675D01*
X109870Y352805D01*
X110242Y353361D01*
X110372Y354017D01*
X110242Y354673D01*
X110083Y354911D01*
X110313Y355466D01*
X110498Y355503D01*
X111054Y355874D01*
X111426Y356431D01*
X111556Y357086D01*
X111426Y357743D01*
X111380Y357811D01*
X111616Y358252D01*
X127988D01*
X154283Y331957D01*
X154191Y331496D01*
X154322Y330840D01*
X154693Y330284D01*
X155250Y329912D01*
X155905Y329782D01*
X156561Y329912D01*
X156833Y330094D01*
X157138Y329989D01*
X157333Y329827D01*
Y312598D01*
X157491Y312216D01*
X157874Y312057D01*
X174919D01*
X175019Y312099D01*
X175126D01*
X175202Y312175D01*
X175302Y312216D01*
X175343Y312315D01*
X175419Y312391D01*
X175626Y312891D01*
Y312999D01*
X175667Y313099D01*
X175626Y313198D01*
Y313306D01*
X175550Y313382D01*
X175509Y313481D01*
X169362Y319628D01*
X169327Y319642D01*
X169309Y319675D01*
X169140Y319720D01*
X168979Y319787D01*
X168945Y319772D01*
X168909Y319782D01*
X168307Y319703D01*
X167598Y319796D01*
X166938Y320070D01*
X166371Y320505D01*
X165936Y321072D01*
X165662Y321732D01*
X165569Y322441D01*
X165662Y323150D01*
X165936Y323810D01*
X166371Y324377D01*
X166938Y324812D01*
X167598Y325086D01*
X168307Y325179D01*
X169016Y325086D01*
X169676Y324812D01*
X170243Y324377D01*
X170678Y323810D01*
X170952Y323150D01*
X171045Y322441D01*
X170966Y321839D01*
X170976Y321803D01*
X170961Y321769D01*
X171028Y321608D01*
X171073Y321439D01*
X171106Y321421D01*
X171120Y321386D01*
X177908Y314598D01*
X178206Y314153D01*
X178310Y313628D01*
Y312598D01*
X178469Y312216D01*
X178851Y312057D01*
X180376D01*
Y310319D01*
X180405Y310171D01*
Y306882D01*
X185146D01*
Y307920D01*
X186220D01*
X186311Y307845D01*
Y306421D01*
X186236Y305921D01*
X22588Y305921D01*
Y309449D01*
Y315776D01*
X22679Y316929D01*
X22545Y318629D01*
X22147Y320288D01*
X21495Y321863D01*
X20604Y323317D01*
X19496Y324614D01*
X18199Y325722D01*
X16745Y326613D01*
X15169Y327265D01*
X13511Y327663D01*
X11811Y327797D01*
X10658Y327707D01*
X803D01*
X803Y369144D01*
X10658D01*
X11811Y369053D01*
X13511Y369187D01*
X15169Y369585D01*
X16745Y370238D01*
X18199Y371129D01*
X19496Y372236D01*
X20604Y373533D01*
X21495Y374987D01*
X22147Y376563D01*
X22545Y378221D01*
X22679Y379921D01*
X22588Y381074D01*
Y387795D01*
X22588Y387795D01*
Y390930D01*
X200097Y390930D01*
X200484Y390429D01*
Y388611D01*
X199115D01*
X198850Y389007D01*
X198294Y389379D01*
X197638Y389509D01*
X196982Y389379D01*
X196906Y389328D01*
X196465Y389564D01*
Y389673D01*
X192512D01*
Y386311D01*
X196465D01*
Y386311D01*
X196669Y386420D01*
X196982Y386212D01*
X197638Y386081D01*
X198294Y386212D01*
X198850Y386583D01*
X199115Y386980D01*
X200484D01*
Y385720D01*
X205815D01*
Y390429D01*
X205815Y390657D01*
X206202Y390930D01*
X223425Y390930D01*
Y387705D01*
D02*
G37*
G36*
X54653Y353454D02*
X54653Y353454D01*
X54917Y353278D01*
X55230Y353216D01*
X56086D01*
X56185Y352715D01*
X55686Y352508D01*
X55122Y352076D01*
X54849Y351721D01*
X54805Y351700D01*
X54289D01*
X54245Y351721D01*
X53973Y352076D01*
X53409Y352508D01*
X52752Y352781D01*
X52047Y352873D01*
X51342Y352781D01*
X50686Y352508D01*
X50122Y352076D01*
X49850Y351721D01*
X49805Y351700D01*
X49289D01*
X49245Y351721D01*
X48973Y352076D01*
X48409Y352508D01*
X48067Y352650D01*
Y356029D01*
X47989Y356419D01*
X47768Y356750D01*
X43720Y360797D01*
Y362003D01*
X44161Y362239D01*
X44226Y362196D01*
X44882Y362066D01*
X45538Y362196D01*
X45762Y362346D01*
X54653Y353454D01*
D02*
G37*
G36*
X203348Y352164D02*
Y345117D01*
X203348Y345117D01*
X203410Y344805D01*
X203543Y344605D01*
Y344488D01*
X205512Y342520D01*
X212205D01*
X217323Y347638D01*
Y352222D01*
X217857Y352756D01*
X222441D01*
X222806Y352391D01*
Y336221D01*
X218898D01*
X216142Y333465D01*
Y327165D01*
X211417D01*
Y321260D01*
X209449Y319291D01*
X203937D01*
Y310236D01*
X200394Y306693D01*
X193701D01*
X192520Y307874D01*
Y312598D01*
X191248D01*
Y318020D01*
X186311D01*
Y312855D01*
X186257Y312774D01*
X186222Y312598D01*
X183435D01*
Y319475D01*
X183729Y319597D01*
X184409Y320119D01*
X184931Y320799D01*
X185259Y321591D01*
X185371Y322441D01*
X185259Y323291D01*
X184931Y324083D01*
X184409Y324763D01*
X183729Y325285D01*
X182937Y325613D01*
X182087Y325725D01*
X181237Y325613D01*
X180445Y325285D01*
X179764Y324763D01*
X179243Y324083D01*
X178914Y323291D01*
X178803Y322441D01*
X178914Y321591D01*
X179243Y320799D01*
X179764Y320119D01*
X180376Y319650D01*
Y312598D01*
X178851D01*
Y313681D01*
X178715Y314364D01*
X178329Y314943D01*
X178329Y314943D01*
X171502Y321769D01*
X171591Y322441D01*
X171479Y323291D01*
X171151Y324083D01*
X170629Y324763D01*
X169949Y325285D01*
X169157Y325613D01*
X168307Y325725D01*
X167457Y325613D01*
X166665Y325285D01*
X165985Y324763D01*
X165463Y324083D01*
X165135Y323291D01*
X165023Y322441D01*
X165135Y321591D01*
X165463Y320799D01*
X165985Y320119D01*
X166665Y319597D01*
X167457Y319269D01*
X168307Y319157D01*
X168979Y319246D01*
X175126Y313099D01*
X174919Y312598D01*
X157874D01*
Y329921D01*
Y334252D01*
X166142Y342520D01*
X175591D01*
X175808Y342738D01*
X176259Y342827D01*
X176815Y343199D01*
X177187Y343755D01*
X177276Y344205D01*
X187669Y354598D01*
X187742Y354549D01*
X188054Y354487D01*
X194067D01*
X194067Y354487D01*
X194379Y354549D01*
X194644Y354726D01*
X195090Y355171D01*
X200340D01*
X203348Y352164D01*
D02*
G37*
G36*
X34968Y368358D02*
X35240Y368003D01*
X35593Y367732D01*
Y352437D01*
X35122Y352076D01*
X34850Y351721D01*
X34805Y351700D01*
X34289D01*
X34245Y351721D01*
X33973Y352076D01*
X33620Y352347D01*
Y367641D01*
X34091Y368003D01*
X34363Y368358D01*
X34407Y368379D01*
X34923D01*
X34968Y368358D01*
D02*
G37*
G36*
X183706Y351400D02*
X177610Y345305D01*
X176978Y345379D01*
X176815Y345623D01*
X176259Y345994D01*
X175603Y346125D01*
X174947Y345994D01*
X174650Y345795D01*
X172881Y347564D01*
X172974Y348031D01*
X172843Y348688D01*
X172472Y349243D01*
X172303Y349356D01*
Y349856D01*
X172472Y349969D01*
X172843Y350525D01*
X172851Y350562D01*
X177592D01*
X177725Y350363D01*
X178281Y349991D01*
X178937Y349861D01*
X179593Y349991D01*
X180149Y350363D01*
X180520Y350919D01*
X180651Y351575D01*
X180887Y351862D01*
X183514D01*
X183706Y351400D01*
D02*
G37*
G36*
X216958Y326563D02*
X217020Y326478D01*
Y326035D01*
X223138D01*
X223425Y325655D01*
Y312103D01*
X223304Y312011D01*
X222861Y311433D01*
X222583Y310761D01*
X222488Y310039D01*
X222583Y309318D01*
X222861Y308646D01*
X223304Y308068D01*
X223425Y307976D01*
Y305921D01*
X209433D01*
X209358Y306390D01*
X209358D01*
Y309633D01*
X210524D01*
Y309047D01*
X214673D01*
Y309076D01*
X215307Y309076D01*
X215552Y309178D01*
X215690Y309235D01*
X215690Y309235D01*
X215690Y309235D01*
X215848Y309617D01*
X215848Y309618D01*
X215848Y309618D01*
X215690Y310000D01*
X215690Y310000D01*
X214699Y310992D01*
X214699Y311853D01*
X215680Y312835D01*
X215680Y312835D01*
X215680Y312835D01*
X215839Y313217D01*
X215839Y313217D01*
X215839Y313217D01*
X215809Y313289D01*
X215680Y313600D01*
X215680Y313600D01*
X215680Y313600D01*
X215298Y313759D01*
X215298Y313759D01*
X215298Y313759D01*
X214702Y313759D01*
X214673Y313787D01*
Y313787D01*
X210524D01*
Y313202D01*
X209358D01*
Y318020D01*
X204478D01*
Y318750D01*
X209449D01*
X209449Y318750D01*
X209832Y318909D01*
X211800Y320877D01*
X211959Y321260D01*
X211959Y321260D01*
Y326624D01*
X216142D01*
X216524Y326783D01*
X216958Y326563D01*
D02*
G37*
G36*
X214157Y312077D02*
X214157Y310768D01*
X215307Y309617D01*
X214057Y309617D01*
Y313117D01*
X214158Y313217D01*
X215298Y313217D01*
X214157Y312077D01*
D02*
G37*
G36*
X223425Y291248D02*
X220760D01*
Y289398D01*
X217429D01*
Y291248D01*
X212492D01*
Y285917D01*
X217429D01*
Y287767D01*
X220760D01*
Y285917D01*
X222413D01*
Y284252D01*
X222413Y284252D01*
X222475Y283940D01*
X222652Y283675D01*
X223425Y282902D01*
Y281545D01*
X222925Y281446D01*
X222794Y281762D01*
X222209Y282524D01*
X221447Y283109D01*
X220559Y283477D01*
X219606Y283602D01*
X218653Y283477D01*
X217766Y283109D01*
X217003Y282524D01*
X216418Y281762D01*
X216051Y280874D01*
X215925Y279921D01*
X216051Y278969D01*
X216418Y278081D01*
X217003Y277318D01*
X217766Y276733D01*
X218653Y276366D01*
X218791Y276348D01*
Y275303D01*
X217807D01*
Y270366D01*
X222728D01*
X222895Y270079D01*
X222728Y269791D01*
X217807D01*
Y269107D01*
X216535D01*
X216535Y269107D01*
X215853Y268971D01*
X215274Y268584D01*
X214887Y268006D01*
X214751Y267323D01*
X214887Y266640D01*
X215274Y266061D01*
X215853Y265674D01*
X216535Y265539D01*
X217807D01*
Y264854D01*
X222925D01*
X223138Y264854D01*
X223425Y264473D01*
Y263611D01*
X223199D01*
X222887Y263549D01*
X222622Y263372D01*
X222622Y263372D01*
X214513Y255263D01*
X214337Y254998D01*
X214275Y254686D01*
X214275Y254686D01*
Y254404D01*
X214012Y254142D01*
X210425D01*
Y250555D01*
X209959Y250089D01*
X209925Y250038D01*
X209915Y250028D01*
X209372Y250192D01*
X209257Y250770D01*
X208712Y251586D01*
X208616Y251650D01*
Y262591D01*
X209161D01*
Y266543D01*
X205799D01*
Y264947D01*
X205674Y264758D01*
X205557Y264173D01*
Y252330D01*
X205479Y252283D01*
X204979Y252566D01*
Y256132D01*
X204979Y256132D01*
X204917Y256444D01*
X204740Y256709D01*
X204740Y256709D01*
X201342Y260107D01*
X201077Y260284D01*
X200765Y260346D01*
X200765Y260346D01*
X194752D01*
X194752Y260346D01*
X194440Y260284D01*
X194175Y260107D01*
X194175Y260107D01*
X193729Y259661D01*
X188392D01*
X187530Y260524D01*
X187528Y260531D01*
X187351Y260796D01*
X187351Y260796D01*
X186072Y262076D01*
X185807Y262252D01*
X185495Y262315D01*
X185495Y262315D01*
X182759D01*
X182759Y262315D01*
X182447Y262252D01*
X182182Y262076D01*
X182182Y262076D01*
X180777Y260671D01*
X170988D01*
X170745Y260833D01*
X170089Y260964D01*
X169433Y260833D01*
X168877Y260462D01*
X168505Y259906D01*
X168375Y259250D01*
X168505Y258594D01*
X168877Y258038D01*
X169433Y257666D01*
X170089Y257536D01*
X170745Y257666D01*
X171301Y258038D01*
X171672Y258594D01*
X171761Y259039D01*
X180012D01*
Y256964D01*
X179512Y256718D01*
X178937Y256832D01*
X178281Y256702D01*
X177725Y256330D01*
X177353Y255774D01*
X177346Y255737D01*
X172605D01*
X172472Y255936D01*
X171916Y256308D01*
X171260Y256438D01*
X170604Y256308D01*
X170048Y255936D01*
X169676Y255380D01*
X169546Y254724D01*
X169676Y254068D01*
X170048Y253512D01*
X170217Y253400D01*
Y252900D01*
X170048Y252787D01*
X169676Y252231D01*
X169546Y251575D01*
X169676Y250919D01*
X170048Y250363D01*
X170604Y249991D01*
X171260Y249861D01*
X171727Y249954D01*
X173929Y247752D01*
X174020Y247298D01*
X174149Y247104D01*
X173882Y246604D01*
X166142D01*
X166142Y246604D01*
X165759Y246446D01*
X165759Y246446D01*
X157491Y238178D01*
X157333Y237795D01*
X157333Y237795D01*
Y236709D01*
X156833Y236442D01*
X156561Y236623D01*
X155905Y236753D01*
X155431Y236659D01*
X146929Y245161D01*
X147176Y245622D01*
X147638Y245530D01*
X148294Y245661D01*
X148850Y246032D01*
X148987Y246238D01*
X149485Y246287D01*
X150274Y245499D01*
X150142Y245301D01*
X150011Y244645D01*
X150142Y243989D01*
X150514Y243433D01*
X151069Y243062D01*
X151725Y242931D01*
X152381Y243062D01*
X152937Y243433D01*
X153309Y243989D01*
X153377Y244332D01*
X153926Y244567D01*
X154089Y244458D01*
X154745Y244328D01*
X155400Y244458D01*
X155956Y244830D01*
X156328Y245386D01*
X156458Y246042D01*
X156328Y246698D01*
X155956Y247254D01*
X155400Y247625D01*
X154920Y247721D01*
X154721Y247812D01*
X154550Y248227D01*
X154619Y248575D01*
X154489Y249231D01*
X154117Y249787D01*
X153561Y250158D01*
X153059Y250258D01*
Y259043D01*
X152997Y259355D01*
X152820Y259619D01*
X152820Y259619D01*
X153001Y260146D01*
X153411Y260227D01*
X153968Y260599D01*
X154339Y261155D01*
X154470Y261811D01*
X154339Y262467D01*
X153968Y263023D01*
X153411Y263394D01*
X152756Y263525D01*
X152378Y263835D01*
Y265057D01*
X152878Y265325D01*
X153367Y264998D01*
X154331Y264806D01*
X155294Y264998D01*
X156104Y265539D01*
X160742D01*
X161128Y265281D01*
X161811Y265145D01*
X161811Y265145D01*
X201575D01*
X202258Y265281D01*
X202836Y265668D01*
X203223Y266246D01*
X203359Y266929D01*
X203223Y267612D01*
X202836Y268191D01*
X202390Y268489D01*
Y271252D01*
X205421D01*
Y271699D01*
X209539D01*
Y271252D01*
X212901D01*
Y275205D01*
X211702D01*
X211702Y275205D01*
Y276929D01*
X212209Y277318D01*
X212794Y278081D01*
X213162Y278969D01*
X213287Y279921D01*
X213162Y280874D01*
X212794Y281762D01*
X212209Y282524D01*
X211447Y283109D01*
X210559Y283477D01*
X209606Y283602D01*
X208653Y283477D01*
X207766Y283109D01*
X207003Y282524D01*
X206418Y281762D01*
X206051Y280874D01*
X205925Y279921D01*
X206051Y278969D01*
X206418Y278081D01*
X207003Y277318D01*
X207766Y276733D01*
X208643Y276370D01*
Y274758D01*
X205421D01*
Y275205D01*
X203734D01*
X203543Y275667D01*
X204133Y276256D01*
X204133Y276256D01*
X204309Y276521D01*
X204372Y276833D01*
Y281557D01*
X204309Y281869D01*
X204133Y282134D01*
X204133Y282134D01*
X203965Y282301D01*
Y283752D01*
X205815D01*
Y288689D01*
X200484D01*
Y283752D01*
X202334D01*
Y281964D01*
X202334Y281964D01*
X202396Y281651D01*
X202573Y281387D01*
X202740Y281219D01*
Y277171D01*
X200998Y275429D01*
X200821Y275164D01*
X200759Y274852D01*
X200759Y274852D01*
Y268713D01*
X163595D01*
Y278043D01*
X164279D01*
Y283374D01*
X159343D01*
Y278043D01*
X160027D01*
Y269107D01*
X156104D01*
X155294Y269648D01*
X154716Y269763D01*
X154552Y270306D01*
X154801Y270555D01*
X154801Y270555D01*
X154978Y270820D01*
X155040Y271132D01*
X155040Y271132D01*
Y278043D01*
X158768D01*
Y283374D01*
X155040D01*
Y285041D01*
X155698Y285699D01*
X156370Y285421D01*
X157323Y285295D01*
X158275Y285421D01*
X159163Y285788D01*
X159926Y286373D01*
X160511Y287136D01*
X160878Y288024D01*
X161004Y288976D01*
X160878Y289929D01*
X160511Y290817D01*
X159926Y291579D01*
X159163Y292164D01*
X158275Y292532D01*
X157323Y292657D01*
X156370Y292532D01*
X155482Y292164D01*
X154720Y291579D01*
X154135Y290817D01*
X153767Y289929D01*
X153642Y288976D01*
X153767Y288024D01*
X154135Y287136D01*
X154436Y286744D01*
X153648Y285956D01*
X153471Y285691D01*
X153409Y285379D01*
X153409Y285379D01*
Y271470D01*
X152807Y270868D01*
X152345Y271059D01*
Y284298D01*
X152345Y284298D01*
X152283Y284610D01*
X152106Y284874D01*
X148296Y288685D01*
X148031Y288861D01*
X147719Y288924D01*
X147719Y288924D01*
X105537D01*
X104907Y289553D01*
X104643Y289730D01*
X104331Y289792D01*
X104331Y289792D01*
X55900D01*
X55900Y289792D01*
X55588Y289730D01*
X55323Y289553D01*
X55323Y289553D01*
X53203Y287433D01*
X49026D01*
Y282496D01*
X54356D01*
Y286279D01*
X56238Y288161D01*
X63257D01*
X63497Y287661D01*
X63318Y287433D01*
X59262D01*
Y282496D01*
X64593D01*
Y286279D01*
X65231Y286917D01*
X69498D01*
Y282496D01*
X74829D01*
Y286917D01*
X78947D01*
Y282496D01*
X84278D01*
Y286917D01*
X103681D01*
X104167Y286431D01*
X104167Y286431D01*
X104431Y286254D01*
X104744Y286192D01*
X146925D01*
X149613Y283504D01*
Y282073D01*
X149172Y281838D01*
X149081Y281898D01*
X148425Y282029D01*
X147769Y281898D01*
X147213Y281527D01*
X146842Y280971D01*
X146711Y280315D01*
X146842Y279659D01*
X147213Y279103D01*
X147447Y278947D01*
Y259844D01*
X147447Y259844D01*
X147509Y259531D01*
X147566Y259445D01*
X147399Y258902D01*
X147341Y258891D01*
X146785Y258519D01*
X146636Y258296D01*
X141676D01*
X131285Y268688D01*
X131020Y268864D01*
X130708Y268927D01*
X130708Y268927D01*
X105563D01*
X105562Y268927D01*
X105250Y268864D01*
X104986Y268688D01*
X104986Y268688D01*
X104437Y268139D01*
X101871D01*
X101606Y268535D01*
X101050Y268906D01*
X100394Y269037D01*
X99738Y268906D01*
X99182Y268535D01*
X98810Y267979D01*
X98750Y267677D01*
X98208Y267513D01*
X97821Y267900D01*
X97556Y268076D01*
X97244Y268139D01*
X97244Y268139D01*
X95178D01*
X94913Y268535D01*
X94357Y268906D01*
X93701Y269037D01*
X93045Y268906D01*
X92489Y268535D01*
X92117Y267979D01*
X91987Y267323D01*
X92117Y266667D01*
X92489Y266111D01*
X93045Y265739D01*
X93701Y265609D01*
X94357Y265739D01*
X94913Y266111D01*
X95178Y266507D01*
X96906D01*
X97894Y265519D01*
X97703Y265057D01*
X91214D01*
X89416Y266855D01*
X89509Y267323D01*
X89379Y267979D01*
X89007Y268535D01*
X88451Y268906D01*
X87795Y269037D01*
X87139Y268906D01*
X86583Y268535D01*
X86212Y267979D01*
X86081Y267323D01*
X86212Y266667D01*
X86583Y266111D01*
X87139Y265739D01*
X87795Y265609D01*
X88263Y265702D01*
X89545Y264419D01*
X89354Y263957D01*
X84047D01*
X81149Y266855D01*
X81242Y267323D01*
X81111Y267979D01*
X80739Y268535D01*
X80184Y268906D01*
X79527Y269037D01*
X78872Y268906D01*
X78316Y268535D01*
X77944Y267979D01*
X77814Y267323D01*
X77944Y266667D01*
X78316Y266111D01*
X78872Y265739D01*
X79527Y265609D01*
X79995Y265702D01*
X82377Y263319D01*
X82186Y262857D01*
X76485D01*
X72487Y266855D01*
X72580Y267323D01*
X72450Y267979D01*
X72078Y268535D01*
X71522Y268906D01*
X70866Y269037D01*
X70210Y268906D01*
X69654Y268535D01*
X69283Y267979D01*
X69152Y267323D01*
X69283Y266667D01*
X69654Y266111D01*
X70210Y265739D01*
X70866Y265609D01*
X71334Y265702D01*
X74816Y262219D01*
X74625Y261757D01*
X68924D01*
X63826Y266855D01*
X63919Y267323D01*
X63788Y267979D01*
X63417Y268535D01*
X62861Y268906D01*
X62205Y269037D01*
X61549Y268906D01*
X60993Y268535D01*
X60621Y267979D01*
X60491Y267323D01*
X60621Y266667D01*
X60993Y266111D01*
X61549Y265739D01*
X62205Y265609D01*
X62672Y265702D01*
X67255Y261119D01*
X67063Y260657D01*
X61362D01*
X55164Y266855D01*
X55257Y267323D01*
X55127Y267979D01*
X54755Y268535D01*
X54199Y268906D01*
X53543Y269037D01*
X52887Y268906D01*
X52331Y268535D01*
X51960Y267979D01*
X51829Y267323D01*
X51960Y266667D01*
X52331Y266111D01*
X52887Y265739D01*
X53543Y265609D01*
X54011Y265702D01*
X60448Y259265D01*
X60448Y259265D01*
X60712Y259088D01*
X61024Y259026D01*
X61024Y259026D01*
X106586D01*
X106869Y258526D01*
X106787Y258390D01*
X55567D01*
X46586Y267371D01*
X46465Y267979D01*
X46094Y268535D01*
X45538Y268906D01*
X45462Y268922D01*
X45316Y269400D01*
X46723Y270807D01*
X47165Y270749D01*
X47870Y270842D01*
X48527Y271114D01*
X49091Y271546D01*
X49363Y271901D01*
X49408Y271922D01*
X49923D01*
X49968Y271901D01*
X50240Y271546D01*
X50804Y271114D01*
X51460Y270842D01*
X52165Y270749D01*
X52870Y270842D01*
X53527Y271114D01*
X54091Y271546D01*
X54363Y271901D01*
X54408Y271922D01*
X54923D01*
X54968Y271901D01*
X55240Y271546D01*
X55804Y271114D01*
X56460Y270842D01*
X57165Y270749D01*
X57870Y270842D01*
X58527Y271114D01*
X59091Y271546D01*
X59363Y271901D01*
X59408Y271922D01*
X59923D01*
X59968Y271901D01*
X60240Y271546D01*
X60804Y271114D01*
X61461Y270842D01*
X62165Y270749D01*
X62870Y270842D01*
X63527Y271114D01*
X64091Y271546D01*
X64363Y271901D01*
X64407Y271922D01*
X64923D01*
X64968Y271901D01*
X65240Y271546D01*
X65804Y271114D01*
X66461Y270842D01*
X67165Y270749D01*
X67870Y270842D01*
X68527Y271114D01*
X69091Y271546D01*
X69363Y271901D01*
X69407Y271922D01*
X69923D01*
X69968Y271901D01*
X70240Y271546D01*
X70804Y271114D01*
X71460Y270842D01*
X72165Y270749D01*
X72870Y270842D01*
X73527Y271114D01*
X74091Y271546D01*
X74363Y271901D01*
X74408Y271922D01*
X74923D01*
X74968Y271901D01*
X75240Y271546D01*
X75804Y271114D01*
X76460Y270842D01*
X77165Y270749D01*
X77870Y270842D01*
X78527Y271114D01*
X79091Y271546D01*
X79363Y271901D01*
X79408Y271922D01*
X79923D01*
X79968Y271901D01*
X80240Y271546D01*
X80804Y271114D01*
X81460Y270842D01*
X82165Y270749D01*
X82870Y270842D01*
X83527Y271114D01*
X84091Y271546D01*
X84363Y271901D01*
X84408Y271922D01*
X84923D01*
X84968Y271901D01*
X85240Y271546D01*
X85804Y271114D01*
X86461Y270842D01*
X87165Y270749D01*
X87870Y270842D01*
X88527Y271114D01*
X89091Y271546D01*
X89363Y271901D01*
X89407Y271922D01*
X89923D01*
X89968Y271901D01*
X90240Y271546D01*
X90804Y271114D01*
X91461Y270842D01*
X92165Y270749D01*
X92870Y270842D01*
X93527Y271114D01*
X94091Y271546D01*
X94363Y271901D01*
X94407Y271922D01*
X94923D01*
X94968Y271901D01*
X95240Y271546D01*
X95804Y271114D01*
X96460Y270842D01*
X97165Y270749D01*
X97870Y270842D01*
X98527Y271114D01*
X99091Y271546D01*
X99363Y271901D01*
X99408Y271922D01*
X99923D01*
X99968Y271901D01*
X100240Y271546D01*
X100804Y271114D01*
X101461Y270842D01*
X102165Y270749D01*
X102870Y270842D01*
X103527Y271114D01*
X104091Y271546D01*
X104120Y271584D01*
X104706Y271527D01*
X104912Y271218D01*
X105441Y270865D01*
X106065Y270741D01*
X108265D01*
X108890Y270865D01*
X109419Y271218D01*
X109773Y271748D01*
X109897Y272372D01*
Y274872D01*
X109773Y275496D01*
X109419Y276026D01*
X108890Y276379D01*
X108265Y276503D01*
X106065D01*
X105441Y276379D01*
X104912Y276026D01*
X104706Y275718D01*
X104120Y275660D01*
X104091Y275698D01*
X103527Y276131D01*
X102870Y276403D01*
X102165Y276495D01*
X101461Y276403D01*
X100804Y276131D01*
X100240Y275698D01*
X99968Y275343D01*
X99923Y275322D01*
X99408D01*
X99363Y275343D01*
X99091Y275698D01*
X98527Y276131D01*
X97870Y276403D01*
X97165Y276495D01*
X96460Y276403D01*
X95804Y276131D01*
X95240Y275698D01*
X94968Y275343D01*
X94923Y275322D01*
X94407D01*
X94363Y275343D01*
X94091Y275698D01*
X93527Y276131D01*
X92870Y276403D01*
X92165Y276495D01*
X91461Y276403D01*
X90804Y276131D01*
X90240Y275698D01*
X89968Y275343D01*
X89923Y275322D01*
X89407D01*
X89363Y275343D01*
X89091Y275698D01*
X88527Y276131D01*
X87870Y276403D01*
X87165Y276495D01*
X86461Y276403D01*
X85804Y276131D01*
X85240Y275698D01*
X84968Y275343D01*
X84923Y275322D01*
X84408D01*
X84363Y275343D01*
X84091Y275698D01*
X83527Y276131D01*
X83402Y276182D01*
Y276984D01*
X84278D01*
Y281921D01*
X78947D01*
Y276984D01*
X80375D01*
Y275802D01*
X80240Y275698D01*
X79968Y275343D01*
X79923Y275322D01*
X79408D01*
X79363Y275343D01*
X79091Y275698D01*
X78527Y276131D01*
X77870Y276403D01*
X77165Y276495D01*
X76460Y276403D01*
X75804Y276131D01*
X75240Y275698D01*
X74968Y275343D01*
X74923Y275322D01*
X74408D01*
X74363Y275343D01*
X74091Y275698D01*
X73678Y276015D01*
Y276984D01*
X74829D01*
Y281921D01*
X69498D01*
Y276984D01*
X70651D01*
Y276013D01*
X70240Y275698D01*
X69968Y275343D01*
X69923Y275322D01*
X69407D01*
X69363Y275343D01*
X69091Y275698D01*
X68527Y276131D01*
X67870Y276403D01*
X67165Y276495D01*
X66461Y276403D01*
X65804Y276131D01*
X65240Y275698D01*
X64968Y275343D01*
X64923Y275322D01*
X64407D01*
X64363Y275343D01*
X64091Y275698D01*
X63560Y276105D01*
Y276984D01*
X64593D01*
Y281921D01*
X59262D01*
Y276984D01*
X60533D01*
Y275923D01*
X60240Y275698D01*
X59968Y275343D01*
X59923Y275322D01*
X59408D01*
X59363Y275343D01*
X59091Y275698D01*
X58527Y276131D01*
X57870Y276403D01*
X57165Y276495D01*
X56460Y276403D01*
X55804Y276131D01*
X55240Y275698D01*
X54968Y275343D01*
X54923Y275322D01*
X54408D01*
X54363Y275343D01*
X54091Y275698D01*
X53527Y276131D01*
X53442Y276166D01*
Y276984D01*
X54356D01*
Y281921D01*
X49026D01*
Y276984D01*
X50415D01*
Y275832D01*
X50240Y275698D01*
X49968Y275343D01*
X49923Y275322D01*
X49408D01*
X49363Y275343D01*
X49091Y275698D01*
X48527Y276131D01*
X47870Y276403D01*
X47165Y276495D01*
X46461Y276403D01*
X45804Y276131D01*
X45240Y275698D01*
X44968Y275343D01*
X44923Y275322D01*
X44407D01*
X44363Y275343D01*
X44091Y275698D01*
X43527Y276131D01*
X42870Y276403D01*
X42165Y276495D01*
X41460Y276403D01*
X40804Y276131D01*
X40240Y275698D01*
X39968Y275343D01*
X39923Y275322D01*
X39408D01*
X39363Y275343D01*
X39091Y275698D01*
X38527Y276131D01*
X37870Y276403D01*
X37165Y276495D01*
X36461Y276403D01*
X35804Y276131D01*
X35240Y275698D01*
X34968Y275343D01*
X34923Y275322D01*
X34407D01*
X34363Y275343D01*
X34091Y275698D01*
X33527Y276131D01*
X32870Y276403D01*
X32165Y276495D01*
X31460Y276403D01*
X30804Y276131D01*
X30240Y275698D01*
X29807Y275134D01*
X29535Y274477D01*
X29442Y273772D01*
Y273472D01*
X29535Y272767D01*
X29807Y272110D01*
X30240Y271546D01*
X30593Y271275D01*
Y255981D01*
X30122Y255619D01*
X29689Y255055D01*
X29417Y254398D01*
X29324Y253693D01*
Y253393D01*
X29417Y252689D01*
X29689Y252032D01*
X30122Y251468D01*
X30686Y251035D01*
X31342Y250763D01*
X32047Y250670D01*
X32752Y250763D01*
X33409Y251035D01*
X33973Y251468D01*
X34245Y251822D01*
X34289Y251843D01*
X34805D01*
X34850Y251822D01*
X35122Y251468D01*
X35686Y251035D01*
X36342Y250763D01*
X37047Y250670D01*
X37752Y250763D01*
X38409Y251035D01*
X38973Y251468D01*
X39245Y251822D01*
X39289Y251843D01*
X39805D01*
X39849Y251822D01*
X40122Y251468D01*
X40686Y251035D01*
X41342Y250763D01*
X42047Y250670D01*
X42752Y250763D01*
X43409Y251035D01*
X43973Y251468D01*
X44245Y251822D01*
X44289Y251843D01*
X44805D01*
X44850Y251822D01*
X45122Y251468D01*
X45686Y251035D01*
X46342Y250763D01*
X47047Y250670D01*
X47752Y250763D01*
X48409Y251035D01*
X48973Y251468D01*
X49245Y251822D01*
X49289Y251843D01*
X49805D01*
X49850Y251822D01*
X50122Y251468D01*
X50686Y251035D01*
X51342Y250763D01*
X52047Y250670D01*
X52752Y250763D01*
X53409Y251035D01*
X53973Y251468D01*
X54245Y251822D01*
X54289Y251843D01*
X54805D01*
X54849Y251822D01*
X55122Y251468D01*
X55686Y251035D01*
X56342Y250763D01*
X57047Y250670D01*
X57752Y250763D01*
X58409Y251035D01*
X58973Y251468D01*
X59245Y251822D01*
X59289Y251843D01*
X59805D01*
X59850Y251822D01*
X60122Y251468D01*
X60686Y251035D01*
X61342Y250763D01*
X62047Y250670D01*
X62752Y250763D01*
X63409Y251035D01*
X63973Y251468D01*
X64245Y251822D01*
X64289Y251843D01*
X64805D01*
X64850Y251822D01*
X65122Y251468D01*
X65686Y251035D01*
X66342Y250763D01*
X67047Y250670D01*
X67752Y250763D01*
X68409Y251035D01*
X68973Y251468D01*
X69245Y251822D01*
X69289Y251843D01*
X69805D01*
X69849Y251822D01*
X70122Y251468D01*
X70686Y251035D01*
X71342Y250763D01*
X72047Y250670D01*
X72752Y250763D01*
X73409Y251035D01*
X73973Y251468D01*
X74245Y251822D01*
X74289Y251843D01*
X74805D01*
X74849Y251822D01*
X75122Y251468D01*
X75686Y251035D01*
X76342Y250763D01*
X77047Y250670D01*
X77752Y250763D01*
X78409Y251035D01*
X78973Y251468D01*
X79245Y251822D01*
X79289Y251843D01*
X79805D01*
X79849Y251822D01*
X80122Y251468D01*
X80686Y251035D01*
X81342Y250763D01*
X82047Y250670D01*
X82752Y250763D01*
X83409Y251035D01*
X83973Y251468D01*
X84245Y251822D01*
X84289Y251843D01*
X84805D01*
X84850Y251822D01*
X85122Y251468D01*
X85686Y251035D01*
X86342Y250763D01*
X87047Y250670D01*
X87752Y250763D01*
X88409Y251035D01*
X88973Y251468D01*
X89245Y251822D01*
X89289Y251843D01*
X89805D01*
X89850Y251822D01*
X90122Y251468D01*
X90686Y251035D01*
X91342Y250763D01*
X92047Y250670D01*
X92752Y250763D01*
X93409Y251035D01*
X93973Y251468D01*
X94245Y251822D01*
X94289Y251843D01*
X94805D01*
X94849Y251822D01*
X95122Y251468D01*
X95686Y251035D01*
X96342Y250763D01*
X97047Y250670D01*
X97752Y250763D01*
X98409Y251035D01*
X98973Y251468D01*
X99245Y251822D01*
X99289Y251843D01*
X99805D01*
X99849Y251822D01*
X100122Y251468D01*
X100686Y251035D01*
X101342Y250763D01*
X102047Y250670D01*
X102752Y250763D01*
X103409Y251035D01*
X103973Y251468D01*
X104002Y251505D01*
X104588Y251448D01*
X104794Y251140D01*
X105323Y250786D01*
X105947Y250662D01*
X108147D01*
X108772Y250786D01*
X109301Y251140D01*
X109654Y251669D01*
X109779Y252293D01*
Y254793D01*
X109654Y255418D01*
X109548Y255577D01*
X109323Y255963D01*
X109675Y256218D01*
X109870Y256348D01*
X110242Y256904D01*
X110372Y257560D01*
X110242Y258216D01*
X110083Y258454D01*
X110313Y259010D01*
X110498Y259046D01*
X111054Y259418D01*
X111426Y259974D01*
X111556Y260630D01*
X111426Y261286D01*
X111380Y261354D01*
X111616Y261795D01*
X127988D01*
X154283Y235500D01*
X154191Y235039D01*
X154322Y234384D01*
X154693Y233827D01*
X155250Y233456D01*
X155905Y233325D01*
X156561Y233456D01*
X156833Y233637D01*
X157138Y233532D01*
X157333Y233370D01*
Y216142D01*
X157491Y215759D01*
X157874Y215601D01*
X174919D01*
X175019Y215642D01*
X175126D01*
X175202Y215718D01*
X175302Y215759D01*
X175343Y215859D01*
X175419Y215935D01*
X175626Y216435D01*
Y216542D01*
X175667Y216642D01*
X175626Y216741D01*
Y216849D01*
X175550Y216925D01*
X175509Y217024D01*
X169362Y223171D01*
X169327Y223186D01*
X169309Y223218D01*
X169140Y223263D01*
X168979Y223330D01*
X168945Y223316D01*
X168909Y223325D01*
X168307Y223246D01*
X167598Y223339D01*
X166938Y223613D01*
X166371Y224048D01*
X165936Y224615D01*
X165662Y225276D01*
X165569Y225984D01*
X165662Y226693D01*
X165936Y227353D01*
X166371Y227920D01*
X166938Y228356D01*
X167598Y228629D01*
X168307Y228722D01*
X169016Y228629D01*
X169676Y228356D01*
X170243Y227920D01*
X170678Y227353D01*
X170952Y226693D01*
X171045Y225984D01*
X170966Y225383D01*
X170976Y225347D01*
X170961Y225312D01*
X171028Y225151D01*
X171073Y224983D01*
X171106Y224964D01*
X171120Y224929D01*
X177908Y218141D01*
X178206Y217696D01*
X178310Y217171D01*
Y216142D01*
X178469Y215759D01*
X178851Y215601D01*
X180376D01*
Y213862D01*
X180405Y213715D01*
Y210425D01*
X185146D01*
Y211463D01*
X186220D01*
X186311Y211388D01*
Y209964D01*
X186236Y209464D01*
X22588Y209464D01*
Y212992D01*
Y219320D01*
X22679Y220473D01*
X22545Y222173D01*
X22147Y223831D01*
X21495Y225407D01*
X20604Y226861D01*
X19496Y228157D01*
X18199Y229265D01*
X16745Y230156D01*
X15169Y230809D01*
X13511Y231207D01*
X11811Y231341D01*
X10658Y231250D01*
X803D01*
X803Y272687D01*
X10658D01*
X11811Y272597D01*
X13511Y272730D01*
X15169Y273128D01*
X16745Y273781D01*
X18199Y274672D01*
X19496Y275780D01*
X20604Y277077D01*
X21495Y278531D01*
X22147Y280106D01*
X22545Y281764D01*
X22679Y283465D01*
X22588Y284617D01*
Y291339D01*
X22588Y291339D01*
Y294473D01*
X200097Y294473D01*
X200484Y293973D01*
Y292154D01*
X199115D01*
X198850Y292551D01*
X198294Y292922D01*
X197638Y293053D01*
X196982Y292922D01*
X196906Y292871D01*
X196465Y293107D01*
Y293217D01*
X192512D01*
Y289854D01*
X196465D01*
Y289854D01*
X196669Y289964D01*
X196982Y289755D01*
X197638Y289625D01*
X198294Y289755D01*
X198850Y290127D01*
X199115Y290523D01*
X200484D01*
Y289264D01*
X205815D01*
Y293973D01*
X205815Y294201D01*
X206202Y294473D01*
X223425Y294473D01*
Y291248D01*
D02*
G37*
G36*
X54653Y256998D02*
X54653Y256998D01*
X54917Y256821D01*
X55230Y256759D01*
X56086D01*
X56185Y256259D01*
X55686Y256052D01*
X55122Y255619D01*
X54849Y255264D01*
X54805Y255243D01*
X54289D01*
X54245Y255264D01*
X53973Y255619D01*
X53409Y256052D01*
X52752Y256324D01*
X52047Y256417D01*
X51342Y256324D01*
X50686Y256052D01*
X50122Y255619D01*
X49850Y255264D01*
X49805Y255243D01*
X49289D01*
X49245Y255264D01*
X48973Y255619D01*
X48409Y256052D01*
X48067Y256193D01*
Y259572D01*
X47989Y259962D01*
X47768Y260293D01*
X43720Y264341D01*
Y265547D01*
X44161Y265782D01*
X44226Y265739D01*
X44882Y265609D01*
X45538Y265739D01*
X45762Y265889D01*
X54653Y256998D01*
D02*
G37*
G36*
X203348Y255707D02*
Y248660D01*
X203348Y248660D01*
X203410Y248348D01*
X203543Y248148D01*
Y248031D01*
X205512Y246063D01*
X212205D01*
X217323Y251181D01*
Y255765D01*
X217857Y256299D01*
X222441D01*
X222806Y255934D01*
Y239764D01*
X218898D01*
X216142Y237008D01*
Y230709D01*
X211417D01*
Y224803D01*
X209449Y222835D01*
X203937D01*
Y213780D01*
X200394Y210236D01*
X193701D01*
X192520Y211417D01*
Y216142D01*
X191248D01*
Y221563D01*
X186311D01*
Y216398D01*
X186257Y216318D01*
X186222Y216142D01*
X183435D01*
Y223019D01*
X183729Y223140D01*
X184409Y223662D01*
X184931Y224342D01*
X185259Y225134D01*
X185371Y225984D01*
X185259Y226834D01*
X184931Y227626D01*
X184409Y228306D01*
X183729Y228828D01*
X182937Y229156D01*
X182087Y229268D01*
X181237Y229156D01*
X180445Y228828D01*
X179764Y228306D01*
X179243Y227626D01*
X178914Y226834D01*
X178803Y225984D01*
X178914Y225134D01*
X179243Y224342D01*
X179764Y223662D01*
X180376Y223193D01*
Y216142D01*
X178851D01*
Y217224D01*
X178715Y217907D01*
X178329Y218486D01*
X178329Y218486D01*
X171502Y225312D01*
X171591Y225984D01*
X171479Y226834D01*
X171151Y227626D01*
X170629Y228306D01*
X169949Y228828D01*
X169157Y229156D01*
X168307Y229268D01*
X167457Y229156D01*
X166665Y228828D01*
X165985Y228306D01*
X165463Y227626D01*
X165135Y226834D01*
X165023Y225984D01*
X165135Y225134D01*
X165463Y224342D01*
X165985Y223662D01*
X166665Y223140D01*
X167457Y222812D01*
X168307Y222700D01*
X168979Y222789D01*
X175126Y216642D01*
X174919Y216142D01*
X157874D01*
Y233465D01*
Y237795D01*
X166142Y246063D01*
X175591D01*
X175808Y246281D01*
X176259Y246371D01*
X176815Y246742D01*
X177187Y247298D01*
X177276Y247749D01*
X187669Y258141D01*
X187742Y258092D01*
X188054Y258030D01*
X194067D01*
X194067Y258030D01*
X194379Y258092D01*
X194644Y258269D01*
X195090Y258715D01*
X200340D01*
X203348Y255707D01*
D02*
G37*
G36*
X34968Y271901D02*
X35240Y271546D01*
X35593Y271275D01*
Y255981D01*
X35122Y255619D01*
X34850Y255264D01*
X34805Y255243D01*
X34289D01*
X34245Y255264D01*
X33973Y255619D01*
X33620Y255890D01*
Y271185D01*
X34091Y271546D01*
X34363Y271901D01*
X34407Y271922D01*
X34923D01*
X34968Y271901D01*
D02*
G37*
G36*
X183706Y254944D02*
X177610Y248848D01*
X176978Y248923D01*
X176815Y249166D01*
X176259Y249538D01*
X175603Y249668D01*
X174947Y249538D01*
X174650Y249339D01*
X172881Y251107D01*
X172974Y251575D01*
X172843Y252231D01*
X172472Y252787D01*
X172303Y252900D01*
Y253400D01*
X172472Y253512D01*
X172843Y254068D01*
X172851Y254106D01*
X177592D01*
X177725Y253906D01*
X178281Y253535D01*
X178937Y253404D01*
X179593Y253535D01*
X180149Y253906D01*
X180520Y254462D01*
X180651Y255118D01*
X180887Y255405D01*
X183514D01*
X183706Y254944D01*
D02*
G37*
G36*
X216958Y230106D02*
X217020Y230021D01*
Y229579D01*
X223138D01*
X223425Y229198D01*
Y215647D01*
X223304Y215554D01*
X222861Y214977D01*
X222583Y214304D01*
X222488Y213583D01*
X222583Y212861D01*
X222861Y212189D01*
X223304Y211612D01*
X223425Y211519D01*
Y209464D01*
X209433D01*
X209358Y209933D01*
X209358D01*
Y213176D01*
X210524D01*
Y212591D01*
X214673D01*
Y212620D01*
X215307Y212620D01*
X215552Y212721D01*
X215690Y212778D01*
X215690Y212778D01*
X215690Y212778D01*
X215848Y213161D01*
X215848Y213161D01*
X215848Y213161D01*
X215690Y213544D01*
X215690Y213544D01*
X214699Y214535D01*
X214699Y215396D01*
X215680Y216378D01*
X215680Y216378D01*
X215680Y216378D01*
X215839Y216761D01*
X215839Y216761D01*
X215839Y216761D01*
X215809Y216833D01*
X215680Y217143D01*
X215680Y217143D01*
X215680Y217143D01*
X215298Y217302D01*
X215298Y217302D01*
X215298Y217302D01*
X214702Y217302D01*
X214673Y217331D01*
Y217331D01*
X210524D01*
Y216745D01*
X209358D01*
Y221563D01*
X204478D01*
Y222293D01*
X209449D01*
X209449Y222293D01*
X209832Y222452D01*
X211800Y224420D01*
X211959Y224803D01*
X211959Y224803D01*
Y230168D01*
X216142D01*
X216524Y230326D01*
X216958Y230106D01*
D02*
G37*
G36*
X214157Y215621D02*
X214157Y214311D01*
X215307Y213161D01*
X214057Y213161D01*
Y216661D01*
X214158Y216761D01*
X215298Y216761D01*
X214157Y215621D01*
D02*
G37*
G36*
X223425Y194791D02*
X220760D01*
Y192942D01*
X217429D01*
Y194791D01*
X212492D01*
Y189461D01*
X217429D01*
Y191310D01*
X220760D01*
Y189461D01*
X222413D01*
Y187795D01*
X222413Y187795D01*
X222475Y187483D01*
X222652Y187218D01*
X223425Y186445D01*
Y185088D01*
X222925Y184989D01*
X222794Y185305D01*
X222209Y186067D01*
X221447Y186653D01*
X220559Y187020D01*
X219606Y187146D01*
X218653Y187020D01*
X217766Y186653D01*
X217003Y186067D01*
X216418Y185305D01*
X216051Y184417D01*
X215925Y183465D01*
X216051Y182512D01*
X216418Y181624D01*
X217003Y180862D01*
X217766Y180277D01*
X218653Y179909D01*
X218791Y179891D01*
Y178847D01*
X217807D01*
Y173909D01*
X222728D01*
X222895Y173622D01*
X222728Y173335D01*
X217807D01*
Y172650D01*
X216535D01*
X216535Y172651D01*
X215853Y172515D01*
X215274Y172128D01*
X214887Y171549D01*
X214751Y170866D01*
X214887Y170183D01*
X215274Y169605D01*
X215853Y169218D01*
X216535Y169082D01*
X217807D01*
Y168398D01*
X222925D01*
X223138Y168398D01*
X223425Y168017D01*
Y167154D01*
X223199D01*
X222887Y167092D01*
X222622Y166915D01*
X222622Y166915D01*
X214513Y158806D01*
X214337Y158542D01*
X214275Y158229D01*
X214275Y158229D01*
Y157948D01*
X214012Y157685D01*
X210425D01*
Y154098D01*
X209959Y153632D01*
X209925Y153581D01*
X209915Y153571D01*
X209372Y153735D01*
X209257Y154313D01*
X208712Y155130D01*
X208616Y155194D01*
Y166134D01*
X209161D01*
Y170087D01*
X205799D01*
Y168490D01*
X205674Y168302D01*
X205557Y167717D01*
Y155873D01*
X205479Y155826D01*
X204979Y156110D01*
Y159675D01*
X204979Y159675D01*
X204917Y159987D01*
X204740Y160252D01*
X204740Y160252D01*
X201342Y163650D01*
X201077Y163827D01*
X200765Y163889D01*
X200765Y163889D01*
X194752D01*
X194752Y163889D01*
X194440Y163827D01*
X194175Y163650D01*
X194175Y163650D01*
X193729Y163205D01*
X188392D01*
X187530Y164067D01*
X187528Y164075D01*
X187351Y164339D01*
X187351Y164339D01*
X186072Y165619D01*
X185807Y165796D01*
X185495Y165858D01*
X185495Y165858D01*
X182759D01*
X182759Y165858D01*
X182447Y165796D01*
X182182Y165619D01*
X182182Y165619D01*
X180777Y164214D01*
X170988D01*
X170745Y164376D01*
X170089Y164507D01*
X169433Y164376D01*
X168877Y164005D01*
X168505Y163449D01*
X168375Y162793D01*
X168505Y162137D01*
X168877Y161581D01*
X169433Y161209D01*
X170089Y161079D01*
X170745Y161209D01*
X171301Y161581D01*
X171672Y162137D01*
X171761Y162583D01*
X180012D01*
Y160507D01*
X179512Y160261D01*
X178937Y160375D01*
X178281Y160245D01*
X177725Y159873D01*
X177353Y159317D01*
X177346Y159280D01*
X172605D01*
X172472Y159480D01*
X171916Y159851D01*
X171260Y159982D01*
X170604Y159851D01*
X170048Y159480D01*
X169676Y158924D01*
X169546Y158268D01*
X169676Y157612D01*
X170048Y157056D01*
X170217Y156943D01*
Y156443D01*
X170048Y156330D01*
X169676Y155774D01*
X169546Y155118D01*
X169676Y154462D01*
X170048Y153906D01*
X170604Y153535D01*
X171260Y153404D01*
X171727Y153497D01*
X173929Y151295D01*
X174020Y150841D01*
X174149Y150647D01*
X173882Y150147D01*
X166142D01*
X166142Y150148D01*
X165759Y149989D01*
X165759Y149989D01*
X157491Y141721D01*
X157333Y141339D01*
X157333Y141339D01*
Y140252D01*
X156833Y139985D01*
X156561Y140166D01*
X155905Y140297D01*
X155431Y140202D01*
X146929Y148705D01*
X147176Y149165D01*
X147638Y149073D01*
X148294Y149204D01*
X148850Y149575D01*
X148987Y149782D01*
X149485Y149830D01*
X150274Y149042D01*
X150142Y148845D01*
X150011Y148189D01*
X150142Y147533D01*
X150514Y146977D01*
X151069Y146605D01*
X151725Y146475D01*
X152381Y146605D01*
X152937Y146977D01*
X153309Y147533D01*
X153377Y147875D01*
X153926Y148110D01*
X154089Y148002D01*
X154745Y147871D01*
X155400Y148002D01*
X155956Y148373D01*
X156328Y148929D01*
X156458Y149585D01*
X156328Y150241D01*
X155956Y150797D01*
X155400Y151169D01*
X154920Y151264D01*
X154721Y151356D01*
X154550Y151770D01*
X154619Y152118D01*
X154489Y152774D01*
X154117Y153330D01*
X153561Y153702D01*
X153059Y153802D01*
Y162586D01*
X152997Y162898D01*
X152820Y163163D01*
X152820Y163163D01*
X153001Y163689D01*
X153411Y163771D01*
X153968Y164142D01*
X154339Y164698D01*
X154470Y165354D01*
X154339Y166010D01*
X153968Y166566D01*
X153411Y166938D01*
X152756Y167068D01*
X152378Y167378D01*
Y168601D01*
X152878Y168868D01*
X153367Y168541D01*
X154331Y168349D01*
X155294Y168541D01*
X156104Y169082D01*
X160742D01*
X161128Y168824D01*
X161811Y168688D01*
X161811Y168688D01*
X201575D01*
X202258Y168824D01*
X202836Y169211D01*
X203223Y169790D01*
X203359Y170473D01*
X203223Y171155D01*
X202836Y171734D01*
X202390Y172032D01*
Y174795D01*
X205421D01*
Y175242D01*
X209539D01*
Y174795D01*
X212901D01*
Y178748D01*
X211702D01*
X211702Y178749D01*
Y180472D01*
X212209Y180862D01*
X212794Y181624D01*
X213162Y182512D01*
X213287Y183465D01*
X213162Y184417D01*
X212794Y185305D01*
X212209Y186067D01*
X211447Y186653D01*
X210559Y187020D01*
X209606Y187146D01*
X208653Y187020D01*
X207766Y186653D01*
X207003Y186067D01*
X206418Y185305D01*
X206051Y184417D01*
X205925Y183465D01*
X206051Y182512D01*
X206418Y181624D01*
X207003Y180862D01*
X207766Y180277D01*
X208643Y179913D01*
Y178301D01*
X205421D01*
Y178748D01*
X203734D01*
X203543Y179210D01*
X204133Y179799D01*
X204133Y179799D01*
X204309Y180064D01*
X204372Y180376D01*
Y185101D01*
X204309Y185413D01*
X204133Y185677D01*
X204133Y185677D01*
X203965Y185845D01*
Y187295D01*
X205815D01*
Y192232D01*
X200484D01*
Y187295D01*
X202334D01*
Y185507D01*
X202334Y185507D01*
X202396Y185195D01*
X202573Y184930D01*
X202740Y184763D01*
Y180714D01*
X200998Y178972D01*
X200821Y178707D01*
X200759Y178395D01*
X200759Y178395D01*
Y172257D01*
X163595D01*
Y181587D01*
X164279D01*
Y186917D01*
X159343D01*
Y181587D01*
X160027D01*
Y172651D01*
X156104D01*
X155294Y173191D01*
X154716Y173306D01*
X154552Y173849D01*
X154801Y174098D01*
X154801Y174098D01*
X154978Y174363D01*
X155040Y174675D01*
X155040Y174675D01*
Y181587D01*
X158768D01*
Y186917D01*
X155040D01*
Y188584D01*
X155698Y189242D01*
X156370Y188964D01*
X157323Y188839D01*
X158275Y188964D01*
X159163Y189332D01*
X159926Y189917D01*
X160511Y190679D01*
X160878Y191567D01*
X161004Y192520D01*
X160878Y193473D01*
X160511Y194360D01*
X159926Y195123D01*
X159163Y195708D01*
X158275Y196075D01*
X157323Y196201D01*
X156370Y196075D01*
X155482Y195708D01*
X154720Y195123D01*
X154135Y194360D01*
X153767Y193473D01*
X153642Y192520D01*
X153767Y191567D01*
X154135Y190679D01*
X154436Y190287D01*
X153648Y189499D01*
X153471Y189234D01*
X153409Y188922D01*
X153409Y188922D01*
Y175013D01*
X152807Y174411D01*
X152345Y174602D01*
Y187841D01*
X152345Y187841D01*
X152283Y188153D01*
X152106Y188418D01*
X148296Y192228D01*
X148031Y192405D01*
X147719Y192467D01*
X147719Y192467D01*
X105537D01*
X104907Y193096D01*
X104643Y193273D01*
X104331Y193335D01*
X104331Y193335D01*
X55900D01*
X55900Y193335D01*
X55588Y193273D01*
X55323Y193096D01*
X55323Y193096D01*
X53203Y190976D01*
X49026D01*
Y186039D01*
X54356D01*
Y189822D01*
X56238Y191704D01*
X63257D01*
X63497Y191204D01*
X63318Y190976D01*
X59262D01*
Y186039D01*
X64593D01*
Y189822D01*
X65231Y190460D01*
X69498D01*
Y186039D01*
X74829D01*
Y190460D01*
X78947D01*
Y186039D01*
X84278D01*
Y190460D01*
X103681D01*
X104167Y189974D01*
X104167Y189974D01*
X104431Y189798D01*
X104744Y189735D01*
X146925D01*
X149613Y187047D01*
Y185617D01*
X149172Y185381D01*
X149081Y185442D01*
X148425Y185572D01*
X147769Y185442D01*
X147213Y185070D01*
X146842Y184514D01*
X146711Y183858D01*
X146842Y183202D01*
X147213Y182646D01*
X147447Y182490D01*
Y163387D01*
X147447Y163387D01*
X147509Y163075D01*
X147566Y162989D01*
X147399Y162446D01*
X147341Y162434D01*
X146785Y162063D01*
X146636Y161839D01*
X141676D01*
X131285Y172231D01*
X131020Y172408D01*
X130708Y172470D01*
X130708Y172470D01*
X105563D01*
X105562Y172470D01*
X105250Y172408D01*
X104986Y172231D01*
X104986Y172231D01*
X104437Y171682D01*
X101871D01*
X101606Y172078D01*
X101050Y172450D01*
X100394Y172580D01*
X99738Y172450D01*
X99182Y172078D01*
X98810Y171522D01*
X98750Y171221D01*
X98208Y171056D01*
X97821Y171443D01*
X97556Y171620D01*
X97244Y171682D01*
X97244Y171682D01*
X95178D01*
X94913Y172078D01*
X94357Y172450D01*
X93701Y172580D01*
X93045Y172450D01*
X92489Y172078D01*
X92117Y171522D01*
X91987Y170866D01*
X92117Y170210D01*
X92489Y169654D01*
X93045Y169283D01*
X93701Y169152D01*
X94357Y169283D01*
X94913Y169654D01*
X95178Y170051D01*
X96906D01*
X97894Y169063D01*
X97703Y168601D01*
X91214D01*
X89416Y170399D01*
X89509Y170866D01*
X89379Y171522D01*
X89007Y172078D01*
X88451Y172450D01*
X87795Y172580D01*
X87139Y172450D01*
X86583Y172078D01*
X86212Y171522D01*
X86081Y170866D01*
X86212Y170210D01*
X86583Y169654D01*
X87139Y169283D01*
X87795Y169152D01*
X88263Y169245D01*
X89545Y167963D01*
X89354Y167501D01*
X84047D01*
X81149Y170399D01*
X81242Y170866D01*
X81111Y171522D01*
X80739Y172078D01*
X80184Y172450D01*
X79527Y172580D01*
X78872Y172450D01*
X78316Y172078D01*
X77944Y171522D01*
X77814Y170866D01*
X77944Y170210D01*
X78316Y169654D01*
X78872Y169283D01*
X79527Y169152D01*
X79995Y169245D01*
X82377Y166863D01*
X82186Y166401D01*
X76485D01*
X72487Y170399D01*
X72580Y170866D01*
X72450Y171522D01*
X72078Y172078D01*
X71522Y172450D01*
X70866Y172580D01*
X70210Y172450D01*
X69654Y172078D01*
X69283Y171522D01*
X69152Y170866D01*
X69283Y170210D01*
X69654Y169654D01*
X70210Y169283D01*
X70866Y169152D01*
X71334Y169245D01*
X74816Y165763D01*
X74625Y165301D01*
X68924D01*
X63826Y170399D01*
X63919Y170866D01*
X63788Y171522D01*
X63417Y172078D01*
X62861Y172450D01*
X62205Y172580D01*
X61549Y172450D01*
X60993Y172078D01*
X60621Y171522D01*
X60491Y170866D01*
X60621Y170210D01*
X60993Y169654D01*
X61549Y169283D01*
X62205Y169152D01*
X62672Y169245D01*
X67255Y164663D01*
X67063Y164201D01*
X61362D01*
X55164Y170399D01*
X55257Y170866D01*
X55127Y171522D01*
X54755Y172078D01*
X54199Y172450D01*
X53543Y172580D01*
X52887Y172450D01*
X52331Y172078D01*
X51960Y171522D01*
X51829Y170866D01*
X51960Y170210D01*
X52331Y169654D01*
X52887Y169283D01*
X53543Y169152D01*
X54011Y169245D01*
X60448Y162808D01*
X60448Y162808D01*
X60712Y162631D01*
X61024Y162569D01*
X61024Y162569D01*
X106586D01*
X106869Y162069D01*
X106787Y161933D01*
X55567D01*
X46586Y170914D01*
X46465Y171522D01*
X46094Y172078D01*
X45538Y172450D01*
X45462Y172465D01*
X45316Y172943D01*
X46723Y174350D01*
X47165Y174292D01*
X47870Y174385D01*
X48527Y174657D01*
X49091Y175090D01*
X49363Y175444D01*
X49408Y175465D01*
X49923D01*
X49968Y175444D01*
X50240Y175090D01*
X50804Y174657D01*
X51460Y174385D01*
X52165Y174292D01*
X52870Y174385D01*
X53527Y174657D01*
X54091Y175090D01*
X54363Y175444D01*
X54408Y175465D01*
X54923D01*
X54968Y175444D01*
X55240Y175090D01*
X55804Y174657D01*
X56460Y174385D01*
X57165Y174292D01*
X57870Y174385D01*
X58527Y174657D01*
X59091Y175090D01*
X59363Y175444D01*
X59408Y175465D01*
X59923D01*
X59968Y175444D01*
X60240Y175090D01*
X60804Y174657D01*
X61461Y174385D01*
X62165Y174292D01*
X62870Y174385D01*
X63527Y174657D01*
X64091Y175090D01*
X64363Y175444D01*
X64407Y175465D01*
X64923D01*
X64968Y175444D01*
X65240Y175090D01*
X65804Y174657D01*
X66461Y174385D01*
X67165Y174292D01*
X67870Y174385D01*
X68527Y174657D01*
X69091Y175090D01*
X69363Y175444D01*
X69407Y175465D01*
X69923D01*
X69968Y175444D01*
X70240Y175090D01*
X70804Y174657D01*
X71460Y174385D01*
X72165Y174292D01*
X72870Y174385D01*
X73527Y174657D01*
X74091Y175090D01*
X74363Y175444D01*
X74408Y175465D01*
X74923D01*
X74968Y175444D01*
X75240Y175090D01*
X75804Y174657D01*
X76460Y174385D01*
X77165Y174292D01*
X77870Y174385D01*
X78527Y174657D01*
X79091Y175090D01*
X79363Y175444D01*
X79408Y175465D01*
X79923D01*
X79968Y175444D01*
X80240Y175090D01*
X80804Y174657D01*
X81460Y174385D01*
X82165Y174292D01*
X82870Y174385D01*
X83527Y174657D01*
X84091Y175090D01*
X84363Y175444D01*
X84408Y175465D01*
X84923D01*
X84968Y175444D01*
X85240Y175090D01*
X85804Y174657D01*
X86461Y174385D01*
X87165Y174292D01*
X87870Y174385D01*
X88527Y174657D01*
X89091Y175090D01*
X89363Y175444D01*
X89407Y175465D01*
X89923D01*
X89968Y175444D01*
X90240Y175090D01*
X90804Y174657D01*
X91461Y174385D01*
X92165Y174292D01*
X92870Y174385D01*
X93527Y174657D01*
X94091Y175090D01*
X94363Y175444D01*
X94407Y175465D01*
X94923D01*
X94968Y175444D01*
X95240Y175090D01*
X95804Y174657D01*
X96460Y174385D01*
X97165Y174292D01*
X97870Y174385D01*
X98527Y174657D01*
X99091Y175090D01*
X99363Y175444D01*
X99408Y175465D01*
X99923D01*
X99968Y175444D01*
X100240Y175090D01*
X100804Y174657D01*
X101461Y174385D01*
X102165Y174292D01*
X102870Y174385D01*
X103527Y174657D01*
X104091Y175090D01*
X104120Y175127D01*
X104706Y175070D01*
X104912Y174762D01*
X105441Y174408D01*
X106065Y174284D01*
X108265D01*
X108890Y174408D01*
X109419Y174762D01*
X109773Y175291D01*
X109897Y175915D01*
Y178415D01*
X109773Y179040D01*
X109419Y179569D01*
X108890Y179923D01*
X108265Y180047D01*
X106065D01*
X105441Y179923D01*
X104912Y179569D01*
X104706Y179261D01*
X104120Y179203D01*
X104091Y179241D01*
X103527Y179674D01*
X102870Y179946D01*
X102165Y180039D01*
X101461Y179946D01*
X100804Y179674D01*
X100240Y179241D01*
X99968Y178886D01*
X99923Y178866D01*
X99408D01*
X99363Y178886D01*
X99091Y179241D01*
X98527Y179674D01*
X97870Y179946D01*
X97165Y180039D01*
X96460Y179946D01*
X95804Y179674D01*
X95240Y179241D01*
X94968Y178886D01*
X94923Y178866D01*
X94407D01*
X94363Y178886D01*
X94091Y179241D01*
X93527Y179674D01*
X92870Y179946D01*
X92165Y180039D01*
X91461Y179946D01*
X90804Y179674D01*
X90240Y179241D01*
X89968Y178886D01*
X89923Y178866D01*
X89407D01*
X89363Y178886D01*
X89091Y179241D01*
X88527Y179674D01*
X87870Y179946D01*
X87165Y180039D01*
X86461Y179946D01*
X85804Y179674D01*
X85240Y179241D01*
X84968Y178886D01*
X84923Y178866D01*
X84408D01*
X84363Y178886D01*
X84091Y179241D01*
X83527Y179674D01*
X83402Y179726D01*
Y180527D01*
X84278D01*
Y185464D01*
X78947D01*
Y180527D01*
X80375D01*
Y179345D01*
X80240Y179241D01*
X79968Y178886D01*
X79923Y178866D01*
X79408D01*
X79363Y178886D01*
X79091Y179241D01*
X78527Y179674D01*
X77870Y179946D01*
X77165Y180039D01*
X76460Y179946D01*
X75804Y179674D01*
X75240Y179241D01*
X74968Y178886D01*
X74923Y178866D01*
X74408D01*
X74363Y178886D01*
X74091Y179241D01*
X73678Y179558D01*
Y180527D01*
X74829D01*
Y185464D01*
X69498D01*
Y180527D01*
X70651D01*
Y179557D01*
X70240Y179241D01*
X69968Y178886D01*
X69923Y178866D01*
X69407D01*
X69363Y178886D01*
X69091Y179241D01*
X68527Y179674D01*
X67870Y179946D01*
X67165Y180039D01*
X66461Y179946D01*
X65804Y179674D01*
X65240Y179241D01*
X64968Y178886D01*
X64923Y178866D01*
X64407D01*
X64363Y178886D01*
X64091Y179241D01*
X63560Y179649D01*
Y180527D01*
X64593D01*
Y185464D01*
X59262D01*
Y180527D01*
X60533D01*
Y179466D01*
X60240Y179241D01*
X59968Y178886D01*
X59923Y178866D01*
X59408D01*
X59363Y178886D01*
X59091Y179241D01*
X58527Y179674D01*
X57870Y179946D01*
X57165Y180039D01*
X56460Y179946D01*
X55804Y179674D01*
X55240Y179241D01*
X54968Y178886D01*
X54923Y178866D01*
X54408D01*
X54363Y178886D01*
X54091Y179241D01*
X53527Y179674D01*
X53442Y179709D01*
Y180527D01*
X54356D01*
Y185464D01*
X49026D01*
Y180527D01*
X50415D01*
Y179376D01*
X50240Y179241D01*
X49968Y178886D01*
X49923Y178866D01*
X49408D01*
X49363Y178886D01*
X49091Y179241D01*
X48527Y179674D01*
X47870Y179946D01*
X47165Y180039D01*
X46461Y179946D01*
X45804Y179674D01*
X45240Y179241D01*
X44968Y178886D01*
X44923Y178866D01*
X44407D01*
X44363Y178886D01*
X44091Y179241D01*
X43527Y179674D01*
X42870Y179946D01*
X42165Y180039D01*
X41460Y179946D01*
X40804Y179674D01*
X40240Y179241D01*
X39968Y178886D01*
X39923Y178866D01*
X39408D01*
X39363Y178886D01*
X39091Y179241D01*
X38527Y179674D01*
X37870Y179946D01*
X37165Y180039D01*
X36461Y179946D01*
X35804Y179674D01*
X35240Y179241D01*
X34968Y178886D01*
X34923Y178866D01*
X34407D01*
X34363Y178886D01*
X34091Y179241D01*
X33527Y179674D01*
X32870Y179946D01*
X32165Y180039D01*
X31460Y179946D01*
X30804Y179674D01*
X30240Y179241D01*
X29807Y178677D01*
X29535Y178020D01*
X29442Y177315D01*
Y177015D01*
X29535Y176311D01*
X29807Y175654D01*
X30240Y175090D01*
X30593Y174819D01*
Y159524D01*
X30122Y159162D01*
X29689Y158598D01*
X29417Y157941D01*
X29324Y157237D01*
Y156937D01*
X29417Y156232D01*
X29689Y155575D01*
X30122Y155011D01*
X30686Y154578D01*
X31342Y154306D01*
X32047Y154213D01*
X32752Y154306D01*
X33409Y154578D01*
X33973Y155011D01*
X34245Y155366D01*
X34289Y155386D01*
X34805D01*
X34850Y155366D01*
X35122Y155011D01*
X35686Y154578D01*
X36342Y154306D01*
X37047Y154213D01*
X37752Y154306D01*
X38409Y154578D01*
X38973Y155011D01*
X39245Y155366D01*
X39289Y155386D01*
X39805D01*
X39849Y155366D01*
X40122Y155011D01*
X40686Y154578D01*
X41342Y154306D01*
X42047Y154213D01*
X42752Y154306D01*
X43409Y154578D01*
X43973Y155011D01*
X44245Y155366D01*
X44289Y155386D01*
X44805D01*
X44850Y155366D01*
X45122Y155011D01*
X45686Y154578D01*
X46342Y154306D01*
X47047Y154213D01*
X47752Y154306D01*
X48409Y154578D01*
X48973Y155011D01*
X49245Y155366D01*
X49289Y155386D01*
X49805D01*
X49850Y155366D01*
X50122Y155011D01*
X50686Y154578D01*
X51342Y154306D01*
X52047Y154213D01*
X52752Y154306D01*
X53409Y154578D01*
X53973Y155011D01*
X54245Y155366D01*
X54289Y155386D01*
X54805D01*
X54849Y155366D01*
X55122Y155011D01*
X55686Y154578D01*
X56342Y154306D01*
X57047Y154213D01*
X57752Y154306D01*
X58409Y154578D01*
X58973Y155011D01*
X59245Y155366D01*
X59289Y155386D01*
X59805D01*
X59850Y155366D01*
X60122Y155011D01*
X60686Y154578D01*
X61342Y154306D01*
X62047Y154213D01*
X62752Y154306D01*
X63409Y154578D01*
X63973Y155011D01*
X64245Y155366D01*
X64289Y155386D01*
X64805D01*
X64850Y155366D01*
X65122Y155011D01*
X65686Y154578D01*
X66342Y154306D01*
X67047Y154213D01*
X67752Y154306D01*
X68409Y154578D01*
X68973Y155011D01*
X69245Y155366D01*
X69289Y155386D01*
X69805D01*
X69849Y155366D01*
X70122Y155011D01*
X70686Y154578D01*
X71342Y154306D01*
X72047Y154213D01*
X72752Y154306D01*
X73409Y154578D01*
X73973Y155011D01*
X74245Y155366D01*
X74289Y155386D01*
X74805D01*
X74849Y155366D01*
X75122Y155011D01*
X75686Y154578D01*
X76342Y154306D01*
X77047Y154213D01*
X77752Y154306D01*
X78409Y154578D01*
X78973Y155011D01*
X79245Y155366D01*
X79289Y155386D01*
X79805D01*
X79849Y155366D01*
X80122Y155011D01*
X80686Y154578D01*
X81342Y154306D01*
X82047Y154213D01*
X82752Y154306D01*
X83409Y154578D01*
X83973Y155011D01*
X84245Y155366D01*
X84289Y155386D01*
X84805D01*
X84850Y155366D01*
X85122Y155011D01*
X85686Y154578D01*
X86342Y154306D01*
X87047Y154213D01*
X87752Y154306D01*
X88409Y154578D01*
X88973Y155011D01*
X89245Y155366D01*
X89289Y155386D01*
X89805D01*
X89850Y155366D01*
X90122Y155011D01*
X90686Y154578D01*
X91342Y154306D01*
X92047Y154213D01*
X92752Y154306D01*
X93409Y154578D01*
X93973Y155011D01*
X94245Y155366D01*
X94289Y155386D01*
X94805D01*
X94849Y155366D01*
X95122Y155011D01*
X95686Y154578D01*
X96342Y154306D01*
X97047Y154213D01*
X97752Y154306D01*
X98409Y154578D01*
X98973Y155011D01*
X99245Y155366D01*
X99289Y155386D01*
X99805D01*
X99849Y155366D01*
X100122Y155011D01*
X100686Y154578D01*
X101342Y154306D01*
X102047Y154213D01*
X102752Y154306D01*
X103409Y154578D01*
X103973Y155011D01*
X104002Y155049D01*
X104588Y154991D01*
X104794Y154683D01*
X105323Y154330D01*
X105947Y154205D01*
X108147D01*
X108772Y154330D01*
X109301Y154683D01*
X109654Y155212D01*
X109779Y155837D01*
Y158337D01*
X109654Y158961D01*
X109548Y159121D01*
X109323Y159506D01*
X109675Y159761D01*
X109870Y159892D01*
X110242Y160448D01*
X110372Y161104D01*
X110242Y161760D01*
X110083Y161997D01*
X110313Y162553D01*
X110498Y162590D01*
X111054Y162961D01*
X111426Y163517D01*
X111556Y164173D01*
X111426Y164829D01*
X111380Y164898D01*
X111616Y165339D01*
X127988D01*
X154283Y139044D01*
X154191Y138583D01*
X154322Y137927D01*
X154693Y137371D01*
X155250Y136999D01*
X155905Y136869D01*
X156561Y136999D01*
X156833Y137180D01*
X157138Y137075D01*
X157333Y136913D01*
Y119685D01*
X157491Y119302D01*
X157874Y119144D01*
X174919D01*
X175019Y119185D01*
X175126D01*
X175202Y119261D01*
X175302Y119302D01*
X175343Y119402D01*
X175419Y119478D01*
X175626Y119978D01*
Y120086D01*
X175667Y120185D01*
X175626Y120284D01*
Y120392D01*
X175550Y120468D01*
X175509Y120568D01*
X169362Y126715D01*
X169327Y126729D01*
X169309Y126761D01*
X169140Y126807D01*
X168979Y126873D01*
X168945Y126859D01*
X168909Y126869D01*
X168307Y126789D01*
X167598Y126883D01*
X166938Y127156D01*
X166371Y127591D01*
X165936Y128158D01*
X165662Y128819D01*
X165569Y129528D01*
X165662Y130236D01*
X165936Y130897D01*
X166371Y131464D01*
X166938Y131899D01*
X167598Y132172D01*
X168307Y132266D01*
X169016Y132172D01*
X169676Y131899D01*
X170243Y131464D01*
X170678Y130897D01*
X170952Y130236D01*
X171045Y129528D01*
X170966Y128926D01*
X170976Y128890D01*
X170961Y128855D01*
X171028Y128694D01*
X171073Y128526D01*
X171106Y128507D01*
X171120Y128473D01*
X177908Y121684D01*
X178206Y121239D01*
X178310Y120714D01*
Y119685D01*
X178469Y119302D01*
X178851Y119144D01*
X180376D01*
Y117405D01*
X180405Y117258D01*
Y113969D01*
X185146D01*
Y115006D01*
X186220D01*
X186311Y114932D01*
Y113507D01*
X186236Y113007D01*
X22588Y113007D01*
Y116535D01*
Y122863D01*
X22679Y124016D01*
X22545Y125716D01*
X22147Y127374D01*
X21495Y128950D01*
X20604Y130404D01*
X19496Y131701D01*
X18199Y132808D01*
X16745Y133699D01*
X15169Y134352D01*
X13511Y134750D01*
X11811Y134884D01*
X10658Y134793D01*
X803D01*
X803Y176231D01*
X10658D01*
X11811Y176140D01*
X13511Y176274D01*
X15169Y176672D01*
X16745Y177324D01*
X18199Y178215D01*
X19496Y179323D01*
X20604Y180620D01*
X21495Y182074D01*
X22147Y183650D01*
X22545Y185308D01*
X22679Y187008D01*
X22588Y188161D01*
Y194882D01*
X22588Y194882D01*
Y198016D01*
X200097Y198016D01*
X200484Y197516D01*
Y195698D01*
X199115D01*
X198850Y196094D01*
X198294Y196466D01*
X197638Y196596D01*
X196982Y196466D01*
X196906Y196414D01*
X196465Y196650D01*
Y196760D01*
X192512D01*
Y193398D01*
X196465D01*
Y193398D01*
X196669Y193507D01*
X196982Y193298D01*
X197638Y193168D01*
X198294Y193298D01*
X198850Y193670D01*
X199115Y194066D01*
X200484D01*
Y192807D01*
X205815D01*
Y197516D01*
X205815Y197744D01*
X206202Y198016D01*
X223425Y198016D01*
Y194791D01*
D02*
G37*
G36*
X54653Y160541D02*
X54653Y160541D01*
X54917Y160364D01*
X55230Y160302D01*
X56086D01*
X56185Y159802D01*
X55686Y159595D01*
X55122Y159162D01*
X54849Y158808D01*
X54805Y158787D01*
X54289D01*
X54245Y158808D01*
X53973Y159162D01*
X53409Y159595D01*
X52752Y159867D01*
X52047Y159960D01*
X51342Y159867D01*
X50686Y159595D01*
X50122Y159162D01*
X49850Y158808D01*
X49805Y158787D01*
X49289D01*
X49245Y158808D01*
X48973Y159162D01*
X48409Y159595D01*
X48067Y159737D01*
Y163115D01*
X47989Y163505D01*
X47768Y163836D01*
X43720Y167884D01*
Y169090D01*
X44161Y169326D01*
X44226Y169283D01*
X44882Y169152D01*
X45538Y169283D01*
X45762Y169432D01*
X54653Y160541D01*
D02*
G37*
G36*
X203348Y159251D02*
Y152203D01*
X203348Y152203D01*
X203410Y151891D01*
X203543Y151691D01*
Y151575D01*
X205512Y149606D01*
X212205D01*
X217323Y154724D01*
Y159309D01*
X217857Y159843D01*
X222441D01*
X222806Y159477D01*
Y143307D01*
X218898D01*
X216142Y140551D01*
Y134252D01*
X211417D01*
Y128347D01*
X209449Y126378D01*
X203937D01*
Y117323D01*
X200394Y113779D01*
X193701D01*
X192520Y114961D01*
Y119685D01*
X191248D01*
Y125106D01*
X186311D01*
Y119941D01*
X186257Y119861D01*
X186222Y119685D01*
X183435D01*
Y126562D01*
X183729Y126683D01*
X184409Y127205D01*
X184931Y127886D01*
X185259Y128678D01*
X185371Y129528D01*
X185259Y130377D01*
X184931Y131170D01*
X184409Y131850D01*
X183729Y132372D01*
X182937Y132700D01*
X182087Y132812D01*
X181237Y132700D01*
X180445Y132372D01*
X179764Y131850D01*
X179243Y131170D01*
X178914Y130377D01*
X178803Y129528D01*
X178914Y128678D01*
X179243Y127886D01*
X179764Y127205D01*
X180376Y126736D01*
Y119685D01*
X178851D01*
Y120768D01*
X178715Y121450D01*
X178329Y122029D01*
X178329Y122029D01*
X171502Y128855D01*
X171591Y129528D01*
X171479Y130377D01*
X171151Y131170D01*
X170629Y131850D01*
X169949Y132372D01*
X169157Y132700D01*
X168307Y132812D01*
X167457Y132700D01*
X166665Y132372D01*
X165985Y131850D01*
X165463Y131170D01*
X165135Y130377D01*
X165023Y129528D01*
X165135Y128678D01*
X165463Y127886D01*
X165985Y127205D01*
X166665Y126683D01*
X167457Y126356D01*
X168307Y126244D01*
X168979Y126332D01*
X175126Y120185D01*
X174919Y119685D01*
X157874D01*
Y137008D01*
Y141339D01*
X166142Y149606D01*
X175591D01*
X175808Y149824D01*
X176259Y149914D01*
X176815Y150285D01*
X177187Y150841D01*
X177276Y151292D01*
X187669Y161685D01*
X187742Y161635D01*
X188054Y161573D01*
X194067D01*
X194067Y161573D01*
X194379Y161635D01*
X194644Y161812D01*
X195090Y162258D01*
X200340D01*
X203348Y159251D01*
D02*
G37*
G36*
X34968Y175444D02*
X35240Y175090D01*
X35593Y174819D01*
Y159524D01*
X35122Y159162D01*
X34850Y158808D01*
X34805Y158787D01*
X34289D01*
X34245Y158808D01*
X33973Y159162D01*
X33620Y159433D01*
Y174728D01*
X34091Y175090D01*
X34363Y175444D01*
X34407Y175465D01*
X34923D01*
X34968Y175444D01*
D02*
G37*
G36*
X183706Y158487D02*
X177610Y152392D01*
X176978Y152466D01*
X176815Y152709D01*
X176259Y153081D01*
X175603Y153211D01*
X174947Y153081D01*
X174650Y152882D01*
X172881Y154651D01*
X172974Y155118D01*
X172843Y155774D01*
X172472Y156330D01*
X172303Y156443D01*
Y156943D01*
X172472Y157056D01*
X172843Y157612D01*
X172851Y157649D01*
X177592D01*
X177725Y157449D01*
X178281Y157078D01*
X178937Y156947D01*
X179593Y157078D01*
X180149Y157449D01*
X180520Y158005D01*
X180651Y158661D01*
X180887Y158949D01*
X183514D01*
X183706Y158487D01*
D02*
G37*
G36*
X216958Y133650D02*
X217020Y133565D01*
Y133122D01*
X223138D01*
X223425Y132741D01*
Y119190D01*
X223304Y119097D01*
X222861Y118520D01*
X222583Y117848D01*
X222488Y117126D01*
X222583Y116404D01*
X222861Y115732D01*
X223304Y115155D01*
X223425Y115062D01*
Y113007D01*
X209433D01*
X209358Y113476D01*
X209358D01*
Y116720D01*
X210524D01*
Y116134D01*
X214673D01*
Y116163D01*
X215307Y116163D01*
X215552Y116264D01*
X215690Y116322D01*
X215690Y116322D01*
X215690Y116322D01*
X215848Y116704D01*
X215848Y116704D01*
X215848Y116704D01*
X215690Y117087D01*
X215690Y117087D01*
X214699Y118078D01*
X214699Y118940D01*
X215680Y119921D01*
X215680Y119921D01*
X215680Y119921D01*
X215839Y120304D01*
X215839Y120304D01*
X215839Y120304D01*
X215809Y120376D01*
X215680Y120687D01*
X215680Y120687D01*
X215680Y120687D01*
X215298Y120845D01*
X215298Y120845D01*
X215298Y120845D01*
X214702Y120845D01*
X214673Y120874D01*
Y120874D01*
X210524D01*
Y120288D01*
X209358D01*
Y125106D01*
X204478D01*
Y125837D01*
X209449D01*
X209449Y125837D01*
X209832Y125995D01*
X211800Y127964D01*
X211959Y128347D01*
X211959Y128347D01*
Y133711D01*
X216142D01*
X216524Y133869D01*
X216958Y133650D01*
D02*
G37*
G36*
X214157Y119164D02*
X214157Y117854D01*
X215307Y116704D01*
X214057Y116704D01*
Y120204D01*
X214158Y120304D01*
X215298Y120304D01*
X214157Y119164D01*
D02*
G37*
%LPC*%
G36*
X185827Y385966D02*
X185661Y385933D01*
X183850D01*
Y382571D01*
X185661D01*
X185827Y382538D01*
X185992Y382571D01*
X187803D01*
Y385933D01*
X185992D01*
X185827Y385966D01*
D02*
G37*
G36*
X180972Y389083D02*
X173673D01*
Y381784D01*
X180972D01*
Y389083D01*
D02*
G37*
G36*
X167323Y389114D02*
X166370Y388989D01*
X165482Y388621D01*
X164720Y388036D01*
X164135Y387274D01*
X163767Y386386D01*
X163642Y385433D01*
X163767Y384480D01*
X164135Y383593D01*
X164720Y382830D01*
X165482Y382245D01*
X166370Y381877D01*
X167323Y381752D01*
X168275Y381877D01*
X169163Y382245D01*
X169926Y382830D01*
X170511Y383593D01*
X170878Y384480D01*
X171004Y385433D01*
X170878Y386386D01*
X170511Y387274D01*
X169926Y388036D01*
X169163Y388621D01*
X168275Y388989D01*
X167323Y389114D01*
D02*
G37*
G36*
X196465Y382193D02*
X192512D01*
Y378831D01*
X196465D01*
Y382193D01*
D02*
G37*
G36*
X119299Y356209D02*
X112984D01*
Y350878D01*
X119299D01*
Y351808D01*
X121055D01*
Y351272D01*
X126189D01*
Y356012D01*
X121055D01*
Y355377D01*
X119299D01*
Y356209D01*
D02*
G37*
G36*
X157087Y359055D02*
X156431Y358925D01*
X155875Y358553D01*
X155503Y357997D01*
X155373Y357341D01*
X155503Y356685D01*
X155875Y356129D01*
X156431Y355758D01*
X157087Y355627D01*
X157554Y355720D01*
X158239Y355035D01*
Y353826D01*
X157843Y353562D01*
X157472Y353006D01*
X157341Y352350D01*
X157472Y351694D01*
X157843Y351138D01*
X158399Y350766D01*
X159055Y350636D01*
X159711Y350766D01*
X160267Y351138D01*
X160639Y351694D01*
X160769Y352350D01*
X160639Y353006D01*
X160267Y353562D01*
X159871Y353826D01*
Y355373D01*
X159809Y355685D01*
X159632Y355949D01*
X159632Y355949D01*
X158708Y356874D01*
X158801Y357341D01*
X158670Y357997D01*
X158299Y358553D01*
X157743Y358925D01*
X157087Y359055D01*
D02*
G37*
G36*
X137213Y341445D02*
X132079D01*
Y336705D01*
X137213D01*
Y341445D01*
D02*
G37*
G36*
X127559Y345809D02*
X126903Y345678D01*
X126347Y345306D01*
X125976Y344750D01*
X125845Y344094D01*
X125976Y343439D01*
X125982Y343429D01*
X125801Y343249D01*
X125624Y342984D01*
X125562Y342672D01*
X125562Y342672D01*
Y341445D01*
X123811D01*
Y336705D01*
X128945D01*
Y341445D01*
X127194D01*
Y341944D01*
X127559Y342380D01*
X128215Y342511D01*
X128771Y342882D01*
X129143Y343439D01*
X129273Y344094D01*
X129143Y344750D01*
X128771Y345306D01*
X128215Y345678D01*
X127559Y345809D01*
D02*
G37*
G36*
X145694Y331635D02*
X145038Y331505D01*
X144482Y331133D01*
X144111Y330577D01*
X143980Y329921D01*
X144073Y329454D01*
X143449Y328829D01*
X143272Y328565D01*
X143210Y328253D01*
X143210Y328253D01*
Y327155D01*
X142710Y326947D01*
X139976Y329682D01*
X139711Y329859D01*
X139399Y329921D01*
X139399Y329921D01*
X138902D01*
X138902Y329921D01*
X138590Y329859D01*
X138325Y329682D01*
X138325Y329682D01*
X137846Y329203D01*
X137379Y329296D01*
X136723Y329166D01*
X136167Y328794D01*
X135795Y328238D01*
X135665Y327582D01*
X135795Y326926D01*
X136167Y326370D01*
X136702Y326013D01*
X136786Y325757D01*
X136847Y325520D01*
X136590Y325213D01*
X134442D01*
X134206Y325654D01*
X134261Y325735D01*
X134391Y326391D01*
X134261Y327046D01*
X133889Y327603D01*
X133333Y327974D01*
X132677Y328105D01*
X132021Y327974D01*
X131465Y327603D01*
X131333Y327405D01*
X131074Y327444D01*
X130832Y327556D01*
X130717Y328134D01*
X130346Y328690D01*
X129790Y329062D01*
X129134Y329192D01*
X128478Y329062D01*
X127922Y328690D01*
X127550Y328134D01*
X127520Y327981D01*
X66058D01*
X64722Y329317D01*
X64458Y329494D01*
X64146Y329556D01*
X64146Y329556D01*
X39324D01*
X39324Y329556D01*
X39012Y329494D01*
X38748Y329317D01*
X38748Y329317D01*
X32494Y323063D01*
X32317Y322799D01*
X32255Y322487D01*
X32255Y322487D01*
Y321162D01*
X31859Y320897D01*
X31487Y320341D01*
X31357Y319685D01*
X31487Y319029D01*
X31859Y318473D01*
X32415Y318102D01*
X33071Y317971D01*
X33727Y318102D01*
X34283Y318473D01*
X34654Y319029D01*
X34785Y319685D01*
X34654Y320341D01*
X34283Y320897D01*
X33887Y321162D01*
Y322149D01*
X35717Y323979D01*
X36196Y323834D01*
X36212Y323753D01*
X36583Y323198D01*
X37139Y322826D01*
X37795Y322695D01*
X38451Y322826D01*
X39007Y323198D01*
X39379Y323753D01*
X39509Y324410D01*
X39416Y324877D01*
X41202Y326662D01*
X63151D01*
X63198Y326584D01*
X63198Y326574D01*
X62929Y326059D01*
X62533Y325980D01*
X61977Y325609D01*
X61605Y325053D01*
X61475Y324397D01*
X61605Y323741D01*
X61651Y323672D01*
X61415Y323231D01*
X50368D01*
X50368Y323232D01*
X50056Y323169D01*
X49792Y322992D01*
X49792Y322992D01*
X48499Y321700D01*
X48031Y321793D01*
X47376Y321662D01*
X46819Y321291D01*
X46448Y320735D01*
X46317Y320079D01*
X46448Y319423D01*
X46819Y318867D01*
X47376Y318495D01*
X48031Y318365D01*
X48687Y318495D01*
X49244Y318867D01*
X49615Y319423D01*
X49746Y320079D01*
X49652Y320546D01*
X50706Y321600D01*
X139390D01*
X139390Y321600D01*
X139702Y321662D01*
X139967Y321839D01*
X140455Y322326D01*
X140917Y322135D01*
Y318655D01*
X140520Y318390D01*
X140149Y317834D01*
X140018Y317178D01*
X140149Y316522D01*
X140520Y315966D01*
X141076Y315595D01*
X141732Y315464D01*
X142388Y315595D01*
X142944Y315966D01*
X143316Y316522D01*
X143446Y317178D01*
X143316Y317834D01*
X142944Y318390D01*
X142548Y318655D01*
Y322864D01*
X144559Y324875D01*
X144601Y324909D01*
X144634Y324908D01*
X145093Y324753D01*
Y320759D01*
X145013Y320743D01*
X144457Y320371D01*
X144086Y319815D01*
X143955Y319159D01*
X144086Y318503D01*
X144457Y317947D01*
X145013Y317576D01*
X145669Y317445D01*
X146325Y317576D01*
X146881Y317947D01*
X147253Y318503D01*
X147383Y319159D01*
X147253Y319815D01*
X146881Y320371D01*
X146724Y320476D01*
Y324791D01*
X146804Y324807D01*
X147360Y325179D01*
X147731Y325735D01*
X147862Y326391D01*
X147731Y327046D01*
X147360Y327603D01*
X146804Y327974D01*
X146729Y327989D01*
X146623Y328520D01*
X146906Y328709D01*
X147278Y329265D01*
X147408Y329921D01*
X147278Y330577D01*
X146906Y331133D01*
X146350Y331505D01*
X145694Y331635D01*
D02*
G37*
G36*
X185827Y289509D02*
X185661Y289476D01*
X183850D01*
Y286114D01*
X185661D01*
X185827Y286081D01*
X185992Y286114D01*
X187803D01*
Y289476D01*
X185992D01*
X185827Y289509D01*
D02*
G37*
G36*
X180972Y292626D02*
X173673D01*
Y285327D01*
X180972D01*
Y292626D01*
D02*
G37*
G36*
X167323Y292657D02*
X166370Y292532D01*
X165482Y292164D01*
X164720Y291579D01*
X164135Y290817D01*
X163767Y289929D01*
X163642Y288976D01*
X163767Y288024D01*
X164135Y287136D01*
X164720Y286373D01*
X165482Y285788D01*
X166370Y285421D01*
X167323Y285295D01*
X168275Y285421D01*
X169163Y285788D01*
X169926Y286373D01*
X170511Y287136D01*
X170878Y288024D01*
X171004Y288976D01*
X170878Y289929D01*
X170511Y290817D01*
X169926Y291579D01*
X169163Y292164D01*
X168275Y292532D01*
X167323Y292657D01*
D02*
G37*
G36*
X196465Y285736D02*
X192512D01*
Y282374D01*
X196465D01*
Y285736D01*
D02*
G37*
G36*
X119299Y259752D02*
X112984D01*
Y254421D01*
X119299D01*
Y255352D01*
X121055D01*
Y254815D01*
X126189D01*
Y259555D01*
X121055D01*
Y258920D01*
X119299D01*
Y259752D01*
D02*
G37*
G36*
X157087Y262598D02*
X156431Y262468D01*
X155875Y262096D01*
X155503Y261540D01*
X155373Y260884D01*
X155503Y260228D01*
X155875Y259672D01*
X156431Y259301D01*
X157087Y259170D01*
X157554Y259263D01*
X158239Y258578D01*
Y257370D01*
X157843Y257105D01*
X157472Y256549D01*
X157341Y255893D01*
X157472Y255237D01*
X157843Y254681D01*
X158399Y254309D01*
X159055Y254179D01*
X159711Y254309D01*
X160267Y254681D01*
X160639Y255237D01*
X160769Y255893D01*
X160639Y256549D01*
X160267Y257105D01*
X159871Y257370D01*
Y258916D01*
X159809Y259228D01*
X159632Y259493D01*
X159632Y259493D01*
X158708Y260417D01*
X158801Y260884D01*
X158670Y261540D01*
X158299Y262096D01*
X157743Y262468D01*
X157087Y262598D01*
D02*
G37*
G36*
X137213Y244988D02*
X132079D01*
Y240248D01*
X137213D01*
Y244988D01*
D02*
G37*
G36*
X127559Y249352D02*
X126903Y249221D01*
X126347Y248850D01*
X125976Y248294D01*
X125845Y247638D01*
X125976Y246982D01*
X125982Y246973D01*
X125801Y246792D01*
X125624Y246527D01*
X125562Y246215D01*
X125562Y246215D01*
Y244988D01*
X123811D01*
Y240248D01*
X128945D01*
Y244988D01*
X127194D01*
Y245487D01*
X127559Y245924D01*
X128215Y246054D01*
X128771Y246426D01*
X129143Y246982D01*
X129273Y247638D01*
X129143Y248294D01*
X128771Y248850D01*
X128215Y249221D01*
X127559Y249352D01*
D02*
G37*
G36*
X145694Y235179D02*
X145038Y235048D01*
X144482Y234677D01*
X144111Y234120D01*
X143980Y233465D01*
X144073Y232997D01*
X143449Y232373D01*
X143272Y232108D01*
X143210Y231796D01*
X143210Y231796D01*
Y230698D01*
X142710Y230491D01*
X139976Y233225D01*
X139711Y233402D01*
X139399Y233464D01*
X139399Y233464D01*
X138902D01*
X138902Y233464D01*
X138590Y233402D01*
X138325Y233225D01*
X138325Y233225D01*
X137846Y232746D01*
X137379Y232839D01*
X136723Y232709D01*
X136167Y232337D01*
X135795Y231781D01*
X135665Y231125D01*
X135795Y230469D01*
X136167Y229913D01*
X136702Y229556D01*
X136786Y229300D01*
X136847Y229063D01*
X136590Y228756D01*
X134442D01*
X134206Y229197D01*
X134261Y229278D01*
X134391Y229934D01*
X134261Y230590D01*
X133889Y231146D01*
X133333Y231518D01*
X132677Y231648D01*
X132021Y231518D01*
X131465Y231146D01*
X131333Y230949D01*
X131074Y230987D01*
X130832Y231099D01*
X130717Y231677D01*
X130346Y232233D01*
X129790Y232605D01*
X129134Y232735D01*
X128478Y232605D01*
X127922Y232233D01*
X127550Y231677D01*
X127520Y231524D01*
X66058D01*
X64722Y232860D01*
X64458Y233037D01*
X64146Y233099D01*
X64146Y233099D01*
X39324D01*
X39324Y233099D01*
X39012Y233037D01*
X38748Y232860D01*
X38748Y232860D01*
X32494Y226607D01*
X32317Y226342D01*
X32255Y226030D01*
X32255Y226030D01*
Y224705D01*
X31859Y224440D01*
X31487Y223884D01*
X31357Y223228D01*
X31487Y222572D01*
X31859Y222016D01*
X32415Y221645D01*
X33071Y221514D01*
X33727Y221645D01*
X34283Y222016D01*
X34654Y222572D01*
X34785Y223228D01*
X34654Y223884D01*
X34283Y224440D01*
X33887Y224705D01*
Y225692D01*
X35717Y227523D01*
X36196Y227378D01*
X36212Y227297D01*
X36583Y226741D01*
X37139Y226369D01*
X37795Y226239D01*
X38451Y226369D01*
X39007Y226741D01*
X39379Y227297D01*
X39509Y227953D01*
X39416Y228420D01*
X41202Y230206D01*
X63151D01*
X63198Y230127D01*
X63198Y230118D01*
X62929Y229603D01*
X62533Y229524D01*
X61977Y229152D01*
X61605Y228596D01*
X61475Y227940D01*
X61605Y227284D01*
X61651Y227216D01*
X61415Y226775D01*
X50368D01*
X50368Y226775D01*
X50056Y226713D01*
X49792Y226536D01*
X49792Y226536D01*
X48499Y225243D01*
X48031Y225336D01*
X47376Y225206D01*
X46819Y224834D01*
X46448Y224278D01*
X46317Y223622D01*
X46448Y222966D01*
X46819Y222410D01*
X47376Y222039D01*
X48031Y221908D01*
X48687Y222039D01*
X49244Y222410D01*
X49615Y222966D01*
X49746Y223622D01*
X49652Y224090D01*
X50706Y225143D01*
X139390D01*
X139390Y225143D01*
X139702Y225205D01*
X139967Y225382D01*
X140455Y225870D01*
X140917Y225678D01*
Y222198D01*
X140520Y221933D01*
X140149Y221377D01*
X140018Y220722D01*
X140149Y220065D01*
X140520Y219510D01*
X141076Y219138D01*
X141732Y219007D01*
X142388Y219138D01*
X142944Y219510D01*
X143316Y220065D01*
X143446Y220722D01*
X143316Y221377D01*
X142944Y221933D01*
X142548Y222198D01*
Y226407D01*
X144559Y228418D01*
X144601Y228452D01*
X144634Y228451D01*
X145093Y228296D01*
Y224302D01*
X145013Y224286D01*
X144457Y223915D01*
X144086Y223358D01*
X143955Y222703D01*
X144086Y222047D01*
X144457Y221491D01*
X145013Y221119D01*
X145669Y220988D01*
X146325Y221119D01*
X146881Y221491D01*
X147253Y222047D01*
X147383Y222703D01*
X147253Y223358D01*
X146881Y223915D01*
X146724Y224019D01*
Y228334D01*
X146804Y228350D01*
X147360Y228722D01*
X147731Y229278D01*
X147862Y229934D01*
X147731Y230590D01*
X147360Y231146D01*
X146804Y231518D01*
X146729Y231532D01*
X146623Y232063D01*
X146906Y232253D01*
X147278Y232809D01*
X147408Y233465D01*
X147278Y234120D01*
X146906Y234677D01*
X146350Y235048D01*
X145694Y235179D01*
D02*
G37*
G36*
X185827Y193053D02*
X185661Y193020D01*
X183850D01*
Y189657D01*
X185661D01*
X185827Y189625D01*
X185992Y189657D01*
X187803D01*
Y193020D01*
X185992D01*
X185827Y193053D01*
D02*
G37*
G36*
X180972Y196169D02*
X173673D01*
Y188870D01*
X180972D01*
Y196169D01*
D02*
G37*
G36*
X167323Y196201D02*
X166370Y196075D01*
X165482Y195708D01*
X164720Y195123D01*
X164135Y194360D01*
X163767Y193473D01*
X163642Y192520D01*
X163767Y191567D01*
X164135Y190679D01*
X164720Y189917D01*
X165482Y189332D01*
X166370Y188964D01*
X167323Y188839D01*
X168275Y188964D01*
X169163Y189332D01*
X169926Y189917D01*
X170511Y190679D01*
X170878Y191567D01*
X171004Y192520D01*
X170878Y193473D01*
X170511Y194360D01*
X169926Y195123D01*
X169163Y195708D01*
X168275Y196075D01*
X167323Y196201D01*
D02*
G37*
G36*
X196465Y189280D02*
X192512D01*
Y185917D01*
X196465D01*
Y189280D01*
D02*
G37*
G36*
X119299Y163295D02*
X112984D01*
Y157965D01*
X119299D01*
Y158895D01*
X121055D01*
Y158358D01*
X126189D01*
Y163099D01*
X121055D01*
Y162463D01*
X119299D01*
Y163295D01*
D02*
G37*
G36*
X157087Y166142D02*
X156431Y166011D01*
X155875Y165640D01*
X155503Y165084D01*
X155373Y164428D01*
X155503Y163772D01*
X155875Y163216D01*
X156431Y162844D01*
X157087Y162714D01*
X157554Y162807D01*
X158239Y162121D01*
Y160913D01*
X157843Y160648D01*
X157472Y160092D01*
X157341Y159436D01*
X157472Y158780D01*
X157843Y158224D01*
X158399Y157853D01*
X159055Y157722D01*
X159711Y157853D01*
X160267Y158224D01*
X160639Y158780D01*
X160769Y159436D01*
X160639Y160092D01*
X160267Y160648D01*
X159871Y160913D01*
Y162459D01*
X159809Y162771D01*
X159632Y163036D01*
X159632Y163036D01*
X158708Y163960D01*
X158801Y164428D01*
X158670Y165084D01*
X158299Y165640D01*
X157743Y166011D01*
X157087Y166142D01*
D02*
G37*
G36*
X137213Y148531D02*
X132079D01*
Y143791D01*
X137213D01*
Y148531D01*
D02*
G37*
G36*
X127559Y152895D02*
X126903Y152765D01*
X126347Y152393D01*
X125976Y151837D01*
X125845Y151181D01*
X125976Y150525D01*
X125982Y150516D01*
X125801Y150335D01*
X125624Y150071D01*
X125562Y149759D01*
X125562Y149759D01*
Y148531D01*
X123811D01*
Y143791D01*
X128945D01*
Y148531D01*
X127194D01*
Y149031D01*
X127559Y149467D01*
X128215Y149598D01*
X128771Y149969D01*
X129143Y150525D01*
X129273Y151181D01*
X129143Y151837D01*
X128771Y152393D01*
X128215Y152765D01*
X127559Y152895D01*
D02*
G37*
G36*
X145694Y138722D02*
X145038Y138592D01*
X144482Y138220D01*
X144111Y137664D01*
X143980Y137008D01*
X144073Y136540D01*
X143449Y135916D01*
X143272Y135651D01*
X143210Y135339D01*
X143210Y135339D01*
Y134241D01*
X142710Y134034D01*
X139976Y136768D01*
X139711Y136945D01*
X139399Y137007D01*
X139399Y137007D01*
X138902D01*
X138902Y137007D01*
X138590Y136945D01*
X138325Y136768D01*
X138325Y136768D01*
X137846Y136290D01*
X137379Y136383D01*
X136723Y136252D01*
X136167Y135881D01*
X135795Y135325D01*
X135665Y134669D01*
X135795Y134013D01*
X136167Y133457D01*
X136702Y133099D01*
X136786Y132843D01*
X136847Y132607D01*
X136590Y132299D01*
X134442D01*
X134206Y132740D01*
X134261Y132821D01*
X134391Y133477D01*
X134261Y134133D01*
X133889Y134689D01*
X133333Y135061D01*
X132677Y135191D01*
X132021Y135061D01*
X131465Y134689D01*
X131333Y134492D01*
X131074Y134531D01*
X130832Y134642D01*
X130717Y135221D01*
X130346Y135777D01*
X129790Y136148D01*
X129134Y136279D01*
X128478Y136148D01*
X127922Y135777D01*
X127550Y135221D01*
X127520Y135068D01*
X66058D01*
X64722Y136404D01*
X64458Y136580D01*
X64146Y136643D01*
X64146Y136643D01*
X39324D01*
X39324Y136643D01*
X39012Y136580D01*
X38748Y136404D01*
X38748Y136404D01*
X32494Y130150D01*
X32317Y129885D01*
X32255Y129573D01*
X32255Y129573D01*
Y128249D01*
X31859Y127984D01*
X31487Y127428D01*
X31357Y126772D01*
X31487Y126116D01*
X31859Y125560D01*
X32415Y125188D01*
X33071Y125058D01*
X33727Y125188D01*
X34283Y125560D01*
X34654Y126116D01*
X34785Y126772D01*
X34654Y127428D01*
X34283Y127984D01*
X33887Y128249D01*
Y129235D01*
X35717Y131066D01*
X36196Y130921D01*
X36212Y130840D01*
X36583Y130284D01*
X37139Y129912D01*
X37795Y129782D01*
X38451Y129912D01*
X39007Y130284D01*
X39379Y130840D01*
X39509Y131496D01*
X39416Y131964D01*
X41202Y133749D01*
X63151D01*
X63198Y133670D01*
X63198Y133661D01*
X62929Y133146D01*
X62533Y133067D01*
X61977Y132695D01*
X61605Y132139D01*
X61475Y131483D01*
X61605Y130828D01*
X61651Y130759D01*
X61415Y130318D01*
X50368D01*
X50368Y130318D01*
X50056Y130256D01*
X49792Y130079D01*
X49792Y130079D01*
X48499Y128786D01*
X48031Y128879D01*
X47376Y128749D01*
X46819Y128377D01*
X46448Y127821D01*
X46317Y127165D01*
X46448Y126509D01*
X46819Y125953D01*
X47376Y125582D01*
X48031Y125451D01*
X48687Y125582D01*
X49244Y125953D01*
X49615Y126509D01*
X49746Y127165D01*
X49652Y127633D01*
X50706Y128687D01*
X139390D01*
X139390Y128687D01*
X139702Y128749D01*
X139967Y128926D01*
X140455Y129413D01*
X140917Y129222D01*
Y125742D01*
X140520Y125477D01*
X140149Y124921D01*
X140018Y124265D01*
X140149Y123609D01*
X140520Y123053D01*
X141076Y122681D01*
X141732Y122551D01*
X142388Y122681D01*
X142944Y123053D01*
X143316Y123609D01*
X143446Y124265D01*
X143316Y124921D01*
X142944Y125477D01*
X142548Y125742D01*
Y129951D01*
X144559Y131962D01*
X144601Y131996D01*
X144634Y131995D01*
X145093Y131839D01*
Y127845D01*
X145013Y127829D01*
X144457Y127458D01*
X144086Y126902D01*
X143955Y126246D01*
X144086Y125590D01*
X144457Y125034D01*
X145013Y124662D01*
X145669Y124532D01*
X146325Y124662D01*
X146881Y125034D01*
X147253Y125590D01*
X147383Y126246D01*
X147253Y126902D01*
X146881Y127458D01*
X146724Y127563D01*
Y131878D01*
X146804Y131894D01*
X147360Y132265D01*
X147731Y132821D01*
X147862Y133477D01*
X147731Y134133D01*
X147360Y134689D01*
X146804Y135061D01*
X146729Y135076D01*
X146623Y135607D01*
X146906Y135796D01*
X147278Y136352D01*
X147408Y137008D01*
X147278Y137664D01*
X146906Y138220D01*
X146350Y138592D01*
X145694Y138722D01*
D02*
G37*
%LPD*%
D12*
X47165Y369148D02*
Y370079D01*
X42701Y364683D02*
X47165Y369148D01*
X47047Y350000D02*
Y356029D01*
X42701Y360375D02*
X47047Y356029D01*
X42701Y360375D02*
Y364683D01*
X47165Y272691D02*
Y273622D01*
X42701Y268226D02*
X47165Y272691D01*
X47047Y253543D02*
Y259572D01*
X42701Y263918D02*
X47047Y259572D01*
X42701Y263918D02*
Y268226D01*
X47165Y176234D02*
Y177165D01*
X42701Y171770D02*
X47165Y176234D01*
X47047Y157087D02*
Y163115D01*
X42701Y167462D02*
X47047Y163115D01*
X42701Y167462D02*
Y171770D01*
D13*
X161811Y363386D02*
X173044D01*
X201575D01*
X154331Y363780D02*
X161417D01*
X161811Y363386D01*
X116142Y353543D02*
X116191Y353592D01*
X123573D01*
X123622Y353642D01*
X161811Y363386D02*
Y377165D01*
X161811Y363386D02*
X161811Y363386D01*
X177067Y309449D02*
Y313681D01*
X168307Y322441D02*
X177067Y313681D01*
X196850Y335433D02*
X197835D01*
X192913Y339370D02*
X196850Y335433D01*
X184449Y355906D02*
X184646D01*
X182480Y353937D02*
X184449Y355906D01*
X182283Y353937D02*
X182480D01*
X216535Y363780D02*
X220472D01*
X216535Y363780D02*
X216535Y363780D01*
X199606Y350000D02*
Y353937D01*
Y337205D02*
Y350000D01*
X190157Y350197D02*
X190354Y350000D01*
X199606D01*
X197835Y335433D02*
X199606Y337205D01*
X207608Y311417D02*
X210795D01*
X206890Y312136D02*
Y312205D01*
Y312136D02*
X207608Y311417D01*
X197835Y312205D02*
Y335433D01*
X205217Y329232D02*
X214173D01*
X199016Y335433D02*
X205217Y329232D01*
X197835Y335433D02*
X199016D01*
X214173Y329232D02*
Y333583D01*
X218376Y337786D01*
X218770D01*
X220079Y339094D01*
Y339488D01*
Y342520D02*
Y349488D01*
Y339488D02*
Y342520D01*
X212992Y343012D02*
X219587D01*
X220079Y342520D01*
X269193Y342126D02*
X276925D01*
X278499Y340551D01*
X279527D01*
X263730Y339370D02*
Y341978D01*
Y335187D02*
Y339370D01*
X256299Y339488D02*
X263612D01*
X263730Y339370D01*
X263878Y342126D02*
Y342421D01*
X265671Y344215D01*
Y344918D01*
X271305Y350551D01*
X279527D01*
X263583Y335039D02*
X263730Y335187D01*
Y341978D02*
X263878Y342126D01*
X263583Y335039D02*
Y335099D01*
X256299Y339094D02*
Y339488D01*
X269980Y327559D02*
X275507D01*
X278499Y330551D01*
X279527D01*
X256299Y329095D02*
X257608Y327785D01*
X258002D01*
X258228Y327559D01*
X264665D01*
X161811Y266929D02*
X173044D01*
X201575D01*
X154331Y267323D02*
X161417D01*
X161811Y266929D01*
X116142Y257087D02*
X116191Y257136D01*
X123573D01*
X123622Y257185D01*
X161811Y266929D02*
Y280709D01*
X161811Y266929D02*
X161811Y266929D01*
X177067Y212992D02*
Y217224D01*
X168307Y225984D02*
X177067Y217224D01*
X196850Y238976D02*
X197835D01*
X192913Y242913D02*
X196850Y238976D01*
X184449Y259449D02*
X184646D01*
X182480Y257480D02*
X184449Y259449D01*
X182283Y257480D02*
X182480D01*
X216535Y267323D02*
X220472D01*
X216535Y267323D02*
X216535Y267323D01*
X199606Y253543D02*
Y257480D01*
Y240748D02*
Y253543D01*
X190157Y253740D02*
X190354Y253543D01*
X199606D01*
X197835Y238976D02*
X199606Y240748D01*
X207608Y214961D02*
X210795D01*
X206890Y215679D02*
Y215748D01*
Y215679D02*
X207608Y214961D01*
X197835Y215748D02*
Y238976D01*
X205217Y232776D02*
X214173D01*
X199016Y238976D02*
X205217Y232776D01*
X197835Y238976D02*
X199016D01*
X214173Y232776D02*
Y237126D01*
X218376Y241329D01*
X218770D01*
X220079Y242638D01*
Y243032D01*
Y246063D02*
Y253031D01*
Y243032D02*
Y246063D01*
X212992Y246555D02*
X219587D01*
X220079Y246063D01*
X269193Y245669D02*
X276925D01*
X278499Y244094D01*
X279527D01*
X263730Y242913D02*
Y245522D01*
Y238730D02*
Y242913D01*
X256299Y243032D02*
X263612D01*
X263730Y242913D01*
X263878Y245669D02*
Y245965D01*
X265671Y247758D01*
Y248461D01*
X271305Y254095D01*
X279527D01*
X263583Y238583D02*
X263730Y238730D01*
Y245522D02*
X263878Y245669D01*
X263583Y238583D02*
Y238642D01*
X256299Y242638D02*
Y243032D01*
X269980Y231102D02*
X275507D01*
X278499Y234095D01*
X279527D01*
X256299Y232638D02*
X257608Y231329D01*
X258002D01*
X258228Y231102D01*
X264665D01*
X161811Y170473D02*
X173044D01*
X201575D01*
X154331Y170866D02*
X161417D01*
X161811Y170473D01*
X116142Y160630D02*
X116191Y160679D01*
X123573D01*
X123622Y160728D01*
X161811Y170473D02*
Y184252D01*
X161811Y170473D02*
X161811Y170473D01*
X177067Y116535D02*
Y120768D01*
X168307Y129528D02*
X177067Y120768D01*
X196850Y142520D02*
X197835D01*
X192913Y146457D02*
X196850Y142520D01*
X184449Y162992D02*
X184646D01*
X182480Y161024D02*
X184449Y162992D01*
X182283Y161024D02*
X182480D01*
X216535Y170866D02*
X220472D01*
X216535Y170866D02*
X216535Y170866D01*
X199606Y157087D02*
Y161024D01*
Y144291D02*
Y157087D01*
X190157Y157283D02*
X190354Y157087D01*
X199606D01*
X197835Y142520D02*
X199606Y144291D01*
X207608Y118504D02*
X210795D01*
X206890Y119222D02*
Y119291D01*
Y119222D02*
X207608Y118504D01*
X197835Y119291D02*
Y142520D01*
X205217Y136319D02*
X214173D01*
X199016Y142520D02*
X205217Y136319D01*
X197835Y142520D02*
X199016D01*
X214173Y136319D02*
Y140669D01*
X218376Y144872D01*
X218770D01*
X220079Y146181D01*
Y146575D01*
Y149606D02*
Y156575D01*
Y146575D02*
Y149606D01*
X212992Y150099D02*
X219587D01*
X220079Y149606D01*
X269193Y149213D02*
X276925D01*
X278499Y147638D01*
X279527D01*
X263730Y146457D02*
Y149065D01*
Y142274D02*
Y146457D01*
X256299Y146575D02*
X263612D01*
X263730Y146457D01*
X263878Y149213D02*
Y149508D01*
X265671Y151301D01*
Y152004D01*
X271305Y157638D01*
X279527D01*
X263583Y142126D02*
X263730Y142274D01*
Y149065D02*
X263878Y149213D01*
X263583Y142126D02*
Y142185D01*
X256299Y146181D02*
Y146575D01*
X269980Y134646D02*
X275507D01*
X278499Y137638D01*
X279527D01*
X256299Y136181D02*
X257608Y134872D01*
X258002D01*
X258228Y134646D01*
X264665D01*
D15*
X212598Y311417D02*
D03*
X217717D02*
D03*
X212598Y214961D02*
D03*
X217717D02*
D03*
X212598Y118504D02*
D03*
X217717D02*
D03*
D16*
X242126Y371260D02*
D03*
X236614D02*
D03*
X209449Y385039D02*
D03*
X214961D02*
D03*
X228740D02*
D03*
X223228D02*
D03*
X156299Y377165D02*
D03*
X161811D02*
D03*
X242126Y274803D02*
D03*
X236614D02*
D03*
X209449Y288583D02*
D03*
X214961D02*
D03*
X228740D02*
D03*
X223228D02*
D03*
X156299Y280709D02*
D03*
X161811D02*
D03*
X242126Y178347D02*
D03*
X236614D02*
D03*
X209449Y192126D02*
D03*
X214961D02*
D03*
X228740D02*
D03*
X223228D02*
D03*
X156299Y184252D02*
D03*
X161811D02*
D03*
D17*
X256299Y329488D02*
D03*
Y319488D02*
D03*
X220079Y329488D02*
D03*
Y319488D02*
D03*
X256299Y349488D02*
D03*
Y339488D02*
D03*
X220079Y349488D02*
D03*
Y339488D02*
D03*
X256299Y233032D02*
D03*
Y223031D02*
D03*
X220079Y233032D02*
D03*
Y223031D02*
D03*
X256299Y253031D02*
D03*
Y243032D02*
D03*
X220079Y253031D02*
D03*
Y243032D02*
D03*
X256299Y136575D02*
D03*
Y126575D02*
D03*
X220079Y136575D02*
D03*
Y126575D02*
D03*
X256299Y156575D02*
D03*
Y146575D02*
D03*
X220079Y156575D02*
D03*
Y146575D02*
D03*
D19*
X230315Y369291D02*
D03*
Y363780D02*
D03*
X203150Y388189D02*
D03*
Y382677D02*
D03*
X220472Y369291D02*
D03*
Y363780D02*
D03*
X51691Y375909D02*
D03*
Y381421D02*
D03*
X61927Y375909D02*
D03*
Y381421D02*
D03*
X72163Y375909D02*
D03*
Y381421D02*
D03*
X81612Y375909D02*
D03*
Y381421D02*
D03*
X230315Y272835D02*
D03*
Y267323D02*
D03*
X203150Y291732D02*
D03*
Y286221D02*
D03*
X220472Y272835D02*
D03*
Y267323D02*
D03*
X51691Y279452D02*
D03*
Y284964D02*
D03*
X61927Y279452D02*
D03*
Y284964D02*
D03*
X72163Y279452D02*
D03*
Y284964D02*
D03*
X81612Y279452D02*
D03*
Y284964D02*
D03*
X230315Y176378D02*
D03*
Y170866D02*
D03*
X203150Y195276D02*
D03*
Y189764D02*
D03*
X220472Y176378D02*
D03*
Y170866D02*
D03*
X51691Y182996D02*
D03*
Y188507D02*
D03*
X61927Y182996D02*
D03*
Y188507D02*
D03*
X72163Y182996D02*
D03*
Y188507D02*
D03*
X81612Y182996D02*
D03*
Y188507D02*
D03*
D21*
X190157Y357677D02*
D03*
Y350197D02*
D03*
X182283Y353937D02*
D03*
X190157Y261221D02*
D03*
Y253740D02*
D03*
X182283Y257480D02*
D03*
X190157Y164764D02*
D03*
Y157283D02*
D03*
X182283Y161024D02*
D03*
D22*
X269193Y342126D02*
D03*
X263878D02*
D03*
X264665Y327559D02*
D03*
X269980D02*
D03*
X269193Y245669D02*
D03*
X263878D02*
D03*
X264665Y231102D02*
D03*
X269980D02*
D03*
X269193Y149213D02*
D03*
X263878D02*
D03*
X264665Y134646D02*
D03*
X269980D02*
D03*
D23*
X185827Y384252D02*
D03*
X194488Y380512D02*
D03*
Y387992D02*
D03*
X185827Y287795D02*
D03*
X194488Y284055D02*
D03*
Y291535D02*
D03*
X185827Y191339D02*
D03*
X194488Y187599D02*
D03*
Y195079D02*
D03*
D24*
X214173Y329232D02*
D03*
Y323524D02*
D03*
X126378Y339075D02*
D03*
Y333366D02*
D03*
X134646Y339075D02*
D03*
Y333366D02*
D03*
X123622Y353642D02*
D03*
Y347933D02*
D03*
X214173Y232776D02*
D03*
Y227067D02*
D03*
X126378Y242618D02*
D03*
Y236910D02*
D03*
X134646Y242618D02*
D03*
Y236910D02*
D03*
X123622Y257185D02*
D03*
Y251476D02*
D03*
X214173Y136319D02*
D03*
Y130610D02*
D03*
X126378Y146161D02*
D03*
Y140453D02*
D03*
X134646Y146161D02*
D03*
Y140453D02*
D03*
X123622Y160728D02*
D03*
Y155020D02*
D03*
D25*
X116142Y353543D02*
D03*
Y348031D02*
D03*
Y257087D02*
D03*
Y251575D02*
D03*
Y160630D02*
D03*
Y155118D02*
D03*
D28*
X242126Y371260D02*
X243794Y372928D01*
Y374899D01*
X243898Y375002D01*
Y377658D01*
X104019Y384189D02*
X104744Y383465D01*
X147263D01*
X136995Y324397D02*
X139054Y326455D01*
X139709Y325800D01*
X137379Y327582D02*
X137379D01*
X139390Y322416D02*
X142491Y325516D01*
X137379Y327582D02*
X138902Y329105D01*
X50368Y322416D02*
X139390D01*
X142491Y325516D02*
Y326013D01*
X139399Y329105D02*
X142491Y326013D01*
X139709Y325800D02*
X139902D01*
X154224Y367588D02*
Y381836D01*
X157323Y384934D01*
Y385433D01*
X171260Y348031D02*
X174543Y344748D01*
X175266D01*
X175603Y344411D01*
X151562Y359500D02*
Y364926D01*
X152756Y358268D02*
Y358307D01*
X151562Y359500D02*
X152756Y358307D01*
X149362Y356756D02*
Y365838D01*
X150462Y357280D02*
Y365382D01*
Y357280D02*
X152243Y355499D01*
X149362Y356756D02*
X151113Y355006D01*
X150462Y365382D02*
X151529Y366449D01*
X149362Y365838D02*
X150429Y366905D01*
X144026Y325495D02*
Y328253D01*
X145694Y329921D01*
X138902Y329105D02*
X139399D01*
X63189Y324397D02*
X136995D01*
X145909Y319399D02*
Y326151D01*
X146148Y326391D01*
X141732Y323202D02*
X144026Y325495D01*
X141732Y317178D02*
Y323202D01*
X39324Y328740D02*
X64146D01*
X65720Y327165D01*
X128821D01*
X40864Y327478D02*
X63852D01*
X65833Y325497D01*
X129954D01*
X48031Y320079D02*
X50368Y322416D01*
X128821Y327165D02*
X129134Y327478D01*
X145669Y319159D02*
X145909Y319399D01*
X130836Y326378D02*
X132665D01*
X132677Y326391D01*
X129954Y325497D02*
X130836Y326378D01*
X33071Y322487D02*
X39324Y328740D01*
X33071Y320473D02*
Y322487D01*
X236614Y364173D02*
Y371260D01*
X230709Y358268D02*
X236614Y364173D01*
X229606Y370000D02*
X230315Y369291D01*
X215090Y350523D02*
Y351143D01*
X212992Y348425D02*
X215090Y350523D01*
Y351143D02*
X223199Y359252D01*
X226260D01*
X202756Y387795D02*
X203150Y388189D01*
X197638Y387795D02*
X202756D01*
X201575Y363386D02*
Y371309D01*
X203150Y378420D02*
X203556Y378014D01*
X203150Y378420D02*
Y382677D01*
X203556Y373290D02*
Y378014D01*
X201575Y371309D02*
X203556Y373290D01*
X105199Y384565D02*
X147719D01*
X104331Y385433D02*
X105199Y384565D01*
X147263Y383465D02*
X150429Y380299D01*
X147719Y384565D02*
X151529Y380754D01*
Y366449D02*
Y380754D01*
X55900Y385433D02*
X104331D01*
X150429Y366905D02*
Y380299D01*
X148262Y376609D02*
X148425Y376772D01*
X148262Y356300D02*
Y376609D01*
X142907Y350813D02*
X148031D01*
X130252Y363468D02*
X142907Y350813D01*
X141339Y353937D02*
X147824D01*
X130708Y364568D02*
X141339Y353937D01*
X143376Y348788D02*
X145288D01*
X129797Y362368D02*
X143376Y348788D01*
X106474Y362368D02*
X129797D01*
X105562Y364568D02*
X130708D01*
X106018Y363468D02*
X130252D01*
X147824Y353937D02*
X147997Y353764D01*
X148262Y356300D02*
X150013Y354550D01*
Y346890D02*
Y354550D01*
X151113Y346434D02*
Y355006D01*
X152243Y345693D02*
Y355499D01*
X151562Y364926D02*
X154224Y367588D01*
X159055Y352350D02*
Y355373D01*
X157087Y357341D02*
X159055Y355373D01*
X152243Y345693D02*
X152905Y345031D01*
X147594Y346807D02*
X147637Y346850D01*
X149674Y346552D02*
X150013Y346890D01*
X149674Y343708D02*
Y346552D01*
X150775Y346096D02*
X151113Y346434D01*
X150775Y344360D02*
Y346096D01*
X143698Y346807D02*
X147594D01*
X129237Y361268D02*
X143698Y346807D01*
X128782Y360168D02*
X145249Y343701D01*
X128326Y359068D02*
X155898Y331496D01*
X151725Y341153D02*
X151737Y341164D01*
X151725Y341102D02*
Y341153D01*
X152084Y343050D02*
X152579D01*
X154517Y342726D02*
X154745Y342498D01*
X152903Y342726D02*
X154517D01*
X152579Y343050D02*
X152903Y342726D01*
X150775Y344360D02*
X152084Y343050D01*
X145249Y343701D02*
X147638D01*
X104774Y363780D02*
X105562Y364568D01*
X104349Y361799D02*
X106018Y363468D01*
X104805Y360699D02*
X106474Y362368D01*
X106929Y361268D02*
X129237D01*
X105260Y359598D02*
X106929Y361268D01*
X107385Y360168D02*
X128782D01*
X105716Y358499D02*
X107385Y360168D01*
X108948Y356298D02*
X109736Y357086D01*
X61024Y356298D02*
X108948D01*
X53543Y363780D02*
X61024Y356298D01*
X109736Y357086D02*
X109842D01*
X106966Y357399D02*
X108636Y359068D01*
X68586Y357399D02*
X106966D01*
X62205Y363780D02*
X68586Y357399D01*
X108636Y359068D02*
X128326D01*
X76147Y358499D02*
X105716D01*
X70866Y363780D02*
X76147Y358499D01*
X83709Y359598D02*
X105260D01*
X79527Y363780D02*
X83709Y359598D01*
X90876Y360699D02*
X104805D01*
X87795Y363780D02*
X90876Y360699D01*
X101575Y363780D02*
X104774D01*
X99225Y361799D02*
X104349D01*
X108426Y354017D02*
X108658D01*
X108413Y354031D02*
X108426Y354017D01*
X55230Y354031D02*
X108413D01*
X45481Y363780D02*
X55230Y354031D01*
X155898Y331496D02*
X155905D01*
X93701Y363780D02*
X97244D01*
X99225Y361799D01*
X44882Y363780D02*
X45481D01*
X170089Y355706D02*
X170694Y356312D01*
X178740Y351378D02*
X178937Y351575D01*
X171457Y351378D02*
X178740D01*
X200765Y355987D02*
X204163Y352589D01*
X194752Y355987D02*
X200765D01*
X194067Y355302D02*
X194752Y355987D01*
X188054Y355302D02*
X194067D01*
X186775Y356582D02*
X188054Y355302D01*
X204163Y345117D02*
Y352589D01*
X185495Y357956D02*
X186775Y356676D01*
Y356582D02*
Y356676D01*
X182759Y357956D02*
X185495D01*
X210535Y345969D02*
X212992Y348425D01*
X170694Y356312D02*
X181115D01*
X182759Y357956D01*
X204163Y345117D02*
X205785Y343495D01*
X210535Y345952D02*
Y345969D01*
X208079Y343495D02*
X210535Y345952D01*
X205785Y343495D02*
X208079D01*
X194488Y387992D02*
X194685Y387795D01*
X197638D01*
X219606Y370158D02*
X220472Y369291D01*
X219606Y370158D02*
Y376378D01*
X214961Y385039D02*
X223228D01*
X229606Y376378D02*
X231057D01*
X233025Y374410D01*
X243898Y377658D02*
Y377953D01*
X243017Y376776D02*
X243898Y377658D01*
X242721Y376776D02*
X243017D01*
X240354Y374410D02*
X242721Y376776D01*
X233025Y374410D02*
X240354D01*
X229606Y370000D02*
Y376378D01*
X228740Y385039D02*
X238878D01*
X240157Y386319D01*
Y386614D01*
X229134Y363780D02*
X230315D01*
X224803Y368110D02*
X229134Y363780D01*
X224803Y368110D02*
Y379134D01*
X223228Y380709D02*
Y385039D01*
Y380709D02*
X224803Y379134D01*
X256299Y329488D02*
Y329882D01*
Y329095D02*
Y329488D01*
X252940Y333241D02*
X256299Y329882D01*
X252087Y359252D02*
X252940Y358399D01*
Y333241D02*
Y358399D01*
X212992Y348327D02*
Y348425D01*
X223622Y356614D02*
X226260Y359252D01*
X223622Y333425D02*
Y356614D01*
X220079Y329488D02*
Y329882D01*
X223622Y333425D01*
X171260Y351181D02*
X171457Y351378D01*
X126378Y339075D02*
Y342672D01*
X127559Y343853D01*
Y344094D01*
X37795Y324410D02*
X40864Y327478D01*
X149674Y343708D02*
X151737Y341646D01*
Y341164D02*
Y341646D01*
X64893Y384189D02*
X104019D01*
X51691Y381421D02*
X51888D01*
X55900Y385433D01*
X62124Y381421D02*
X64893Y384189D01*
X61927Y381421D02*
X62124D01*
X72122D02*
X72163D01*
X72047Y381496D02*
X72122Y381421D01*
X81571D02*
X81612D01*
X81496Y381496D02*
X81571Y381421D01*
X242126Y274803D02*
X243794Y276472D01*
Y278443D01*
X243898Y278546D01*
Y281201D01*
X104019Y287733D02*
X104744Y287008D01*
X147263D01*
X136995Y227940D02*
X139054Y229999D01*
X139709Y229343D01*
X137379Y231125D02*
X137379D01*
X139390Y225959D02*
X142491Y229060D01*
X137379Y231125D02*
X138902Y232648D01*
X50368Y225959D02*
X139390D01*
X142491Y229060D02*
Y229556D01*
X139399Y232648D02*
X142491Y229556D01*
X139709Y229343D02*
X139902D01*
X154224Y271132D02*
Y285379D01*
X157323Y288477D01*
Y288976D01*
X171260Y251575D02*
X174543Y248291D01*
X175266D01*
X175603Y247954D01*
X151562Y263043D02*
Y268470D01*
X152756Y261811D02*
Y261850D01*
X151562Y263043D02*
X152756Y261850D01*
X149362Y260299D02*
Y269381D01*
X150462Y260824D02*
Y268925D01*
Y260824D02*
X152243Y259043D01*
X149362Y260299D02*
X151113Y258549D01*
X150462Y268925D02*
X151529Y269992D01*
X149362Y269381D02*
X150429Y270448D01*
X144026Y229039D02*
Y231796D01*
X145694Y233465D01*
X138902Y232648D02*
X139399D01*
X63189Y227940D02*
X136995D01*
X145909Y222942D02*
Y229695D01*
X146148Y229934D01*
X141732Y226745D02*
X144026Y229039D01*
X141732Y220722D02*
Y226745D01*
X39324Y232283D02*
X64146D01*
X65720Y230709D01*
X128821D01*
X40864Y231021D02*
X63852D01*
X65833Y229040D01*
X129954D01*
X48031Y223622D02*
X50368Y225959D01*
X128821Y230709D02*
X129134Y231021D01*
X145669Y222703D02*
X145909Y222942D01*
X130836Y229922D02*
X132665D01*
X132677Y229934D01*
X129954Y229040D02*
X130836Y229922D01*
X33071Y226030D02*
X39324Y232283D01*
X33071Y224016D02*
Y226030D01*
X236614Y267717D02*
Y274803D01*
X230709Y261811D02*
X236614Y267717D01*
X229606Y273543D02*
X230315Y272835D01*
X215090Y254067D02*
Y254686D01*
X212992Y251969D02*
X215090Y254067D01*
Y254686D02*
X223199Y262795D01*
X226260D01*
X202756Y291339D02*
X203150Y291732D01*
X197638Y291339D02*
X202756D01*
X201575Y266929D02*
Y274852D01*
X203150Y281964D02*
X203556Y281557D01*
X203150Y281964D02*
Y286221D01*
X203556Y276833D02*
Y281557D01*
X201575Y274852D02*
X203556Y276833D01*
X105199Y288108D02*
X147719D01*
X104331Y288976D02*
X105199Y288108D01*
X147263Y287008D02*
X150429Y283842D01*
X147719Y288108D02*
X151529Y284298D01*
Y269992D02*
Y284298D01*
X55900Y288976D02*
X104331D01*
X150429Y270448D02*
Y283842D01*
X148262Y280152D02*
X148425Y280315D01*
X148262Y259844D02*
Y280152D01*
X142907Y254356D02*
X148031D01*
X130252Y267011D02*
X142907Y254356D01*
X141339Y257480D02*
X147824D01*
X130708Y268111D02*
X141339Y257480D01*
X143376Y252331D02*
X145288D01*
X129797Y265911D02*
X143376Y252331D01*
X106474Y265911D02*
X129797D01*
X105562Y268111D02*
X130708D01*
X106018Y267011D02*
X130252D01*
X147824Y257480D02*
X147997Y257307D01*
X148262Y259844D02*
X150013Y258093D01*
Y250433D02*
Y258093D01*
X151113Y249977D02*
Y258549D01*
X152243Y249236D02*
Y259043D01*
X151562Y268470D02*
X154224Y271132D01*
X159055Y255893D02*
Y258916D01*
X157087Y260884D02*
X159055Y258916D01*
X152243Y249236D02*
X152905Y248575D01*
X147594Y250350D02*
X147637Y250394D01*
X149674Y250095D02*
X150013Y250433D01*
X149674Y247251D02*
Y250095D01*
X150775Y249639D02*
X151113Y249977D01*
X150775Y247904D02*
Y249639D01*
X143698Y250350D02*
X147594D01*
X129237Y264811D02*
X143698Y250350D01*
X128782Y263711D02*
X145249Y247244D01*
X128326Y262611D02*
X155898Y235039D01*
X151725Y244696D02*
X151737Y244707D01*
X151725Y244645D02*
Y244696D01*
X152084Y246594D02*
X152579D01*
X154517Y246269D02*
X154745Y246042D01*
X152903Y246269D02*
X154517D01*
X152579Y246594D02*
X152903Y246269D01*
X150775Y247904D02*
X152084Y246594D01*
X145249Y247244D02*
X147638D01*
X104774Y267323D02*
X105562Y268111D01*
X104349Y265342D02*
X106018Y267011D01*
X104805Y264242D02*
X106474Y265911D01*
X106929Y264811D02*
X129237D01*
X105260Y263142D02*
X106929Y264811D01*
X107385Y263711D02*
X128782D01*
X105716Y262042D02*
X107385Y263711D01*
X108948Y259842D02*
X109736Y260630D01*
X61024Y259842D02*
X108948D01*
X53543Y267323D02*
X61024Y259842D01*
X109736Y260630D02*
X109842D01*
X106966Y260942D02*
X108636Y262611D01*
X68586Y260942D02*
X106966D01*
X62205Y267323D02*
X68586Y260942D01*
X108636Y262611D02*
X128326D01*
X76147Y262042D02*
X105716D01*
X70866Y267323D02*
X76147Y262042D01*
X83709Y263142D02*
X105260D01*
X79527Y267323D02*
X83709Y263142D01*
X90876Y264242D02*
X104805D01*
X87795Y267323D02*
X90876Y264242D01*
X101575Y267323D02*
X104774D01*
X99225Y265342D02*
X104349D01*
X108426Y257560D02*
X108658D01*
X108413Y257574D02*
X108426Y257560D01*
X55230Y257574D02*
X108413D01*
X45481Y267323D02*
X55230Y257574D01*
X155898Y235039D02*
X155905D01*
X93701Y267323D02*
X97244D01*
X99225Y265342D01*
X44882Y267323D02*
X45481D01*
X170089Y259250D02*
X170694Y259855D01*
X178740Y254921D02*
X178937Y255118D01*
X171457Y254921D02*
X178740D01*
X200765Y259530D02*
X204163Y256132D01*
X194752Y259530D02*
X200765D01*
X194067Y258846D02*
X194752Y259530D01*
X188054Y258846D02*
X194067D01*
X186775Y260125D02*
X188054Y258846D01*
X204163Y248660D02*
Y256132D01*
X185495Y261499D02*
X186775Y260219D01*
Y260125D02*
Y260219D01*
X182759Y261499D02*
X185495D01*
X210535Y249512D02*
X212992Y251969D01*
X170694Y259855D02*
X181115D01*
X182759Y261499D01*
X204163Y248660D02*
X205785Y247038D01*
X210535Y249495D02*
Y249512D01*
X208079Y247038D02*
X210535Y249495D01*
X205785Y247038D02*
X208079D01*
X194488Y291535D02*
X194685Y291339D01*
X197638D01*
X219606Y273701D02*
X220472Y272835D01*
X219606Y273701D02*
Y279921D01*
X214961Y288583D02*
X223228D01*
X229606Y279921D02*
X231057D01*
X233025Y277953D01*
X243898Y281201D02*
Y281496D01*
X243017Y280320D02*
X243898Y281201D01*
X242721Y280320D02*
X243017D01*
X240354Y277953D02*
X242721Y280320D01*
X233025Y277953D02*
X240354D01*
X229606Y273543D02*
Y279921D01*
X228740Y288583D02*
X238878D01*
X240157Y289862D01*
Y290158D01*
X229134Y267323D02*
X230315D01*
X224803Y271654D02*
X229134Y267323D01*
X224803Y271654D02*
Y282677D01*
X223228Y284252D02*
Y288583D01*
Y284252D02*
X224803Y282677D01*
X256299Y233032D02*
Y233425D01*
Y232638D02*
Y233032D01*
X252940Y236784D02*
X256299Y233425D01*
X252087Y262795D02*
X252940Y261942D01*
Y236784D02*
Y261942D01*
X212992Y251870D02*
Y251969D01*
X223622Y260157D02*
X226260Y262795D01*
X223622Y236968D02*
Y260157D01*
X220079Y233032D02*
Y233425D01*
X223622Y236968D01*
X171260Y254724D02*
X171457Y254921D01*
X126378Y242618D02*
Y246215D01*
X127559Y247396D01*
Y247638D01*
X37795Y227953D02*
X40864Y231021D01*
X149674Y247251D02*
X151737Y245189D01*
Y244707D02*
Y245189D01*
X64893Y287733D02*
X104019D01*
X51691Y284964D02*
X51888D01*
X55900Y288976D01*
X62124Y284964D02*
X64893Y287733D01*
X61927Y284964D02*
X62124D01*
X72122D02*
X72163D01*
X72047Y285039D02*
X72122Y284964D01*
X81571D02*
X81612D01*
X81496Y285039D02*
X81571Y284964D01*
X242126Y178347D02*
X243794Y180015D01*
Y181986D01*
X243898Y182089D01*
Y184744D01*
X104019Y191276D02*
X104744Y190551D01*
X147263D01*
X136995Y131483D02*
X139054Y133542D01*
X139709Y132887D01*
X137379Y134669D02*
X137379D01*
X139390Y129502D02*
X142491Y132603D01*
X137379Y134669D02*
X138902Y136192D01*
X50368Y129502D02*
X139390D01*
X142491Y132603D02*
Y133100D01*
X139399Y136192D02*
X142491Y133100D01*
X139709Y132887D02*
X139902D01*
X154224Y174675D02*
Y188922D01*
X157323Y192021D01*
Y192520D01*
X171260Y155118D02*
X174543Y151834D01*
X175266D01*
X175603Y151497D01*
X151562Y166587D02*
Y172013D01*
X152756Y165354D02*
Y165393D01*
X151562Y166587D02*
X152756Y165393D01*
X149362Y163843D02*
Y172924D01*
X150462Y164367D02*
Y172469D01*
Y164367D02*
X152243Y162586D01*
X149362Y163843D02*
X151113Y162092D01*
X150462Y172469D02*
X151529Y173536D01*
X149362Y172924D02*
X150429Y173991D01*
X144026Y132582D02*
Y135339D01*
X145694Y137008D01*
X138902Y136192D02*
X139399D01*
X63189Y131483D02*
X136995D01*
X145909Y126485D02*
Y133238D01*
X146148Y133477D01*
X141732Y130289D02*
X144026Y132582D01*
X141732Y124265D02*
Y130289D01*
X39324Y135827D02*
X64146D01*
X65720Y134252D01*
X128821D01*
X40864Y134565D02*
X63852D01*
X65833Y132583D01*
X129954D01*
X48031Y127165D02*
X50368Y129502D01*
X128821Y134252D02*
X129134Y134565D01*
X145669Y126246D02*
X145909Y126485D01*
X130836Y133465D02*
X132665D01*
X132677Y133477D01*
X129954Y132583D02*
X130836Y133465D01*
X33071Y129573D02*
X39324Y135827D01*
X33071Y127559D02*
Y129573D01*
X236614Y171260D02*
Y178347D01*
X230709Y165354D02*
X236614Y171260D01*
X229606Y177087D02*
X230315Y176378D01*
X215090Y157610D02*
Y158229D01*
X212992Y155512D02*
X215090Y157610D01*
Y158229D02*
X223199Y166339D01*
X226260D01*
X202756Y194882D02*
X203150Y195276D01*
X197638Y194882D02*
X202756D01*
X201575Y170473D02*
Y178395D01*
X203150Y185507D02*
X203556Y185101D01*
X203150Y185507D02*
Y189764D01*
X203556Y180376D02*
Y185101D01*
X201575Y178395D02*
X203556Y180376D01*
X105199Y191651D02*
X147719D01*
X104331Y192520D02*
X105199Y191651D01*
X147263Y190551D02*
X150429Y187385D01*
X147719Y191651D02*
X151529Y187841D01*
Y173536D02*
Y187841D01*
X55900Y192520D02*
X104331D01*
X150429Y173991D02*
Y187385D01*
X148262Y183695D02*
X148425Y183858D01*
X148262Y163387D02*
Y183695D01*
X142907Y157899D02*
X148031D01*
X130252Y170554D02*
X142907Y157899D01*
X141339Y161024D02*
X147824D01*
X130708Y171654D02*
X141339Y161024D01*
X143376Y155875D02*
X145288D01*
X129797Y169454D02*
X143376Y155875D01*
X106474Y169454D02*
X129797D01*
X105562Y171654D02*
X130708D01*
X106018Y170554D02*
X130252D01*
X147824Y161024D02*
X147997Y160851D01*
X148262Y163387D02*
X150013Y161636D01*
Y153977D02*
Y161636D01*
X151113Y153521D02*
Y162092D01*
X152243Y152780D02*
Y162586D01*
X151562Y172013D02*
X154224Y174675D01*
X159055Y159436D02*
Y162459D01*
X157087Y164428D02*
X159055Y162459D01*
X152243Y152780D02*
X152905Y152118D01*
X147594Y153893D02*
X147637Y153937D01*
X149674Y153638D02*
X150013Y153977D01*
X149674Y150795D02*
Y153638D01*
X150775Y153183D02*
X151113Y153521D01*
X150775Y151447D02*
Y153183D01*
X143698Y153893D02*
X147594D01*
X129237Y168354D02*
X143698Y153893D01*
X128782Y167254D02*
X145249Y150787D01*
X128326Y166154D02*
X155898Y138583D01*
X151725Y148239D02*
X151737Y148250D01*
X151725Y148189D02*
Y148239D01*
X152084Y150137D02*
X152579D01*
X154517Y149812D02*
X154745Y149585D01*
X152903Y149812D02*
X154517D01*
X152579Y150137D02*
X152903Y149812D01*
X150775Y151447D02*
X152084Y150137D01*
X145249Y150787D02*
X147638D01*
X104774Y170866D02*
X105562Y171654D01*
X104349Y168885D02*
X106018Y170554D01*
X104805Y167785D02*
X106474Y169454D01*
X106929Y168354D02*
X129237D01*
X105260Y166685D02*
X106929Y168354D01*
X107385Y167254D02*
X128782D01*
X105716Y165585D02*
X107385Y167254D01*
X108948Y163385D02*
X109736Y164173D01*
X61024Y163385D02*
X108948D01*
X53543Y170866D02*
X61024Y163385D01*
X109736Y164173D02*
X109842D01*
X106966Y164485D02*
X108636Y166154D01*
X68586Y164485D02*
X106966D01*
X62205Y170866D02*
X68586Y164485D01*
X108636Y166154D02*
X128326D01*
X76147Y165585D02*
X105716D01*
X70866Y170866D02*
X76147Y165585D01*
X83709Y166685D02*
X105260D01*
X79527Y170866D02*
X83709Y166685D01*
X90876Y167785D02*
X104805D01*
X87795Y170866D02*
X90876Y167785D01*
X101575Y170866D02*
X104774D01*
X99225Y168885D02*
X104349D01*
X108426Y161104D02*
X108658D01*
X108413Y161118D02*
X108426Y161104D01*
X55230Y161118D02*
X108413D01*
X45481Y170866D02*
X55230Y161118D01*
X155898Y138583D02*
X155905D01*
X93701Y170866D02*
X97244D01*
X99225Y168885D01*
X44882Y170866D02*
X45481D01*
X170089Y162793D02*
X170694Y163399D01*
X178740Y158465D02*
X178937Y158661D01*
X171457Y158465D02*
X178740D01*
X200765Y163074D02*
X204163Y159675D01*
X194752Y163074D02*
X200765D01*
X194067Y162389D02*
X194752Y163074D01*
X188054Y162389D02*
X194067D01*
X186775Y163669D02*
X188054Y162389D01*
X204163Y152203D02*
Y159675D01*
X185495Y165042D02*
X186775Y163762D01*
Y163669D02*
Y163762D01*
X182759Y165042D02*
X185495D01*
X210535Y153055D02*
X212992Y155512D01*
X170694Y163399D02*
X181115D01*
X182759Y165042D01*
X204163Y152203D02*
X205785Y150582D01*
X210535Y153038D02*
Y153055D01*
X208079Y150582D02*
X210535Y153038D01*
X205785Y150582D02*
X208079D01*
X194488Y195079D02*
X194685Y194882D01*
X197638D01*
X219606Y177244D02*
X220472Y176378D01*
X219606Y177244D02*
Y183465D01*
X214961Y192126D02*
X223228D01*
X229606Y183465D02*
X231057D01*
X233025Y181496D01*
X243898Y184744D02*
Y185039D01*
X243017Y183863D02*
X243898Y184744D01*
X242721Y183863D02*
X243017D01*
X240354Y181496D02*
X242721Y183863D01*
X233025Y181496D02*
X240354D01*
X229606Y177087D02*
Y183465D01*
X228740Y192126D02*
X238878D01*
X240157Y193405D01*
Y193701D01*
X229134Y170866D02*
X230315D01*
X224803Y175197D02*
X229134Y170866D01*
X224803Y175197D02*
Y186221D01*
X223228Y187795D02*
Y192126D01*
Y187795D02*
X224803Y186221D01*
X256299Y136575D02*
Y136969D01*
Y136181D02*
Y136575D01*
X252940Y140328D02*
X256299Y136969D01*
X252087Y166339D02*
X252940Y165485D01*
Y140328D02*
Y165485D01*
X212992Y155413D02*
Y155512D01*
X223622Y163701D02*
X226260Y166339D01*
X223622Y140512D02*
Y163701D01*
X220079Y136575D02*
Y136969D01*
X223622Y140512D01*
X171260Y158268D02*
X171457Y158465D01*
X126378Y146161D02*
Y149759D01*
X127559Y150940D01*
Y151181D01*
X37795Y131496D02*
X40864Y134565D01*
X149674Y150795D02*
X151737Y148732D01*
Y148250D02*
Y148732D01*
X64893Y191276D02*
X104019D01*
X51691Y188507D02*
X51888D01*
X55900Y192520D01*
X62124Y188507D02*
X64893Y191276D01*
X61927Y188507D02*
X62124D01*
X72122D02*
X72163D01*
X72047Y188583D02*
X72122Y188507D01*
X81571D02*
X81612D01*
X81496Y188583D02*
X81571Y188507D01*
D29*
X81612Y375909D02*
X81889Y375633D01*
Y370355D02*
Y375633D01*
Y370355D02*
X82165Y370079D01*
X72163Y375909D02*
X72164Y375908D01*
Y370080D02*
Y375908D01*
Y370080D02*
X72165Y370079D01*
X61927Y375909D02*
X62046Y375790D01*
Y370198D02*
Y375790D01*
Y370198D02*
X62165Y370079D01*
X51691Y375909D02*
X51928Y375672D01*
Y370316D02*
Y375672D01*
Y370316D02*
X52165Y370079D01*
X32047Y350000D02*
X32106Y350059D01*
Y370020D01*
X32165Y370079D01*
X37047Y350000D02*
X37106Y350059D01*
Y370020D01*
X37165Y370079D01*
X81612Y279452D02*
X81889Y279176D01*
Y273899D02*
Y279176D01*
Y273899D02*
X82165Y273622D01*
X72163Y279452D02*
X72164Y279451D01*
Y273623D02*
Y279451D01*
Y273623D02*
X72165Y273622D01*
X61927Y279452D02*
X62046Y279333D01*
Y273741D02*
Y279333D01*
Y273741D02*
X62165Y273622D01*
X51691Y279452D02*
X51928Y279215D01*
Y273859D02*
Y279215D01*
Y273859D02*
X52165Y273622D01*
X32047Y253543D02*
X32106Y253602D01*
Y273563D01*
X32165Y273622D01*
X37047Y253543D02*
X37106Y253602D01*
Y273563D01*
X37165Y273622D01*
X81612Y182996D02*
X81889Y182719D01*
Y177442D02*
Y182719D01*
Y177442D02*
X82165Y177165D01*
X72163Y182996D02*
X72164Y182995D01*
Y177166D02*
Y182995D01*
Y177166D02*
X72165Y177165D01*
X61927Y182996D02*
X62046Y182877D01*
Y177284D02*
Y182877D01*
Y177284D02*
X62165Y177165D01*
X51691Y182996D02*
X51928Y182759D01*
Y177402D02*
Y182759D01*
Y177402D02*
X52165Y177165D01*
X32047Y157087D02*
X32106Y157146D01*
Y177106D01*
X32165Y177165D01*
X37047Y157087D02*
X37106Y157146D01*
Y177106D01*
X37165Y177165D01*
D30*
X42165Y366622D02*
Y370079D01*
X40951Y365408D02*
X42165Y366622D01*
X40951Y352031D02*
Y365408D01*
Y352031D02*
X42047Y350935D01*
Y350000D02*
Y350935D01*
X42165Y270166D02*
Y273622D01*
X40951Y268951D02*
X42165Y270166D01*
X40951Y255575D02*
Y268951D01*
Y255575D02*
X42047Y254478D01*
Y253543D02*
Y254478D01*
X42165Y173709D02*
Y177165D01*
X40951Y172494D02*
X42165Y173709D01*
X40951Y159118D02*
Y172494D01*
Y159118D02*
X42047Y158021D01*
Y157087D02*
Y158021D01*
D32*
X181905Y322260D02*
X182087Y322441D01*
X181905Y310319D02*
Y322260D01*
X206932Y346263D02*
Y346302D01*
X207087Y346457D01*
Y360630D01*
X207480Y361024D01*
X181905Y310319D02*
X182776Y309449D01*
X186220D01*
X188583Y311811D01*
X209606Y376378D02*
X210172Y375812D01*
Y371028D02*
Y375812D01*
Y371028D02*
X211220Y369980D01*
Y369685D02*
Y369980D01*
X203740Y369685D02*
X211220D01*
X181905Y225803D02*
X182087Y225984D01*
X181905Y213862D02*
Y225803D01*
X206932Y249807D02*
Y249845D01*
X207087Y250000D01*
Y264173D01*
X207480Y264567D01*
X181905Y213862D02*
X182776Y212992D01*
X186220D01*
X188583Y215354D01*
X209606Y279921D02*
X210172Y279355D01*
Y274572D02*
Y279355D01*
Y274572D02*
X211220Y273524D01*
Y273228D02*
Y273524D01*
X203740Y273228D02*
X211220D01*
X181905Y129347D02*
X182087Y129528D01*
X181905Y117405D02*
Y129347D01*
X206932Y153350D02*
Y153389D01*
X207087Y153543D01*
Y167717D01*
X207480Y168110D01*
X181905Y117405D02*
X182776Y116535D01*
X186220D01*
X188583Y118898D01*
X209606Y183465D02*
X210172Y182898D01*
Y178115D02*
Y182898D01*
Y178115D02*
X211220Y177067D01*
Y176772D02*
Y177067D01*
X203740Y176772D02*
X211220D01*
D37*
X290969Y88484D02*
X298647D01*
X298351Y92388D02*
X306812Y83927D01*
X292200Y92388D02*
X298351D01*
X306812Y83927D02*
X381245D01*
X304503Y93307D02*
X312783Y85027D01*
X376193D01*
X304278Y93307D02*
X304503D01*
X237686Y94157D02*
X238536Y93307D01*
X231831Y100012D02*
X237686Y94157D01*
X281138Y84976D02*
X284707Y88546D01*
X237968Y83976D02*
X282869D01*
X291740Y92848D02*
X292200Y92388D01*
X233114Y88830D02*
X237968Y83976D01*
X282869D02*
X291740Y92848D01*
X239311Y84976D02*
X281138D01*
X237531Y85827D02*
X238460D01*
X239311Y84976D01*
X233528Y89830D02*
X237531Y85827D01*
X238391Y90624D02*
X239461D01*
X235599Y94830D02*
X238705Y91724D01*
X240139Y86976D02*
X270286D01*
X230684Y94830D02*
X235599D01*
X237686Y94157D02*
X238344Y94816D01*
X237945Y86827D02*
X238874D01*
X270286Y86976D02*
X276618Y93307D01*
X233942Y90830D02*
X237945Y86827D01*
X238077Y89524D02*
X239006D01*
X235185Y93830D02*
X238391Y90624D01*
X238536Y93307D02*
X240115D01*
X213562Y90830D02*
X233942D01*
X213976Y91830D02*
X234356D01*
X238874Y86827D02*
X239725Y85976D01*
X278717D02*
X286048Y93307D01*
X234356Y91830D02*
X238359Y87827D01*
X234771Y92830D02*
X238077Y89524D01*
X153839Y95867D02*
X159258D01*
X238359Y87827D02*
X239289D01*
X222063Y92830D02*
X234771D01*
X239725Y85976D02*
X278717D01*
X164192Y100012D02*
X231831D01*
X238705Y91724D02*
X239917D01*
X149268Y95867D02*
X153839D01*
X239289Y87827D02*
X240139Y86976D01*
X228606Y93830D02*
X235185D01*
X230684Y94830D02*
Y95761D01*
X221747Y93146D02*
X222063Y92830D01*
X212832Y93910D02*
X213681Y93061D01*
X223679Y94161D02*
X224533D01*
X228274D02*
X228606Y93830D01*
X213529Y90862D02*
X213562Y90830D01*
X206078Y93146D02*
X208362Y90862D01*
X213681Y92125D02*
X213976Y91830D01*
X218381Y93146D02*
Y93233D01*
X225048Y98943D02*
X229161Y94830D01*
X230684D01*
X217741Y93873D02*
X218381Y93233D01*
Y93146D02*
X221747D01*
X224731Y94161D02*
Y94761D01*
X219896Y97943D02*
X223679Y94161D01*
X224533D02*
X228274D01*
X204280Y94943D02*
X206078Y93146D01*
X208362Y90862D02*
X213529D01*
X213681Y92125D02*
Y93061D01*
X170966Y98943D02*
X225048D01*
X239006Y89524D02*
X240554Y87976D01*
X268414D01*
X239461Y90624D02*
X241009Y89076D01*
X239917Y91724D02*
X241465Y90176D01*
X240115Y93307D02*
X242146Y91276D01*
X235182Y101112D02*
X242987Y93307D01*
X152958Y101112D02*
X235182D01*
X213147Y89830D02*
X233528D01*
X213115Y89862D02*
X213147Y89830D01*
X211627Y93910D02*
X212832D01*
X201403Y89862D02*
X213115D01*
X197801Y89930D02*
X198550Y90680D01*
X200585D01*
X201403Y89862D01*
X192539Y94943D02*
X204280D01*
X190902Y93307D02*
X192539Y94943D01*
X209593Y95943D02*
X211627Y93910D01*
X187387Y95943D02*
X209593D01*
X184751Y93307D02*
X187387Y95943D01*
X214671Y96943D02*
X217741Y93873D01*
X182235Y96943D02*
X214671D01*
X178599Y93307D02*
X182235Y96943D01*
X177084Y97943D02*
X219896D01*
X173413Y94273D02*
X177084Y97943D01*
X167791Y95768D02*
X170966Y98943D01*
X194306Y93012D02*
X201806D01*
X193775Y92481D02*
X194306Y93012D01*
X199350Y88749D02*
X199432Y88830D01*
X193498Y89930D02*
X197801D01*
X192446Y88878D02*
X193498Y89930D01*
X199432Y88830D02*
X211737D01*
X211850Y85630D02*
Y88717D01*
X211737Y88830D02*
X233114D01*
X211737D02*
X211850Y88717D01*
X154504Y88830D02*
X183636D01*
X191171Y89878D02*
X193775Y92481D01*
X184684Y89878D02*
X191171D01*
X181850Y85630D02*
X185098Y88878D01*
X184752Y91360D02*
X185837D01*
X187623Y93146D01*
X152931Y89930D02*
X183322D01*
X183636Y88830D02*
X184684Y89878D01*
X183322Y89930D02*
X184752Y91360D01*
X185098Y88878D02*
X192446D01*
X151904Y86230D02*
X154504Y88830D01*
X150331Y87330D02*
X152931Y89930D01*
X152382Y90936D02*
X179100D01*
X149876Y88430D02*
X152382Y90936D01*
X151826Y91936D02*
X173631D01*
X149420Y89530D02*
X151826Y91936D01*
X151270Y92936D02*
X167831D01*
X148965Y90630D02*
X151270Y92936D01*
X146231Y92830D02*
X149268Y95867D01*
X159258D02*
X159652Y95473D01*
X150715Y93936D02*
X160988D01*
X148509Y91730D02*
X150715Y93936D01*
X160988D02*
X162820Y95768D01*
X167831Y92936D02*
X169168Y94273D01*
X173631Y91936D02*
X175003Y93307D01*
X179100Y90936D02*
X181472Y93307D01*
X159652Y95473D02*
X164192Y100012D01*
X144444Y94980D02*
X144460Y94965D01*
Y94980D02*
X146826D01*
X140565D02*
X144444D01*
X138421Y94091D02*
Y94194D01*
X107728Y86230D02*
X151904D01*
X137115Y91730D02*
X148509D01*
X118681Y88430D02*
X149876D01*
X116909Y87330D02*
X150331D01*
X138421Y94091D02*
X139682Y92830D01*
X123733Y89530D02*
X149420D01*
X132063Y90630D02*
X148965D01*
X139682Y92830D02*
X146231D01*
X146826Y94980D02*
X152958Y101112D01*
X135538Y93307D02*
X137115Y91730D01*
X129386Y93307D02*
X132063Y90630D01*
X119956Y93307D02*
X123733Y89530D01*
X113804Y93307D02*
X118681Y88430D01*
X110932Y93307D02*
X116909Y87330D01*
X134433Y101112D02*
X140565Y94980D01*
X335261Y93307D02*
X338041Y90527D01*
X350936D01*
X353716Y93307D01*
X341412D02*
X347564D01*
X355987Y89427D02*
X359867Y93307D01*
X329109D02*
X332989Y89427D01*
X355987D01*
X328556Y100012D02*
X335261Y93307D01*
X322958D02*
X327938Y88327D01*
X361039D01*
X316806Y93307D02*
X322886Y87227D01*
X366090D01*
X372170Y93307D01*
X361039Y88327D02*
X366019Y93307D01*
X310655D02*
X317834Y86127D01*
X371142D01*
X376193Y85027D02*
X384473Y93307D01*
X371142Y86127D02*
X378322Y93307D01*
X381245Y83927D02*
X390625Y93307D01*
X333607Y101112D02*
X341412Y93307D01*
X313494Y96619D02*
X316806Y93307D01*
X277057Y96619D02*
X313494D01*
X283176Y93307D02*
X285388Y95519D01*
X303167Y94419D02*
X304278Y93307D01*
X308443Y95519D02*
X310655Y93307D01*
X289327D02*
X290439Y94419D01*
X285388Y95519D02*
X308443D01*
X290439Y94419D02*
X303167D01*
X286048Y93307D02*
X289327D01*
X273745D02*
X277057Y96619D01*
X276618Y93307D02*
X279897D01*
X283176D01*
X267594D02*
X272005Y97719D01*
X266954Y98819D02*
X323598D01*
X261442Y93307D02*
X266954Y98819D01*
X318546Y97719D02*
X322958Y93307D01*
X272005Y97719D02*
X318546D01*
X261996Y100012D02*
X328556D01*
X323598Y98819D02*
X329109Y93307D01*
X255290D02*
X261996Y100012D01*
X256944Y101112D02*
X333607D01*
X249139Y93307D02*
X256944Y101112D01*
X217741Y93873D02*
X218381Y94512D01*
X211627Y93910D02*
X212229Y94512D01*
X241009Y89076D02*
X263362D01*
X241465Y90176D02*
X258311D01*
X268414Y87976D02*
X273745Y93307D01*
X263362Y89076D02*
X267594Y93307D01*
X258311Y90176D02*
X261442Y93307D01*
X242146Y91276D02*
X253259D01*
X255290Y93307D01*
X242987D02*
X249139D01*
X162820Y95768D02*
X167791D01*
X95003Y92813D02*
X96520D01*
X169168Y94273D02*
X173413D01*
X175320Y93307D02*
X178599D01*
X181472D02*
X184751D01*
X187623D02*
X190902D01*
X175003D02*
X175320D01*
X101501Y92457D02*
X107728Y86230D01*
X60094Y101112D02*
X134433D01*
X132500Y100012D02*
X138319Y94194D01*
X65145Y100012D02*
X132500D01*
X116551Y96712D02*
X119956Y93307D01*
X107653D02*
X110932D01*
X126654Y98912D02*
X132259Y93307D01*
X111499Y95612D02*
X113804Y93307D01*
X126107D02*
X129386D01*
X132259D02*
X135538D01*
X94940Y92877D02*
X95003Y92813D01*
X96583Y92877D02*
X100577D01*
X96520Y92813D02*
X96583Y92877D01*
X100577D02*
X100997Y92457D01*
X101501D01*
X107567Y93307D02*
X107653D01*
X106386Y94488D02*
X107567Y93307D01*
X90465Y94488D02*
X106386D01*
X85990Y83927D02*
X94940Y92877D01*
X89198Y93307D02*
X89284D01*
X90465Y94488D01*
X83046Y93307D02*
X85351Y95612D01*
X111499D01*
X80300Y96712D02*
X116551D01*
X70743Y93307D02*
X75248Y97812D01*
X121602D02*
X126107Y93307D01*
X75248Y97812D02*
X121602D01*
X65763Y88327D02*
X70743Y93307D01*
X70197Y98912D02*
X126654D01*
X76895Y93307D02*
X80300Y96712D01*
X64592Y93307D02*
X70197Y98912D01*
X64592Y93307D02*
Y93307D01*
X80918Y85027D02*
X89198Y93307D01*
X70815Y87227D02*
X76895Y93307D01*
X58440D02*
X65145Y100012D01*
X46137Y93307D02*
X52288D01*
X60094Y101112D01*
X55660Y90527D02*
X58440Y93307D01*
X42765Y90527D02*
X55660D01*
X39985Y93307D02*
X42765Y90527D01*
X37714Y89427D02*
X60712D01*
X64592Y93307D01*
X33834Y93307D02*
X37714Y89427D01*
X27682Y93307D02*
X32662Y88327D01*
X65763D01*
X27610Y87227D02*
X70815D01*
X21531Y93307D02*
X27610Y87227D01*
X15379Y93307D02*
X22559Y86127D01*
X75866D02*
X83046Y93307D01*
X22559Y86127D02*
X75866D01*
X12911Y85027D02*
X80918D01*
X3076Y93307D02*
X12456Y83927D01*
X85990D01*
X9227Y88711D02*
X12911Y85027D01*
X9227Y88711D02*
Y93307D01*
X290969Y60925D02*
X298647D01*
X298351Y64829D02*
X306812Y56368D01*
X292200Y64829D02*
X298351D01*
X306812Y56368D02*
X381245D01*
X304503Y65748D02*
X312783Y57468D01*
X376193D01*
X304278Y65748D02*
X304503D01*
X237686Y66598D02*
X238536Y65748D01*
X231831Y72453D02*
X237686Y66598D01*
X281138Y57417D02*
X284707Y60987D01*
X237968Y56417D02*
X282869D01*
X291740Y65288D02*
X292200Y64829D01*
X233114Y61271D02*
X237968Y56417D01*
X282869D02*
X291740Y65288D01*
X239311Y57417D02*
X281138D01*
X237531Y58268D02*
X238460D01*
X239311Y57417D01*
X233528Y62271D02*
X237531Y58268D01*
X238391Y63065D02*
X239461D01*
X235599Y67271D02*
X238705Y64165D01*
X240139Y59417D02*
X270286D01*
X230684Y67271D02*
X235599D01*
X237686Y66598D02*
X238344Y67257D01*
X237945Y59268D02*
X238874D01*
X270286Y59417D02*
X276618Y65748D01*
X233942Y63271D02*
X237945Y59268D01*
X238077Y61965D02*
X239006D01*
X235185Y66271D02*
X238391Y63065D01*
X238536Y65748D02*
X240115D01*
X213562Y63271D02*
X233942D01*
X213976Y64271D02*
X234356D01*
X238874Y59268D02*
X239725Y58417D01*
X278717D02*
X286048Y65748D01*
X234356Y64271D02*
X238359Y60268D01*
X234771Y65271D02*
X238077Y61965D01*
X153839Y68308D02*
X159258D01*
X238359Y60268D02*
X239289D01*
X222063Y65271D02*
X234771D01*
X239725Y58417D02*
X278717D01*
X164192Y72453D02*
X231831D01*
X238705Y64165D02*
X239917D01*
X149268Y68308D02*
X153839D01*
X239289Y60268D02*
X240139Y59417D01*
X228606Y66271D02*
X235185D01*
X230684Y67271D02*
Y68202D01*
X221747Y65587D02*
X222063Y65271D01*
X212832Y66351D02*
X213681Y65502D01*
X223679Y66602D02*
X224533D01*
X228274D02*
X228606Y66271D01*
X213529Y63303D02*
X213562Y63271D01*
X206078Y65587D02*
X208362Y63303D01*
X213681Y64566D02*
X213976Y64271D01*
X218381Y65587D02*
Y65674D01*
X225048Y71384D02*
X229161Y67271D01*
X230684D01*
X217741Y66314D02*
X218381Y65674D01*
Y65587D02*
X221747D01*
X224731Y66602D02*
Y67202D01*
X219896Y70384D02*
X223679Y66602D01*
X224533D02*
X228274D01*
X204280Y67384D02*
X206078Y65587D01*
X208362Y63303D02*
X213529D01*
X213681Y64566D02*
Y65502D01*
X170966Y71384D02*
X225048D01*
X239006Y61965D02*
X240554Y60417D01*
X268414D01*
X239461Y63065D02*
X241009Y61517D01*
X239917Y64165D02*
X241465Y62617D01*
X240115Y65748D02*
X242146Y63717D01*
X235182Y73553D02*
X242987Y65748D01*
X152958Y73553D02*
X235182D01*
X213147Y62271D02*
X233528D01*
X213115Y62303D02*
X213147Y62271D01*
X211627Y66351D02*
X212832D01*
X201403Y62303D02*
X213115D01*
X197801Y62371D02*
X198550Y63121D01*
X200585D01*
X201403Y62303D01*
X192539Y67384D02*
X204280D01*
X190902Y65748D02*
X192539Y67384D01*
X209593Y68384D02*
X211627Y66351D01*
X187387Y68384D02*
X209593D01*
X184751Y65748D02*
X187387Y68384D01*
X214671Y69384D02*
X217741Y66314D01*
X182235Y69384D02*
X214671D01*
X178599Y65748D02*
X182235Y69384D01*
X177084Y70384D02*
X219896D01*
X173413Y66714D02*
X177084Y70384D01*
X167791Y68209D02*
X170966Y71384D01*
X194306Y65453D02*
X201806D01*
X193775Y64922D02*
X194306Y65453D01*
X199350Y61190D02*
X199432Y61271D01*
X193498Y62371D02*
X197801D01*
X192446Y61319D02*
X193498Y62371D01*
X199432Y61271D02*
X211737D01*
X211850Y58071D02*
Y61158D01*
X211737Y61271D02*
X233114D01*
X211737D02*
X211850Y61158D01*
X154504Y61271D02*
X183636D01*
X191171Y62319D02*
X193775Y64922D01*
X184684Y62319D02*
X191171D01*
X181850Y58071D02*
X185098Y61319D01*
X184752Y63801D02*
X185837D01*
X187623Y65587D01*
X152931Y62371D02*
X183322D01*
X183636Y61271D02*
X184684Y62319D01*
X183322Y62371D02*
X184752Y63801D01*
X185098Y61319D02*
X192446D01*
X151904Y58671D02*
X154504Y61271D01*
X150331Y59771D02*
X152931Y62371D01*
X152382Y63377D02*
X179100D01*
X149876Y60871D02*
X152382Y63377D01*
X151826Y64377D02*
X173631D01*
X149420Y61971D02*
X151826Y64377D01*
X151270Y65377D02*
X167831D01*
X148965Y63071D02*
X151270Y65377D01*
X146231Y65271D02*
X149268Y68308D01*
X159258D02*
X159652Y67913D01*
X150715Y66377D02*
X160988D01*
X148509Y64171D02*
X150715Y66377D01*
X160988D02*
X162820Y68209D01*
X167831Y65377D02*
X169168Y66714D01*
X173631Y64377D02*
X175003Y65748D01*
X179100Y63377D02*
X181472Y65748D01*
X159652Y67913D02*
X164192Y72453D01*
X144444Y67421D02*
X144460Y67406D01*
Y67421D02*
X146826D01*
X140565D02*
X144444D01*
X138421Y66531D02*
Y66634D01*
X107728Y58671D02*
X151904D01*
X137115Y64171D02*
X148509D01*
X118681Y60871D02*
X149876D01*
X116909Y59771D02*
X150331D01*
X138421Y66531D02*
X139682Y65271D01*
X123733Y61971D02*
X149420D01*
X132063Y63071D02*
X148965D01*
X139682Y65271D02*
X146231D01*
X146826Y67421D02*
X152958Y73553D01*
X135538Y65748D02*
X137115Y64171D01*
X129386Y65748D02*
X132063Y63071D01*
X119956Y65748D02*
X123733Y61971D01*
X113804Y65748D02*
X118681Y60871D01*
X110932Y65748D02*
X116909Y59771D01*
X134433Y73553D02*
X140565Y67421D01*
X335261Y65748D02*
X338041Y62968D01*
X350936D01*
X353716Y65748D01*
X341412D02*
X347564D01*
X355987Y61868D02*
X359867Y65748D01*
X329109D02*
X332989Y61868D01*
X355987D01*
X328556Y72453D02*
X335261Y65748D01*
X322958D02*
X327938Y60768D01*
X361039D01*
X316806Y65748D02*
X322886Y59668D01*
X366090D01*
X372170Y65748D01*
X361039Y60768D02*
X366019Y65748D01*
X310655D02*
X317834Y58568D01*
X371142D01*
X376193Y57468D02*
X384473Y65748D01*
X371142Y58568D02*
X378322Y65748D01*
X381245Y56368D02*
X390625Y65748D01*
X333607Y73553D02*
X341412Y65748D01*
X313494Y69060D02*
X316806Y65748D01*
X277057Y69060D02*
X313494D01*
X283176Y65748D02*
X285388Y67960D01*
X303167Y66860D02*
X304278Y65748D01*
X308443Y67960D02*
X310655Y65748D01*
X289327D02*
X290439Y66860D01*
X285388Y67960D02*
X308443D01*
X290439Y66860D02*
X303167D01*
X286048Y65748D02*
X289327D01*
X273745D02*
X277057Y69060D01*
X276618Y65748D02*
X279897D01*
X283176D01*
X267594D02*
X272005Y70160D01*
X266954Y71260D02*
X323598D01*
X261442Y65748D02*
X266954Y71260D01*
X318546Y70160D02*
X322958Y65748D01*
X272005Y70160D02*
X318546D01*
X261996Y72453D02*
X328556D01*
X323598Y71260D02*
X329109Y65748D01*
X255290D02*
X261996Y72453D01*
X256944Y73553D02*
X333607D01*
X249139Y65748D02*
X256944Y73553D01*
X217741Y66314D02*
X218381Y66953D01*
X211627Y66351D02*
X212229Y66953D01*
X241009Y61517D02*
X263362D01*
X241465Y62617D02*
X258311D01*
X268414Y60417D02*
X273745Y65748D01*
X263362Y61517D02*
X267594Y65748D01*
X258311Y62617D02*
X261442Y65748D01*
X242146Y63717D02*
X253259D01*
X255290Y65748D01*
X242987D02*
X249139D01*
X162820Y68209D02*
X167791D01*
X95003Y65254D02*
X96520D01*
X169168Y66714D02*
X173413D01*
X175320Y65748D02*
X178599D01*
X181472D02*
X184751D01*
X187623D02*
X190902D01*
X175003D02*
X175320D01*
X101501Y64898D02*
X107728Y58671D01*
X60094Y73553D02*
X134433D01*
X132500Y72453D02*
X138319Y66634D01*
X65145Y72453D02*
X132500D01*
X116551Y69153D02*
X119956Y65748D01*
X107653D02*
X110932D01*
X126654Y71353D02*
X132259Y65748D01*
X111499Y68053D02*
X113804Y65748D01*
X126107D02*
X129386D01*
X132259D02*
X135538D01*
X94940Y65318D02*
X95003Y65254D01*
X96583Y65318D02*
X100577D01*
X96520Y65254D02*
X96583Y65318D01*
X100577D02*
X100997Y64898D01*
X101501D01*
X107567Y65748D02*
X107653D01*
X106386Y66929D02*
X107567Y65748D01*
X90465Y66929D02*
X106386D01*
X85990Y56368D02*
X94940Y65318D01*
X89198Y65748D02*
X89284D01*
X90465Y66929D01*
X83046Y65748D02*
X85351Y68053D01*
X111499D01*
X80300Y69153D02*
X116551D01*
X70743Y65748D02*
X75248Y70253D01*
X121602D02*
X126107Y65748D01*
X75248Y70253D02*
X121602D01*
X65763Y60768D02*
X70743Y65748D01*
X70197Y71353D02*
X126654D01*
X76895Y65748D02*
X80300Y69153D01*
X64592Y65748D02*
X70197Y71353D01*
X64592Y65748D02*
Y65748D01*
X80918Y57468D02*
X89198Y65748D01*
X70815Y59668D02*
X76895Y65748D01*
X58440D02*
X65145Y72453D01*
X46137Y65748D02*
X52288D01*
X60094Y73553D01*
X55660Y62968D02*
X58440Y65748D01*
X42765Y62968D02*
X55660D01*
X39985Y65748D02*
X42765Y62968D01*
X37714Y61868D02*
X60712D01*
X64592Y65748D01*
X33834Y65748D02*
X37714Y61868D01*
X27682Y65748D02*
X32662Y60768D01*
X65763D01*
X27610Y59668D02*
X70815D01*
X21531Y65748D02*
X27610Y59668D01*
X15379Y65748D02*
X22559Y58568D01*
X75866D02*
X83046Y65748D01*
X22559Y58568D02*
X75866D01*
X12911Y57468D02*
X80918D01*
X3076Y65748D02*
X12456Y56368D01*
X85990D01*
X9227Y61152D02*
X12911Y57468D01*
X9227Y61152D02*
Y65748D01*
X290969Y33366D02*
X298647D01*
X298351Y37270D02*
X306812Y28809D01*
X292200Y37270D02*
X298351D01*
X306812Y28809D02*
X381245D01*
X304503Y38189D02*
X312783Y29909D01*
X376193D01*
X304278Y38189D02*
X304503D01*
X237686Y39039D02*
X238536Y38189D01*
X231831Y44894D02*
X237686Y39039D01*
X281138Y29858D02*
X284707Y33428D01*
X237968Y28858D02*
X282869D01*
X291740Y37729D02*
X292200Y37270D01*
X233114Y33712D02*
X237968Y28858D01*
X282869D02*
X291740Y37729D01*
X239311Y29858D02*
X281138D01*
X237531Y30709D02*
X238460D01*
X239311Y29858D01*
X233528Y34712D02*
X237531Y30709D01*
X238391Y35506D02*
X239461D01*
X235599Y39712D02*
X238705Y36606D01*
X240139Y31858D02*
X270286D01*
X230684Y39712D02*
X235599D01*
X237686Y39039D02*
X238344Y39698D01*
X237945Y31709D02*
X238874D01*
X270286Y31858D02*
X276618Y38189D01*
X233942Y35712D02*
X237945Y31709D01*
X238077Y34406D02*
X239006D01*
X235185Y38712D02*
X238391Y35506D01*
X238536Y38189D02*
X240115D01*
X213562Y35712D02*
X233942D01*
X213976Y36712D02*
X234356D01*
X238874Y31709D02*
X239725Y30858D01*
X278717D02*
X286048Y38189D01*
X234356Y36712D02*
X238359Y32709D01*
X234771Y37712D02*
X238077Y34406D01*
X153839Y40749D02*
X159258D01*
X238359Y32709D02*
X239289D01*
X222063Y37712D02*
X234771D01*
X239725Y30858D02*
X278717D01*
X164192Y44894D02*
X231831D01*
X238705Y36606D02*
X239917D01*
X149268Y40749D02*
X153839D01*
X239289Y32709D02*
X240139Y31858D01*
X228606Y38712D02*
X235185D01*
X230684Y39712D02*
Y40643D01*
X221747Y38028D02*
X222063Y37712D01*
X212832Y38792D02*
X213681Y37943D01*
X223679Y39043D02*
X224533D01*
X228274D02*
X228606Y38712D01*
X213529Y35744D02*
X213562Y35712D01*
X206078Y38028D02*
X208362Y35744D01*
X213681Y37007D02*
X213976Y36712D01*
X218381Y38028D02*
Y38115D01*
X225048Y43825D02*
X229161Y39712D01*
X230684D01*
X217741Y38755D02*
X218381Y38115D01*
Y38028D02*
X221747D01*
X224731Y39043D02*
Y39643D01*
X219896Y42825D02*
X223679Y39043D01*
X224533D02*
X228274D01*
X204280Y39825D02*
X206078Y38028D01*
X208362Y35744D02*
X213529D01*
X213681Y37007D02*
Y37943D01*
X170966Y43825D02*
X225048D01*
X239006Y34406D02*
X240554Y32858D01*
X268414D01*
X239461Y35506D02*
X241009Y33958D01*
X239917Y36606D02*
X241465Y35058D01*
X240115Y38189D02*
X242146Y36158D01*
X235182Y45994D02*
X242987Y38189D01*
X152958Y45994D02*
X235182D01*
X213147Y34712D02*
X233528D01*
X213115Y34744D02*
X213147Y34712D01*
X211627Y38792D02*
X212832D01*
X201403Y34744D02*
X213115D01*
X197801Y34812D02*
X198550Y35562D01*
X200585D01*
X201403Y34744D01*
X192539Y39825D02*
X204280D01*
X190902Y38189D02*
X192539Y39825D01*
X209593Y40825D02*
X211627Y38792D01*
X187387Y40825D02*
X209593D01*
X184751Y38189D02*
X187387Y40825D01*
X214671Y41825D02*
X217741Y38755D01*
X182235Y41825D02*
X214671D01*
X178599Y38189D02*
X182235Y41825D01*
X177084Y42825D02*
X219896D01*
X173413Y39155D02*
X177084Y42825D01*
X167791Y40650D02*
X170966Y43825D01*
X194306Y37894D02*
X201806D01*
X193775Y37363D02*
X194306Y37894D01*
X199350Y33630D02*
X199432Y33712D01*
X193498Y34812D02*
X197801D01*
X192446Y33760D02*
X193498Y34812D01*
X199432Y33712D02*
X211737D01*
X211850Y30512D02*
Y33599D01*
X211737Y33712D02*
X233114D01*
X211737D02*
X211850Y33599D01*
X154504Y33712D02*
X183636D01*
X191171Y34760D02*
X193775Y37363D01*
X184684Y34760D02*
X191171D01*
X181850Y30512D02*
X185098Y33760D01*
X184752Y36242D02*
X185837D01*
X187623Y38028D01*
X152931Y34812D02*
X183322D01*
X183636Y33712D02*
X184684Y34760D01*
X183322Y34812D02*
X184752Y36242D01*
X185098Y33760D02*
X192446D01*
X151904Y31112D02*
X154504Y33712D01*
X150331Y32212D02*
X152931Y34812D01*
X152382Y35818D02*
X179100D01*
X149876Y33312D02*
X152382Y35818D01*
X151826Y36818D02*
X173631D01*
X149420Y34412D02*
X151826Y36818D01*
X151270Y37818D02*
X167831D01*
X148965Y35512D02*
X151270Y37818D01*
X146231Y37712D02*
X149268Y40749D01*
X159258D02*
X159652Y40354D01*
X150715Y38818D02*
X160988D01*
X148509Y36612D02*
X150715Y38818D01*
X160988D02*
X162820Y40650D01*
X167831Y37818D02*
X169168Y39155D01*
X173631Y36818D02*
X175003Y38189D01*
X179100Y35818D02*
X181472Y38189D01*
X159652Y40354D02*
X164192Y44894D01*
X144444Y39862D02*
X144460Y39847D01*
Y39862D02*
X146826D01*
X140565D02*
X144444D01*
X138421Y38972D02*
Y39075D01*
X107728Y31112D02*
X151904D01*
X137115Y36612D02*
X148509D01*
X118681Y33312D02*
X149876D01*
X116909Y32212D02*
X150331D01*
X138421Y38972D02*
X139682Y37712D01*
X123733Y34412D02*
X149420D01*
X132063Y35512D02*
X148965D01*
X139682Y37712D02*
X146231D01*
X146826Y39862D02*
X152958Y45994D01*
X135538Y38189D02*
X137115Y36612D01*
X129386Y38189D02*
X132063Y35512D01*
X119956Y38189D02*
X123733Y34412D01*
X113804Y38189D02*
X118681Y33312D01*
X110932Y38189D02*
X116909Y32212D01*
X134433Y45994D02*
X140565Y39862D01*
X335261Y38189D02*
X338041Y35409D01*
X350936D01*
X353716Y38189D01*
X341412D02*
X347564D01*
X355987Y34309D02*
X359867Y38189D01*
X329109D02*
X332989Y34309D01*
X355987D01*
X328556Y44894D02*
X335261Y38189D01*
X322958D02*
X327938Y33209D01*
X361039D01*
X316806Y38189D02*
X322886Y32109D01*
X366090D01*
X372170Y38189D01*
X361039Y33209D02*
X366019Y38189D01*
X310655D02*
X317834Y31009D01*
X371142D01*
X376193Y29909D02*
X384473Y38189D01*
X371142Y31009D02*
X378322Y38189D01*
X381245Y28809D02*
X390625Y38189D01*
X333607Y45994D02*
X341412Y38189D01*
X313494Y41501D02*
X316806Y38189D01*
X277057Y41501D02*
X313494D01*
X283176Y38189D02*
X285388Y40401D01*
X303167Y39301D02*
X304278Y38189D01*
X308443Y40401D02*
X310655Y38189D01*
X289327D02*
X290439Y39301D01*
X285388Y40401D02*
X308443D01*
X290439Y39301D02*
X303167D01*
X286048Y38189D02*
X289327D01*
X273745D02*
X277057Y41501D01*
X276618Y38189D02*
X279897D01*
X283176D01*
X267594D02*
X272005Y42601D01*
X266954Y43701D02*
X323598D01*
X261442Y38189D02*
X266954Y43701D01*
X318546Y42601D02*
X322958Y38189D01*
X272005Y42601D02*
X318546D01*
X261996Y44894D02*
X328556D01*
X323598Y43701D02*
X329109Y38189D01*
X255290D02*
X261996Y44894D01*
X256944Y45994D02*
X333607D01*
X249139Y38189D02*
X256944Y45994D01*
X217741Y38755D02*
X218381Y39394D01*
X211627Y38792D02*
X212229Y39394D01*
X241009Y33958D02*
X263362D01*
X241465Y35058D02*
X258311D01*
X268414Y32858D02*
X273745Y38189D01*
X263362Y33958D02*
X267594Y38189D01*
X258311Y35058D02*
X261442Y38189D01*
X242146Y36158D02*
X253259D01*
X255290Y38189D01*
X242987D02*
X249139D01*
X162820Y40650D02*
X167791D01*
X95003Y37695D02*
X96520D01*
X169168Y39155D02*
X173413D01*
X175320Y38189D02*
X178599D01*
X181472D02*
X184751D01*
X187623D02*
X190902D01*
X175003D02*
X175320D01*
X101501Y37339D02*
X107728Y31112D01*
X60094Y45994D02*
X134433D01*
X132500Y44894D02*
X138319Y39075D01*
X65145Y44894D02*
X132500D01*
X116551Y41594D02*
X119956Y38189D01*
X107653D02*
X110932D01*
X126654Y43794D02*
X132259Y38189D01*
X111499Y40494D02*
X113804Y38189D01*
X126107D02*
X129386D01*
X132259D02*
X135538D01*
X94940Y37759D02*
X95003Y37695D01*
X96583Y37759D02*
X100577D01*
X96520Y37695D02*
X96583Y37759D01*
X100577D02*
X100997Y37339D01*
X101501D01*
X107567Y38189D02*
X107653D01*
X106386Y39370D02*
X107567Y38189D01*
X90465Y39370D02*
X106386D01*
X85990Y28809D02*
X94940Y37759D01*
X89198Y38189D02*
X89284D01*
X90465Y39370D01*
X83046Y38189D02*
X85351Y40494D01*
X111499D01*
X80300Y41594D02*
X116551D01*
X70743Y38189D02*
X75248Y42694D01*
X121602D02*
X126107Y38189D01*
X75248Y42694D02*
X121602D01*
X65763Y33209D02*
X70743Y38189D01*
X70197Y43794D02*
X126654D01*
X76895Y38189D02*
X80300Y41594D01*
X64592Y38189D02*
X70197Y43794D01*
X64592Y38189D02*
Y38189D01*
X80918Y29909D02*
X89198Y38189D01*
X70815Y32109D02*
X76895Y38189D01*
X58440D02*
X65145Y44894D01*
X46137Y38189D02*
X52288D01*
X60094Y45994D01*
X55660Y35409D02*
X58440Y38189D01*
X42765Y35409D02*
X55660D01*
X39985Y38189D02*
X42765Y35409D01*
X37714Y34309D02*
X60712D01*
X64592Y38189D01*
X33834Y38189D02*
X37714Y34309D01*
X27682Y38189D02*
X32662Y33209D01*
X65763D01*
X27610Y32109D02*
X70815D01*
X21531Y38189D02*
X27610Y32109D01*
X15379Y38189D02*
X22559Y31009D01*
X75866D02*
X83046Y38189D01*
X22559Y31009D02*
X75866D01*
X12911Y29909D02*
X80918D01*
X3076Y38189D02*
X12456Y28809D01*
X85990D01*
X9227Y33593D02*
X12911Y29909D01*
X9227Y33593D02*
Y38189D01*
X290969Y6594D02*
X298647D01*
X298351Y10498D02*
X306812Y2037D01*
X292200Y10498D02*
X298351D01*
X306812Y2037D02*
X381245D01*
X304503Y11417D02*
X312783Y3137D01*
X376193D01*
X304278Y11417D02*
X304503D01*
X237686Y12268D02*
X238536Y11417D01*
X231831Y18123D02*
X237686Y12268D01*
X281138Y3086D02*
X284707Y6656D01*
X237968Y2086D02*
X282869D01*
X291740Y10958D02*
X292200Y10498D01*
X233114Y6940D02*
X237968Y2086D01*
X282869D02*
X291740Y10958D01*
X239311Y3086D02*
X281138D01*
X237531Y3937D02*
X238460D01*
X239311Y3086D01*
X233528Y7940D02*
X237531Y3937D01*
X238391Y8734D02*
X239461D01*
X235599Y12940D02*
X238705Y9834D01*
X240139Y5086D02*
X270286D01*
X230684Y12940D02*
X235599D01*
X237686Y12268D02*
X238344Y12926D01*
X237945Y4937D02*
X238874D01*
X270286Y5086D02*
X276618Y11417D01*
X233942Y8940D02*
X237945Y4937D01*
X238077Y7634D02*
X239006D01*
X235185Y11940D02*
X238391Y8734D01*
X238536Y11417D02*
X240115D01*
X213562Y8940D02*
X233942D01*
X213976Y9940D02*
X234356D01*
X238874Y4937D02*
X239725Y4086D01*
X278717D02*
X286048Y11417D01*
X234356Y9940D02*
X238359Y5937D01*
X234771Y10940D02*
X238077Y7634D01*
X153839Y13977D02*
X159258D01*
X238359Y5937D02*
X239289D01*
X222063Y10940D02*
X234771D01*
X239725Y4086D02*
X278717D01*
X164192Y18123D02*
X231831D01*
X238705Y9834D02*
X239917D01*
X149268Y13977D02*
X153839D01*
X239289Y5937D02*
X240139Y5086D01*
X228606Y11940D02*
X235185D01*
X230684Y12940D02*
Y13871D01*
X221747Y11256D02*
X222063Y10940D01*
X212832Y12020D02*
X213681Y11171D01*
X223679Y12271D02*
X224533D01*
X228274D02*
X228606Y11940D01*
X213529Y8973D02*
X213562Y8940D01*
X206078Y11256D02*
X208362Y8973D01*
X213681Y10235D02*
X213976Y9940D01*
X218381Y11256D02*
Y11344D01*
X225048Y17054D02*
X229161Y12940D01*
X230684D01*
X217741Y11983D02*
X218381Y11344D01*
Y11256D02*
X221747D01*
X224731Y12271D02*
Y12871D01*
X219896Y16054D02*
X223679Y12271D01*
X224533D02*
X228274D01*
X204280Y13054D02*
X206078Y11256D01*
X208362Y8973D02*
X213529D01*
X213681Y10235D02*
Y11171D01*
X170966Y17054D02*
X225048D01*
X239006Y7634D02*
X240554Y6086D01*
X268414D01*
X239461Y8734D02*
X241009Y7186D01*
X239917Y9834D02*
X241465Y8286D01*
X240115Y11417D02*
X242146Y9386D01*
X235182Y19222D02*
X242987Y11417D01*
X152958Y19222D02*
X235182D01*
X213147Y7940D02*
X233528D01*
X213115Y7972D02*
X213147Y7940D01*
X211627Y12020D02*
X212832D01*
X201403Y7972D02*
X213115D01*
X197801Y8040D02*
X198550Y8790D01*
X200585D01*
X201403Y7972D01*
X192539Y13054D02*
X204280D01*
X190902Y11417D02*
X192539Y13054D01*
X209593Y14054D02*
X211627Y12020D01*
X187387Y14054D02*
X209593D01*
X184751Y11417D02*
X187387Y14054D01*
X214671Y15054D02*
X217741Y11983D01*
X182235Y15054D02*
X214671D01*
X178599Y11417D02*
X182235Y15054D01*
X177084Y16054D02*
X219896D01*
X173413Y12383D02*
X177084Y16054D01*
X167791Y13878D02*
X170966Y17054D01*
X194306Y11123D02*
X201806D01*
X193775Y10591D02*
X194306Y11123D01*
X199350Y6859D02*
X199432Y6940D01*
X193498Y8040D02*
X197801D01*
X192446Y6988D02*
X193498Y8040D01*
X199432Y6940D02*
X211737D01*
X211850Y3740D02*
Y6827D01*
X211737Y6940D02*
X233114D01*
X211737D02*
X211850Y6827D01*
X154504Y6940D02*
X183636D01*
X191171Y7988D02*
X193775Y10591D01*
X184684Y7988D02*
X191171D01*
X181850Y3740D02*
X185098Y6988D01*
X184752Y9470D02*
X185837D01*
X187623Y11256D01*
X152931Y8040D02*
X183322D01*
X183636Y6940D02*
X184684Y7988D01*
X183322Y8040D02*
X184752Y9470D01*
X185098Y6988D02*
X192446D01*
X151904Y4340D02*
X154504Y6940D01*
X150331Y5440D02*
X152931Y8040D01*
X152382Y9046D02*
X179100D01*
X149876Y6540D02*
X152382Y9046D01*
X151826Y10046D02*
X173631D01*
X149420Y7640D02*
X151826Y10046D01*
X151270Y11046D02*
X167831D01*
X148965Y8740D02*
X151270Y11046D01*
X146231Y10940D02*
X149268Y13977D01*
X159258D02*
X159652Y13583D01*
X150715Y12046D02*
X160988D01*
X148509Y9840D02*
X150715Y12046D01*
X160988D02*
X162820Y13878D01*
X167831Y11046D02*
X169168Y12383D01*
X173631Y10046D02*
X175003Y11417D01*
X179100Y9046D02*
X181472Y11417D01*
X159652Y13583D02*
X164192Y18123D01*
X144444Y13091D02*
X144460Y13075D01*
Y13091D02*
X146826D01*
X140565D02*
X144444D01*
X138421Y12201D02*
Y12304D01*
X107728Y4340D02*
X151904D01*
X137115Y9840D02*
X148509D01*
X118681Y6540D02*
X149876D01*
X116909Y5440D02*
X150331D01*
X138421Y12201D02*
X139682Y10940D01*
X123733Y7640D02*
X149420D01*
X132063Y8740D02*
X148965D01*
X139682Y10940D02*
X146231D01*
X146826Y13091D02*
X152958Y19222D01*
X135538Y11417D02*
X137115Y9840D01*
X129386Y11417D02*
X132063Y8740D01*
X119956Y11417D02*
X123733Y7640D01*
X113804Y11417D02*
X118681Y6540D01*
X110932Y11417D02*
X116909Y5440D01*
X134433Y19222D02*
X140565Y13091D01*
X335261Y11417D02*
X338041Y8637D01*
X350936D01*
X353716Y11417D01*
X341412D02*
X347564D01*
X355987Y7537D02*
X359867Y11417D01*
X329109D02*
X332989Y7537D01*
X355987D01*
X328556Y18123D02*
X335261Y11417D01*
X322958D02*
X327938Y6437D01*
X361039D01*
X316806Y11417D02*
X322886Y5337D01*
X366090D01*
X372170Y11417D01*
X361039Y6437D02*
X366019Y11417D01*
X310655D02*
X317834Y4237D01*
X371142D01*
X376193Y3137D02*
X384473Y11417D01*
X371142Y4237D02*
X378322Y11417D01*
X381245Y2037D02*
X390625Y11417D01*
X333607Y19222D02*
X341412Y11417D01*
X313494Y14729D02*
X316806Y11417D01*
X277057Y14729D02*
X313494D01*
X283176Y11417D02*
X285388Y13629D01*
X303167Y12529D02*
X304278Y11417D01*
X308443Y13629D02*
X310655Y11417D01*
X289327D02*
X290439Y12529D01*
X285388Y13629D02*
X308443D01*
X290439Y12529D02*
X303167D01*
X286048Y11417D02*
X289327D01*
X273745D02*
X277057Y14729D01*
X276618Y11417D02*
X279897D01*
X283176D01*
X267594D02*
X272005Y15829D01*
X266954Y16929D02*
X323598D01*
X261442Y11417D02*
X266954Y16929D01*
X318546Y15829D02*
X322958Y11417D01*
X272005Y15829D02*
X318546D01*
X261996Y18123D02*
X328556D01*
X323598Y16929D02*
X329109Y11417D01*
X255290D02*
X261996Y18123D01*
X256944Y19222D02*
X333607D01*
X249139Y11417D02*
X256944Y19222D01*
X217741Y11983D02*
X218381Y12622D01*
X211627Y12020D02*
X212229Y12622D01*
X241009Y7186D02*
X263362D01*
X241465Y8286D02*
X258311D01*
X268414Y6086D02*
X273745Y11417D01*
X263362Y7186D02*
X267594Y11417D01*
X258311Y8286D02*
X261442Y11417D01*
X242146Y9386D02*
X253259D01*
X255290Y11417D01*
X242987D02*
X249139D01*
X162820Y13878D02*
X167791D01*
X95003Y10924D02*
X96520D01*
X169168Y12383D02*
X173413D01*
X175320Y11417D02*
X178599D01*
X181472D02*
X184751D01*
X187623D02*
X190902D01*
X175003D02*
X175320D01*
X101501Y10567D02*
X107728Y4340D01*
X60094Y19222D02*
X134433D01*
X132500Y18123D02*
X138319Y12304D01*
X65145Y18123D02*
X132500D01*
X116551Y14822D02*
X119956Y11417D01*
X107653D02*
X110932D01*
X126654Y17022D02*
X132259Y11417D01*
X111499Y13723D02*
X113804Y11417D01*
X126107D02*
X129386D01*
X132259D02*
X135538D01*
X94940Y10987D02*
X95003Y10924D01*
X96583Y10987D02*
X100577D01*
X96520Y10924D02*
X96583Y10987D01*
X100577D02*
X100997Y10567D01*
X101501D01*
X107567Y11417D02*
X107653D01*
X106386Y12598D02*
X107567Y11417D01*
X90465Y12598D02*
X106386D01*
X85990Y2037D02*
X94940Y10987D01*
X89198Y11417D02*
X89284D01*
X90465Y12598D01*
X83046Y11417D02*
X85351Y13723D01*
X111499D01*
X80300Y14822D02*
X116551D01*
X70743Y11417D02*
X75248Y15923D01*
X121602D02*
X126107Y11417D01*
X75248Y15923D02*
X121602D01*
X65763Y6437D02*
X70743Y11417D01*
X70197Y17022D02*
X126654D01*
X76895Y11417D02*
X80300Y14822D01*
X64592Y11417D02*
X70197Y17022D01*
X64592Y11417D02*
Y11417D01*
X80918Y3137D02*
X89198Y11417D01*
X70815Y5337D02*
X76895Y11417D01*
X58440D02*
X65145Y18123D01*
X46137Y11417D02*
X52288D01*
X60094Y19222D01*
X55660Y8637D02*
X58440Y11417D01*
X42765Y8637D02*
X55660D01*
X39985Y11417D02*
X42765Y8637D01*
X37714Y7537D02*
X60712D01*
X64592Y11417D01*
X33834Y11417D02*
X37714Y7537D01*
X27682Y11417D02*
X32662Y6437D01*
X65763D01*
X27610Y5337D02*
X70815D01*
X21531Y11417D02*
X27610Y5337D01*
X15379Y11417D02*
X22559Y4237D01*
X75866D02*
X83046Y11417D01*
X22559Y4237D02*
X75866D01*
X12911Y3137D02*
X80918D01*
X3076Y11417D02*
X12456Y2037D01*
X85990D01*
X9227Y6821D02*
X12911Y3137D01*
X9227Y6821D02*
Y11417D01*
D38*
X390000Y172126D02*
D03*
X385000D02*
D03*
X380000D02*
D03*
X375000D02*
D03*
X370000D02*
D03*
X365000D02*
D03*
X360000D02*
D03*
X355000D02*
D03*
X350000D02*
D03*
X345000D02*
D03*
X340000D02*
D03*
X335000D02*
D03*
X330000D02*
D03*
X325000D02*
D03*
Y177126D02*
D03*
X330000D02*
D03*
X335000D02*
D03*
X340000D02*
D03*
X345000D02*
D03*
X350000D02*
D03*
X355000D02*
D03*
X360000D02*
D03*
X365000D02*
D03*
X370000D02*
D03*
X375000D02*
D03*
X380000D02*
D03*
X385000D02*
D03*
X390000D02*
D03*
X325000Y182126D02*
D03*
X330000D02*
D03*
X335000D02*
D03*
X340000D02*
D03*
X345000D02*
D03*
X350000D02*
D03*
X355000D02*
D03*
X360000D02*
D03*
X365000D02*
D03*
X370000D02*
D03*
X375000D02*
D03*
X380000D02*
D03*
X385000D02*
D03*
X390000D02*
D03*
Y197126D02*
D03*
X385000D02*
D03*
X380000D02*
D03*
X375000D02*
D03*
X370000D02*
D03*
X365000D02*
D03*
X360000D02*
D03*
X355000D02*
D03*
X350000D02*
D03*
X345000D02*
D03*
X340000D02*
D03*
X335000D02*
D03*
X330000D02*
D03*
X325000D02*
D03*
X390000Y192126D02*
D03*
X385000D02*
D03*
X380000D02*
D03*
X375000D02*
D03*
X370000D02*
D03*
X365000D02*
D03*
X360000D02*
D03*
X355000D02*
D03*
X350000D02*
D03*
X345000D02*
D03*
X340000D02*
D03*
X335000D02*
D03*
X330000D02*
D03*
X325000D02*
D03*
Y187126D02*
D03*
X330000D02*
D03*
X335000D02*
D03*
X340000D02*
D03*
X345000D02*
D03*
X350000D02*
D03*
X355000D02*
D03*
X360000D02*
D03*
X365000D02*
D03*
X370000D02*
D03*
X375000D02*
D03*
X380000D02*
D03*
X385000D02*
D03*
X390000D02*
D03*
Y142126D02*
D03*
X385000D02*
D03*
X380000D02*
D03*
X375000D02*
D03*
X370000D02*
D03*
X365000D02*
D03*
X360000D02*
D03*
X355000D02*
D03*
X350000D02*
D03*
X345000D02*
D03*
X340000D02*
D03*
X335000D02*
D03*
X330000D02*
D03*
X325000D02*
D03*
Y147126D02*
D03*
X330000D02*
D03*
X335000D02*
D03*
X340000D02*
D03*
X345000D02*
D03*
X350000D02*
D03*
X355000D02*
D03*
X360000D02*
D03*
X365000D02*
D03*
X370000D02*
D03*
X375000D02*
D03*
X380000D02*
D03*
X385000D02*
D03*
X390000D02*
D03*
X325000Y152126D02*
D03*
X330000D02*
D03*
X335000D02*
D03*
X340000D02*
D03*
X345000D02*
D03*
X350000D02*
D03*
X355000D02*
D03*
X360000D02*
D03*
X365000D02*
D03*
X370000D02*
D03*
X375000D02*
D03*
X380000D02*
D03*
X385000D02*
D03*
X390000D02*
D03*
Y167126D02*
D03*
X385000D02*
D03*
X380000D02*
D03*
X375000D02*
D03*
X370000D02*
D03*
X365000D02*
D03*
X360000D02*
D03*
X355000D02*
D03*
X350000D02*
D03*
X345000D02*
D03*
X340000D02*
D03*
X335000D02*
D03*
X330000D02*
D03*
X325000D02*
D03*
X390000Y162126D02*
D03*
X385000D02*
D03*
X380000D02*
D03*
X375000D02*
D03*
X370000D02*
D03*
X365000D02*
D03*
X360000D02*
D03*
X355000D02*
D03*
X350000D02*
D03*
X345000D02*
D03*
X340000D02*
D03*
X335000D02*
D03*
X330000D02*
D03*
X325000D02*
D03*
Y157126D02*
D03*
X330000D02*
D03*
X335000D02*
D03*
X340000D02*
D03*
X345000D02*
D03*
X350000D02*
D03*
X355000D02*
D03*
X360000D02*
D03*
X365000D02*
D03*
X370000D02*
D03*
X375000D02*
D03*
X380000D02*
D03*
X385000D02*
D03*
X390000D02*
D03*
Y127126D02*
D03*
X385000D02*
D03*
X380000D02*
D03*
X375000D02*
D03*
X370000D02*
D03*
X365000D02*
D03*
X360000D02*
D03*
X355000D02*
D03*
X350000D02*
D03*
X345000D02*
D03*
X340000D02*
D03*
X335000D02*
D03*
X330000D02*
D03*
X325000D02*
D03*
Y132126D02*
D03*
X330000D02*
D03*
X335000D02*
D03*
X340000D02*
D03*
X345000D02*
D03*
X350000D02*
D03*
X355000D02*
D03*
X360000D02*
D03*
X365000D02*
D03*
X370000D02*
D03*
X375000D02*
D03*
X380000D02*
D03*
X385000D02*
D03*
X390000D02*
D03*
X325000Y137126D02*
D03*
X330000D02*
D03*
X335000D02*
D03*
X340000D02*
D03*
X345000D02*
D03*
X350000D02*
D03*
X355000D02*
D03*
X360000D02*
D03*
X365000D02*
D03*
X370000D02*
D03*
X375000D02*
D03*
X380000D02*
D03*
X385000D02*
D03*
X390000D02*
D03*
Y122126D02*
D03*
X385000D02*
D03*
X380000D02*
D03*
X375000D02*
D03*
X370000D02*
D03*
X365000D02*
D03*
X360000D02*
D03*
X355000D02*
D03*
X350000D02*
D03*
X345000D02*
D03*
X340000D02*
D03*
X335000D02*
D03*
X330000D02*
D03*
X325000D02*
D03*
X390000Y117126D02*
D03*
X385000D02*
D03*
X380000D02*
D03*
X375000D02*
D03*
X370000D02*
D03*
X365000D02*
D03*
X360000D02*
D03*
X355000D02*
D03*
X350000D02*
D03*
X345000D02*
D03*
X340000D02*
D03*
X335000D02*
D03*
X330000D02*
D03*
X325000D02*
D03*
Y112126D02*
D03*
X330000D02*
D03*
X335000D02*
D03*
X340000D02*
D03*
X345000D02*
D03*
X350000D02*
D03*
X355000D02*
D03*
X360000D02*
D03*
X365000D02*
D03*
X370000D02*
D03*
X375000D02*
D03*
X380000D02*
D03*
X385000D02*
D03*
X390000D02*
D03*
D39*
X337756Y214567D02*
D03*
X337677Y232283D02*
D03*
X337756Y263779D02*
D03*
X337677Y281496D02*
D03*
X337756Y312992D02*
D03*
X337677Y330709D02*
D03*
X337756Y362205D02*
D03*
X337677Y379921D02*
D03*
X362205Y376811D02*
D03*
X379921Y376890D02*
D03*
X362205Y347284D02*
D03*
X379921Y347362D02*
D03*
X362205Y319724D02*
D03*
X379921Y319803D02*
D03*
X362205Y292165D02*
D03*
X379921Y292244D02*
D03*
X362205Y264606D02*
D03*
X379921Y264685D02*
D03*
X362205Y237047D02*
D03*
X379921Y237126D02*
D03*
X362205Y209488D02*
D03*
X379921Y209567D02*
D03*
D40*
X327756Y214567D02*
D03*
X327677Y232283D02*
D03*
X327756Y263779D02*
D03*
X327677Y281496D02*
D03*
X327756Y312992D02*
D03*
X327677Y330709D02*
D03*
X327756Y362205D02*
D03*
X327677Y379921D02*
D03*
D41*
X362205Y386811D02*
D03*
X379921Y386890D02*
D03*
X362205Y357283D02*
D03*
X379921Y357362D02*
D03*
X362205Y329724D02*
D03*
X379921Y329803D02*
D03*
X362205Y302165D02*
D03*
X379921Y302244D02*
D03*
X362205Y274606D02*
D03*
X379921Y274685D02*
D03*
X362205Y247047D02*
D03*
X379921Y247126D02*
D03*
X362205Y219488D02*
D03*
X379921Y219567D02*
D03*
D42*
X198425Y343701D02*
D03*
Y247244D02*
D03*
Y150787D02*
D03*
D43*
X279527Y320551D02*
D03*
Y330551D02*
D03*
Y340551D02*
D03*
Y350551D02*
D03*
X167323Y385433D02*
D03*
X157323D02*
D03*
X199606Y376378D02*
D03*
X209606D02*
D03*
X219606D02*
D03*
X229606D02*
D03*
X279527Y224095D02*
D03*
Y234095D02*
D03*
Y244094D02*
D03*
Y254095D02*
D03*
X167323Y288976D02*
D03*
X157323D02*
D03*
X199606Y279921D02*
D03*
X209606D02*
D03*
X219606D02*
D03*
X229606D02*
D03*
X279527Y127638D02*
D03*
Y137638D02*
D03*
Y147638D02*
D03*
Y157638D02*
D03*
X167323Y192520D02*
D03*
X157323D02*
D03*
X199606Y183465D02*
D03*
X209606D02*
D03*
X219606D02*
D03*
X229606D02*
D03*
D44*
X226260Y359252D02*
D03*
X225275Y310039D02*
D03*
X226260Y262795D02*
D03*
X225275Y213583D02*
D03*
X226260Y166339D02*
D03*
X225275Y117126D02*
D03*
D45*
X252087Y359252D02*
D03*
X251102Y310039D02*
D03*
X252087Y262795D02*
D03*
X251102Y213583D02*
D03*
X252087Y166339D02*
D03*
X251102Y117126D02*
D03*
D46*
X182087Y322441D02*
D03*
X168307D02*
D03*
X182087Y225984D02*
D03*
X168307D02*
D03*
X182087Y129528D02*
D03*
X168307D02*
D03*
D47*
X107047Y350000D02*
D03*
X107165Y370079D02*
D03*
X107047Y253543D02*
D03*
X107165Y273622D02*
D03*
X156850Y85630D02*
D03*
Y58071D02*
D03*
Y30512D02*
D03*
Y3740D02*
D03*
X107047Y157087D02*
D03*
X107165Y177165D02*
D03*
D48*
X102047Y350000D02*
D03*
X97047D02*
D03*
X92047D02*
D03*
X87047D02*
D03*
X82047D02*
D03*
X77047D02*
D03*
X72047D02*
D03*
X67047D02*
D03*
X62047D02*
D03*
X57047D02*
D03*
X52047D02*
D03*
X47047D02*
D03*
X42047D02*
D03*
X37047D02*
D03*
X32047D02*
D03*
X102165Y370079D02*
D03*
X97165D02*
D03*
X92165D02*
D03*
X87165D02*
D03*
X82165D02*
D03*
X77165D02*
D03*
X72165D02*
D03*
X67165D02*
D03*
X62165D02*
D03*
X57165D02*
D03*
X52165D02*
D03*
X47165D02*
D03*
X42165D02*
D03*
X37165D02*
D03*
X32165D02*
D03*
X102047Y253543D02*
D03*
X97047D02*
D03*
X92047D02*
D03*
X87047D02*
D03*
X82047D02*
D03*
X77047D02*
D03*
X72047D02*
D03*
X67047D02*
D03*
X62047D02*
D03*
X57047D02*
D03*
X52047D02*
D03*
X47047D02*
D03*
X42047D02*
D03*
X37047D02*
D03*
X32047D02*
D03*
X102165Y273622D02*
D03*
X97165D02*
D03*
X92165D02*
D03*
X87165D02*
D03*
X82165D02*
D03*
X77165D02*
D03*
X72165D02*
D03*
X67165D02*
D03*
X62165D02*
D03*
X57165D02*
D03*
X52165D02*
D03*
X47165D02*
D03*
X42165D02*
D03*
X37165D02*
D03*
X32165D02*
D03*
X161850Y85630D02*
D03*
X166850D02*
D03*
X171850D02*
D03*
X176850D02*
D03*
X181850D02*
D03*
X186850D02*
D03*
X191850D02*
D03*
X196850D02*
D03*
X201850D02*
D03*
X206850D02*
D03*
X211850D02*
D03*
X216850D02*
D03*
X221850D02*
D03*
X226850D02*
D03*
X231850D02*
D03*
X161850Y58071D02*
D03*
X166850D02*
D03*
X171850D02*
D03*
X176850D02*
D03*
X181850D02*
D03*
X186850D02*
D03*
X191850D02*
D03*
X196850D02*
D03*
X201850D02*
D03*
X206850D02*
D03*
X211850D02*
D03*
X216850D02*
D03*
X221850D02*
D03*
X226850D02*
D03*
X231850D02*
D03*
X161850Y30512D02*
D03*
X166850D02*
D03*
X171850D02*
D03*
X176850D02*
D03*
X181850D02*
D03*
X186850D02*
D03*
X191850D02*
D03*
X196850D02*
D03*
X201850D02*
D03*
X206850D02*
D03*
X211850D02*
D03*
X216850D02*
D03*
X221850D02*
D03*
X226850D02*
D03*
X231850D02*
D03*
X161850Y3740D02*
D03*
X166850D02*
D03*
X171850D02*
D03*
X176850D02*
D03*
X181850D02*
D03*
X186850D02*
D03*
X191850D02*
D03*
X196850D02*
D03*
X201850D02*
D03*
X206850D02*
D03*
X211850D02*
D03*
X216850D02*
D03*
X221850D02*
D03*
X226850D02*
D03*
X231850D02*
D03*
X102047Y157087D02*
D03*
X97047D02*
D03*
X92047D02*
D03*
X87047D02*
D03*
X82047D02*
D03*
X77047D02*
D03*
X72047D02*
D03*
X67047D02*
D03*
X62047D02*
D03*
X57047D02*
D03*
X52047D02*
D03*
X47047D02*
D03*
X42047D02*
D03*
X37047D02*
D03*
X32047D02*
D03*
X102165Y177165D02*
D03*
X97165D02*
D03*
X92165D02*
D03*
X87165D02*
D03*
X82165D02*
D03*
X77165D02*
D03*
X72165D02*
D03*
X67165D02*
D03*
X62165D02*
D03*
X57165D02*
D03*
X52165D02*
D03*
X47165D02*
D03*
X42165D02*
D03*
X37165D02*
D03*
X32165D02*
D03*
D49*
X177323Y385433D02*
D03*
Y288976D02*
D03*
Y192520D02*
D03*
D50*
X137379Y327582D02*
D03*
X139902Y325800D02*
D03*
X146148Y326391D02*
D03*
X129134Y327478D02*
D03*
X145694Y329921D02*
D03*
X132677Y326391D02*
D03*
X33071Y319685D02*
D03*
X230709Y358268D02*
D03*
X230315Y363780D02*
D03*
X146640Y381286D02*
D03*
X148425Y376772D02*
D03*
X162992Y353543D02*
D03*
X173044Y363386D02*
D03*
X138583Y364961D02*
D03*
X159449Y360236D02*
D03*
X152756Y358268D02*
D03*
X157087Y357341D02*
D03*
X147997Y353764D02*
D03*
X146040Y360653D02*
D03*
X148031Y350813D02*
D03*
X147637Y346850D02*
D03*
X145288Y348788D02*
D03*
X152905Y345031D02*
D03*
X151725Y341102D02*
D03*
X154745Y342498D02*
D03*
X147638Y343701D02*
D03*
X109842Y357086D02*
D03*
X108658Y354017D02*
D03*
X119882Y353592D02*
D03*
X143307Y360630D02*
D03*
X100394Y363780D02*
D03*
X93701Y363780D02*
D03*
X177067Y309449D02*
D03*
X220472Y309055D02*
D03*
X220079Y339488D02*
D03*
X175603Y344411D02*
D03*
X170089Y355706D02*
D03*
X178937Y351575D02*
D03*
X192913Y339370D02*
D03*
X201575Y363386D02*
D03*
X184646Y355906D02*
D03*
X216535Y363780D02*
D03*
X159055Y352350D02*
D03*
X199606Y353937D02*
D03*
X197638Y387795D02*
D03*
X185827Y384252D02*
D03*
X210795Y311417D02*
D03*
X263730Y341978D02*
D03*
X269488Y335039D02*
D03*
X212992Y348425D02*
D03*
X171260Y351181D02*
D03*
X127559Y344094D02*
D03*
X134646Y339075D02*
D03*
X37795Y324410D02*
D03*
X63189Y324397D02*
D03*
X48031Y320079D02*
D03*
X141732Y317178D02*
D03*
X145669Y319159D02*
D03*
X171260Y348031D02*
D03*
X155905Y331496D02*
D03*
X44882Y363780D02*
D03*
X53543D02*
D03*
X70866D02*
D03*
X62205D02*
D03*
X79527D02*
D03*
X87795D02*
D03*
X72047Y381496D02*
D03*
X81496D02*
D03*
X137379Y231125D02*
D03*
X139902Y229343D02*
D03*
X146148Y229934D02*
D03*
X129134Y231021D02*
D03*
X145694Y233465D02*
D03*
X132677Y229934D02*
D03*
X33071Y223228D02*
D03*
X230709Y261811D02*
D03*
X230315Y267323D02*
D03*
X146640Y284829D02*
D03*
X148425Y280315D02*
D03*
X162992Y257087D02*
D03*
X173044Y266929D02*
D03*
X138583Y268504D02*
D03*
X159449Y263780D02*
D03*
X152756Y261811D02*
D03*
X157087Y260884D02*
D03*
X147997Y257307D02*
D03*
X146040Y264196D02*
D03*
X148031Y254356D02*
D03*
X147637Y250394D02*
D03*
X145288Y252331D02*
D03*
X152905Y248575D02*
D03*
X151725Y244645D02*
D03*
X154745Y246042D02*
D03*
X147638Y247244D02*
D03*
X109842Y260630D02*
D03*
X108658Y257560D02*
D03*
X119882Y257136D02*
D03*
X143307Y264173D02*
D03*
X100394Y267323D02*
D03*
X93701Y267323D02*
D03*
X177067Y212992D02*
D03*
X220472Y212598D02*
D03*
X220079Y243032D02*
D03*
X175603Y247954D02*
D03*
X170089Y259250D02*
D03*
X178937Y255118D02*
D03*
X192913Y242913D02*
D03*
X201575Y266929D02*
D03*
X184646Y259449D02*
D03*
X216535Y267323D02*
D03*
X159055Y255893D02*
D03*
X199606Y257480D02*
D03*
X197638Y291339D02*
D03*
X185827Y287795D02*
D03*
X210795Y214961D02*
D03*
X263730Y245522D02*
D03*
X269488Y238583D02*
D03*
X212992Y251969D02*
D03*
X171260Y254724D02*
D03*
X127559Y247638D02*
D03*
X134646Y242618D02*
D03*
X37795Y227953D02*
D03*
X63189Y227940D02*
D03*
X48031Y223622D02*
D03*
X141732Y220722D02*
D03*
X145669Y222703D02*
D03*
X171260Y251575D02*
D03*
X155905Y235039D02*
D03*
X44882Y267323D02*
D03*
X53543D02*
D03*
X70866D02*
D03*
X62205D02*
D03*
X79527D02*
D03*
X87795D02*
D03*
X72047Y285039D02*
D03*
X81496D02*
D03*
X298647Y88484D02*
D03*
X290969D02*
D03*
X284707Y88546D02*
D03*
X238344Y94816D02*
D03*
X224731Y94761D02*
D03*
X230684Y95761D02*
D03*
X201806Y93012D02*
D03*
X199350Y88749D02*
D03*
X153839Y95867D02*
D03*
X144460Y94965D02*
D03*
X206078Y93146D02*
D03*
X347564Y93307D02*
D03*
X341412D02*
D03*
X335261D02*
D03*
X372170D02*
D03*
X298351Y92388D02*
D03*
X292200D02*
D03*
X279897Y93307D02*
D03*
X218381Y94512D02*
D03*
X212229D02*
D03*
X193775Y92481D02*
D03*
X187623Y93146D02*
D03*
X181472Y93307D02*
D03*
X169168Y94273D02*
D03*
X162820Y95768D02*
D03*
X138319Y94194D02*
D03*
X132259Y93307D02*
D03*
X101501Y92457D02*
D03*
X95359D02*
D03*
X89198Y93307D02*
D03*
X76895D02*
D03*
X3076D02*
D03*
X52288D02*
D03*
X58440D02*
D03*
X353716D02*
D03*
X359867D02*
D03*
X366019D02*
D03*
X378322D02*
D03*
X384473D02*
D03*
X390625D02*
D03*
X329109D02*
D03*
X322958D02*
D03*
X316806D02*
D03*
X310655D02*
D03*
X304503D02*
D03*
X249139D02*
D03*
X255290D02*
D03*
X261442D02*
D03*
X267594D02*
D03*
X273745D02*
D03*
X286048D02*
D03*
X242987D02*
D03*
X175320D02*
D03*
X126107D02*
D03*
X119956D02*
D03*
X113804D02*
D03*
X107653D02*
D03*
X64592D02*
D03*
X70743D02*
D03*
X83046D02*
D03*
X46137D02*
D03*
X39985D02*
D03*
X33834D02*
D03*
X27682D02*
D03*
X21531D02*
D03*
X15379D02*
D03*
X9227D02*
D03*
X298647Y60925D02*
D03*
X290969D02*
D03*
X284707Y60987D02*
D03*
X238344Y67257D02*
D03*
X224731Y67202D02*
D03*
X230684Y68202D02*
D03*
X201806Y65453D02*
D03*
X199350Y61190D02*
D03*
X153839Y68308D02*
D03*
X144460Y67406D02*
D03*
X206078Y65587D02*
D03*
X347564Y65748D02*
D03*
X341412D02*
D03*
X335261D02*
D03*
X372170D02*
D03*
X298351Y64829D02*
D03*
X292200D02*
D03*
X279897Y65748D02*
D03*
X218381Y66953D02*
D03*
X212229D02*
D03*
X193775Y64922D02*
D03*
X187623Y65587D02*
D03*
X181472Y65748D02*
D03*
X169168Y66714D02*
D03*
X162820Y68209D02*
D03*
X138319Y66634D02*
D03*
X132259Y65748D02*
D03*
X101501Y64898D02*
D03*
X95359D02*
D03*
X89198Y65748D02*
D03*
X76895D02*
D03*
X3076D02*
D03*
X52288D02*
D03*
X58440D02*
D03*
X353716D02*
D03*
X359867D02*
D03*
X366019D02*
D03*
X378322D02*
D03*
X384473D02*
D03*
X390625D02*
D03*
X329109D02*
D03*
X322958D02*
D03*
X316806D02*
D03*
X310655D02*
D03*
X304503D02*
D03*
X249139D02*
D03*
X255290D02*
D03*
X261442D02*
D03*
X267594D02*
D03*
X273745D02*
D03*
X286048D02*
D03*
X242987D02*
D03*
X175320D02*
D03*
X126107D02*
D03*
X119956D02*
D03*
X113804D02*
D03*
X107653D02*
D03*
X64592D02*
D03*
X70743D02*
D03*
X83046D02*
D03*
X46137D02*
D03*
X39985D02*
D03*
X33834D02*
D03*
X27682D02*
D03*
X21531D02*
D03*
X15379D02*
D03*
X9227D02*
D03*
X298647Y33366D02*
D03*
X290969D02*
D03*
X284707Y33428D02*
D03*
X238344Y39698D02*
D03*
X224731Y39643D02*
D03*
X230684Y40643D02*
D03*
X201806Y37894D02*
D03*
X199350Y33630D02*
D03*
X153839Y40749D02*
D03*
X144460Y39847D02*
D03*
X206078Y38028D02*
D03*
X347564Y38189D02*
D03*
X341412D02*
D03*
X335261D02*
D03*
X372170D02*
D03*
X298351Y37270D02*
D03*
X292200D02*
D03*
X279897Y38189D02*
D03*
X218381Y39394D02*
D03*
X212229D02*
D03*
X193775Y37363D02*
D03*
X187623Y38028D02*
D03*
X181472Y38189D02*
D03*
X169168Y39155D02*
D03*
X162820Y40650D02*
D03*
X138319Y39075D02*
D03*
X132259Y38189D02*
D03*
X101501Y37339D02*
D03*
X95359D02*
D03*
X89198Y38189D02*
D03*
X76895D02*
D03*
X3076D02*
D03*
X52288D02*
D03*
X58440D02*
D03*
X353716D02*
D03*
X359867D02*
D03*
X366019D02*
D03*
X378322D02*
D03*
X384473D02*
D03*
X390625D02*
D03*
X329109D02*
D03*
X322958D02*
D03*
X316806D02*
D03*
X310655D02*
D03*
X304503D02*
D03*
X249139D02*
D03*
X255290D02*
D03*
X261442D02*
D03*
X267594D02*
D03*
X273745D02*
D03*
X286048D02*
D03*
X242987D02*
D03*
X175320D02*
D03*
X126107D02*
D03*
X119956D02*
D03*
X113804D02*
D03*
X107653D02*
D03*
X64592D02*
D03*
X70743D02*
D03*
X83046D02*
D03*
X46137D02*
D03*
X39985D02*
D03*
X33834D02*
D03*
X27682D02*
D03*
X21531D02*
D03*
X15379D02*
D03*
X9227D02*
D03*
X298647Y6594D02*
D03*
X290969D02*
D03*
X284707Y6656D02*
D03*
X238344Y12926D02*
D03*
X224731Y12871D02*
D03*
X230684Y13871D02*
D03*
X201806Y11123D02*
D03*
X199350Y6859D02*
D03*
X153839Y13977D02*
D03*
X144460Y13075D02*
D03*
X206078Y11256D02*
D03*
X347564Y11417D02*
D03*
X341412D02*
D03*
X335261D02*
D03*
X372170D02*
D03*
X298351Y10498D02*
D03*
X292200D02*
D03*
X279897Y11417D02*
D03*
X218381Y12622D02*
D03*
X212229D02*
D03*
X193775Y10591D02*
D03*
X187623Y11256D02*
D03*
X181472Y11417D02*
D03*
X169168Y12383D02*
D03*
X162820Y13878D02*
D03*
X138319Y12304D02*
D03*
X132259Y11417D02*
D03*
X101501Y10567D02*
D03*
X95359D02*
D03*
X89198Y11417D02*
D03*
X76895D02*
D03*
X3076D02*
D03*
X52288D02*
D03*
X58440D02*
D03*
X353716D02*
D03*
X359867D02*
D03*
X366019D02*
D03*
X378322D02*
D03*
X384473D02*
D03*
X390625D02*
D03*
X329109D02*
D03*
X322958D02*
D03*
X316806D02*
D03*
X310655D02*
D03*
X304503D02*
D03*
X249139D02*
D03*
X255290D02*
D03*
X261442D02*
D03*
X267594D02*
D03*
X273745D02*
D03*
X286048D02*
D03*
X242987D02*
D03*
X175320D02*
D03*
X126107D02*
D03*
X119956D02*
D03*
X113804D02*
D03*
X107653D02*
D03*
X64592D02*
D03*
X70743D02*
D03*
X83046D02*
D03*
X46137D02*
D03*
X39985D02*
D03*
X33834D02*
D03*
X27682D02*
D03*
X21531D02*
D03*
X15379D02*
D03*
X9227D02*
D03*
X137379Y134669D02*
D03*
X139902Y132887D02*
D03*
X146148Y133477D02*
D03*
X129134Y134565D02*
D03*
X145694Y137008D02*
D03*
X132677Y133477D02*
D03*
X33071Y126772D02*
D03*
X230709Y165354D02*
D03*
X230315Y170866D02*
D03*
X146640Y188373D02*
D03*
X148425Y183858D02*
D03*
X162992Y160630D02*
D03*
X173044Y170473D02*
D03*
X138583Y172047D02*
D03*
X159449Y167323D02*
D03*
X152756Y165354D02*
D03*
X157087Y164428D02*
D03*
X147997Y160851D02*
D03*
X146040Y167739D02*
D03*
X148031Y157899D02*
D03*
X147637Y153937D02*
D03*
X145288Y155875D02*
D03*
X152905Y152118D02*
D03*
X151725Y148189D02*
D03*
X154745Y149585D02*
D03*
X147638Y150787D02*
D03*
X109842Y164173D02*
D03*
X108658Y161104D02*
D03*
X119882Y160679D02*
D03*
X143307Y167717D02*
D03*
X100394Y170866D02*
D03*
X93701Y170866D02*
D03*
X177067Y116535D02*
D03*
X220472Y116142D02*
D03*
X220079Y146575D02*
D03*
X175603Y151497D02*
D03*
X170089Y162793D02*
D03*
X178937Y158661D02*
D03*
X192913Y146457D02*
D03*
X201575Y170473D02*
D03*
X184646Y162992D02*
D03*
X216535Y170866D02*
D03*
X159055Y159436D02*
D03*
X199606Y161024D02*
D03*
X197638Y194882D02*
D03*
X185827Y191339D02*
D03*
X210795Y118504D02*
D03*
X263730Y149065D02*
D03*
X269488Y142126D02*
D03*
X212992Y155512D02*
D03*
X171260Y158268D02*
D03*
X127559Y151181D02*
D03*
X134646Y146161D02*
D03*
X37795Y131496D02*
D03*
X63189Y131483D02*
D03*
X48031Y127165D02*
D03*
X141732Y124265D02*
D03*
X145669Y126246D02*
D03*
X171260Y155118D02*
D03*
X155905Y138583D02*
D03*
X44882Y170866D02*
D03*
X53543D02*
D03*
X70866D02*
D03*
X62205D02*
D03*
X79527D02*
D03*
X87795D02*
D03*
X72047Y188583D02*
D03*
X81496D02*
D03*
D51*
X154331Y363780D02*
D03*
X206932Y346263D02*
D03*
X188583Y311811D02*
D03*
X154331Y267323D02*
D03*
X206932Y249807D02*
D03*
X188583Y215354D02*
D03*
X154331Y170866D02*
D03*
X206932Y153350D02*
D03*
X188583Y118898D02*
D03*
D52*
X240157Y386614D02*
D03*
X236417Y377953D02*
D03*
X243898D02*
D03*
X207480Y361024D02*
D03*
X211220Y369685D02*
D03*
X203740D02*
D03*
X240157Y290158D02*
D03*
X236417Y281496D02*
D03*
X243898D02*
D03*
X207480Y264567D02*
D03*
X211220Y273228D02*
D03*
X203740D02*
D03*
X240157Y193701D02*
D03*
X236417Y185039D02*
D03*
X243898D02*
D03*
X207480Y168110D02*
D03*
X211220Y176772D02*
D03*
X203740D02*
D03*
D53*
X182776Y309449D02*
D03*
X177067D02*
D03*
X182776Y212992D02*
D03*
X177067D02*
D03*
X182776Y116535D02*
D03*
X177067D02*
D03*
D54*
X212992Y348327D02*
D03*
Y343012D02*
D03*
Y251870D02*
D03*
Y246555D02*
D03*
Y155413D02*
D03*
Y150099D02*
D03*
D55*
X263583Y335039D02*
D03*
X269488D02*
D03*
X263583Y238583D02*
D03*
X269488D02*
D03*
X263583Y142126D02*
D03*
X269488D02*
D03*
D56*
X206890Y312205D02*
D03*
X197835D02*
D03*
X188779D02*
D03*
X206890Y215748D02*
D03*
X197835D02*
D03*
X188779D02*
D03*
X206890Y119291D02*
D03*
X197835D02*
D03*
X188779D02*
D03*
D57*
X197835Y335433D02*
D03*
Y238976D02*
D03*
Y142520D02*
D03*
M02*
