G04*
G04 #@! TF.GenerationSoftware,Altium Limited,Altium Designer,20.1.14 (287)*
G04*
G04 Layer_Color=32896*
%FSLAX25Y25*%
%MOIN*%
G70*
G04*
G04 #@! TF.SameCoordinates,DA88C76E-B398-4153-8C2D-C889442453F1*
G04*
G04*
G04 #@! TF.FilePolarity,Positive*
G04*
G01*
G75*
%ADD58C,0.00669*%
%ADD59C,0.00787*%
%ADD60C,0.01378*%
%ADD61C,0.00984*%
%ADD62C,0.00630*%
%ADD63C,0.00591*%
D58*
X339896Y205709D02*
X343175D01*
X323819Y207349D02*
Y204069D01*
X322179Y205709D02*
X325459D01*
X324803Y228018D02*
Y224738D01*
X323163Y226378D02*
X326443D01*
X339896Y254921D02*
X343175D01*
X323819Y256561D02*
Y253281D01*
X322179Y254921D02*
X325459D01*
X324803Y277230D02*
Y273951D01*
X323163Y275590D02*
X326443D01*
X339896Y304134D02*
X343175D01*
X323819Y305774D02*
Y302494D01*
X322179Y304134D02*
X325459D01*
X324803Y326443D02*
Y323163D01*
X323163Y324803D02*
X326443D01*
X339896Y353346D02*
X343175D01*
X323819Y354986D02*
Y351707D01*
X322179Y353346D02*
X325459D01*
X324803Y375656D02*
Y372376D01*
X323163Y374016D02*
X326443D01*
X353346Y374671D02*
Y371392D01*
X354986Y390748D02*
X351707D01*
X353346Y392388D02*
Y389108D01*
X375656Y389764D02*
X372376D01*
X374016Y391404D02*
Y388124D01*
X353346Y345144D02*
Y341864D01*
X354986Y361221D02*
X351707D01*
X353346Y362860D02*
Y359581D01*
X375656Y360236D02*
X372376D01*
X374016Y361876D02*
Y358596D01*
X353346Y317585D02*
Y314305D01*
X354986Y333661D02*
X351707D01*
X353346Y335301D02*
Y332021D01*
X375656Y332677D02*
X372376D01*
X374016Y334317D02*
Y331037D01*
X353346Y290026D02*
Y286746D01*
X354986Y306102D02*
X351707D01*
X353346Y307742D02*
Y304463D01*
X375656Y305118D02*
X372376D01*
X374016Y306758D02*
Y303478D01*
X353346Y262467D02*
Y259187D01*
X354986Y278543D02*
X351707D01*
X353346Y280183D02*
Y276903D01*
X375656Y277559D02*
X372376D01*
X374016Y279199D02*
Y275919D01*
X353346Y234908D02*
Y231628D01*
X354986Y250984D02*
X351707D01*
X353346Y252624D02*
Y249344D01*
X375656Y250000D02*
X372376D01*
X374016Y251640D02*
Y248360D01*
X353346Y207349D02*
Y204069D01*
X354986Y223425D02*
X351707D01*
X353346Y225065D02*
Y221785D01*
X375656Y222441D02*
X372376D01*
X374016Y224081D02*
Y220801D01*
D59*
X342382Y245083D02*
Y220083D01*
Y245083D02*
X322972D01*
Y220083D01*
X342382D02*
X322972D01*
X342382Y294296D02*
Y269296D01*
Y294296D02*
X322972D01*
Y269296D01*
X342382D02*
X322972D01*
X342382Y343509D02*
Y318509D01*
Y343509D02*
X322972D01*
Y318509D01*
X342382D02*
X322972D01*
X342382Y392721D02*
Y367721D01*
Y392721D02*
X322972D01*
Y367721D01*
X342382D02*
X322972D01*
X392721Y372185D02*
X367721D01*
X392721D02*
Y391595D01*
X367721D01*
Y372185D02*
Y391595D01*
X392721Y342657D02*
X367721D01*
X392721D02*
Y362067D01*
X367721D01*
Y342657D02*
Y362067D01*
X392721Y315098D02*
X367721D01*
X392721D02*
Y334508D01*
X367721D01*
Y315098D02*
Y334508D01*
X392721Y287539D02*
X367721D01*
X392721D02*
Y306949D01*
X367721D01*
Y287539D02*
Y306949D01*
X392721Y259980D02*
X367721D01*
X392721D02*
Y279390D01*
X367721D01*
Y259980D02*
Y279390D01*
X392721Y232421D02*
X367721D01*
X392721D02*
Y251831D01*
X367721D01*
Y232421D02*
Y251831D01*
X392721Y204862D02*
X367721D01*
X392721D02*
Y224272D01*
X367721D01*
Y204862D02*
Y224272D01*
X234252Y385039D02*
X237402D01*
X234252Y381102D02*
Y385039D01*
X242913D02*
X246063D01*
Y381102D02*
Y385039D01*
X187401Y378346D02*
Y381496D01*
Y378346D02*
X191339D01*
X187401Y387008D02*
Y390158D01*
X191339D01*
X183661Y359685D02*
X186870D01*
X183661Y357087D02*
Y359685D01*
Y348189D02*
X186870D01*
X183661D02*
Y350787D01*
X210236Y362598D02*
X213386D01*
Y366535D01*
X201575Y362598D02*
X204724D01*
X201575D02*
Y366535D01*
X265945Y333760D02*
X267126D01*
X265945Y336319D02*
X267126D01*
X184646Y318701D02*
X211024D01*
X184646Y328937D02*
X211024D01*
Y318701D02*
Y328937D01*
X184646Y318701D02*
Y328937D01*
X250984Y315433D02*
Y335433D01*
X225394D02*
X225394Y315433D01*
X250984D01*
Y335433D02*
X250984Y353543D01*
X225394Y335433D02*
Y353543D01*
X250984D01*
X234252Y288583D02*
X237402D01*
X234252Y284646D02*
Y288583D01*
X242913D02*
X246063D01*
Y284646D02*
Y288583D01*
X187401Y281890D02*
Y285039D01*
Y281890D02*
X191339D01*
X187401Y290551D02*
Y293701D01*
X191339D01*
X183661Y263228D02*
X186870D01*
X183661Y260630D02*
Y263228D01*
Y251732D02*
X186870D01*
X183661D02*
Y254331D01*
X210236Y266142D02*
X213386D01*
Y270079D01*
X201575Y266142D02*
X204724D01*
X201575D02*
Y270079D01*
X265945Y237303D02*
X267126D01*
X265945Y239862D02*
X267126D01*
X184646Y222244D02*
X211024D01*
X184646Y232480D02*
X211024D01*
Y222244D02*
Y232480D01*
X184646Y222244D02*
Y232480D01*
X250984Y218976D02*
Y238976D01*
X225394D02*
X225394Y218976D01*
X250984D01*
Y238976D02*
X250984Y257087D01*
X225394Y238976D02*
Y257087D01*
X250984D01*
X234252Y192126D02*
X237402D01*
X234252Y188189D02*
Y192126D01*
X242913D02*
X246063D01*
Y188189D02*
Y192126D01*
X187401Y185433D02*
Y188583D01*
Y185433D02*
X191339D01*
X187401Y194095D02*
Y197244D01*
X191339D01*
X183661Y166772D02*
X186870D01*
X183661Y164173D02*
Y166772D01*
Y155276D02*
X186870D01*
X183661D02*
Y157874D01*
X210236Y169685D02*
X213386D01*
Y173622D01*
X201575Y169685D02*
X204724D01*
X201575D02*
Y173622D01*
X265945Y140847D02*
X267126D01*
X265945Y143405D02*
X267126D01*
X184646Y125787D02*
X211024D01*
X184646Y136024D02*
X211024D01*
Y125787D02*
Y136024D01*
X184646Y125787D02*
Y136024D01*
X250984Y122520D02*
Y142520D01*
X225394D02*
X225394Y122520D01*
X250984D01*
Y142520D02*
X250984Y160630D01*
X225394Y142520D02*
Y160630D01*
X250984D01*
D60*
X257677Y356299D02*
X257133Y357048D01*
X256253Y356762D01*
Y355836D01*
X257133Y355550D01*
X257677Y356299D01*
Y259842D02*
X257133Y260591D01*
X256253Y260305D01*
Y259380D01*
X257133Y259094D01*
X257677Y259842D01*
Y163386D02*
X257133Y164135D01*
X256253Y163849D01*
Y162923D01*
X257133Y162637D01*
X257677Y163386D01*
D61*
X320118Y232283D02*
X320856Y231857D01*
Y232710D01*
X320118Y232283D01*
Y281496D02*
X320856Y281070D01*
Y281922D01*
X320118Y281496D01*
X320118Y330709D02*
X320856Y330282D01*
Y331135D01*
X320118Y330709D01*
X320118Y379921D02*
X320856Y379495D01*
Y380347D01*
X320118Y379921D01*
X379921Y394449D02*
X379495Y393711D01*
X380347D01*
X379921Y394449D01*
X379921Y364921D02*
X379495Y364183D01*
X380347D01*
X379921Y364921D01*
Y337362D02*
X379495Y336624D01*
X380347D01*
X379921Y337362D01*
X379921Y309803D02*
X379495Y309065D01*
X380347D01*
X379921Y309803D01*
Y282244D02*
X379495Y281506D01*
X380347D01*
X379921Y282244D01*
Y254685D02*
X379495Y253947D01*
X380347D01*
X379921Y254685D01*
X379921Y227126D02*
X379495Y226388D01*
X380347D01*
X379921Y227126D01*
X247736Y377953D02*
X246998Y378379D01*
Y377527D01*
X247736Y377953D01*
X194980Y391339D02*
X194242Y391765D01*
Y390912D01*
X194980Y391339D01*
X190650Y361417D02*
X189911Y361844D01*
Y360991D01*
X190650Y361417D01*
X200886Y369685D02*
X200148Y370111D01*
Y369259D01*
X200886Y369685D01*
X211516Y312205D02*
X210777Y312631D01*
Y311779D01*
X211516Y312205D01*
X247736Y281496D02*
X246998Y281922D01*
Y281070D01*
X247736Y281496D01*
X194980Y294882D02*
X194242Y295308D01*
Y294456D01*
X194980Y294882D01*
X190650Y264961D02*
X189911Y265387D01*
Y264534D01*
X190650Y264961D01*
X200886Y273228D02*
X200148Y273655D01*
Y272802D01*
X200886Y273228D01*
X211516Y215748D02*
X210777Y216174D01*
Y215322D01*
X211516Y215748D01*
X247736Y185039D02*
X246998Y185466D01*
Y184613D01*
X247736Y185039D01*
X194980Y198425D02*
X194242Y198851D01*
Y197999D01*
X194980Y198425D01*
X190650Y168504D02*
X189911Y168930D01*
Y168078D01*
X190650Y168504D01*
X200886Y176772D02*
X200148Y177198D01*
Y176346D01*
X200886Y176772D01*
X211516Y119291D02*
X210777Y119718D01*
Y118865D01*
X211516Y119291D01*
D62*
X344488Y246063D02*
Y202756D01*
X320866D01*
Y246063D02*
Y202756D01*
X344488Y246063D02*
X320866D01*
X344488Y295276D02*
Y251969D01*
X320866D01*
Y295276D02*
Y251969D01*
X344488Y295276D02*
X320866D01*
X344488Y344488D02*
Y301181D01*
X320866D01*
Y344488D02*
Y301181D01*
X344488Y344488D02*
X320866D01*
X344488Y393701D02*
Y350394D01*
X320866D01*
Y393701D02*
Y350394D01*
X344488Y393701D02*
X320866D01*
X393701Y370079D02*
X350394D01*
Y393701D01*
X393701D02*
X350394D01*
X393701Y370079D02*
Y393701D01*
X393701Y340551D02*
X350394D01*
Y364173D01*
X393701D02*
X350394D01*
X393701Y340551D02*
Y364173D01*
Y312992D02*
X350394D01*
Y336614D01*
X393701D02*
X350394D01*
X393701Y312992D02*
Y336614D01*
X393701Y285433D02*
X350394D01*
Y309055D01*
X393701D02*
X350394D01*
X393701Y285433D02*
Y309055D01*
Y257874D02*
X350394D01*
Y281496D01*
X393701D02*
X350394D01*
X393701Y257874D02*
Y281496D01*
Y230315D02*
X350394D01*
Y253937D01*
X393701D02*
X350394D01*
X393701Y230315D02*
Y253937D01*
X393701Y202756D02*
X350394D01*
Y226378D01*
X393701D02*
X350394D01*
X393701Y202756D02*
Y226378D01*
X-0Y305118D02*
Y391732D01*
X314961D01*
Y305118D02*
Y391732D01*
X-0Y305118D02*
X314961D01*
X-0Y208662D02*
Y295276D01*
X314961D01*
Y208662D02*
Y295276D01*
X-0Y208662D02*
X314961D01*
X393693Y82642D02*
Y102327D01*
X236213Y82642D02*
X393693D01*
X-8Y102327D02*
X393693D01*
X-8Y82642D02*
X152551D01*
X-8D02*
Y102327D01*
X393693Y55083D02*
Y74768D01*
X236213Y55083D02*
X393693D01*
X-8Y74768D02*
X393693D01*
X-8Y55083D02*
X152551D01*
X-8D02*
Y74768D01*
X393693Y27524D02*
Y47209D01*
X236213Y27524D02*
X393693D01*
X-8Y47209D02*
X393693D01*
X-8Y27524D02*
X152551D01*
X-8D02*
Y47209D01*
X393693Y752D02*
Y20437D01*
X236213Y752D02*
X393693D01*
X-8Y20437D02*
X393693D01*
X-8Y752D02*
X152551D01*
X-8D02*
Y20437D01*
X-0Y112205D02*
Y198819D01*
X314961D01*
Y112205D02*
Y198819D01*
X-0Y112205D02*
X314961D01*
D63*
X247112Y364567D02*
Y367716D01*
X245537D01*
X245012Y367191D01*
Y366142D01*
X245537Y365617D01*
X247112D01*
X246062D02*
X245012Y364567D01*
X242389D02*
Y367716D01*
X243963Y366142D01*
X241864D01*
X238715Y364567D02*
X240814D01*
X238715Y366667D01*
Y367191D01*
X239240Y367716D01*
X240289D01*
X240814Y367191D01*
X199999Y388713D02*
X196851D01*
Y387139D01*
X197376Y386614D01*
X198425D01*
X198950Y387139D01*
Y388713D01*
Y387663D02*
X199999Y386614D01*
Y383990D02*
X196851D01*
X198425Y385564D01*
Y383465D01*
X199999Y382416D02*
Y381366D01*
Y381891D01*
X196851D01*
X197376Y382416D01*
X265616Y357874D02*
Y355250D01*
X265091Y354725D01*
X264042D01*
X263517Y355250D01*
Y357874D01*
X262467Y357349D02*
X261943Y357874D01*
X260893D01*
X260368Y357349D01*
Y356824D01*
X260893Y356299D01*
X261418D01*
X260893D01*
X260368Y355774D01*
Y355250D01*
X260893Y354725D01*
X261943D01*
X262467Y355250D01*
X220472Y308530D02*
X220997Y309055D01*
X222046D01*
X222571Y308530D01*
Y308005D01*
X222046Y307480D01*
X220997D01*
X220472Y306956D01*
Y306431D01*
X220997Y305906D01*
X222046D01*
X222571Y306431D01*
X219422Y309055D02*
Y305906D01*
X217848D01*
X217323Y306431D01*
Y306956D01*
X217848Y307480D01*
X219422D01*
X217848D01*
X217323Y308005D01*
Y308530D01*
X217848Y309055D01*
X219422D01*
X216274Y305906D02*
X215224D01*
X215749D01*
Y309055D01*
X216274Y308530D01*
X216403Y388190D02*
Y391338D01*
X214828D01*
X214304Y390813D01*
Y389764D01*
X214828Y389239D01*
X216403D01*
X215353D02*
X214304Y388190D01*
X211680D02*
Y391338D01*
X213254Y389764D01*
X211155D01*
X210106Y390813D02*
X209581Y391338D01*
X208531D01*
X208007Y390813D01*
Y388714D01*
X208531Y388190D01*
X209581D01*
X210106Y388714D01*
Y390813D01*
X233859Y358400D02*
X237007D01*
Y359975D01*
X236483Y360499D01*
X235433D01*
X234908Y359975D01*
Y358400D01*
Y359450D02*
X233859Y360499D01*
X236483Y361549D02*
X237007Y362074D01*
Y363123D01*
X236483Y363648D01*
X235958D01*
X235433Y363123D01*
Y362598D01*
Y363123D01*
X234908Y363648D01*
X234384D01*
X233859Y363123D01*
Y362074D01*
X234384Y361549D01*
X237007Y364698D02*
Y366797D01*
X236483D01*
X234384Y364698D01*
X233859D01*
X222308Y357481D02*
Y360629D01*
X220734D01*
X220209Y360105D01*
Y359055D01*
X220734Y358530D01*
X222308D01*
X221259D02*
X220209Y357481D01*
X219160Y360105D02*
X218635Y360629D01*
X217585D01*
X217061Y360105D01*
Y359580D01*
X217585Y359055D01*
X218110D01*
X217585D01*
X217061Y358530D01*
Y358006D01*
X217585Y357481D01*
X218635D01*
X219160Y358006D01*
X213912Y360629D02*
X216011D01*
Y359055D01*
X214962Y359580D01*
X214437D01*
X213912Y359055D01*
Y358006D01*
X214437Y357481D01*
X215486D01*
X216011Y358006D01*
X229789Y388190D02*
Y391338D01*
X228214D01*
X227690Y390813D01*
Y389764D01*
X228214Y389239D01*
X229789D01*
X228739D02*
X227690Y388190D01*
X226640Y390813D02*
X226115Y391338D01*
X225066D01*
X224541Y390813D01*
Y390289D01*
X225066Y389764D01*
X225590D01*
X225066D01*
X224541Y389239D01*
Y388714D01*
X225066Y388190D01*
X226115D01*
X226640Y388714D01*
X221917Y388190D02*
Y391338D01*
X223491Y389764D01*
X221392D01*
X85432Y385040D02*
Y388189D01*
X83858D01*
X83333Y387664D01*
Y386614D01*
X83858Y386089D01*
X85432D01*
X84382D02*
X83333Y385040D01*
X82283D02*
X81234D01*
X81758D01*
Y388189D01*
X82283Y387664D01*
X79659Y388189D02*
X77560D01*
Y387664D01*
X79659Y385565D01*
Y385040D01*
X75195Y385434D02*
Y388582D01*
X73621D01*
X73097Y388057D01*
Y387008D01*
X73621Y386483D01*
X75195D01*
X74146D02*
X73097Y385434D01*
X72047D02*
X70997D01*
X71522D01*
Y388582D01*
X72047Y388057D01*
X69423D02*
X68898Y388582D01*
X67849D01*
X67324Y388057D01*
Y387533D01*
X67849Y387008D01*
X68374D01*
X67849D01*
X67324Y386483D01*
Y385958D01*
X67849Y385434D01*
X68898D01*
X69423Y385958D01*
X64828Y385434D02*
Y388582D01*
X63254D01*
X62729Y388057D01*
Y387008D01*
X63254Y386483D01*
X64828D01*
X63779D02*
X62729Y385434D01*
X61680D02*
X60630D01*
X61155D01*
Y388582D01*
X61680Y388057D01*
X59056Y385434D02*
X58006D01*
X58531D01*
Y388582D01*
X59056Y388057D01*
X54199Y385434D02*
Y388582D01*
X52624D01*
X52100Y388057D01*
Y387008D01*
X52624Y386483D01*
X54199D01*
X53149D02*
X52100Y385434D01*
X51050Y388582D02*
X48951D01*
Y388057D01*
X51050Y385958D01*
Y385434D01*
X269947Y321260D02*
Y324409D01*
X268372D01*
X267848Y323884D01*
Y322835D01*
X268372Y322310D01*
X269947D01*
X268897D02*
X267848Y321260D01*
X264699Y324409D02*
X266798D01*
Y322835D01*
X265749Y323359D01*
X265224D01*
X264699Y322835D01*
Y321785D01*
X265224Y321260D01*
X266273D01*
X266798Y321785D01*
X269553Y345670D02*
Y348818D01*
X267979D01*
X267454Y348294D01*
Y347244D01*
X267979Y346719D01*
X269553D01*
X268503D02*
X267454Y345670D01*
X264305D02*
X266404D01*
X264305Y347769D01*
Y348294D01*
X264830Y348818D01*
X265880D01*
X266404Y348294D01*
X255781Y379408D02*
X252632D01*
Y380982D01*
X253157Y381507D01*
X255256D01*
X255781Y380982D01*
Y379408D01*
X252632Y384131D02*
X255781D01*
X254206Y382557D01*
Y384656D01*
X193175Y377559D02*
Y374410D01*
X191601D01*
X191076Y374935D01*
Y377034D01*
X191601Y377559D01*
X193175D01*
X190026Y377034D02*
X189502Y377559D01*
X188452D01*
X187927Y377034D01*
Y376509D01*
X188452Y375984D01*
X188977D01*
X188452D01*
X187927Y375460D01*
Y374935D01*
X188452Y374410D01*
X189502D01*
X190026Y374935D01*
X200131Y366535D02*
Y363386D01*
X198556D01*
X198031Y363911D01*
Y366010D01*
X198556Y366535D01*
X200131D01*
X196982Y363386D02*
X195932D01*
X196457D01*
Y366535D01*
X196982Y366010D01*
X136879Y345341D02*
X137403Y345866D01*
X138453D01*
X138978Y345341D01*
Y343242D01*
X138453Y342717D01*
X137403D01*
X136879Y343242D01*
X135829Y342717D02*
X134779D01*
X135304D01*
Y345866D01*
X135829Y345341D01*
X133205Y342717D02*
X132156D01*
X132680D01*
Y345866D01*
X133205Y345341D01*
X273622Y336089D02*
X274147Y336614D01*
X275196D01*
X275721Y336089D01*
Y333990D01*
X275196Y333465D01*
X274147D01*
X273622Y333990D01*
X272572Y333465D02*
X271523D01*
X272048D01*
Y336614D01*
X272572Y336089D01*
X180446Y316141D02*
Y313517D01*
X179921Y312993D01*
X178871D01*
X178346Y313517D01*
Y316141D01*
X177297Y312993D02*
X176247D01*
X176772D01*
Y316141D01*
X177297Y315616D01*
X215222Y337402D02*
Y340551D01*
X213648D01*
X213123Y340026D01*
Y338976D01*
X213648Y338452D01*
X215222D01*
X214173D02*
X213123Y337402D01*
X210499D02*
Y340551D01*
X212074Y338976D01*
X209975D01*
X163647Y370867D02*
Y374015D01*
X162073D01*
X161548Y373491D01*
Y372441D01*
X162073Y371916D01*
X163647D01*
X162597D02*
X161548Y370867D01*
X158399D02*
X160498D01*
X158399Y372966D01*
Y373491D01*
X158924Y374015D01*
X159974D01*
X160498Y373491D01*
X155251Y374015D02*
X157350D01*
Y372441D01*
X156300Y372966D01*
X155775D01*
X155251Y372441D01*
Y371391D01*
X155775Y370867D01*
X156825D01*
X157350Y371391D01*
X187663Y364173D02*
Y361024D01*
X186089D01*
X185564Y361549D01*
Y363648D01*
X186089Y364173D01*
X187663D01*
X182415D02*
X184515D01*
Y362598D01*
X183465Y363123D01*
X182940D01*
X182415Y362598D01*
Y361549D01*
X182940Y361024D01*
X183990D01*
X184515Y361549D01*
X123490Y344357D02*
X124015Y344881D01*
X125065D01*
X125589Y344357D01*
Y342258D01*
X125065Y341733D01*
X124015D01*
X123490Y342258D01*
X122441Y341733D02*
X121391D01*
X121916D01*
Y344881D01*
X122441Y344357D01*
X119817D02*
X119292Y344881D01*
X118243D01*
X117718Y344357D01*
Y342258D01*
X118243Y341733D01*
X119292D01*
X119817Y342258D01*
Y344357D01*
X124766Y359695D02*
X125290Y360220D01*
X126340D01*
X126865Y359695D01*
Y357596D01*
X126340Y357071D01*
X125290D01*
X124766Y357596D01*
X123716D02*
X123191Y357071D01*
X122142D01*
X121617Y357596D01*
Y359695D01*
X122142Y360220D01*
X123191D01*
X123716Y359695D01*
Y359171D01*
X123191Y358646D01*
X121617D01*
X171785Y310498D02*
X172309Y311023D01*
X173359D01*
X173884Y310498D01*
Y308399D01*
X173359Y307875D01*
X172309D01*
X171785Y308399D01*
X170735Y310498D02*
X170210Y311023D01*
X169161D01*
X168636Y310498D01*
Y309974D01*
X169161Y309449D01*
X169685D01*
X169161D01*
X168636Y308924D01*
Y308399D01*
X169161Y307875D01*
X170210D01*
X170735Y308399D01*
X225472Y325102D02*
X225996Y324577D01*
Y323527D01*
X225472Y323003D01*
X223373D01*
X222848Y323527D01*
Y324577D01*
X223373Y325102D01*
X222848Y328250D02*
Y326151D01*
X224947Y328250D01*
X225472D01*
X225996Y327725D01*
Y326676D01*
X225472Y326151D01*
X116666Y359711D02*
X117191Y360236D01*
X118241D01*
X118765Y359711D01*
Y357612D01*
X118241Y357087D01*
X117191D01*
X116666Y357612D01*
X113518Y360236D02*
X114567Y359711D01*
X115617Y358662D01*
Y357612D01*
X115092Y357087D01*
X114043D01*
X113518Y357612D01*
Y358137D01*
X114043Y358662D01*
X115617D01*
X247112Y268111D02*
Y271259D01*
X245537D01*
X245012Y270735D01*
Y269685D01*
X245537Y269160D01*
X247112D01*
X246062D02*
X245012Y268111D01*
X242389D02*
Y271259D01*
X243963Y269685D01*
X241864D01*
X238715Y268111D02*
X240814D01*
X238715Y270210D01*
Y270735D01*
X239240Y271259D01*
X240289D01*
X240814Y270735D01*
X199999Y292256D02*
X196851D01*
Y290682D01*
X197376Y290157D01*
X198425D01*
X198950Y290682D01*
Y292256D01*
Y291207D02*
X199999Y290157D01*
Y287533D02*
X196851D01*
X198425Y289107D01*
Y287008D01*
X199999Y285959D02*
Y284909D01*
Y285434D01*
X196851D01*
X197376Y285959D01*
X265616Y261417D02*
Y258793D01*
X265091Y258268D01*
X264042D01*
X263517Y258793D01*
Y261417D01*
X262467Y260892D02*
X261943Y261417D01*
X260893D01*
X260368Y260892D01*
Y260367D01*
X260893Y259843D01*
X261418D01*
X260893D01*
X260368Y259318D01*
Y258793D01*
X260893Y258268D01*
X261943D01*
X262467Y258793D01*
X220472Y212073D02*
X220997Y212598D01*
X222046D01*
X222571Y212073D01*
Y211548D01*
X222046Y211024D01*
X220997D01*
X220472Y210499D01*
Y209974D01*
X220997Y209449D01*
X222046D01*
X222571Y209974D01*
X219422Y212598D02*
Y209449D01*
X217848D01*
X217323Y209974D01*
Y210499D01*
X217848Y211024D01*
X219422D01*
X217848D01*
X217323Y211548D01*
Y212073D01*
X217848Y212598D01*
X219422D01*
X216274Y209449D02*
X215224D01*
X215749D01*
Y212598D01*
X216274Y212073D01*
X216403Y291733D02*
Y294881D01*
X214828D01*
X214304Y294357D01*
Y293307D01*
X214828Y292782D01*
X216403D01*
X215353D02*
X214304Y291733D01*
X211680D02*
Y294881D01*
X213254Y293307D01*
X211155D01*
X210106Y294357D02*
X209581Y294881D01*
X208531D01*
X208007Y294357D01*
Y292258D01*
X208531Y291733D01*
X209581D01*
X210106Y292258D01*
Y294357D01*
X233859Y261944D02*
X237007D01*
Y263518D01*
X236483Y264043D01*
X235433D01*
X234908Y263518D01*
Y261944D01*
Y262993D02*
X233859Y264043D01*
X236483Y265092D02*
X237007Y265617D01*
Y266667D01*
X236483Y267191D01*
X235958D01*
X235433Y266667D01*
Y266142D01*
Y266667D01*
X234908Y267191D01*
X234384D01*
X233859Y266667D01*
Y265617D01*
X234384Y265092D01*
X237007Y268241D02*
Y270340D01*
X236483D01*
X234384Y268241D01*
X233859D01*
X222308Y261024D02*
Y264173D01*
X220734D01*
X220209Y263648D01*
Y262598D01*
X220734Y262074D01*
X222308D01*
X221259D02*
X220209Y261024D01*
X219160Y263648D02*
X218635Y264173D01*
X217585D01*
X217061Y263648D01*
Y263123D01*
X217585Y262598D01*
X218110D01*
X217585D01*
X217061Y262074D01*
Y261549D01*
X217585Y261024D01*
X218635D01*
X219160Y261549D01*
X213912Y264173D02*
X216011D01*
Y262598D01*
X214962Y263123D01*
X214437D01*
X213912Y262598D01*
Y261549D01*
X214437Y261024D01*
X215486D01*
X216011Y261549D01*
X229789Y291733D02*
Y294881D01*
X228214D01*
X227690Y294357D01*
Y293307D01*
X228214Y292782D01*
X229789D01*
X228739D02*
X227690Y291733D01*
X226640Y294357D02*
X226115Y294881D01*
X225066D01*
X224541Y294357D01*
Y293832D01*
X225066Y293307D01*
X225590D01*
X225066D01*
X224541Y292782D01*
Y292258D01*
X225066Y291733D01*
X226115D01*
X226640Y292258D01*
X221917Y291733D02*
Y294881D01*
X223491Y293307D01*
X221392D01*
X85432Y288583D02*
Y291732D01*
X83858D01*
X83333Y291207D01*
Y290158D01*
X83858Y289633D01*
X85432D01*
X84382D02*
X83333Y288583D01*
X82283D02*
X81234D01*
X81758D01*
Y291732D01*
X82283Y291207D01*
X79659Y291732D02*
X77560D01*
Y291207D01*
X79659Y289108D01*
Y288583D01*
X75195Y288977D02*
Y292126D01*
X73621D01*
X73097Y291601D01*
Y290551D01*
X73621Y290026D01*
X75195D01*
X74146D02*
X73097Y288977D01*
X72047D02*
X70997D01*
X71522D01*
Y292126D01*
X72047Y291601D01*
X69423D02*
X68898Y292126D01*
X67849D01*
X67324Y291601D01*
Y291076D01*
X67849Y290551D01*
X68374D01*
X67849D01*
X67324Y290026D01*
Y289502D01*
X67849Y288977D01*
X68898D01*
X69423Y289502D01*
X64828Y288977D02*
Y292126D01*
X63254D01*
X62729Y291601D01*
Y290551D01*
X63254Y290026D01*
X64828D01*
X63779D02*
X62729Y288977D01*
X61680D02*
X60630D01*
X61155D01*
Y292126D01*
X61680Y291601D01*
X59056Y288977D02*
X58006D01*
X58531D01*
Y292126D01*
X59056Y291601D01*
X54199Y288977D02*
Y292126D01*
X52624D01*
X52100Y291601D01*
Y290551D01*
X52624Y290026D01*
X54199D01*
X53149D02*
X52100Y288977D01*
X51050Y292126D02*
X48951D01*
Y291601D01*
X51050Y289502D01*
Y288977D01*
X269947Y224804D02*
Y227952D01*
X268372D01*
X267848Y227428D01*
Y226378D01*
X268372Y225853D01*
X269947D01*
X268897D02*
X267848Y224804D01*
X264699Y227952D02*
X266798D01*
Y226378D01*
X265749Y226903D01*
X265224D01*
X264699Y226378D01*
Y225328D01*
X265224Y224804D01*
X266273D01*
X266798Y225328D01*
X269553Y249213D02*
Y252362D01*
X267979D01*
X267454Y251837D01*
Y250787D01*
X267979Y250263D01*
X269553D01*
X268503D02*
X267454Y249213D01*
X264305D02*
X266404D01*
X264305Y251312D01*
Y251837D01*
X264830Y252362D01*
X265880D01*
X266404Y251837D01*
X255781Y282951D02*
X252632D01*
Y284526D01*
X253157Y285050D01*
X255256D01*
X255781Y284526D01*
Y282951D01*
X252632Y287674D02*
X255781D01*
X254206Y286100D01*
Y288199D01*
X193175Y281102D02*
Y277953D01*
X191601D01*
X191076Y278478D01*
Y280577D01*
X191601Y281102D01*
X193175D01*
X190026Y280577D02*
X189502Y281102D01*
X188452D01*
X187927Y280577D01*
Y280052D01*
X188452Y279528D01*
X188977D01*
X188452D01*
X187927Y279003D01*
Y278478D01*
X188452Y277953D01*
X189502D01*
X190026Y278478D01*
X200131Y270078D02*
Y266930D01*
X198556D01*
X198031Y267454D01*
Y269553D01*
X198556Y270078D01*
X200131D01*
X196982Y266930D02*
X195932D01*
X196457D01*
Y270078D01*
X196982Y269553D01*
X136879Y248884D02*
X137403Y249409D01*
X138453D01*
X138978Y248884D01*
Y246785D01*
X138453Y246260D01*
X137403D01*
X136879Y246785D01*
X135829Y246260D02*
X134779D01*
X135304D01*
Y249409D01*
X135829Y248884D01*
X133205Y246260D02*
X132156D01*
X132680D01*
Y249409D01*
X133205Y248884D01*
X273622Y239632D02*
X274147Y240157D01*
X275196D01*
X275721Y239632D01*
Y237533D01*
X275196Y237008D01*
X274147D01*
X273622Y237533D01*
X272572Y237008D02*
X271523D01*
X272048D01*
Y240157D01*
X272572Y239632D01*
X180446Y219685D02*
Y217061D01*
X179921Y216536D01*
X178871D01*
X178346Y217061D01*
Y219685D01*
X177297Y216536D02*
X176247D01*
X176772D01*
Y219685D01*
X177297Y219160D01*
X215222Y240945D02*
Y244094D01*
X213648D01*
X213123Y243569D01*
Y242520D01*
X213648Y241995D01*
X215222D01*
X214173D02*
X213123Y240945D01*
X210499D02*
Y244094D01*
X212074Y242520D01*
X209975D01*
X163647Y274410D02*
Y277559D01*
X162073D01*
X161548Y277034D01*
Y275984D01*
X162073Y275460D01*
X163647D01*
X162597D02*
X161548Y274410D01*
X158399D02*
X160498D01*
X158399Y276509D01*
Y277034D01*
X158924Y277559D01*
X159974D01*
X160498Y277034D01*
X155251Y277559D02*
X157350D01*
Y275984D01*
X156300Y276509D01*
X155775D01*
X155251Y275984D01*
Y274935D01*
X155775Y274410D01*
X156825D01*
X157350Y274935D01*
X187663Y267716D02*
Y264567D01*
X186089D01*
X185564Y265092D01*
Y267191D01*
X186089Y267716D01*
X187663D01*
X182415D02*
X184515D01*
Y266142D01*
X183465Y266667D01*
X182940D01*
X182415Y266142D01*
Y265092D01*
X182940Y264567D01*
X183990D01*
X184515Y265092D01*
X123490Y247900D02*
X124015Y248425D01*
X125065D01*
X125589Y247900D01*
Y245801D01*
X125065Y245276D01*
X124015D01*
X123490Y245801D01*
X122441Y245276D02*
X121391D01*
X121916D01*
Y248425D01*
X122441Y247900D01*
X119817D02*
X119292Y248425D01*
X118243D01*
X117718Y247900D01*
Y245801D01*
X118243Y245276D01*
X119292D01*
X119817Y245801D01*
Y247900D01*
X124766Y263239D02*
X125290Y263763D01*
X126340D01*
X126865Y263239D01*
Y261139D01*
X126340Y260615D01*
X125290D01*
X124766Y261139D01*
X123716D02*
X123191Y260615D01*
X122142D01*
X121617Y261139D01*
Y263239D01*
X122142Y263763D01*
X123191D01*
X123716Y263239D01*
Y262714D01*
X123191Y262189D01*
X121617D01*
X171785Y214042D02*
X172309Y214566D01*
X173359D01*
X173884Y214042D01*
Y211943D01*
X173359Y211418D01*
X172309D01*
X171785Y211943D01*
X170735Y214042D02*
X170210Y214566D01*
X169161D01*
X168636Y214042D01*
Y213517D01*
X169161Y212992D01*
X169685D01*
X169161D01*
X168636Y212467D01*
Y211943D01*
X169161Y211418D01*
X170210D01*
X170735Y211943D01*
X225472Y228645D02*
X225996Y228120D01*
Y227071D01*
X225472Y226546D01*
X223373D01*
X222848Y227071D01*
Y228120D01*
X223373Y228645D01*
X222848Y231793D02*
Y229695D01*
X224947Y231793D01*
X225472D01*
X225996Y231269D01*
Y230219D01*
X225472Y229695D01*
X116666Y263254D02*
X117191Y263779D01*
X118241D01*
X118765Y263254D01*
Y261155D01*
X118241Y260630D01*
X117191D01*
X116666Y261155D01*
X113518Y263779D02*
X114567Y263254D01*
X115617Y262205D01*
Y261155D01*
X115092Y260630D01*
X114043D01*
X113518Y261155D01*
Y261680D01*
X114043Y262205D01*
X115617D01*
X247112Y171654D02*
Y174803D01*
X245537D01*
X245012Y174278D01*
Y173228D01*
X245537Y172704D01*
X247112D01*
X246062D02*
X245012Y171654D01*
X242389D02*
Y174803D01*
X243963Y173228D01*
X241864D01*
X238715Y171654D02*
X240814D01*
X238715Y173753D01*
Y174278D01*
X239240Y174803D01*
X240289D01*
X240814Y174278D01*
X199999Y195799D02*
X196851D01*
Y194225D01*
X197376Y193700D01*
X198425D01*
X198950Y194225D01*
Y195799D01*
Y194750D02*
X199999Y193700D01*
Y191077D02*
X196851D01*
X198425Y192651D01*
Y190552D01*
X199999Y189502D02*
Y188453D01*
Y188977D01*
X196851D01*
X197376Y189502D01*
X265616Y164960D02*
Y162336D01*
X265091Y161812D01*
X264042D01*
X263517Y162336D01*
Y164960D01*
X262467Y164435D02*
X261943Y164960D01*
X260893D01*
X260368Y164435D01*
Y163911D01*
X260893Y163386D01*
X261418D01*
X260893D01*
X260368Y162861D01*
Y162336D01*
X260893Y161812D01*
X261943D01*
X262467Y162336D01*
X220472Y115617D02*
X220997Y116141D01*
X222046D01*
X222571Y115617D01*
Y115092D01*
X222046Y114567D01*
X220997D01*
X220472Y114042D01*
Y113517D01*
X220997Y112993D01*
X222046D01*
X222571Y113517D01*
X219422Y116141D02*
Y112993D01*
X217848D01*
X217323Y113517D01*
Y114042D01*
X217848Y114567D01*
X219422D01*
X217848D01*
X217323Y115092D01*
Y115617D01*
X217848Y116141D01*
X219422D01*
X216274Y112993D02*
X215224D01*
X215749D01*
Y116141D01*
X216274Y115617D01*
X216403Y195276D02*
Y198425D01*
X214828D01*
X214304Y197900D01*
Y196850D01*
X214828Y196326D01*
X216403D01*
X215353D02*
X214304Y195276D01*
X211680D02*
Y198425D01*
X213254Y196850D01*
X211155D01*
X210106Y197900D02*
X209581Y198425D01*
X208531D01*
X208007Y197900D01*
Y195801D01*
X208531Y195276D01*
X209581D01*
X210106Y195801D01*
Y197900D01*
X233859Y165487D02*
X237007D01*
Y167061D01*
X236483Y167586D01*
X235433D01*
X234908Y167061D01*
Y165487D01*
Y166536D02*
X233859Y167586D01*
X236483Y168635D02*
X237007Y169160D01*
Y170210D01*
X236483Y170735D01*
X235958D01*
X235433Y170210D01*
Y169685D01*
Y170210D01*
X234908Y170735D01*
X234384D01*
X233859Y170210D01*
Y169160D01*
X234384Y168635D01*
X237007Y171784D02*
Y173883D01*
X236483D01*
X234384Y171784D01*
X233859D01*
X222308Y164567D02*
Y167716D01*
X220734D01*
X220209Y167191D01*
Y166142D01*
X220734Y165617D01*
X222308D01*
X221259D02*
X220209Y164567D01*
X219160Y167191D02*
X218635Y167716D01*
X217585D01*
X217061Y167191D01*
Y166666D01*
X217585Y166142D01*
X218110D01*
X217585D01*
X217061Y165617D01*
Y165092D01*
X217585Y164567D01*
X218635D01*
X219160Y165092D01*
X213912Y167716D02*
X216011D01*
Y166142D01*
X214962Y166666D01*
X214437D01*
X213912Y166142D01*
Y165092D01*
X214437Y164567D01*
X215486D01*
X216011Y165092D01*
X229789Y195276D02*
Y198425D01*
X228214D01*
X227690Y197900D01*
Y196850D01*
X228214Y196326D01*
X229789D01*
X228739D02*
X227690Y195276D01*
X226640Y197900D02*
X226115Y198425D01*
X225066D01*
X224541Y197900D01*
Y197375D01*
X225066Y196850D01*
X225590D01*
X225066D01*
X224541Y196326D01*
Y195801D01*
X225066Y195276D01*
X226115D01*
X226640Y195801D01*
X221917Y195276D02*
Y198425D01*
X223491Y196850D01*
X221392D01*
X85432Y192127D02*
Y195275D01*
X83858D01*
X83333Y194750D01*
Y193701D01*
X83858Y193176D01*
X85432D01*
X84382D02*
X83333Y192127D01*
X82283D02*
X81234D01*
X81758D01*
Y195275D01*
X82283Y194750D01*
X79659Y195275D02*
X77560D01*
Y194750D01*
X79659Y192651D01*
Y192127D01*
X75195Y192520D02*
Y195669D01*
X73621D01*
X73097Y195144D01*
Y194095D01*
X73621Y193570D01*
X75195D01*
X74146D02*
X73097Y192520D01*
X72047D02*
X70997D01*
X71522D01*
Y195669D01*
X72047Y195144D01*
X69423D02*
X68898Y195669D01*
X67849D01*
X67324Y195144D01*
Y194619D01*
X67849Y194095D01*
X68374D01*
X67849D01*
X67324Y193570D01*
Y193045D01*
X67849Y192520D01*
X68898D01*
X69423Y193045D01*
X64828Y192520D02*
Y195669D01*
X63254D01*
X62729Y195144D01*
Y194095D01*
X63254Y193570D01*
X64828D01*
X63779D02*
X62729Y192520D01*
X61680D02*
X60630D01*
X61155D01*
Y195669D01*
X61680Y195144D01*
X59056Y192520D02*
X58006D01*
X58531D01*
Y195669D01*
X59056Y195144D01*
X54199Y192520D02*
Y195669D01*
X52624D01*
X52100Y195144D01*
Y194095D01*
X52624Y193570D01*
X54199D01*
X53149D02*
X52100Y192520D01*
X51050Y195669D02*
X48951D01*
Y195144D01*
X51050Y193045D01*
Y192520D01*
X269947Y128347D02*
Y131496D01*
X268372D01*
X267848Y130971D01*
Y129921D01*
X268372Y129396D01*
X269947D01*
X268897D02*
X267848Y128347D01*
X264699Y131496D02*
X266798D01*
Y129921D01*
X265749Y130446D01*
X265224D01*
X264699Y129921D01*
Y128872D01*
X265224Y128347D01*
X266273D01*
X266798Y128872D01*
X269553Y152756D02*
Y155905D01*
X267979D01*
X267454Y155380D01*
Y154331D01*
X267979Y153806D01*
X269553D01*
X268503D02*
X267454Y152756D01*
X264305D02*
X266404D01*
X264305Y154856D01*
Y155380D01*
X264830Y155905D01*
X265880D01*
X266404Y155380D01*
X255781Y186495D02*
X252632D01*
Y188069D01*
X253157Y188594D01*
X255256D01*
X255781Y188069D01*
Y186495D01*
X252632Y191218D02*
X255781D01*
X254206Y189643D01*
Y191742D01*
X193175Y184645D02*
Y181497D01*
X191601D01*
X191076Y182021D01*
Y184120D01*
X191601Y184645D01*
X193175D01*
X190026Y184120D02*
X189502Y184645D01*
X188452D01*
X187927Y184120D01*
Y183596D01*
X188452Y183071D01*
X188977D01*
X188452D01*
X187927Y182546D01*
Y182021D01*
X188452Y181497D01*
X189502D01*
X190026Y182021D01*
X200131Y173622D02*
Y170473D01*
X198556D01*
X198031Y170998D01*
Y173097D01*
X198556Y173622D01*
X200131D01*
X196982Y170473D02*
X195932D01*
X196457D01*
Y173622D01*
X196982Y173097D01*
X136879Y152427D02*
X137403Y152952D01*
X138453D01*
X138978Y152427D01*
Y150329D01*
X138453Y149804D01*
X137403D01*
X136879Y150329D01*
X135829Y149804D02*
X134779D01*
X135304D01*
Y152952D01*
X135829Y152427D01*
X133205Y149804D02*
X132156D01*
X132680D01*
Y152952D01*
X133205Y152427D01*
X273622Y143175D02*
X274147Y143700D01*
X275196D01*
X275721Y143175D01*
Y141077D01*
X275196Y140552D01*
X274147D01*
X273622Y141077D01*
X272572Y140552D02*
X271523D01*
X272048D01*
Y143700D01*
X272572Y143175D01*
X180446Y123228D02*
Y120604D01*
X179921Y120079D01*
X178871D01*
X178346Y120604D01*
Y123228D01*
X177297Y120079D02*
X176247D01*
X176772D01*
Y123228D01*
X177297Y122703D01*
X215222Y144489D02*
Y147637D01*
X213648D01*
X213123Y147113D01*
Y146063D01*
X213648Y145538D01*
X215222D01*
X214173D02*
X213123Y144489D01*
X210499D02*
Y147637D01*
X212074Y146063D01*
X209975D01*
X163647Y177953D02*
Y181102D01*
X162073D01*
X161548Y180577D01*
Y179528D01*
X162073Y179003D01*
X163647D01*
X162597D02*
X161548Y177953D01*
X158399D02*
X160498D01*
X158399Y180052D01*
Y180577D01*
X158924Y181102D01*
X159974D01*
X160498Y180577D01*
X155251Y181102D02*
X157350D01*
Y179528D01*
X156300Y180052D01*
X155775D01*
X155251Y179528D01*
Y178478D01*
X155775Y177953D01*
X156825D01*
X157350Y178478D01*
X187663Y171259D02*
Y168111D01*
X186089D01*
X185564Y168635D01*
Y170735D01*
X186089Y171259D01*
X187663D01*
X182415D02*
X184515D01*
Y169685D01*
X183465Y170210D01*
X182940D01*
X182415Y169685D01*
Y168635D01*
X182940Y168111D01*
X183990D01*
X184515Y168635D01*
X123490Y151443D02*
X124015Y151968D01*
X125065D01*
X125589Y151443D01*
Y149344D01*
X125065Y148819D01*
X124015D01*
X123490Y149344D01*
X122441Y148819D02*
X121391D01*
X121916D01*
Y151968D01*
X122441Y151443D01*
X119817D02*
X119292Y151968D01*
X118243D01*
X117718Y151443D01*
Y149344D01*
X118243Y148819D01*
X119292D01*
X119817Y149344D01*
Y151443D01*
X124766Y166782D02*
X125290Y167307D01*
X126340D01*
X126865Y166782D01*
Y164683D01*
X126340Y164158D01*
X125290D01*
X124766Y164683D01*
X123716D02*
X123191Y164158D01*
X122142D01*
X121617Y164683D01*
Y166782D01*
X122142Y167307D01*
X123191D01*
X123716Y166782D01*
Y166257D01*
X123191Y165732D01*
X121617D01*
X171785Y117585D02*
X172309Y118110D01*
X173359D01*
X173884Y117585D01*
Y115486D01*
X173359Y114961D01*
X172309D01*
X171785Y115486D01*
X170735Y117585D02*
X170210Y118110D01*
X169161D01*
X168636Y117585D01*
Y117060D01*
X169161Y116535D01*
X169685D01*
X169161D01*
X168636Y116011D01*
Y115486D01*
X169161Y114961D01*
X170210D01*
X170735Y115486D01*
X225472Y132188D02*
X225996Y131664D01*
Y130614D01*
X225472Y130089D01*
X223373D01*
X222848Y130614D01*
Y131664D01*
X223373Y132188D01*
X222848Y135337D02*
Y133238D01*
X224947Y135337D01*
X225472D01*
X225996Y134812D01*
Y133763D01*
X225472Y133238D01*
X116666Y166798D02*
X117191Y167322D01*
X118241D01*
X118765Y166798D01*
Y164699D01*
X118241Y164174D01*
X117191D01*
X116666Y164699D01*
X113518Y167322D02*
X114567Y166798D01*
X115617Y165748D01*
Y164699D01*
X115092Y164174D01*
X114043D01*
X113518Y164699D01*
Y165223D01*
X114043Y165748D01*
X115617D01*
M02*
